<?xml version="1.0" encoding="utf-8" standalone="no"?>
<!DOCTYPE svg PUBLIC "-//W3C//DTD SVG 1.1//EN"
  "http://www.w3.org/Graphics/SVG/1.1/DTD/svg11.dtd">
<svg xmlns:xlink="http://www.w3.org/1999/xlink" width="684pt" height="379.464125pt" viewBox="0 0 684 379.464125" xmlns="http://www.w3.org/2000/svg" version="1.1">
 <metadata>
  <rdf:RDF xmlns:dc="http://purl.org/dc/elements/1.1/" xmlns:cc="http://creativecommons.org/ns#" xmlns:rdf="http://www.w3.org/1999/02/22-rdf-syntax-ns#">
   <cc:Work>
    <dc:type rdf:resource="http://purl.org/dc/dcmitype/StillImage"/>
    <dc:date>2026-04-11T15:56:36.778185</dc:date>
    <dc:format>image/svg+xml</dc:format>
    <dc:creator>
     <cc:Agent>
      <dc:title>Matplotlib v3.10.8, https://matplotlib.org/</dc:title>
     </cc:Agent>
    </dc:creator>
   </cc:Work>
  </rdf:RDF>
 </metadata>
 <defs>
  <style type="text/css">*{stroke-linejoin: round; stroke-linecap: butt}</style>
 </defs>
 <g id="figure_1">
  <g id="patch_1">
   <path d="M 0 379.464125 
L 684 379.464125 
L 684 0 
L 0 0 
z
" style="fill: #fafafa"/>
  </g>
  <g id="axes_1">
   <g id="patch_2">
    <path d="M 31.114286 164.364125 
L 150.685714 164.364125 
L 150.685714 81.204125 
L 31.114286 81.204125 
z
" clip-path="url(#p67914d447d)" style="fill: #2980b9; fill-opacity: 0.133333; stroke: #2980b9; stroke-width: 2; stroke-linejoin: miter"/>
   </g>
   <g id="patch_3">
    <path d="M 174.6 164.364125 
L 236.777143 164.364125 
L 236.777143 81.204125 
L 174.6 81.204125 
z
" clip-path="url(#p67914d447d)" style="fill: #1a5276; fill-opacity: 0.133333; stroke: #1a5276; stroke-width: 1.5; stroke-linejoin: miter"/>
   </g>
   <g id="patch_4">
    <path d="M 246.342857 164.364125 
L 308.52 164.364125 
L 308.52 81.204125 
L 246.342857 81.204125 
z
" clip-path="url(#p67914d447d)" style="fill: #1a5276; fill-opacity: 0.133333; stroke: #1a5276; stroke-width: 1.5; stroke-linejoin: miter"/>
   </g>
   <g id="patch_5">
    <path d="M 318.085714 164.364125 
L 380.262857 164.364125 
L 380.262857 81.204125 
L 318.085714 81.204125 
z
" clip-path="url(#p67914d447d)" style="fill: #1a5276; fill-opacity: 0.133333; stroke: #1a5276; stroke-width: 1.5; stroke-linejoin: miter"/>
   </g>
   <g id="patch_6">
    <path d="M 31.114286 330.684125 
L 150.685714 330.684125 
L 150.685714 247.524125 
L 31.114286 247.524125 
z
" clip-path="url(#p67914d447d)" style="fill: #27ae60; fill-opacity: 0.133333; stroke: #27ae60; stroke-width: 2; stroke-linejoin: miter"/>
   </g>
   <g id="patch_7">
    <path d="M 174.6 330.684125 
L 236.777143 330.684125 
L 236.777143 247.524125 
L 174.6 247.524125 
z
" clip-path="url(#p67914d447d)" style="fill: #1a5276; fill-opacity: 0.133333; stroke: #1a5276; stroke-width: 1.5; stroke-linejoin: miter"/>
   </g>
   <g id="patch_8">
    <path d="M 246.342857 330.684125 
L 308.52 330.684125 
L 308.52 247.524125 
L 246.342857 247.524125 
z
" clip-path="url(#p67914d447d)" style="fill: #1a5276; fill-opacity: 0.133333; stroke: #1a5276; stroke-width: 1.5; stroke-linejoin: miter"/>
   </g>
   <g id="patch_9">
    <path d="M 318.085714 330.684125 
L 380.262857 330.684125 
L 380.262857 247.524125 
L 318.085714 247.524125 
z
" clip-path="url(#p67914d447d)" style="fill: #1a5276; fill-opacity: 0.133333; stroke: #1a5276; stroke-width: 1.5; stroke-linejoin: miter"/>
   </g>
   <g id="patch_10">
    <path d="M 437.657143 230.892125 
C 445.267714 230.892125 452.567601 228.263446 457.949087 223.585025 
C 463.330574 218.906604 466.354286 212.560412 466.354286 205.944125 
C 466.354286 199.327838 463.330574 192.981646 457.949087 188.303225 
C 452.567601 183.624804 445.267714 180.996125 437.657143 180.996125 
C 430.046572 180.996125 422.746685 183.624804 417.365199 188.303225 
C 411.983712 192.981646 408.96 199.327838 408.96 205.944125 
C 408.96 212.560412 411.983712 218.906604 417.365199 223.585025 
C 422.746685 228.263446 430.046572 230.892125 437.657143 230.892125 
z
" clip-path="url(#p67914d447d)" style="fill: #f39c12; fill-opacity: 0.333333; stroke: #f39c12; stroke-width: 2; stroke-linejoin: miter"/>
   </g>
   <g id="patch_11">
    <path d="M 542.88 247.524125 
L 662.451429 247.524125 
L 662.451429 164.364125 
L 542.88 164.364125 
z
" clip-path="url(#p67914d447d)" style="fill: #e74c3c; fill-opacity: 0.133333; stroke: #e74c3c; stroke-width: 2; stroke-linejoin: miter"/>
   </g>
   <g id="patch_12">
    <path d="M 152.685383 122.784125 
Q 162.643533 122.784125 170.924631 122.784125 
" clip-path="url(#p67914d447d)" style="fill: none; stroke: #7f8c8d; stroke-width: 1.5; stroke-linecap: round"/>
    <path d="M 165.324631 119.984125 
L 170.924631 122.784125 
L 165.324631 125.584125 
z
" clip-path="url(#p67914d447d)" style="fill: #7f8c8d; stroke: #7f8c8d; stroke-width: 1.5; stroke-linecap: round"/>
   </g>
   <g id="patch_13">
    <path d="M 238.780898 122.784125 
Q 241.563094 122.784125 242.668238 122.784125 
" clip-path="url(#p67914d447d)" style="fill: none; stroke: #7f8c8d; stroke-width: 1.5; stroke-linecap: round"/>
    <path d="M 237.068238 119.984125 
L 242.668238 122.784125 
L 237.068238 125.584125 
z
" clip-path="url(#p67914d447d)" style="fill: #7f8c8d; stroke: #7f8c8d; stroke-width: 1.5; stroke-linecap: round"/>
   </g>
   <g id="patch_14">
    <path d="M 310.523756 122.784125 
Q 313.305951 122.784125 314.411095 122.784125 
" clip-path="url(#p67914d447d)" style="fill: none; stroke: #7f8c8d; stroke-width: 1.5; stroke-linecap: round"/>
    <path d="M 308.811095 119.984125 
L 314.411095 122.784125 
L 308.811095 125.584125 
z
" clip-path="url(#p67914d447d)" style="fill: #7f8c8d; stroke: #7f8c8d; stroke-width: 1.5; stroke-linecap: round"/>
   </g>
   <g id="patch_15">
    <path d="M 152.685383 289.104125 
Q 162.643533 289.104125 170.924631 289.104125 
" clip-path="url(#p67914d447d)" style="fill: none; stroke: #7f8c8d; stroke-width: 1.5; stroke-linecap: round"/>
    <path d="M 165.324631 286.304125 
L 170.924631 289.104125 
L 165.324631 291.904125 
z
" clip-path="url(#p67914d447d)" style="fill: #7f8c8d; stroke: #7f8c8d; stroke-width: 1.5; stroke-linecap: round"/>
   </g>
   <g id="patch_16">
    <path d="M 238.780898 289.104125 
Q 241.563094 289.104125 242.668238 289.104125 
" clip-path="url(#p67914d447d)" style="fill: none; stroke: #7f8c8d; stroke-width: 1.5; stroke-linecap: round"/>
    <path d="M 237.068238 286.304125 
L 242.668238 289.104125 
L 237.068238 291.904125 
z
" clip-path="url(#p67914d447d)" style="fill: #7f8c8d; stroke: #7f8c8d; stroke-width: 1.5; stroke-linecap: round"/>
   </g>
   <g id="patch_17">
    <path d="M 310.523756 289.104125 
Q 313.305951 289.104125 314.411095 289.104125 
" clip-path="url(#p67914d447d)" style="fill: none; stroke: #7f8c8d; stroke-width: 1.5; stroke-linecap: round"/>
    <path d="M 308.811095 286.304125 
L 314.411095 289.104125 
L 308.811095 291.904125 
z
" clip-path="url(#p67914d447d)" style="fill: #7f8c8d; stroke: #7f8c8d; stroke-width: 1.5; stroke-linecap: round"/>
   </g>
   <g id="patch_18">
    <path d="M 381.347933 124.461131 
Q 401.784024 156.045512 421.126875 185.940271 
" clip-path="url(#p67914d447d)" style="fill: none; stroke: #2980b9; stroke-width: 1.8; stroke-linecap: round"/>
    <path d="M 420.435584 179.717561 
L 421.126875 185.940271 
L 415.733933 182.759678 
z
" clip-path="url(#p67914d447d)" style="fill: #2980b9; stroke: #2980b9; stroke-width: 1.8; stroke-linecap: round"/>
   </g>
   <g id="patch_19">
    <path d="M 381.347933 287.427119 
Q 401.784024 255.842738 421.126875 225.947979 
" clip-path="url(#p67914d447d)" style="fill: none; stroke: #27ae60; stroke-width: 1.8; stroke-linecap: round"/>
    <path d="M 415.733933 229.128572 
L 421.126875 225.947979 
L 420.435584 232.170689 
z
" clip-path="url(#p67914d447d)" style="fill: #27ae60; stroke: #27ae60; stroke-width: 1.8; stroke-linecap: round"/>
   </g>
   <g id="patch_20">
    <path d="M 468.358041 205.944125 
Q 504.620634 205.944125 538.647158 205.944125 
" clip-path="url(#p67914d447d)" style="fill: none; stroke: #f39c12; stroke-width: 2; stroke-linecap: round"/>
    <path d="M 532.247158 202.744125 
L 538.647158 205.944125 
L 532.247158 209.144125 
z
" clip-path="url(#p67914d447d)" style="fill: #f39c12; stroke: #f39c12; stroke-width: 2; stroke-linecap: round"/>
   </g>
   <g id="text_1">
    <!-- load params -->
    <g transform="translate(59.791406 111.586312) scale(0.1 -0.1)">
     <defs>
      <path id="DejaVuSans-6c" d="M 603 4863 
L 1178 4863 
L 1178 0 
L 603 0 
L 603 4863 
z
" transform="scale(0.015625)"/>
      <path id="DejaVuSans-6f" d="M 1959 3097 
Q 1497 3097 1228 2736 
Q 959 2375 959 1747 
Q 959 1119 1226 758 
Q 1494 397 1959 397 
Q 2419 397 2687 759 
Q 2956 1122 2956 1747 
Q 2956 2369 2687 2733 
Q 2419 3097 1959 3097 
z
M 1959 3584 
Q 2709 3584 3137 3096 
Q 3566 2609 3566 1747 
Q 3566 888 3137 398 
Q 2709 -91 1959 -91 
Q 1206 -91 779 398 
Q 353 888 353 1747 
Q 353 2609 779 3096 
Q 1206 3584 1959 3584 
z
" transform="scale(0.015625)"/>
      <path id="DejaVuSans-61" d="M 2194 1759 
Q 1497 1759 1228 1600 
Q 959 1441 959 1056 
Q 959 750 1161 570 
Q 1363 391 1709 391 
Q 2188 391 2477 730 
Q 2766 1069 2766 1631 
L 2766 1759 
L 2194 1759 
z
M 3341 1997 
L 3341 0 
L 2766 0 
L 2766 531 
Q 2569 213 2275 61 
Q 1981 -91 1556 -91 
Q 1019 -91 701 211 
Q 384 513 384 1019 
Q 384 1609 779 1909 
Q 1175 2209 1959 2209 
L 2766 2209 
L 2766 2266 
Q 2766 2663 2505 2880 
Q 2244 3097 1772 3097 
Q 1472 3097 1187 3025 
Q 903 2953 641 2809 
L 641 3341 
Q 956 3463 1253 3523 
Q 1550 3584 1831 3584 
Q 2591 3584 2966 3190 
Q 3341 2797 3341 1997 
z
" transform="scale(0.015625)"/>
      <path id="DejaVuSans-64" d="M 2906 2969 
L 2906 4863 
L 3481 4863 
L 3481 0 
L 2906 0 
L 2906 525 
Q 2725 213 2448 61 
Q 2172 -91 1784 -91 
Q 1150 -91 751 415 
Q 353 922 353 1747 
Q 353 2572 751 3078 
Q 1150 3584 1784 3584 
Q 2172 3584 2448 3432 
Q 2725 3281 2906 2969 
z
M 947 1747 
Q 947 1113 1208 752 
Q 1469 391 1925 391 
Q 2381 391 2643 752 
Q 2906 1113 2906 1747 
Q 2906 2381 2643 2742 
Q 2381 3103 1925 3103 
Q 1469 3103 1208 2742 
Q 947 2381 947 1747 
z
" transform="scale(0.015625)"/>
      <path id="DejaVuSans-20" transform="scale(0.015625)"/>
      <path id="DejaVuSans-70" d="M 1159 525 
L 1159 -1331 
L 581 -1331 
L 581 3500 
L 1159 3500 
L 1159 2969 
Q 1341 3281 1617 3432 
Q 1894 3584 2278 3584 
Q 2916 3584 3314 3078 
Q 3713 2572 3713 1747 
Q 3713 922 3314 415 
Q 2916 -91 2278 -91 
Q 1894 -91 1617 61 
Q 1341 213 1159 525 
z
M 3116 1747 
Q 3116 2381 2855 2742 
Q 2594 3103 2138 3103 
Q 1681 3103 1420 2742 
Q 1159 2381 1159 1747 
Q 1159 1113 1420 752 
Q 1681 391 2138 391 
Q 2594 391 2855 752 
Q 3116 1113 3116 1747 
z
" transform="scale(0.015625)"/>
      <path id="DejaVuSans-72" d="M 2631 2963 
Q 2534 3019 2420 3045 
Q 2306 3072 2169 3072 
Q 1681 3072 1420 2755 
Q 1159 2438 1159 1844 
L 1159 0 
L 581 0 
L 581 3500 
L 1159 3500 
L 1159 2956 
Q 1341 3275 1631 3429 
Q 1922 3584 2338 3584 
Q 2397 3584 2469 3576 
Q 2541 3569 2628 3553 
L 2631 2963 
z
" transform="scale(0.015625)"/>
      <path id="DejaVuSans-6d" d="M 3328 2828 
Q 3544 3216 3844 3400 
Q 4144 3584 4550 3584 
Q 5097 3584 5394 3201 
Q 5691 2819 5691 2113 
L 5691 0 
L 5113 0 
L 5113 2094 
Q 5113 2597 4934 2840 
Q 4756 3084 4391 3084 
Q 3944 3084 3684 2787 
Q 3425 2491 3425 1978 
L 3425 0 
L 2847 0 
L 2847 2094 
Q 2847 2600 2669 2842 
Q 2491 3084 2119 3084 
Q 1678 3084 1418 2786 
Q 1159 2488 1159 1978 
L 1159 0 
L 581 0 
L 581 3500 
L 1159 3500 
L 1159 2956 
Q 1356 3278 1631 3431 
Q 1906 3584 2284 3584 
Q 2666 3584 2933 3390 
Q 3200 3197 3328 2828 
z
" transform="scale(0.015625)"/>
      <path id="DejaVuSans-73" d="M 2834 3397 
L 2834 2853 
Q 2591 2978 2328 3040 
Q 2066 3103 1784 3103 
Q 1356 3103 1142 2972 
Q 928 2841 928 2578 
Q 928 2378 1081 2264 
Q 1234 2150 1697 2047 
L 1894 2003 
Q 2506 1872 2764 1633 
Q 3022 1394 3022 966 
Q 3022 478 2636 193 
Q 2250 -91 1575 -91 
Q 1294 -91 989 -36 
Q 684 19 347 128 
L 347 722 
Q 666 556 975 473 
Q 1284 391 1588 391 
Q 1994 391 2212 530 
Q 2431 669 2431 922 
Q 2431 1156 2273 1281 
Q 2116 1406 1581 1522 
L 1381 1569 
Q 847 1681 609 1914 
Q 372 2147 372 2553 
Q 372 3047 722 3315 
Q 1072 3584 1716 3584 
Q 2034 3584 2315 3537 
Q 2597 3491 2834 3397 
z
" transform="scale(0.015625)"/>
     </defs>
     <use xlink:href="#DejaVuSans-6c"/>
     <use xlink:href="#DejaVuSans-6f" transform="translate(27.783203 0)"/>
     <use xlink:href="#DejaVuSans-61" transform="translate(88.964844 0)"/>
     <use xlink:href="#DejaVuSans-64" transform="translate(150.244141 0)"/>
     <use xlink:href="#DejaVuSans-20" transform="translate(213.720703 0)"/>
     <use xlink:href="#DejaVuSans-70" transform="translate(245.507812 0)"/>
     <use xlink:href="#DejaVuSans-61" transform="translate(308.984375 0)"/>
     <use xlink:href="#DejaVuSans-72" transform="translate(370.263672 0)"/>
     <use xlink:href="#DejaVuSans-61" transform="translate(411.376953 0)"/>
     <use xlink:href="#DejaVuSans-6d" transform="translate(472.65625 0)"/>
     <use xlink:href="#DejaVuSans-73" transform="translate(570.068359 0)"/>
    </g>
    <!-- (F, M, T, ...) -->
    <g transform="translate(62.453125 122.784125) scale(0.1 -0.1)">
     <defs>
      <path id="DejaVuSans-28" d="M 1984 4856 
Q 1566 4138 1362 3434 
Q 1159 2731 1159 2009 
Q 1159 1288 1364 580 
Q 1569 -128 1984 -844 
L 1484 -844 
Q 1016 -109 783 600 
Q 550 1309 550 2009 
Q 550 2706 781 3412 
Q 1013 4119 1484 4856 
L 1984 4856 
z
" transform="scale(0.015625)"/>
      <path id="DejaVuSans-46" d="M 628 4666 
L 3309 4666 
L 3309 4134 
L 1259 4134 
L 1259 2759 
L 3109 2759 
L 3109 2228 
L 1259 2228 
L 1259 0 
L 628 0 
L 628 4666 
z
" transform="scale(0.015625)"/>
      <path id="DejaVuSans-2c" d="M 750 794 
L 1409 794 
L 1409 256 
L 897 -744 
L 494 -744 
L 750 256 
L 750 794 
z
" transform="scale(0.015625)"/>
      <path id="DejaVuSans-4d" d="M 628 4666 
L 1569 4666 
L 2759 1491 
L 3956 4666 
L 4897 4666 
L 4897 0 
L 4281 0 
L 4281 4097 
L 3078 897 
L 2444 897 
L 1241 4097 
L 1241 0 
L 628 0 
L 628 4666 
z
" transform="scale(0.015625)"/>
      <path id="DejaVuSans-54" d="M -19 4666 
L 3928 4666 
L 3928 4134 
L 2272 4134 
L 2272 0 
L 1638 0 
L 1638 4134 
L -19 4134 
L -19 4666 
z
" transform="scale(0.015625)"/>
      <path id="DejaVuSans-2e" d="M 684 794 
L 1344 794 
L 1344 0 
L 684 0 
L 684 794 
z
" transform="scale(0.015625)"/>
      <path id="DejaVuSans-29" d="M 513 4856 
L 1013 4856 
Q 1481 4119 1714 3412 
Q 1947 2706 1947 2009 
Q 1947 1309 1714 600 
Q 1481 -109 1013 -844 
L 513 -844 
Q 928 -128 1133 580 
Q 1338 1288 1338 2009 
Q 1338 2731 1133 3434 
Q 928 4138 513 4856 
z
" transform="scale(0.015625)"/>
     </defs>
     <use xlink:href="#DejaVuSans-28"/>
     <use xlink:href="#DejaVuSans-46" transform="translate(39.013672 0)"/>
     <use xlink:href="#DejaVuSans-2c" transform="translate(96.533203 0)"/>
     <use xlink:href="#DejaVuSans-20" transform="translate(128.320312 0)"/>
     <use xlink:href="#DejaVuSans-4d" transform="translate(160.107422 0)"/>
     <use xlink:href="#DejaVuSans-2c" transform="translate(246.386719 0)"/>
     <use xlink:href="#DejaVuSans-20" transform="translate(278.173828 0)"/>
     <use xlink:href="#DejaVuSans-54" transform="translate(309.960938 0)"/>
     <use xlink:href="#DejaVuSans-2c" transform="translate(371.044922 0)"/>
     <use xlink:href="#DejaVuSans-20" transform="translate(402.832031 0)"/>
     <use xlink:href="#DejaVuSans-2e" transform="translate(434.619141 0)"/>
     <use xlink:href="#DejaVuSans-2e" transform="translate(466.40625 0)"/>
     <use xlink:href="#DejaVuSans-2e" transform="translate(498.193359 0)"/>
     <use xlink:href="#DejaVuSans-29" transform="translate(529.980469 0)"/>
    </g>
   </g>
   <g id="text_2">
    <!-- Dense 64 -->
    <g transform="translate(184.333259 122.784125) scale(0.09 -0.09)">
     <defs>
      <path id="DejaVuSans-44" d="M 1259 4147 
L 1259 519 
L 2022 519 
Q 2988 519 3436 956 
Q 3884 1394 3884 2338 
Q 3884 3275 3436 3711 
Q 2988 4147 2022 4147 
L 1259 4147 
z
M 628 4666 
L 1925 4666 
Q 3281 4666 3915 4102 
Q 4550 3538 4550 2338 
Q 4550 1131 3912 565 
Q 3275 0 1925 0 
L 628 0 
L 628 4666 
z
" transform="scale(0.015625)"/>
      <path id="DejaVuSans-65" d="M 3597 1894 
L 3597 1613 
L 953 1613 
Q 991 1019 1311 708 
Q 1631 397 2203 397 
Q 2534 397 2845 478 
Q 3156 559 3463 722 
L 3463 178 
Q 3153 47 2828 -22 
Q 2503 -91 2169 -91 
Q 1331 -91 842 396 
Q 353 884 353 1716 
Q 353 2575 817 3079 
Q 1281 3584 2069 3584 
Q 2775 3584 3186 3129 
Q 3597 2675 3597 1894 
z
M 3022 2063 
Q 3016 2534 2758 2815 
Q 2500 3097 2075 3097 
Q 1594 3097 1305 2825 
Q 1016 2553 972 2059 
L 3022 2063 
z
" transform="scale(0.015625)"/>
      <path id="DejaVuSans-6e" d="M 3513 2113 
L 3513 0 
L 2938 0 
L 2938 2094 
Q 2938 2591 2744 2837 
Q 2550 3084 2163 3084 
Q 1697 3084 1428 2787 
Q 1159 2491 1159 1978 
L 1159 0 
L 581 0 
L 581 3500 
L 1159 3500 
L 1159 2956 
Q 1366 3272 1645 3428 
Q 1925 3584 2291 3584 
Q 2894 3584 3203 3211 
Q 3513 2838 3513 2113 
z
" transform="scale(0.015625)"/>
      <path id="DejaVuSans-36" d="M 2113 2584 
Q 1688 2584 1439 2293 
Q 1191 2003 1191 1497 
Q 1191 994 1439 701 
Q 1688 409 2113 409 
Q 2538 409 2786 701 
Q 3034 994 3034 1497 
Q 3034 2003 2786 2293 
Q 2538 2584 2113 2584 
z
M 3366 4563 
L 3366 3988 
Q 3128 4100 2886 4159 
Q 2644 4219 2406 4219 
Q 1781 4219 1451 3797 
Q 1122 3375 1075 2522 
Q 1259 2794 1537 2939 
Q 1816 3084 2150 3084 
Q 2853 3084 3261 2657 
Q 3669 2231 3669 1497 
Q 3669 778 3244 343 
Q 2819 -91 2113 -91 
Q 1303 -91 875 529 
Q 447 1150 447 2328 
Q 447 3434 972 4092 
Q 1497 4750 2381 4750 
Q 2619 4750 2861 4703 
Q 3103 4656 3366 4563 
z
" transform="scale(0.015625)"/>
      <path id="DejaVuSans-34" d="M 2419 4116 
L 825 1625 
L 2419 1625 
L 2419 4116 
z
M 2253 4666 
L 3047 4666 
L 3047 1625 
L 3713 1625 
L 3713 1100 
L 3047 1100 
L 3047 0 
L 2419 0 
L 2419 1100 
L 313 1100 
L 313 1709 
L 2253 4666 
z
" transform="scale(0.015625)"/>
     </defs>
     <use xlink:href="#DejaVuSans-44"/>
     <use xlink:href="#DejaVuSans-65" transform="translate(77.001953 0)"/>
     <use xlink:href="#DejaVuSans-6e" transform="translate(138.525391 0)"/>
     <use xlink:href="#DejaVuSans-73" transform="translate(201.904297 0)"/>
     <use xlink:href="#DejaVuSans-65" transform="translate(254.003906 0)"/>
     <use xlink:href="#DejaVuSans-20" transform="translate(315.527344 0)"/>
     <use xlink:href="#DejaVuSans-36" transform="translate(347.314453 0)"/>
     <use xlink:href="#DejaVuSans-34" transform="translate(410.9375 0)"/>
    </g>
   </g>
   <g id="text_3">
    <!-- Dense 64 -->
    <g transform="translate(256.076116 122.784125) scale(0.09 -0.09)">
     <use xlink:href="#DejaVuSans-44"/>
     <use xlink:href="#DejaVuSans-65" transform="translate(77.001953 0)"/>
     <use xlink:href="#DejaVuSans-6e" transform="translate(138.525391 0)"/>
     <use xlink:href="#DejaVuSans-73" transform="translate(201.904297 0)"/>
     <use xlink:href="#DejaVuSans-65" transform="translate(254.003906 0)"/>
     <use xlink:href="#DejaVuSans-20" transform="translate(315.527344 0)"/>
     <use xlink:href="#DejaVuSans-36" transform="translate(347.314453 0)"/>
     <use xlink:href="#DejaVuSans-34" transform="translate(410.9375 0)"/>
    </g>
   </g>
   <g id="text_4">
    <!-- Dense 64 -->
    <g transform="translate(327.818973 122.784125) scale(0.09 -0.09)">
     <use xlink:href="#DejaVuSans-44"/>
     <use xlink:href="#DejaVuSans-65" transform="translate(77.001953 0)"/>
     <use xlink:href="#DejaVuSans-6e" transform="translate(138.525391 0)"/>
     <use xlink:href="#DejaVuSans-73" transform="translate(201.904297 0)"/>
     <use xlink:href="#DejaVuSans-65" transform="translate(254.003906 0)"/>
     <use xlink:href="#DejaVuSans-20" transform="translate(315.527344 0)"/>
     <use xlink:href="#DejaVuSans-36" transform="translate(347.314453 0)"/>
     <use xlink:href="#DejaVuSans-34" transform="translate(410.9375 0)"/>
    </g>
   </g>
   <g id="text_5">
    <!-- Branch network -->
    <g style="fill: #2980b9" transform="translate(199.924955 64.572125) scale(0.12 -0.12)">
     <defs>
      <path id="DejaVuSans-Bold-42" d="M 2456 2859 
Q 2741 2859 2887 2984 
Q 3034 3109 3034 3353 
Q 3034 3594 2887 3720 
Q 2741 3847 2456 3847 
L 1791 3847 
L 1791 2859 
L 2456 2859 
z
M 2497 819 
Q 2859 819 3042 972 
Q 3225 1125 3225 1434 
Q 3225 1738 3044 1889 
Q 2863 2041 2497 2041 
L 1791 2041 
L 1791 819 
L 2497 819 
z
M 3616 2497 
Q 4003 2384 4215 2081 
Q 4428 1778 4428 1338 
Q 4428 663 3972 331 
Q 3516 0 2584 0 
L 588 0 
L 588 4666 
L 2394 4666 
Q 3366 4666 3802 4372 
Q 4238 4078 4238 3431 
Q 4238 3091 4078 2852 
Q 3919 2613 3616 2497 
z
" transform="scale(0.015625)"/>
      <path id="DejaVuSans-Bold-72" d="M 3138 2547 
Q 2991 2616 2845 2648 
Q 2700 2681 2553 2681 
Q 2122 2681 1889 2404 
Q 1656 2128 1656 1613 
L 1656 0 
L 538 0 
L 538 3500 
L 1656 3500 
L 1656 2925 
Q 1872 3269 2151 3426 
Q 2431 3584 2822 3584 
Q 2878 3584 2943 3579 
Q 3009 3575 3134 3559 
L 3138 2547 
z
" transform="scale(0.015625)"/>
      <path id="DejaVuSans-Bold-61" d="M 2106 1575 
Q 1756 1575 1579 1456 
Q 1403 1338 1403 1106 
Q 1403 894 1545 773 
Q 1688 653 1941 653 
Q 2256 653 2472 879 
Q 2688 1106 2688 1447 
L 2688 1575 
L 2106 1575 
z
M 3816 1997 
L 3816 0 
L 2688 0 
L 2688 519 
Q 2463 200 2181 54 
Q 1900 -91 1497 -91 
Q 953 -91 614 226 
Q 275 544 275 1050 
Q 275 1666 698 1953 
Q 1122 2241 2028 2241 
L 2688 2241 
L 2688 2328 
Q 2688 2594 2478 2717 
Q 2269 2841 1825 2841 
Q 1466 2841 1156 2769 
Q 847 2697 581 2553 
L 581 3406 
Q 941 3494 1303 3539 
Q 1666 3584 2028 3584 
Q 2975 3584 3395 3211 
Q 3816 2838 3816 1997 
z
" transform="scale(0.015625)"/>
      <path id="DejaVuSans-Bold-6e" d="M 4056 2131 
L 4056 0 
L 2931 0 
L 2931 347 
L 2931 1631 
Q 2931 2084 2911 2256 
Q 2891 2428 2841 2509 
Q 2775 2619 2662 2680 
Q 2550 2741 2406 2741 
Q 2056 2741 1856 2470 
Q 1656 2200 1656 1722 
L 1656 0 
L 538 0 
L 538 3500 
L 1656 3500 
L 1656 2988 
Q 1909 3294 2193 3439 
Q 2478 3584 2822 3584 
Q 3428 3584 3742 3212 
Q 4056 2841 4056 2131 
z
" transform="scale(0.015625)"/>
      <path id="DejaVuSans-Bold-63" d="M 3366 3391 
L 3366 2478 
Q 3138 2634 2908 2709 
Q 2678 2784 2431 2784 
Q 1963 2784 1702 2511 
Q 1441 2238 1441 1747 
Q 1441 1256 1702 982 
Q 1963 709 2431 709 
Q 2694 709 2930 787 
Q 3166 866 3366 1019 
L 3366 103 
Q 3103 6 2833 -42 
Q 2563 -91 2291 -91 
Q 1344 -91 809 395 
Q 275 881 275 1747 
Q 275 2613 809 3098 
Q 1344 3584 2291 3584 
Q 2566 3584 2833 3536 
Q 3100 3488 3366 3391 
z
" transform="scale(0.015625)"/>
      <path id="DejaVuSans-Bold-68" d="M 4056 2131 
L 4056 0 
L 2931 0 
L 2931 347 
L 2931 1625 
Q 2931 2084 2911 2256 
Q 2891 2428 2841 2509 
Q 2775 2619 2662 2680 
Q 2550 2741 2406 2741 
Q 2056 2741 1856 2470 
Q 1656 2200 1656 1722 
L 1656 0 
L 538 0 
L 538 4863 
L 1656 4863 
L 1656 2988 
Q 1909 3294 2193 3439 
Q 2478 3584 2822 3584 
Q 3428 3584 3742 3212 
Q 4056 2841 4056 2131 
z
" transform="scale(0.015625)"/>
      <path id="DejaVuSans-Bold-20" transform="scale(0.015625)"/>
      <path id="DejaVuSans-Bold-65" d="M 4031 1759 
L 4031 1441 
L 1416 1441 
Q 1456 1047 1700 850 
Q 1944 653 2381 653 
Q 2734 653 3104 758 
Q 3475 863 3866 1075 
L 3866 213 
Q 3469 63 3072 -14 
Q 2675 -91 2278 -91 
Q 1328 -91 801 392 
Q 275 875 275 1747 
Q 275 2603 792 3093 
Q 1309 3584 2216 3584 
Q 3041 3584 3536 3087 
Q 4031 2591 4031 1759 
z
M 2881 2131 
Q 2881 2450 2695 2645 
Q 2509 2841 2209 2841 
Q 1884 2841 1681 2658 
Q 1478 2475 1428 2131 
L 2881 2131 
z
" transform="scale(0.015625)"/>
      <path id="DejaVuSans-Bold-74" d="M 1759 4494 
L 1759 3500 
L 2913 3500 
L 2913 2700 
L 1759 2700 
L 1759 1216 
Q 1759 972 1856 886 
Q 1953 800 2241 800 
L 2816 800 
L 2816 0 
L 1856 0 
Q 1194 0 917 276 
Q 641 553 641 1216 
L 641 2700 
L 84 2700 
L 84 3500 
L 641 3500 
L 641 4494 
L 1759 4494 
z
" transform="scale(0.015625)"/>
      <path id="DejaVuSans-Bold-77" d="M 225 3500 
L 1313 3500 
L 1900 1088 
L 2491 3500 
L 3425 3500 
L 4013 1113 
L 4603 3500 
L 5691 3500 
L 4769 0 
L 3547 0 
L 2956 2406 
L 2369 0 
L 1147 0 
L 225 3500 
z
" transform="scale(0.015625)"/>
      <path id="DejaVuSans-Bold-6f" d="M 2203 2784 
Q 1831 2784 1636 2517 
Q 1441 2250 1441 1747 
Q 1441 1244 1636 976 
Q 1831 709 2203 709 
Q 2569 709 2762 976 
Q 2956 1244 2956 1747 
Q 2956 2250 2762 2517 
Q 2569 2784 2203 2784 
z
M 2203 3584 
Q 3106 3584 3614 3096 
Q 4122 2609 4122 1747 
Q 4122 884 3614 396 
Q 3106 -91 2203 -91 
Q 1297 -91 786 396 
Q 275 884 275 1747 
Q 275 2609 786 3096 
Q 1297 3584 2203 3584 
z
" transform="scale(0.015625)"/>
      <path id="DejaVuSans-Bold-6b" d="M 538 4863 
L 1656 4863 
L 1656 2216 
L 2944 3500 
L 4244 3500 
L 2534 1894 
L 4378 0 
L 3022 0 
L 1656 1459 
L 1656 0 
L 538 0 
L 538 4863 
z
" transform="scale(0.015625)"/>
     </defs>
     <use xlink:href="#DejaVuSans-Bold-42"/>
     <use xlink:href="#DejaVuSans-Bold-72" transform="translate(76.220703 0)"/>
     <use xlink:href="#DejaVuSans-Bold-61" transform="translate(125.537109 0)"/>
     <use xlink:href="#DejaVuSans-Bold-6e" transform="translate(193.017578 0)"/>
     <use xlink:href="#DejaVuSans-Bold-63" transform="translate(264.208984 0)"/>
     <use xlink:href="#DejaVuSans-Bold-68" transform="translate(323.486328 0)"/>
     <use xlink:href="#DejaVuSans-Bold-20" transform="translate(394.677734 0)"/>
     <use xlink:href="#DejaVuSans-Bold-6e" transform="translate(429.492188 0)"/>
     <use xlink:href="#DejaVuSans-Bold-65" transform="translate(500.683594 0)"/>
     <use xlink:href="#DejaVuSans-Bold-74" transform="translate(568.505859 0)"/>
     <use xlink:href="#DejaVuSans-Bold-77" transform="translate(616.308594 0)"/>
     <use xlink:href="#DejaVuSans-Bold-6f" transform="translate(708.691406 0)"/>
     <use xlink:href="#DejaVuSans-Bold-72" transform="translate(777.392578 0)"/>
     <use xlink:href="#DejaVuSans-Bold-6b" transform="translate(826.708984 0)"/>
    </g>
   </g>
   <g id="text_6">
    <!-- trunk coords -->
    <g transform="translate(59.447656 277.906312) scale(0.1 -0.1)">
     <defs>
      <path id="DejaVuSans-74" d="M 1172 4494 
L 1172 3500 
L 2356 3500 
L 2356 3053 
L 1172 3053 
L 1172 1153 
Q 1172 725 1289 603 
Q 1406 481 1766 481 
L 2356 481 
L 2356 0 
L 1766 0 
Q 1100 0 847 248 
Q 594 497 594 1153 
L 594 3053 
L 172 3053 
L 172 3500 
L 594 3500 
L 594 4494 
L 1172 4494 
z
" transform="scale(0.015625)"/>
      <path id="DejaVuSans-75" d="M 544 1381 
L 544 3500 
L 1119 3500 
L 1119 1403 
Q 1119 906 1312 657 
Q 1506 409 1894 409 
Q 2359 409 2629 706 
Q 2900 1003 2900 1516 
L 2900 3500 
L 3475 3500 
L 3475 0 
L 2900 0 
L 2900 538 
Q 2691 219 2414 64 
Q 2138 -91 1772 -91 
Q 1169 -91 856 284 
Q 544 659 544 1381 
z
M 1991 3584 
L 1991 3584 
z
" transform="scale(0.015625)"/>
      <path id="DejaVuSans-6b" d="M 581 4863 
L 1159 4863 
L 1159 1991 
L 2875 3500 
L 3609 3500 
L 1753 1863 
L 3688 0 
L 2938 0 
L 1159 1709 
L 1159 0 
L 581 0 
L 581 4863 
z
" transform="scale(0.015625)"/>
      <path id="DejaVuSans-63" d="M 3122 3366 
L 3122 2828 
Q 2878 2963 2633 3030 
Q 2388 3097 2138 3097 
Q 1578 3097 1268 2742 
Q 959 2388 959 1747 
Q 959 1106 1268 751 
Q 1578 397 2138 397 
Q 2388 397 2633 464 
Q 2878 531 3122 666 
L 3122 134 
Q 2881 22 2623 -34 
Q 2366 -91 2075 -91 
Q 1284 -91 818 406 
Q 353 903 353 1747 
Q 353 2603 823 3093 
Q 1294 3584 2113 3584 
Q 2378 3584 2631 3529 
Q 2884 3475 3122 3366 
z
" transform="scale(0.015625)"/>
     </defs>
     <use xlink:href="#DejaVuSans-74"/>
     <use xlink:href="#DejaVuSans-72" transform="translate(39.208984 0)"/>
     <use xlink:href="#DejaVuSans-75" transform="translate(80.322266 0)"/>
     <use xlink:href="#DejaVuSans-6e" transform="translate(143.701172 0)"/>
     <use xlink:href="#DejaVuSans-6b" transform="translate(207.080078 0)"/>
     <use xlink:href="#DejaVuSans-20" transform="translate(264.990234 0)"/>
     <use xlink:href="#DejaVuSans-63" transform="translate(296.777344 0)"/>
     <use xlink:href="#DejaVuSans-6f" transform="translate(351.757812 0)"/>
     <use xlink:href="#DejaVuSans-6f" transform="translate(412.939453 0)"/>
     <use xlink:href="#DejaVuSans-72" transform="translate(474.121094 0)"/>
     <use xlink:href="#DejaVuSans-64" transform="translate(513.484375 0)"/>
     <use xlink:href="#DejaVuSans-73" transform="translate(576.960938 0)"/>
    </g>
    <!-- (x, y, z) -->
    <g transform="translate(72.099219 289.104125) scale(0.1 -0.1)">
     <defs>
      <path id="DejaVuSans-78" d="M 3513 3500 
L 2247 1797 
L 3578 0 
L 2900 0 
L 1881 1375 
L 863 0 
L 184 0 
L 1544 1831 
L 300 3500 
L 978 3500 
L 1906 2253 
L 2834 3500 
L 3513 3500 
z
" transform="scale(0.015625)"/>
      <path id="DejaVuSans-79" d="M 2059 -325 
Q 1816 -950 1584 -1140 
Q 1353 -1331 966 -1331 
L 506 -1331 
L 506 -850 
L 844 -850 
Q 1081 -850 1212 -737 
Q 1344 -625 1503 -206 
L 1606 56 
L 191 3500 
L 800 3500 
L 1894 763 
L 2988 3500 
L 3597 3500 
L 2059 -325 
z
" transform="scale(0.015625)"/>
      <path id="DejaVuSans-7a" d="M 353 3500 
L 3084 3500 
L 3084 2975 
L 922 459 
L 3084 459 
L 3084 0 
L 275 0 
L 275 525 
L 2438 3041 
L 353 3041 
L 353 3500 
z
" transform="scale(0.015625)"/>
     </defs>
     <use xlink:href="#DejaVuSans-28"/>
     <use xlink:href="#DejaVuSans-78" transform="translate(39.013672 0)"/>
     <use xlink:href="#DejaVuSans-2c" transform="translate(98.193359 0)"/>
     <use xlink:href="#DejaVuSans-20" transform="translate(129.980469 0)"/>
     <use xlink:href="#DejaVuSans-79" transform="translate(161.767578 0)"/>
     <use xlink:href="#DejaVuSans-2c" transform="translate(220.947266 0)"/>
     <use xlink:href="#DejaVuSans-20" transform="translate(252.734375 0)"/>
     <use xlink:href="#DejaVuSans-7a" transform="translate(284.521484 0)"/>
     <use xlink:href="#DejaVuSans-29" transform="translate(337.011719 0)"/>
    </g>
   </g>
   <g id="text_7">
    <!-- Dense 64 -->
    <g transform="translate(184.333259 289.104125) scale(0.09 -0.09)">
     <use xlink:href="#DejaVuSans-44"/>
     <use xlink:href="#DejaVuSans-65" transform="translate(77.001953 0)"/>
     <use xlink:href="#DejaVuSans-6e" transform="translate(138.525391 0)"/>
     <use xlink:href="#DejaVuSans-73" transform="translate(201.904297 0)"/>
     <use xlink:href="#DejaVuSans-65" transform="translate(254.003906 0)"/>
     <use xlink:href="#DejaVuSans-20" transform="translate(315.527344 0)"/>
     <use xlink:href="#DejaVuSans-36" transform="translate(347.314453 0)"/>
     <use xlink:href="#DejaVuSans-34" transform="translate(410.9375 0)"/>
    </g>
   </g>
   <g id="text_8">
    <!-- Dense 64 -->
    <g transform="translate(256.076116 289.104125) scale(0.09 -0.09)">
     <use xlink:href="#DejaVuSans-44"/>
     <use xlink:href="#DejaVuSans-65" transform="translate(77.001953 0)"/>
     <use xlink:href="#DejaVuSans-6e" transform="translate(138.525391 0)"/>
     <use xlink:href="#DejaVuSans-73" transform="translate(201.904297 0)"/>
     <use xlink:href="#DejaVuSans-65" transform="translate(254.003906 0)"/>
     <use xlink:href="#DejaVuSans-20" transform="translate(315.527344 0)"/>
     <use xlink:href="#DejaVuSans-36" transform="translate(347.314453 0)"/>
     <use xlink:href="#DejaVuSans-34" transform="translate(410.9375 0)"/>
    </g>
   </g>
   <g id="text_9">
    <!-- Dense 64 -->
    <g transform="translate(327.818973 289.104125) scale(0.09 -0.09)">
     <use xlink:href="#DejaVuSans-44"/>
     <use xlink:href="#DejaVuSans-65" transform="translate(77.001953 0)"/>
     <use xlink:href="#DejaVuSans-6e" transform="translate(138.525391 0)"/>
     <use xlink:href="#DejaVuSans-73" transform="translate(201.904297 0)"/>
     <use xlink:href="#DejaVuSans-65" transform="translate(254.003906 0)"/>
     <use xlink:href="#DejaVuSans-20" transform="translate(315.527344 0)"/>
     <use xlink:href="#DejaVuSans-36" transform="translate(347.314453 0)"/>
     <use xlink:href="#DejaVuSans-34" transform="translate(410.9375 0)"/>
    </g>
   </g>
   <g id="text_10">
    <!-- Trunk network -->
    <g style="fill: #27ae60" transform="translate(204.680893 355.632125) scale(0.12 -0.12)">
     <defs>
      <path id="DejaVuSans-Bold-54" d="M 31 4666 
L 4331 4666 
L 4331 3756 
L 2784 3756 
L 2784 0 
L 1581 0 
L 1581 3756 
L 31 3756 
L 31 4666 
z
" transform="scale(0.015625)"/>
      <path id="DejaVuSans-Bold-75" d="M 500 1363 
L 500 3500 
L 1625 3500 
L 1625 3150 
Q 1625 2866 1622 2436 
Q 1619 2006 1619 1863 
Q 1619 1441 1641 1255 
Q 1663 1069 1716 984 
Q 1784 875 1895 815 
Q 2006 756 2150 756 
Q 2500 756 2700 1025 
Q 2900 1294 2900 1772 
L 2900 3500 
L 4019 3500 
L 4019 0 
L 2900 0 
L 2900 506 
Q 2647 200 2364 54 
Q 2081 -91 1741 -91 
Q 1134 -91 817 281 
Q 500 653 500 1363 
z
" transform="scale(0.015625)"/>
     </defs>
     <use xlink:href="#DejaVuSans-Bold-54"/>
     <use xlink:href="#DejaVuSans-Bold-72" transform="translate(57.212891 0)"/>
     <use xlink:href="#DejaVuSans-Bold-75" transform="translate(106.529297 0)"/>
     <use xlink:href="#DejaVuSans-Bold-6e" transform="translate(177.720703 0)"/>
     <use xlink:href="#DejaVuSans-Bold-6b" transform="translate(248.912109 0)"/>
     <use xlink:href="#DejaVuSans-Bold-20" transform="translate(315.416016 0)"/>
     <use xlink:href="#DejaVuSans-Bold-6e" transform="translate(350.230469 0)"/>
     <use xlink:href="#DejaVuSans-Bold-65" transform="translate(421.421875 0)"/>
     <use xlink:href="#DejaVuSans-Bold-74" transform="translate(489.244141 0)"/>
     <use xlink:href="#DejaVuSans-Bold-77" transform="translate(537.046875 0)"/>
     <use xlink:href="#DejaVuSans-Bold-6f" transform="translate(629.429688 0)"/>
     <use xlink:href="#DejaVuSans-Bold-72" transform="translate(698.130859 0)"/>
     <use xlink:href="#DejaVuSans-Bold-6b" transform="translate(747.447266 0)"/>
    </g>
   </g>
   <g id="text_11">
    <!-- ⟨·,·⟩ -->
    <g transform="translate(423.281987 209.80725) scale(0.14 -0.14)">
     <defs>
      <path id="DejaVuSans-Bold-27e8" d="M 672 2006 
L 1563 4856 
L 2413 4856 
L 1519 2006 
L 2413 -844 
L 1563 -844 
L 672 2006 
z
" transform="scale(0.015625)"/>
      <path id="DejaVuSans-Bold-b7" d="M 653 2828 
L 1778 2828 
L 1778 1619 
L 653 1619 
L 653 2828 
z
" transform="scale(0.015625)"/>
      <path id="DejaVuSans-Bold-2c" d="M 653 1209 
L 1778 1209 
L 1778 256 
L 1006 -909 
L 341 -909 
L 653 256 
L 653 1209 
z
" transform="scale(0.015625)"/>
      <path id="DejaVuSans-Bold-27e9" d="M 2253 2006 
L 1363 -844 
L 513 -844 
L 1406 2006 
L 513 4856 
L 1363 4856 
L 2253 2006 
z
" transform="scale(0.015625)"/>
     </defs>
     <use xlink:href="#DejaVuSans-Bold-27e8"/>
     <use xlink:href="#DejaVuSans-Bold-b7" transform="translate(45.703125 0)"/>
     <use xlink:href="#DejaVuSans-Bold-2c" transform="translate(83.691406 0)"/>
     <use xlink:href="#DejaVuSans-Bold-b7" transform="translate(121.679688 0)"/>
     <use xlink:href="#DejaVuSans-Bold-27e9" transform="translate(159.667969 0)"/>
    </g>
   </g>
   <g id="text_12">
    <!-- latent inner product -->
    <g style="fill: #f39c12" transform="translate(387.772768 164.364125) scale(0.1 -0.1)">
     <defs>
      <path id="DejaVuSans-69" d="M 603 3500 
L 1178 3500 
L 1178 0 
L 603 0 
L 603 3500 
z
M 603 4863 
L 1178 4863 
L 1178 4134 
L 603 4134 
L 603 4863 
z
" transform="scale(0.015625)"/>
     </defs>
     <use xlink:href="#DejaVuSans-6c"/>
     <use xlink:href="#DejaVuSans-61" transform="translate(27.783203 0)"/>
     <use xlink:href="#DejaVuSans-74" transform="translate(89.0625 0)"/>
     <use xlink:href="#DejaVuSans-65" transform="translate(128.271484 0)"/>
     <use xlink:href="#DejaVuSans-6e" transform="translate(189.794922 0)"/>
     <use xlink:href="#DejaVuSans-74" transform="translate(253.173828 0)"/>
     <use xlink:href="#DejaVuSans-20" transform="translate(292.382812 0)"/>
     <use xlink:href="#DejaVuSans-69" transform="translate(324.169922 0)"/>
     <use xlink:href="#DejaVuSans-6e" transform="translate(351.953125 0)"/>
     <use xlink:href="#DejaVuSans-6e" transform="translate(415.332031 0)"/>
     <use xlink:href="#DejaVuSans-65" transform="translate(478.710938 0)"/>
     <use xlink:href="#DejaVuSans-72" transform="translate(540.234375 0)"/>
     <use xlink:href="#DejaVuSans-20" transform="translate(581.347656 0)"/>
     <use xlink:href="#DejaVuSans-70" transform="translate(613.134766 0)"/>
     <use xlink:href="#DejaVuSans-72" transform="translate(676.611328 0)"/>
     <use xlink:href="#DejaVuSans-6f" transform="translate(715.474609 0)"/>
     <use xlink:href="#DejaVuSans-64" transform="translate(776.65625 0)"/>
     <use xlink:href="#DejaVuSans-75" transform="translate(840.132812 0)"/>
     <use xlink:href="#DejaVuSans-63" transform="translate(903.511719 0)"/>
     <use xlink:href="#DejaVuSans-74" transform="translate(958.492188 0)"/>
    </g>
   </g>
   <g id="text_13">
    <!-- predicted -->
    <g transform="translate(572.907277 181.308937) scale(0.11 -0.11)">
     <defs>
      <path id="DejaVuSans-Bold-70" d="M 1656 506 
L 1656 -1331 
L 538 -1331 
L 538 3500 
L 1656 3500 
L 1656 2988 
Q 1888 3294 2169 3439 
Q 2450 3584 2816 3584 
Q 3463 3584 3878 3070 
Q 4294 2556 4294 1747 
Q 4294 938 3878 423 
Q 3463 -91 2816 -91 
Q 2450 -91 2169 54 
Q 1888 200 1656 506 
z
M 2400 2772 
Q 2041 2772 1848 2508 
Q 1656 2244 1656 1747 
Q 1656 1250 1848 986 
Q 2041 722 2400 722 
Q 2759 722 2948 984 
Q 3138 1247 3138 1747 
Q 3138 2247 2948 2509 
Q 2759 2772 2400 2772 
z
" transform="scale(0.015625)"/>
      <path id="DejaVuSans-Bold-64" d="M 2919 2988 
L 2919 4863 
L 4044 4863 
L 4044 0 
L 2919 0 
L 2919 506 
Q 2688 197 2409 53 
Q 2131 -91 1766 -91 
Q 1119 -91 703 423 
Q 288 938 288 1747 
Q 288 2556 703 3070 
Q 1119 3584 1766 3584 
Q 2128 3584 2408 3439 
Q 2688 3294 2919 2988 
z
M 2181 722 
Q 2541 722 2730 984 
Q 2919 1247 2919 1747 
Q 2919 2247 2730 2509 
Q 2541 2772 2181 2772 
Q 1825 2772 1636 2509 
Q 1447 2247 1447 1747 
Q 1447 1247 1636 984 
Q 1825 722 2181 722 
z
" transform="scale(0.015625)"/>
      <path id="DejaVuSans-Bold-69" d="M 538 3500 
L 1656 3500 
L 1656 0 
L 538 0 
L 538 3500 
z
M 538 4863 
L 1656 4863 
L 1656 3950 
L 538 3950 
L 538 4863 
z
" transform="scale(0.015625)"/>
     </defs>
     <use xlink:href="#DejaVuSans-Bold-70"/>
     <use xlink:href="#DejaVuSans-Bold-72" transform="translate(71.582031 0)"/>
     <use xlink:href="#DejaVuSans-Bold-65" transform="translate(120.898438 0)"/>
     <use xlink:href="#DejaVuSans-Bold-64" transform="translate(188.720703 0)"/>
     <use xlink:href="#DejaVuSans-Bold-69" transform="translate(260.302734 0)"/>
     <use xlink:href="#DejaVuSans-Bold-63" transform="translate(294.580078 0)"/>
     <use xlink:href="#DejaVuSans-Bold-74" transform="translate(353.857422 0)"/>
     <use xlink:href="#DejaVuSans-Bold-65" transform="translate(401.660156 0)"/>
     <use xlink:href="#DejaVuSans-Bold-64" transform="translate(469.482422 0)"/>
    </g>
    <!-- displacement -->
    <g transform="translate(561.039308 193.626531) scale(0.11 -0.11)">
     <defs>
      <path id="DejaVuSans-Bold-73" d="M 3272 3391 
L 3272 2541 
Q 2913 2691 2578 2766 
Q 2244 2841 1947 2841 
Q 1628 2841 1473 2761 
Q 1319 2681 1319 2516 
Q 1319 2381 1436 2309 
Q 1553 2238 1856 2203 
L 2053 2175 
Q 2913 2066 3209 1816 
Q 3506 1566 3506 1031 
Q 3506 472 3093 190 
Q 2681 -91 1863 -91 
Q 1516 -91 1145 -36 
Q 775 19 384 128 
L 384 978 
Q 719 816 1070 734 
Q 1422 653 1784 653 
Q 2113 653 2278 743 
Q 2444 834 2444 1013 
Q 2444 1163 2330 1236 
Q 2216 1309 1875 1350 
L 1678 1375 
Q 931 1469 631 1722 
Q 331 1975 331 2491 
Q 331 3047 712 3315 
Q 1094 3584 1881 3584 
Q 2191 3584 2531 3537 
Q 2872 3491 3272 3391 
z
" transform="scale(0.015625)"/>
      <path id="DejaVuSans-Bold-6c" d="M 538 4863 
L 1656 4863 
L 1656 0 
L 538 0 
L 538 4863 
z
" transform="scale(0.015625)"/>
      <path id="DejaVuSans-Bold-6d" d="M 3781 2919 
Q 3994 3244 4286 3414 
Q 4578 3584 4928 3584 
Q 5531 3584 5847 3212 
Q 6163 2841 6163 2131 
L 6163 0 
L 5038 0 
L 5038 1825 
Q 5041 1866 5042 1909 
Q 5044 1953 5044 2034 
Q 5044 2406 4934 2573 
Q 4825 2741 4581 2741 
Q 4263 2741 4089 2478 
Q 3916 2216 3909 1719 
L 3909 0 
L 2784 0 
L 2784 1825 
Q 2784 2406 2684 2573 
Q 2584 2741 2328 2741 
Q 2006 2741 1831 2477 
Q 1656 2213 1656 1722 
L 1656 0 
L 531 0 
L 531 3500 
L 1656 3500 
L 1656 2988 
Q 1863 3284 2130 3434 
Q 2397 3584 2719 3584 
Q 3081 3584 3359 3409 
Q 3638 3234 3781 2919 
z
" transform="scale(0.015625)"/>
     </defs>
     <use xlink:href="#DejaVuSans-Bold-64"/>
     <use xlink:href="#DejaVuSans-Bold-69" transform="translate(71.582031 0)"/>
     <use xlink:href="#DejaVuSans-Bold-73" transform="translate(105.859375 0)"/>
     <use xlink:href="#DejaVuSans-Bold-70" transform="translate(165.380859 0)"/>
     <use xlink:href="#DejaVuSans-Bold-6c" transform="translate(236.962891 0)"/>
     <use xlink:href="#DejaVuSans-Bold-61" transform="translate(271.240234 0)"/>
     <use xlink:href="#DejaVuSans-Bold-63" transform="translate(338.720703 0)"/>
     <use xlink:href="#DejaVuSans-Bold-65" transform="translate(397.998047 0)"/>
     <use xlink:href="#DejaVuSans-Bold-6d" transform="translate(465.820312 0)"/>
     <use xlink:href="#DejaVuSans-Bold-65" transform="translate(570.019531 0)"/>
     <use xlink:href="#DejaVuSans-Bold-6e" transform="translate(637.841797 0)"/>
     <use xlink:href="#DejaVuSans-Bold-74" transform="translate(709.033203 0)"/>
    </g>
    <!-- field -->
    <g transform="translate(588.834933 205.944125) scale(0.11 -0.11)">
     <defs>
      <path id="DejaVuSans-Bold-66" d="M 2841 4863 
L 2841 4128 
L 2222 4128 
Q 1984 4128 1890 4042 
Q 1797 3956 1797 3744 
L 1797 3500 
L 2753 3500 
L 2753 2700 
L 1797 2700 
L 1797 0 
L 678 0 
L 678 2700 
L 122 2700 
L 122 3500 
L 678 3500 
L 678 3744 
Q 678 4316 997 4589 
Q 1316 4863 1984 4863 
L 2841 4863 
z
" transform="scale(0.015625)"/>
     </defs>
     <use xlink:href="#DejaVuSans-Bold-66"/>
     <use xlink:href="#DejaVuSans-Bold-69" transform="translate(43.505859 0)"/>
     <use xlink:href="#DejaVuSans-Bold-65" transform="translate(77.783203 0)"/>
     <use xlink:href="#DejaVuSans-Bold-6c" transform="translate(145.605469 0)"/>
     <use xlink:href="#DejaVuSans-Bold-64" transform="translate(179.882812 0)"/>
    </g>
   </g>
   <g id="text_14">
    <!-- DeepONet neural operator surrogate -->
    <g transform="translate(196.138594 17.837812) scale(0.14 -0.14)">
     <defs>
      <path id="DejaVuSans-Bold-44" d="M 1791 3756 
L 1791 909 
L 2222 909 
Q 2959 909 3348 1275 
Q 3738 1641 3738 2338 
Q 3738 3031 3350 3393 
Q 2963 3756 2222 3756 
L 1791 3756 
z
M 588 4666 
L 1856 4666 
Q 2919 4666 3439 4514 
Q 3959 4363 4331 4000 
Q 4659 3684 4818 3271 
Q 4978 2859 4978 2338 
Q 4978 1809 4818 1395 
Q 4659 981 4331 666 
Q 3956 303 3431 151 
Q 2906 0 1856 0 
L 588 0 
L 588 4666 
z
" transform="scale(0.015625)"/>
      <path id="DejaVuSans-Bold-4f" d="M 2719 3878 
Q 2169 3878 1866 3472 
Q 1563 3066 1563 2328 
Q 1563 1594 1866 1187 
Q 2169 781 2719 781 
Q 3272 781 3575 1187 
Q 3878 1594 3878 2328 
Q 3878 3066 3575 3472 
Q 3272 3878 2719 3878 
z
M 2719 4750 
Q 3844 4750 4481 4106 
Q 5119 3463 5119 2328 
Q 5119 1197 4481 553 
Q 3844 -91 2719 -91 
Q 1597 -91 958 553 
Q 319 1197 319 2328 
Q 319 3463 958 4106 
Q 1597 4750 2719 4750 
z
" transform="scale(0.015625)"/>
      <path id="DejaVuSans-Bold-4e" d="M 588 4666 
L 1931 4666 
L 3628 1466 
L 3628 4666 
L 4769 4666 
L 4769 0 
L 3425 0 
L 1728 3200 
L 1728 0 
L 588 0 
L 588 4666 
z
" transform="scale(0.015625)"/>
      <path id="DejaVuSans-Bold-67" d="M 2919 594 
Q 2688 288 2409 144 
Q 2131 0 1766 0 
Q 1125 0 706 504 
Q 288 1009 288 1791 
Q 288 2575 706 3076 
Q 1125 3578 1766 3578 
Q 2131 3578 2409 3434 
Q 2688 3291 2919 2981 
L 2919 3500 
L 4044 3500 
L 4044 353 
Q 4044 -491 3511 -936 
Q 2978 -1381 1966 -1381 
Q 1638 -1381 1331 -1331 
Q 1025 -1281 716 -1178 
L 716 -306 
Q 1009 -475 1290 -558 
Q 1572 -641 1856 -641 
Q 2406 -641 2662 -400 
Q 2919 -159 2919 353 
L 2919 594 
z
M 2181 2772 
Q 1834 2772 1640 2515 
Q 1447 2259 1447 1791 
Q 1447 1309 1634 1061 
Q 1822 813 2181 813 
Q 2531 813 2725 1069 
Q 2919 1325 2919 1791 
Q 2919 2259 2725 2515 
Q 2531 2772 2181 2772 
z
" transform="scale(0.015625)"/>
     </defs>
     <use xlink:href="#DejaVuSans-Bold-44"/>
     <use xlink:href="#DejaVuSans-Bold-65" transform="translate(83.007812 0)"/>
     <use xlink:href="#DejaVuSans-Bold-65" transform="translate(150.830078 0)"/>
     <use xlink:href="#DejaVuSans-Bold-70" transform="translate(218.652344 0)"/>
     <use xlink:href="#DejaVuSans-Bold-4f" transform="translate(290.234375 0)"/>
     <use xlink:href="#DejaVuSans-Bold-4e" transform="translate(375.244141 0)"/>
     <use xlink:href="#DejaVuSans-Bold-65" transform="translate(458.935547 0)"/>
     <use xlink:href="#DejaVuSans-Bold-74" transform="translate(526.757812 0)"/>
     <use xlink:href="#DejaVuSans-Bold-20" transform="translate(574.560547 0)"/>
     <use xlink:href="#DejaVuSans-Bold-6e" transform="translate(609.375 0)"/>
     <use xlink:href="#DejaVuSans-Bold-65" transform="translate(680.566406 0)"/>
     <use xlink:href="#DejaVuSans-Bold-75" transform="translate(748.388672 0)"/>
     <use xlink:href="#DejaVuSans-Bold-72" transform="translate(819.580078 0)"/>
     <use xlink:href="#DejaVuSans-Bold-61" transform="translate(868.896484 0)"/>
     <use xlink:href="#DejaVuSans-Bold-6c" transform="translate(936.376953 0)"/>
     <use xlink:href="#DejaVuSans-Bold-20" transform="translate(970.654297 0)"/>
     <use xlink:href="#DejaVuSans-Bold-6f" transform="translate(1005.46875 0)"/>
     <use xlink:href="#DejaVuSans-Bold-70" transform="translate(1074.169922 0)"/>
     <use xlink:href="#DejaVuSans-Bold-65" transform="translate(1145.751953 0)"/>
     <use xlink:href="#DejaVuSans-Bold-72" transform="translate(1213.574219 0)"/>
     <use xlink:href="#DejaVuSans-Bold-61" transform="translate(1262.890625 0)"/>
     <use xlink:href="#DejaVuSans-Bold-74" transform="translate(1330.371094 0)"/>
     <use xlink:href="#DejaVuSans-Bold-6f" transform="translate(1378.173828 0)"/>
     <use xlink:href="#DejaVuSans-Bold-72" transform="translate(1446.875 0)"/>
     <use xlink:href="#DejaVuSans-Bold-20" transform="translate(1496.191406 0)"/>
     <use xlink:href="#DejaVuSans-Bold-73" transform="translate(1531.005859 0)"/>
     <use xlink:href="#DejaVuSans-Bold-75" transform="translate(1590.527344 0)"/>
     <use xlink:href="#DejaVuSans-Bold-72" transform="translate(1661.71875 0)"/>
     <use xlink:href="#DejaVuSans-Bold-72" transform="translate(1711.035156 0)"/>
     <use xlink:href="#DejaVuSans-Bold-6f" transform="translate(1760.351562 0)"/>
     <use xlink:href="#DejaVuSans-Bold-67" transform="translate(1829.052734 0)"/>
     <use xlink:href="#DejaVuSans-Bold-61" transform="translate(1900.634766 0)"/>
     <use xlink:href="#DejaVuSans-Bold-74" transform="translate(1968.115234 0)"/>
     <use xlink:href="#DejaVuSans-Bold-65" transform="translate(2015.917969 0)"/>
    </g>
    <!-- (feaweld.solver.neural_backend) -->
    <g transform="translate(214.114375 33.624125) scale(0.14 -0.14)">
     <defs>
      <path id="DejaVuSans-Bold-28" d="M 2413 -844 
L 1484 -844 
Q 1006 -72 778 623 
Q 550 1319 550 2003 
Q 550 2688 779 3389 
Q 1009 4091 1484 4856 
L 2413 4856 
Q 2013 4116 1813 3408 
Q 1613 2700 1613 2009 
Q 1613 1319 1811 609 
Q 2009 -100 2413 -844 
z
" transform="scale(0.015625)"/>
      <path id="DejaVuSans-Bold-2e" d="M 653 1209 
L 1778 1209 
L 1778 0 
L 653 0 
L 653 1209 
z
" transform="scale(0.015625)"/>
      <path id="DejaVuSans-Bold-76" d="M 97 3500 
L 1216 3500 
L 2088 1081 
L 2956 3500 
L 4078 3500 
L 2700 0 
L 1472 0 
L 97 3500 
z
" transform="scale(0.015625)"/>
      <path id="DejaVuSans-Bold-5f" d="M 3200 -916 
L 3200 -1509 
L 0 -1509 
L 0 -916 
L 3200 -916 
z
" transform="scale(0.015625)"/>
      <path id="DejaVuSans-Bold-62" d="M 2400 722 
Q 2759 722 2948 984 
Q 3138 1247 3138 1747 
Q 3138 2247 2948 2509 
Q 2759 2772 2400 2772 
Q 2041 2772 1848 2508 
Q 1656 2244 1656 1747 
Q 1656 1250 1848 986 
Q 2041 722 2400 722 
z
M 1656 2988 
Q 1888 3294 2169 3439 
Q 2450 3584 2816 3584 
Q 3463 3584 3878 3070 
Q 4294 2556 4294 1747 
Q 4294 938 3878 423 
Q 3463 -91 2816 -91 
Q 2450 -91 2169 54 
Q 1888 200 1656 506 
L 1656 0 
L 538 0 
L 538 4863 
L 1656 4863 
L 1656 2988 
z
" transform="scale(0.015625)"/>
      <path id="DejaVuSans-Bold-29" d="M 513 -844 
Q 913 -100 1113 609 
Q 1313 1319 1313 2009 
Q 1313 2700 1113 3408 
Q 913 4116 513 4856 
L 1441 4856 
Q 1916 4091 2145 3389 
Q 2375 2688 2375 2003 
Q 2375 1319 2147 623 
Q 1919 -72 1441 -844 
L 513 -844 
z
" transform="scale(0.015625)"/>
     </defs>
     <use xlink:href="#DejaVuSans-Bold-28"/>
     <use xlink:href="#DejaVuSans-Bold-66" transform="translate(45.703125 0)"/>
     <use xlink:href="#DejaVuSans-Bold-65" transform="translate(89.208984 0)"/>
     <use xlink:href="#DejaVuSans-Bold-61" transform="translate(157.03125 0)"/>
     <use xlink:href="#DejaVuSans-Bold-77" transform="translate(224.511719 0)"/>
     <use xlink:href="#DejaVuSans-Bold-65" transform="translate(316.894531 0)"/>
     <use xlink:href="#DejaVuSans-Bold-6c" transform="translate(384.716797 0)"/>
     <use xlink:href="#DejaVuSans-Bold-64" transform="translate(418.994141 0)"/>
     <use xlink:href="#DejaVuSans-Bold-2e" transform="translate(490.576172 0)"/>
     <use xlink:href="#DejaVuSans-Bold-73" transform="translate(528.564453 0)"/>
     <use xlink:href="#DejaVuSans-Bold-6f" transform="translate(588.085938 0)"/>
     <use xlink:href="#DejaVuSans-Bold-6c" transform="translate(656.787109 0)"/>
     <use xlink:href="#DejaVuSans-Bold-76" transform="translate(691.064453 0)"/>
     <use xlink:href="#DejaVuSans-Bold-65" transform="translate(756.25 0)"/>
     <use xlink:href="#DejaVuSans-Bold-72" transform="translate(824.072266 0)"/>
     <use xlink:href="#DejaVuSans-Bold-2e" transform="translate(859.138672 0)"/>
     <use xlink:href="#DejaVuSans-Bold-6e" transform="translate(897.126953 0)"/>
     <use xlink:href="#DejaVuSans-Bold-65" transform="translate(968.318359 0)"/>
     <use xlink:href="#DejaVuSans-Bold-75" transform="translate(1036.140625 0)"/>
     <use xlink:href="#DejaVuSans-Bold-72" transform="translate(1107.332031 0)"/>
     <use xlink:href="#DejaVuSans-Bold-61" transform="translate(1156.648438 0)"/>
     <use xlink:href="#DejaVuSans-Bold-6c" transform="translate(1224.128906 0)"/>
     <use xlink:href="#DejaVuSans-Bold-5f" transform="translate(1258.40625 0)"/>
     <use xlink:href="#DejaVuSans-Bold-62" transform="translate(1308.40625 0)"/>
     <use xlink:href="#DejaVuSans-Bold-61" transform="translate(1379.988281 0)"/>
     <use xlink:href="#DejaVuSans-Bold-63" transform="translate(1447.46875 0)"/>
     <use xlink:href="#DejaVuSans-Bold-6b" transform="translate(1506.746094 0)"/>
     <use xlink:href="#DejaVuSans-Bold-65" transform="translate(1570.625 0)"/>
     <use xlink:href="#DejaVuSans-Bold-6e" transform="translate(1638.447266 0)"/>
     <use xlink:href="#DejaVuSans-Bold-64" transform="translate(1709.638672 0)"/>
     <use xlink:href="#DejaVuSans-Bold-29" transform="translate(1781.220703 0)"/>
    </g>
   </g>
  </g>
 </g>
 <defs>
  <clipPath id="p67914d447d">
   <rect x="7.2" y="39.624125" width="669.6" height="332.64"/>
  </clipPath>
 </defs>
</svg>
