<?xml version="1.0" encoding="utf-8" standalone="no"?>
<!DOCTYPE svg PUBLIC "-//W3C//DTD SVG 1.1//EN"
  "http://www.w3.org/Graphics/SVG/1.1/DTD/svg11.dtd">
<svg xmlns:xlink="http://www.w3.org/1999/xlink" width="739.8pt" height="472.907166pt" viewBox="0 0 739.8 472.907166" xmlns="http://www.w3.org/2000/svg" version="1.1">
 <metadata>
  <rdf:RDF xmlns:dc="http://purl.org/dc/elements/1.1/" xmlns:cc="http://creativecommons.org/ns#" xmlns:rdf="http://www.w3.org/1999/02/22-rdf-syntax-ns#">
   <cc:Work>
    <dc:type rdf:resource="http://purl.org/dc/dcmitype/StillImage"/>
    <dc:date>2026-04-11T15:56:42.617314</dc:date>
    <dc:format>image/svg+xml</dc:format>
    <dc:creator>
     <cc:Agent>
      <dc:title>Matplotlib v3.10.8, https://matplotlib.org/</dc:title>
     </cc:Agent>
    </dc:creator>
   </cc:Work>
  </rdf:RDF>
 </metadata>
 <defs>
  <style type="text/css">*{stroke-linejoin: round; stroke-linecap: butt}</style>
 </defs>
 <g id="figure_1">
  <g id="patch_1">
   <path d="M 0 472.907166 
L 739.8 472.907166 
L 739.8 0 
L 0 0 
z
" style="fill: #fafafa"/>
  </g>
  <g id="axes_1">
   <g id="patch_2">
    <path d="M 7.2 223.787166 
L 220.552941 223.787166 
L 220.552941 107.412834 
L 7.2 107.412834 
z
" style="fill: #ffffff"/>
   </g>
   <g id="patch_3">
    <path d="M 16.897861 214.089305 
L 210.85508 214.089305 
L 210.85508 117.110695 
L 16.897861 117.110695 
z
" clip-path="url(#p32e685dfdd)" style="fill: #e0e0e0; stroke: #7f8c8d; stroke-linejoin: miter"/>
   </g>
   <g id="patch_4">
    <path d="M 75.085027 214.089305 
L 152.667914 214.089305 
L 133.272193 117.110695 
L 94.480749 117.110695 
z
" clip-path="url(#p32e685dfdd)" style="fill: #2980b9; fill-opacity: 0.333333; stroke: #2980b9; stroke-width: 1.2; stroke-linejoin: miter"/>
   </g>
   <g id="patch_5">
    <path d="M 113.876471 173.358289 
C 115.933993 173.358289 117.907521 172.540827 119.362409 171.085939 
C 120.817297 169.631051 121.634759 167.657522 121.634759 165.6 
C 121.634759 163.542478 120.817297 161.568949 119.362409 160.114061 
C 117.907521 158.659173 115.933993 157.841711 113.876471 157.841711 
C 111.818948 157.841711 109.84542 158.659173 108.390532 160.114061 
C 106.935644 161.568949 106.118182 163.542478 106.118182 165.6 
C 106.118182 167.657522 106.935644 169.631051 108.390532 171.085939 
C 109.84542 172.540827 111.818948 173.358289 113.876471 173.358289 
z
" clip-path="url(#p32e685dfdd)" style="fill: #ffffff; stroke: #e74c3c; stroke-width: 2; stroke-linejoin: miter"/>
   </g>
   <g id="matplotlib.axis_1"/>
   <g id="matplotlib.axis_2"/>
   <g id="patch_6">
    <path d="M 7.2 223.787166 
L 7.2 107.412834 
" style="fill: none; stroke: #000000; stroke-width: 0.8; stroke-linejoin: miter; stroke-linecap: square"/>
   </g>
   <g id="patch_7">
    <path d="M 220.552941 223.787166 
L 220.552941 107.412834 
" style="fill: none; stroke: #000000; stroke-width: 0.8; stroke-linejoin: miter; stroke-linecap: square"/>
   </g>
   <g id="patch_8">
    <path d="M 7.2 223.787166 
L 220.552941 223.787166 
" style="fill: none; stroke: #000000; stroke-width: 0.8; stroke-linejoin: miter; stroke-linecap: square"/>
   </g>
   <g id="patch_9">
    <path d="M 7.2 107.412834 
L 220.552941 107.412834 
" style="fill: none; stroke: #000000; stroke-width: 0.8; stroke-linejoin: miter; stroke-linecap: square"/>
   </g>
   <g id="text_1">
    <!-- Pore -->
    <g transform="translate(99.623736 101.412834) scale(0.11 -0.11)">
     <defs>
      <path id="DejaVuSans-Bold-50" d="M 588 4666 
L 2584 4666 
Q 3475 4666 3951 4270 
Q 4428 3875 4428 3144 
Q 4428 2409 3951 2014 
Q 3475 1619 2584 1619 
L 1791 1619 
L 1791 0 
L 588 0 
L 588 4666 
z
M 1791 3794 
L 1791 2491 
L 2456 2491 
Q 2806 2491 2997 2661 
Q 3188 2831 3188 3144 
Q 3188 3456 2997 3625 
Q 2806 3794 2456 3794 
L 1791 3794 
z
" transform="scale(0.015625)"/>
      <path id="DejaVuSans-Bold-6f" d="M 2203 2784 
Q 1831 2784 1636 2517 
Q 1441 2250 1441 1747 
Q 1441 1244 1636 976 
Q 1831 709 2203 709 
Q 2569 709 2762 976 
Q 2956 1244 2956 1747 
Q 2956 2250 2762 2517 
Q 2569 2784 2203 2784 
z
M 2203 3584 
Q 3106 3584 3614 3096 
Q 4122 2609 4122 1747 
Q 4122 884 3614 396 
Q 3106 -91 2203 -91 
Q 1297 -91 786 396 
Q 275 884 275 1747 
Q 275 2609 786 3096 
Q 1297 3584 2203 3584 
z
" transform="scale(0.015625)"/>
      <path id="DejaVuSans-Bold-72" d="M 3138 2547 
Q 2991 2616 2845 2648 
Q 2700 2681 2553 2681 
Q 2122 2681 1889 2404 
Q 1656 2128 1656 1613 
L 1656 0 
L 538 0 
L 538 3500 
L 1656 3500 
L 1656 2925 
Q 1872 3269 2151 3426 
Q 2431 3584 2822 3584 
Q 2878 3584 2943 3579 
Q 3009 3575 3134 3559 
L 3138 2547 
z
" transform="scale(0.015625)"/>
      <path id="DejaVuSans-Bold-65" d="M 4031 1759 
L 4031 1441 
L 1416 1441 
Q 1456 1047 1700 850 
Q 1944 653 2381 653 
Q 2734 653 3104 758 
Q 3475 863 3866 1075 
L 3866 213 
Q 3469 63 3072 -14 
Q 2675 -91 2278 -91 
Q 1328 -91 801 392 
Q 275 875 275 1747 
Q 275 2603 792 3093 
Q 1309 3584 2216 3584 
Q 3041 3584 3536 3087 
Q 4031 2591 4031 1759 
z
M 2881 2131 
Q 2881 2450 2695 2645 
Q 2509 2841 2209 2841 
Q 1884 2841 1681 2658 
Q 1478 2475 1428 2131 
L 2881 2131 
z
" transform="scale(0.015625)"/>
     </defs>
     <use xlink:href="#DejaVuSans-Bold-50"/>
     <use xlink:href="#DejaVuSans-Bold-6f" transform="translate(73.291016 0)"/>
     <use xlink:href="#DejaVuSans-Bold-72" transform="translate(141.992188 0)"/>
     <use xlink:href="#DejaVuSans-Bold-65" transform="translate(191.308594 0)"/>
    </g>
   </g>
  </g>
  <g id="axes_2">
   <g id="patch_10">
    <path d="M 263.223529 223.787166 
L 476.576471 223.787166 
L 476.576471 107.412834 
L 263.223529 107.412834 
z
" style="fill: #ffffff"/>
   </g>
   <g id="patch_11">
    <path d="M 272.92139 214.089305 
L 466.87861 214.089305 
L 466.87861 117.110695 
L 272.92139 117.110695 
z
" clip-path="url(#p594e9b21ce)" style="fill: #e0e0e0; stroke: #7f8c8d; stroke-linejoin: miter"/>
   </g>
   <g id="patch_12">
    <path d="M 331.108556 214.089305 
L 408.691444 214.089305 
L 389.295722 117.110695 
L 350.504278 117.110695 
z
" clip-path="url(#p594e9b21ce)" style="fill: #2980b9; fill-opacity: 0.333333; stroke: #2980b9; stroke-width: 1.2; stroke-linejoin: miter"/>
   </g>
   <g id="patch_13">
    <path d="M 369.9 169.479144 
C 373.114878 169.479144 376.198517 169.070413 378.471779 168.342969 
C 380.745041 167.615525 382.022326 166.628761 382.022326 165.6 
C 382.022326 164.571239 380.745041 163.584475 378.471779 162.857031 
C 376.198517 162.129587 373.114878 161.720856 369.9 161.720856 
C 366.685122 161.720856 363.601483 162.129587 361.328221 162.857031 
C 359.054959 163.584475 357.777674 164.571239 357.777674 165.6 
C 357.777674 166.628761 359.054959 167.615525 361.328221 168.342969 
C 363.601483 169.070413 366.685122 169.479144 369.9 169.479144 
z
" clip-path="url(#p594e9b21ce)" style="fill: #1a5276; opacity: 0.8; stroke: #1a5276; stroke-linejoin: miter"/>
   </g>
   <g id="matplotlib.axis_3"/>
   <g id="matplotlib.axis_4"/>
   <g id="patch_14">
    <path d="M 263.223529 223.787166 
L 263.223529 107.412834 
" style="fill: none; stroke: #000000; stroke-width: 0.8; stroke-linejoin: miter; stroke-linecap: square"/>
   </g>
   <g id="patch_15">
    <path d="M 476.576471 223.787166 
L 476.576471 107.412834 
" style="fill: none; stroke: #000000; stroke-width: 0.8; stroke-linejoin: miter; stroke-linecap: square"/>
   </g>
   <g id="patch_16">
    <path d="M 263.223529 223.787166 
L 476.576471 223.787166 
" style="fill: none; stroke: #000000; stroke-width: 0.8; stroke-linejoin: miter; stroke-linecap: square"/>
   </g>
   <g id="patch_17">
    <path d="M 263.223529 107.412834 
L 476.576471 107.412834 
" style="fill: none; stroke: #000000; stroke-width: 0.8; stroke-linejoin: miter; stroke-linecap: square"/>
   </g>
   <g id="text_2">
    <!-- Slag inclusion -->
    <g transform="translate(326.775703 101.412834) scale(0.11 -0.11)">
     <defs>
      <path id="DejaVuSans-Bold-53" d="M 3834 4519 
L 3834 3531 
Q 3450 3703 3084 3790 
Q 2719 3878 2394 3878 
Q 1963 3878 1756 3759 
Q 1550 3641 1550 3391 
Q 1550 3203 1689 3098 
Q 1828 2994 2194 2919 
L 2706 2816 
Q 3484 2659 3812 2340 
Q 4141 2022 4141 1434 
Q 4141 663 3683 286 
Q 3225 -91 2284 -91 
Q 1841 -91 1394 -6 
Q 947 78 500 244 
L 500 1259 
Q 947 1022 1364 901 
Q 1781 781 2169 781 
Q 2563 781 2772 912 
Q 2981 1044 2981 1288 
Q 2981 1506 2839 1625 
Q 2697 1744 2272 1838 
L 1806 1941 
Q 1106 2091 782 2419 
Q 459 2747 459 3303 
Q 459 4000 909 4375 
Q 1359 4750 2203 4750 
Q 2588 4750 2994 4692 
Q 3400 4634 3834 4519 
z
" transform="scale(0.015625)"/>
      <path id="DejaVuSans-Bold-6c" d="M 538 4863 
L 1656 4863 
L 1656 0 
L 538 0 
L 538 4863 
z
" transform="scale(0.015625)"/>
      <path id="DejaVuSans-Bold-61" d="M 2106 1575 
Q 1756 1575 1579 1456 
Q 1403 1338 1403 1106 
Q 1403 894 1545 773 
Q 1688 653 1941 653 
Q 2256 653 2472 879 
Q 2688 1106 2688 1447 
L 2688 1575 
L 2106 1575 
z
M 3816 1997 
L 3816 0 
L 2688 0 
L 2688 519 
Q 2463 200 2181 54 
Q 1900 -91 1497 -91 
Q 953 -91 614 226 
Q 275 544 275 1050 
Q 275 1666 698 1953 
Q 1122 2241 2028 2241 
L 2688 2241 
L 2688 2328 
Q 2688 2594 2478 2717 
Q 2269 2841 1825 2841 
Q 1466 2841 1156 2769 
Q 847 2697 581 2553 
L 581 3406 
Q 941 3494 1303 3539 
Q 1666 3584 2028 3584 
Q 2975 3584 3395 3211 
Q 3816 2838 3816 1997 
z
" transform="scale(0.015625)"/>
      <path id="DejaVuSans-Bold-67" d="M 2919 594 
Q 2688 288 2409 144 
Q 2131 0 1766 0 
Q 1125 0 706 504 
Q 288 1009 288 1791 
Q 288 2575 706 3076 
Q 1125 3578 1766 3578 
Q 2131 3578 2409 3434 
Q 2688 3291 2919 2981 
L 2919 3500 
L 4044 3500 
L 4044 353 
Q 4044 -491 3511 -936 
Q 2978 -1381 1966 -1381 
Q 1638 -1381 1331 -1331 
Q 1025 -1281 716 -1178 
L 716 -306 
Q 1009 -475 1290 -558 
Q 1572 -641 1856 -641 
Q 2406 -641 2662 -400 
Q 2919 -159 2919 353 
L 2919 594 
z
M 2181 2772 
Q 1834 2772 1640 2515 
Q 1447 2259 1447 1791 
Q 1447 1309 1634 1061 
Q 1822 813 2181 813 
Q 2531 813 2725 1069 
Q 2919 1325 2919 1791 
Q 2919 2259 2725 2515 
Q 2531 2772 2181 2772 
z
" transform="scale(0.015625)"/>
      <path id="DejaVuSans-Bold-20" transform="scale(0.015625)"/>
      <path id="DejaVuSans-Bold-69" d="M 538 3500 
L 1656 3500 
L 1656 0 
L 538 0 
L 538 3500 
z
M 538 4863 
L 1656 4863 
L 1656 3950 
L 538 3950 
L 538 4863 
z
" transform="scale(0.015625)"/>
      <path id="DejaVuSans-Bold-6e" d="M 4056 2131 
L 4056 0 
L 2931 0 
L 2931 347 
L 2931 1631 
Q 2931 2084 2911 2256 
Q 2891 2428 2841 2509 
Q 2775 2619 2662 2680 
Q 2550 2741 2406 2741 
Q 2056 2741 1856 2470 
Q 1656 2200 1656 1722 
L 1656 0 
L 538 0 
L 538 3500 
L 1656 3500 
L 1656 2988 
Q 1909 3294 2193 3439 
Q 2478 3584 2822 3584 
Q 3428 3584 3742 3212 
Q 4056 2841 4056 2131 
z
" transform="scale(0.015625)"/>
      <path id="DejaVuSans-Bold-63" d="M 3366 3391 
L 3366 2478 
Q 3138 2634 2908 2709 
Q 2678 2784 2431 2784 
Q 1963 2784 1702 2511 
Q 1441 2238 1441 1747 
Q 1441 1256 1702 982 
Q 1963 709 2431 709 
Q 2694 709 2930 787 
Q 3166 866 3366 1019 
L 3366 103 
Q 3103 6 2833 -42 
Q 2563 -91 2291 -91 
Q 1344 -91 809 395 
Q 275 881 275 1747 
Q 275 2613 809 3098 
Q 1344 3584 2291 3584 
Q 2566 3584 2833 3536 
Q 3100 3488 3366 3391 
z
" transform="scale(0.015625)"/>
      <path id="DejaVuSans-Bold-75" d="M 500 1363 
L 500 3500 
L 1625 3500 
L 1625 3150 
Q 1625 2866 1622 2436 
Q 1619 2006 1619 1863 
Q 1619 1441 1641 1255 
Q 1663 1069 1716 984 
Q 1784 875 1895 815 
Q 2006 756 2150 756 
Q 2500 756 2700 1025 
Q 2900 1294 2900 1772 
L 2900 3500 
L 4019 3500 
L 4019 0 
L 2900 0 
L 2900 506 
Q 2647 200 2364 54 
Q 2081 -91 1741 -91 
Q 1134 -91 817 281 
Q 500 653 500 1363 
z
" transform="scale(0.015625)"/>
      <path id="DejaVuSans-Bold-73" d="M 3272 3391 
L 3272 2541 
Q 2913 2691 2578 2766 
Q 2244 2841 1947 2841 
Q 1628 2841 1473 2761 
Q 1319 2681 1319 2516 
Q 1319 2381 1436 2309 
Q 1553 2238 1856 2203 
L 2053 2175 
Q 2913 2066 3209 1816 
Q 3506 1566 3506 1031 
Q 3506 472 3093 190 
Q 2681 -91 1863 -91 
Q 1516 -91 1145 -36 
Q 775 19 384 128 
L 384 978 
Q 719 816 1070 734 
Q 1422 653 1784 653 
Q 2113 653 2278 743 
Q 2444 834 2444 1013 
Q 2444 1163 2330 1236 
Q 2216 1309 1875 1350 
L 1678 1375 
Q 931 1469 631 1722 
Q 331 1975 331 2491 
Q 331 3047 712 3315 
Q 1094 3584 1881 3584 
Q 2191 3584 2531 3537 
Q 2872 3491 3272 3391 
z
" transform="scale(0.015625)"/>
     </defs>
     <use xlink:href="#DejaVuSans-Bold-53"/>
     <use xlink:href="#DejaVuSans-Bold-6c" transform="translate(72.021484 0)"/>
     <use xlink:href="#DejaVuSans-Bold-61" transform="translate(106.298828 0)"/>
     <use xlink:href="#DejaVuSans-Bold-67" transform="translate(173.779297 0)"/>
     <use xlink:href="#DejaVuSans-Bold-20" transform="translate(245.361328 0)"/>
     <use xlink:href="#DejaVuSans-Bold-69" transform="translate(280.175781 0)"/>
     <use xlink:href="#DejaVuSans-Bold-6e" transform="translate(314.453125 0)"/>
     <use xlink:href="#DejaVuSans-Bold-63" transform="translate(385.644531 0)"/>
     <use xlink:href="#DejaVuSans-Bold-6c" transform="translate(444.921875 0)"/>
     <use xlink:href="#DejaVuSans-Bold-75" transform="translate(479.199219 0)"/>
     <use xlink:href="#DejaVuSans-Bold-73" transform="translate(550.390625 0)"/>
     <use xlink:href="#DejaVuSans-Bold-69" transform="translate(609.912109 0)"/>
     <use xlink:href="#DejaVuSans-Bold-6f" transform="translate(644.189453 0)"/>
     <use xlink:href="#DejaVuSans-Bold-6e" transform="translate(712.890625 0)"/>
    </g>
   </g>
  </g>
  <g id="axes_3">
   <g id="patch_18">
    <path d="M 519.247059 223.787166 
L 732.6 223.787166 
L 732.6 107.412834 
L 519.247059 107.412834 
z
" style="fill: #ffffff"/>
   </g>
   <g id="patch_19">
    <path d="M 528.94492 214.089305 
L 722.902139 214.089305 
L 722.902139 117.110695 
L 528.94492 117.110695 
z
" clip-path="url(#p7b90e48f17)" style="fill: #e0e0e0; stroke: #7f8c8d; stroke-linejoin: miter"/>
   </g>
   <g id="patch_20">
    <path d="M 587.132086 214.089305 
L 664.714973 214.089305 
L 645.319251 117.110695 
L 606.527807 117.110695 
z
" clip-path="url(#p7b90e48f17)" style="fill: #2980b9; fill-opacity: 0.333333; stroke: #2980b9; stroke-width: 1.2; stroke-linejoin: miter"/>
   </g>
   <g id="patch_21">
    <path d="M 635.62139 117.110695 
L 655.017112 117.110695 
L 645.319251 123.899198 
z
" clip-path="url(#p7b90e48f17)" style="fill: #e74c3c; stroke: #e74c3c; stroke-linejoin: miter"/>
   </g>
   <g id="matplotlib.axis_5"/>
   <g id="matplotlib.axis_6"/>
   <g id="line2d_1">
    <path d="M 587.132086 117.110695 
L 606.527807 117.110695 
" clip-path="url(#p7b90e48f17)" style="fill: none; stroke: #7f8c8d; stroke-width: 2; stroke-linecap: square"/>
   </g>
   <g id="patch_22">
    <path d="M 519.247059 223.787166 
L 519.247059 107.412834 
" style="fill: none; stroke: #000000; stroke-width: 0.8; stroke-linejoin: miter; stroke-linecap: square"/>
   </g>
   <g id="patch_23">
    <path d="M 732.6 223.787166 
L 732.6 107.412834 
" style="fill: none; stroke: #000000; stroke-width: 0.8; stroke-linejoin: miter; stroke-linecap: square"/>
   </g>
   <g id="patch_24">
    <path d="M 519.247059 223.787166 
L 732.6 223.787166 
" style="fill: none; stroke: #000000; stroke-width: 0.8; stroke-linejoin: miter; stroke-linecap: square"/>
   </g>
   <g id="patch_25">
    <path d="M 519.247059 107.412834 
L 732.6 107.412834 
" style="fill: none; stroke: #000000; stroke-width: 0.8; stroke-linejoin: miter; stroke-linecap: square"/>
   </g>
   <g id="text_3">
    <!-- Undercut -->
    <g transform="translate(597.357904 101.412834) scale(0.11 -0.11)">
     <defs>
      <path id="DejaVuSans-Bold-55" d="M 588 4666 
L 1791 4666 
L 1791 1869 
Q 1791 1291 1980 1042 
Q 2169 794 2597 794 
Q 3028 794 3217 1042 
Q 3406 1291 3406 1869 
L 3406 4666 
L 4609 4666 
L 4609 1869 
Q 4609 878 4112 393 
Q 3616 -91 2597 -91 
Q 1581 -91 1084 393 
Q 588 878 588 1869 
L 588 4666 
z
" transform="scale(0.015625)"/>
      <path id="DejaVuSans-Bold-64" d="M 2919 2988 
L 2919 4863 
L 4044 4863 
L 4044 0 
L 2919 0 
L 2919 506 
Q 2688 197 2409 53 
Q 2131 -91 1766 -91 
Q 1119 -91 703 423 
Q 288 938 288 1747 
Q 288 2556 703 3070 
Q 1119 3584 1766 3584 
Q 2128 3584 2408 3439 
Q 2688 3294 2919 2988 
z
M 2181 722 
Q 2541 722 2730 984 
Q 2919 1247 2919 1747 
Q 2919 2247 2730 2509 
Q 2541 2772 2181 2772 
Q 1825 2772 1636 2509 
Q 1447 2247 1447 1747 
Q 1447 1247 1636 984 
Q 1825 722 2181 722 
z
" transform="scale(0.015625)"/>
      <path id="DejaVuSans-Bold-74" d="M 1759 4494 
L 1759 3500 
L 2913 3500 
L 2913 2700 
L 1759 2700 
L 1759 1216 
Q 1759 972 1856 886 
Q 1953 800 2241 800 
L 2816 800 
L 2816 0 
L 1856 0 
Q 1194 0 917 276 
Q 641 553 641 1216 
L 641 2700 
L 84 2700 
L 84 3500 
L 641 3500 
L 641 4494 
L 1759 4494 
z
" transform="scale(0.015625)"/>
     </defs>
     <use xlink:href="#DejaVuSans-Bold-55"/>
     <use xlink:href="#DejaVuSans-Bold-6e" transform="translate(81.201172 0)"/>
     <use xlink:href="#DejaVuSans-Bold-64" transform="translate(152.392578 0)"/>
     <use xlink:href="#DejaVuSans-Bold-65" transform="translate(223.974609 0)"/>
     <use xlink:href="#DejaVuSans-Bold-72" transform="translate(291.796875 0)"/>
     <use xlink:href="#DejaVuSans-Bold-63" transform="translate(341.113281 0)"/>
     <use xlink:href="#DejaVuSans-Bold-75" transform="translate(400.390625 0)"/>
     <use xlink:href="#DejaVuSans-Bold-74" transform="translate(471.582031 0)"/>
    </g>
   </g>
  </g>
  <g id="axes_4">
   <g id="patch_26">
    <path d="M 7.2 465.707166 
L 220.552941 465.707166 
L 220.552941 349.332834 
L 7.2 349.332834 
z
" style="fill: #ffffff"/>
   </g>
   <g id="patch_27">
    <path d="M 16.897861 456.009305 
L 210.85508 456.009305 
L 210.85508 359.030695 
L 16.897861 359.030695 
z
" clip-path="url(#paf3a751fe1)" style="fill: #e0e0e0; stroke: #7f8c8d; stroke-linejoin: miter"/>
   </g>
   <g id="patch_28">
    <path d="M 75.085027 456.009305 
L 152.667914 456.009305 
L 133.272193 359.030695 
L 94.480749 359.030695 
z
" clip-path="url(#paf3a751fe1)" style="fill: #2980b9; fill-opacity: 0.333333; stroke: #2980b9; stroke-width: 1.2; stroke-linejoin: miter"/>
   </g>
   <g id="matplotlib.axis_7"/>
   <g id="matplotlib.axis_8"/>
   <g id="line2d_2">
    <path d="M 79.933957 436.613583 
L 89.631818 378.426417 
" clip-path="url(#paf3a751fe1)" style="fill: none; stroke: #e74c3c; stroke-width: 2.5; stroke-linecap: square"/>
   </g>
   <g id="patch_29">
    <path d="M 7.2 465.707166 
L 7.2 349.332834 
" style="fill: none; stroke: #000000; stroke-width: 0.8; stroke-linejoin: miter; stroke-linecap: square"/>
   </g>
   <g id="patch_30">
    <path d="M 220.552941 465.707166 
L 220.552941 349.332834 
" style="fill: none; stroke: #000000; stroke-width: 0.8; stroke-linejoin: miter; stroke-linecap: square"/>
   </g>
   <g id="patch_31">
    <path d="M 7.2 465.707166 
L 220.552941 465.707166 
" style="fill: none; stroke: #000000; stroke-width: 0.8; stroke-linejoin: miter; stroke-linecap: square"/>
   </g>
   <g id="patch_32">
    <path d="M 7.2 349.332834 
L 220.552941 349.332834 
" style="fill: none; stroke: #000000; stroke-width: 0.8; stroke-linejoin: miter; stroke-linecap: square"/>
   </g>
   <g id="text_4">
    <!-- Lack of fusion -->
    <g transform="translate(70.581158 343.332834) scale(0.11 -0.11)">
     <defs>
      <path id="DejaVuSans-Bold-4c" d="M 588 4666 
L 1791 4666 
L 1791 909 
L 3903 909 
L 3903 0 
L 588 0 
L 588 4666 
z
" transform="scale(0.015625)"/>
      <path id="DejaVuSans-Bold-6b" d="M 538 4863 
L 1656 4863 
L 1656 2216 
L 2944 3500 
L 4244 3500 
L 2534 1894 
L 4378 0 
L 3022 0 
L 1656 1459 
L 1656 0 
L 538 0 
L 538 4863 
z
" transform="scale(0.015625)"/>
      <path id="DejaVuSans-Bold-66" d="M 2841 4863 
L 2841 4128 
L 2222 4128 
Q 1984 4128 1890 4042 
Q 1797 3956 1797 3744 
L 1797 3500 
L 2753 3500 
L 2753 2700 
L 1797 2700 
L 1797 0 
L 678 0 
L 678 2700 
L 122 2700 
L 122 3500 
L 678 3500 
L 678 3744 
Q 678 4316 997 4589 
Q 1316 4863 1984 4863 
L 2841 4863 
z
" transform="scale(0.015625)"/>
     </defs>
     <use xlink:href="#DejaVuSans-Bold-4c"/>
     <use xlink:href="#DejaVuSans-Bold-61" transform="translate(63.720703 0)"/>
     <use xlink:href="#DejaVuSans-Bold-63" transform="translate(131.201172 0)"/>
     <use xlink:href="#DejaVuSans-Bold-6b" transform="translate(190.478516 0)"/>
     <use xlink:href="#DejaVuSans-Bold-20" transform="translate(256.982422 0)"/>
     <use xlink:href="#DejaVuSans-Bold-6f" transform="translate(291.796875 0)"/>
     <use xlink:href="#DejaVuSans-Bold-66" transform="translate(360.498047 0)"/>
     <use xlink:href="#DejaVuSans-Bold-20" transform="translate(404.003906 0)"/>
     <use xlink:href="#DejaVuSans-Bold-66" transform="translate(438.818359 0)"/>
     <use xlink:href="#DejaVuSans-Bold-75" transform="translate(482.324219 0)"/>
     <use xlink:href="#DejaVuSans-Bold-73" transform="translate(553.515625 0)"/>
     <use xlink:href="#DejaVuSans-Bold-69" transform="translate(613.037109 0)"/>
     <use xlink:href="#DejaVuSans-Bold-6f" transform="translate(647.314453 0)"/>
     <use xlink:href="#DejaVuSans-Bold-6e" transform="translate(716.015625 0)"/>
    </g>
   </g>
  </g>
  <g id="axes_5">
   <g id="patch_33">
    <path d="M 263.223529 465.707166 
L 476.576471 465.707166 
L 476.576471 349.332834 
L 263.223529 349.332834 
z
" style="fill: #ffffff"/>
   </g>
   <g id="patch_34">
    <path d="M 272.92139 456.009305 
L 466.87861 456.009305 
L 466.87861 359.030695 
L 272.92139 359.030695 
z
" clip-path="url(#p0e6e0f0eee)" style="fill: #e0e0e0; stroke: #7f8c8d; stroke-linejoin: miter"/>
   </g>
   <g id="patch_35">
    <path d="M 331.108556 456.009305 
L 408.691444 456.009305 
L 389.295722 359.030695 
L 350.504278 359.030695 
z
" clip-path="url(#p0e6e0f0eee)" style="fill: #2980b9; fill-opacity: 0.333333; stroke: #2980b9; stroke-width: 1.2; stroke-linejoin: miter"/>
   </g>
   <g id="patch_36">
    <path d="M 366.020856 456.009305 
L 373.779144 456.009305 
L 373.779144 441.462513 
L 366.020856 441.462513 
z
" clip-path="url(#p0e6e0f0eee)" style="fill: #ffffff; stroke: #e74c3c; stroke-width: 2; stroke-linejoin: miter"/>
   </g>
   <g id="matplotlib.axis_9"/>
   <g id="matplotlib.axis_10"/>
   <g id="patch_37">
    <path d="M 263.223529 465.707166 
L 263.223529 349.332834 
" style="fill: none; stroke: #000000; stroke-width: 0.8; stroke-linejoin: miter; stroke-linecap: square"/>
   </g>
   <g id="patch_38">
    <path d="M 476.576471 465.707166 
L 476.576471 349.332834 
" style="fill: none; stroke: #000000; stroke-width: 0.8; stroke-linejoin: miter; stroke-linecap: square"/>
   </g>
   <g id="patch_39">
    <path d="M 263.223529 465.707166 
L 476.576471 465.707166 
" style="fill: none; stroke: #000000; stroke-width: 0.8; stroke-linejoin: miter; stroke-linecap: square"/>
   </g>
   <g id="patch_40">
    <path d="M 263.223529 349.332834 
L 476.576471 349.332834 
" style="fill: none; stroke: #000000; stroke-width: 0.8; stroke-linejoin: miter; stroke-linecap: square"/>
   </g>
   <g id="text_5">
    <!-- Root gap -->
    <g transform="translate(341.978906 343.332834) scale(0.11 -0.11)">
     <defs>
      <path id="DejaVuSans-Bold-52" d="M 2297 2597 
Q 2675 2597 2839 2737 
Q 3003 2878 3003 3200 
Q 3003 3519 2839 3656 
Q 2675 3794 2297 3794 
L 1791 3794 
L 1791 2597 
L 2297 2597 
z
M 1791 1766 
L 1791 0 
L 588 0 
L 588 4666 
L 2425 4666 
Q 3347 4666 3776 4356 
Q 4206 4047 4206 3378 
Q 4206 2916 3982 2619 
Q 3759 2322 3309 2181 
Q 3556 2125 3751 1926 
Q 3947 1728 4147 1325 
L 4800 0 
L 3519 0 
L 2950 1159 
Q 2778 1509 2601 1637 
Q 2425 1766 2131 1766 
L 1791 1766 
z
" transform="scale(0.015625)"/>
      <path id="DejaVuSans-Bold-70" d="M 1656 506 
L 1656 -1331 
L 538 -1331 
L 538 3500 
L 1656 3500 
L 1656 2988 
Q 1888 3294 2169 3439 
Q 2450 3584 2816 3584 
Q 3463 3584 3878 3070 
Q 4294 2556 4294 1747 
Q 4294 938 3878 423 
Q 3463 -91 2816 -91 
Q 2450 -91 2169 54 
Q 1888 200 1656 506 
z
M 2400 2772 
Q 2041 2772 1848 2508 
Q 1656 2244 1656 1747 
Q 1656 1250 1848 986 
Q 2041 722 2400 722 
Q 2759 722 2948 984 
Q 3138 1247 3138 1747 
Q 3138 2247 2948 2509 
Q 2759 2772 2400 2772 
z
" transform="scale(0.015625)"/>
     </defs>
     <use xlink:href="#DejaVuSans-Bold-52"/>
     <use xlink:href="#DejaVuSans-Bold-6f" transform="translate(77.001953 0)"/>
     <use xlink:href="#DejaVuSans-Bold-6f" transform="translate(145.703125 0)"/>
     <use xlink:href="#DejaVuSans-Bold-74" transform="translate(214.404297 0)"/>
     <use xlink:href="#DejaVuSans-Bold-20" transform="translate(262.207031 0)"/>
     <use xlink:href="#DejaVuSans-Bold-67" transform="translate(297.021484 0)"/>
     <use xlink:href="#DejaVuSans-Bold-61" transform="translate(368.603516 0)"/>
     <use xlink:href="#DejaVuSans-Bold-70" transform="translate(436.083984 0)"/>
    </g>
   </g>
  </g>
  <g id="axes_6">
   <g id="patch_41">
    <path d="M 519.247059 465.707166 
L 732.6 465.707166 
L 732.6 349.332834 
L 519.247059 349.332834 
z
" style="fill: #ffffff"/>
   </g>
   <g id="patch_42">
    <path d="M 528.94492 456.009305 
L 722.902139 456.009305 
L 722.902139 359.030695 
L 528.94492 359.030695 
z
" clip-path="url(#pd13a3a4b2e)" style="fill: #e0e0e0; stroke: #7f8c8d; stroke-linejoin: miter"/>
   </g>
   <g id="patch_43">
    <path d="M 587.132086 456.009305 
L 664.714973 456.009305 
L 645.319251 359.030695 
L 606.527807 359.030695 
z
" clip-path="url(#pd13a3a4b2e)" style="fill: #2980b9; fill-opacity: 0.333333; stroke: #2980b9; stroke-width: 1.2; stroke-linejoin: miter"/>
   </g>
   <g id="matplotlib.axis_11"/>
   <g id="matplotlib.axis_12"/>
   <g id="line2d_3">
    <path d="M 616.225668 363.879626 
L 617.246496 362.912526 
L 618.267323 362.052882 
L 619.288151 361.300693 
L 620.308978 360.65596 
L 621.329806 360.118682 
L 622.350633 359.68886 
L 623.371461 359.366494 
L 624.392288 359.151583 
L 625.413116 359.044127 
L 626.433943 359.044127 
L 627.454771 359.151583 
L 628.475598 359.366494 
L 629.496426 359.68886 
L 630.517253 360.118682 
L 631.53808 360.65596 
L 632.558908 361.300693 
L 633.579735 362.052882 
L 634.600563 362.912526 
L 635.62139 363.879626 
" clip-path="url(#pd13a3a4b2e)" style="fill: none; stroke: #e74c3c; stroke-width: 2; stroke-linecap: square"/>
   </g>
   <g id="line2d_4">
    <path d="M 616.225668 359.030695 
L 635.62139 359.030695 
" clip-path="url(#pd13a3a4b2e)" style="fill: none; stroke: #7f8c8d; stroke-width: 1.5; stroke-linecap: square"/>
   </g>
   <g id="patch_44">
    <path d="M 519.247059 465.707166 
L 519.247059 349.332834 
" style="fill: none; stroke: #000000; stroke-width: 0.8; stroke-linejoin: miter; stroke-linecap: square"/>
   </g>
   <g id="patch_45">
    <path d="M 732.6 465.707166 
L 732.6 349.332834 
" style="fill: none; stroke: #000000; stroke-width: 0.8; stroke-linejoin: miter; stroke-linecap: square"/>
   </g>
   <g id="patch_46">
    <path d="M 519.247059 465.707166 
L 732.6 465.707166 
" style="fill: none; stroke: #000000; stroke-width: 0.8; stroke-linejoin: miter; stroke-linecap: square"/>
   </g>
   <g id="patch_47">
    <path d="M 519.247059 349.332834 
L 732.6 349.332834 
" style="fill: none; stroke: #000000; stroke-width: 0.8; stroke-linejoin: miter; stroke-linecap: square"/>
   </g>
   <g id="text_6">
    <!-- Surface crack -->
    <g transform="translate(583.723061 343.332834) scale(0.11 -0.11)">
     <use xlink:href="#DejaVuSans-Bold-53"/>
     <use xlink:href="#DejaVuSans-Bold-75" transform="translate(72.021484 0)"/>
     <use xlink:href="#DejaVuSans-Bold-72" transform="translate(143.212891 0)"/>
     <use xlink:href="#DejaVuSans-Bold-66" transform="translate(192.529297 0)"/>
     <use xlink:href="#DejaVuSans-Bold-61" transform="translate(236.035156 0)"/>
     <use xlink:href="#DejaVuSans-Bold-63" transform="translate(303.515625 0)"/>
     <use xlink:href="#DejaVuSans-Bold-65" transform="translate(362.792969 0)"/>
     <use xlink:href="#DejaVuSans-Bold-20" transform="translate(430.615234 0)"/>
     <use xlink:href="#DejaVuSans-Bold-63" transform="translate(465.429688 0)"/>
     <use xlink:href="#DejaVuSans-Bold-72" transform="translate(524.707031 0)"/>
     <use xlink:href="#DejaVuSans-Bold-61" transform="translate(574.023438 0)"/>
     <use xlink:href="#DejaVuSans-Bold-63" transform="translate(641.503906 0)"/>
     <use xlink:href="#DejaVuSans-Bold-6b" transform="translate(700.78125 0)"/>
    </g>
   </g>
  </g>
  <g id="text_7">
   <!-- Weld defect types (feaweld.defects) -->
   <g transform="translate(231.988906 17.837812) scale(0.14 -0.14)">
    <defs>
     <path id="DejaVuSans-57" d="M 213 4666 
L 850 4666 
L 1831 722 
L 2809 4666 
L 3519 4666 
L 4500 722 
L 5478 4666 
L 6119 4666 
L 4947 0 
L 4153 0 
L 3169 4050 
L 2175 0 
L 1381 0 
L 213 4666 
z
" transform="scale(0.015625)"/>
     <path id="DejaVuSans-65" d="M 3597 1894 
L 3597 1613 
L 953 1613 
Q 991 1019 1311 708 
Q 1631 397 2203 397 
Q 2534 397 2845 478 
Q 3156 559 3463 722 
L 3463 178 
Q 3153 47 2828 -22 
Q 2503 -91 2169 -91 
Q 1331 -91 842 396 
Q 353 884 353 1716 
Q 353 2575 817 3079 
Q 1281 3584 2069 3584 
Q 2775 3584 3186 3129 
Q 3597 2675 3597 1894 
z
M 3022 2063 
Q 3016 2534 2758 2815 
Q 2500 3097 2075 3097 
Q 1594 3097 1305 2825 
Q 1016 2553 972 2059 
L 3022 2063 
z
" transform="scale(0.015625)"/>
     <path id="DejaVuSans-6c" d="M 603 4863 
L 1178 4863 
L 1178 0 
L 603 0 
L 603 4863 
z
" transform="scale(0.015625)"/>
     <path id="DejaVuSans-64" d="M 2906 2969 
L 2906 4863 
L 3481 4863 
L 3481 0 
L 2906 0 
L 2906 525 
Q 2725 213 2448 61 
Q 2172 -91 1784 -91 
Q 1150 -91 751 415 
Q 353 922 353 1747 
Q 353 2572 751 3078 
Q 1150 3584 1784 3584 
Q 2172 3584 2448 3432 
Q 2725 3281 2906 2969 
z
M 947 1747 
Q 947 1113 1208 752 
Q 1469 391 1925 391 
Q 2381 391 2643 752 
Q 2906 1113 2906 1747 
Q 2906 2381 2643 2742 
Q 2381 3103 1925 3103 
Q 1469 3103 1208 2742 
Q 947 2381 947 1747 
z
" transform="scale(0.015625)"/>
     <path id="DejaVuSans-20" transform="scale(0.015625)"/>
     <path id="DejaVuSans-66" d="M 2375 4863 
L 2375 4384 
L 1825 4384 
Q 1516 4384 1395 4259 
Q 1275 4134 1275 3809 
L 1275 3500 
L 2222 3500 
L 2222 3053 
L 1275 3053 
L 1275 0 
L 697 0 
L 697 3053 
L 147 3053 
L 147 3500 
L 697 3500 
L 697 3744 
Q 697 4328 969 4595 
Q 1241 4863 1831 4863 
L 2375 4863 
z
" transform="scale(0.015625)"/>
     <path id="DejaVuSans-63" d="M 3122 3366 
L 3122 2828 
Q 2878 2963 2633 3030 
Q 2388 3097 2138 3097 
Q 1578 3097 1268 2742 
Q 959 2388 959 1747 
Q 959 1106 1268 751 
Q 1578 397 2138 397 
Q 2388 397 2633 464 
Q 2878 531 3122 666 
L 3122 134 
Q 2881 22 2623 -34 
Q 2366 -91 2075 -91 
Q 1284 -91 818 406 
Q 353 903 353 1747 
Q 353 2603 823 3093 
Q 1294 3584 2113 3584 
Q 2378 3584 2631 3529 
Q 2884 3475 3122 3366 
z
" transform="scale(0.015625)"/>
     <path id="DejaVuSans-74" d="M 1172 4494 
L 1172 3500 
L 2356 3500 
L 2356 3053 
L 1172 3053 
L 1172 1153 
Q 1172 725 1289 603 
Q 1406 481 1766 481 
L 2356 481 
L 2356 0 
L 1766 0 
Q 1100 0 847 248 
Q 594 497 594 1153 
L 594 3053 
L 172 3053 
L 172 3500 
L 594 3500 
L 594 4494 
L 1172 4494 
z
" transform="scale(0.015625)"/>
     <path id="DejaVuSans-79" d="M 2059 -325 
Q 1816 -950 1584 -1140 
Q 1353 -1331 966 -1331 
L 506 -1331 
L 506 -850 
L 844 -850 
Q 1081 -850 1212 -737 
Q 1344 -625 1503 -206 
L 1606 56 
L 191 3500 
L 800 3500 
L 1894 763 
L 2988 3500 
L 3597 3500 
L 2059 -325 
z
" transform="scale(0.015625)"/>
     <path id="DejaVuSans-70" d="M 1159 525 
L 1159 -1331 
L 581 -1331 
L 581 3500 
L 1159 3500 
L 1159 2969 
Q 1341 3281 1617 3432 
Q 1894 3584 2278 3584 
Q 2916 3584 3314 3078 
Q 3713 2572 3713 1747 
Q 3713 922 3314 415 
Q 2916 -91 2278 -91 
Q 1894 -91 1617 61 
Q 1341 213 1159 525 
z
M 3116 1747 
Q 3116 2381 2855 2742 
Q 2594 3103 2138 3103 
Q 1681 3103 1420 2742 
Q 1159 2381 1159 1747 
Q 1159 1113 1420 752 
Q 1681 391 2138 391 
Q 2594 391 2855 752 
Q 3116 1113 3116 1747 
z
" transform="scale(0.015625)"/>
     <path id="DejaVuSans-73" d="M 2834 3397 
L 2834 2853 
Q 2591 2978 2328 3040 
Q 2066 3103 1784 3103 
Q 1356 3103 1142 2972 
Q 928 2841 928 2578 
Q 928 2378 1081 2264 
Q 1234 2150 1697 2047 
L 1894 2003 
Q 2506 1872 2764 1633 
Q 3022 1394 3022 966 
Q 3022 478 2636 193 
Q 2250 -91 1575 -91 
Q 1294 -91 989 -36 
Q 684 19 347 128 
L 347 722 
Q 666 556 975 473 
Q 1284 391 1588 391 
Q 1994 391 2212 530 
Q 2431 669 2431 922 
Q 2431 1156 2273 1281 
Q 2116 1406 1581 1522 
L 1381 1569 
Q 847 1681 609 1914 
Q 372 2147 372 2553 
Q 372 3047 722 3315 
Q 1072 3584 1716 3584 
Q 2034 3584 2315 3537 
Q 2597 3491 2834 3397 
z
" transform="scale(0.015625)"/>
     <path id="DejaVuSans-28" d="M 1984 4856 
Q 1566 4138 1362 3434 
Q 1159 2731 1159 2009 
Q 1159 1288 1364 580 
Q 1569 -128 1984 -844 
L 1484 -844 
Q 1016 -109 783 600 
Q 550 1309 550 2009 
Q 550 2706 781 3412 
Q 1013 4119 1484 4856 
L 1984 4856 
z
" transform="scale(0.015625)"/>
     <path id="DejaVuSans-61" d="M 2194 1759 
Q 1497 1759 1228 1600 
Q 959 1441 959 1056 
Q 959 750 1161 570 
Q 1363 391 1709 391 
Q 2188 391 2477 730 
Q 2766 1069 2766 1631 
L 2766 1759 
L 2194 1759 
z
M 3341 1997 
L 3341 0 
L 2766 0 
L 2766 531 
Q 2569 213 2275 61 
Q 1981 -91 1556 -91 
Q 1019 -91 701 211 
Q 384 513 384 1019 
Q 384 1609 779 1909 
Q 1175 2209 1959 2209 
L 2766 2209 
L 2766 2266 
Q 2766 2663 2505 2880 
Q 2244 3097 1772 3097 
Q 1472 3097 1187 3025 
Q 903 2953 641 2809 
L 641 3341 
Q 956 3463 1253 3523 
Q 1550 3584 1831 3584 
Q 2591 3584 2966 3190 
Q 3341 2797 3341 1997 
z
" transform="scale(0.015625)"/>
     <path id="DejaVuSans-77" d="M 269 3500 
L 844 3500 
L 1563 769 
L 2278 3500 
L 2956 3500 
L 3675 769 
L 4391 3500 
L 4966 3500 
L 4050 0 
L 3372 0 
L 2619 2869 
L 1863 0 
L 1184 0 
L 269 3500 
z
" transform="scale(0.015625)"/>
     <path id="DejaVuSans-2e" d="M 684 794 
L 1344 794 
L 1344 0 
L 684 0 
L 684 794 
z
" transform="scale(0.015625)"/>
     <path id="DejaVuSans-29" d="M 513 4856 
L 1013 4856 
Q 1481 4119 1714 3412 
Q 1947 2706 1947 2009 
Q 1947 1309 1714 600 
Q 1481 -109 1013 -844 
L 513 -844 
Q 928 -128 1133 580 
Q 1338 1288 1338 2009 
Q 1338 2731 1133 3434 
Q 928 4138 513 4856 
z
" transform="scale(0.015625)"/>
    </defs>
    <use xlink:href="#DejaVuSans-57"/>
    <use xlink:href="#DejaVuSans-65" transform="translate(93.001953 0)"/>
    <use xlink:href="#DejaVuSans-6c" transform="translate(154.525391 0)"/>
    <use xlink:href="#DejaVuSans-64" transform="translate(182.308594 0)"/>
    <use xlink:href="#DejaVuSans-20" transform="translate(245.785156 0)"/>
    <use xlink:href="#DejaVuSans-64" transform="translate(277.572266 0)"/>
    <use xlink:href="#DejaVuSans-65" transform="translate(341.048828 0)"/>
    <use xlink:href="#DejaVuSans-66" transform="translate(402.572266 0)"/>
    <use xlink:href="#DejaVuSans-65" transform="translate(437.777344 0)"/>
    <use xlink:href="#DejaVuSans-63" transform="translate(499.300781 0)"/>
    <use xlink:href="#DejaVuSans-74" transform="translate(554.28125 0)"/>
    <use xlink:href="#DejaVuSans-20" transform="translate(593.490234 0)"/>
    <use xlink:href="#DejaVuSans-74" transform="translate(625.277344 0)"/>
    <use xlink:href="#DejaVuSans-79" transform="translate(664.486328 0)"/>
    <use xlink:href="#DejaVuSans-70" transform="translate(723.666016 0)"/>
    <use xlink:href="#DejaVuSans-65" transform="translate(787.142578 0)"/>
    <use xlink:href="#DejaVuSans-73" transform="translate(848.666016 0)"/>
    <use xlink:href="#DejaVuSans-20" transform="translate(900.765625 0)"/>
    <use xlink:href="#DejaVuSans-28" transform="translate(932.552734 0)"/>
    <use xlink:href="#DejaVuSans-66" transform="translate(971.566406 0)"/>
    <use xlink:href="#DejaVuSans-65" transform="translate(1006.771484 0)"/>
    <use xlink:href="#DejaVuSans-61" transform="translate(1068.294922 0)"/>
    <use xlink:href="#DejaVuSans-77" transform="translate(1129.574219 0)"/>
    <use xlink:href="#DejaVuSans-65" transform="translate(1211.361328 0)"/>
    <use xlink:href="#DejaVuSans-6c" transform="translate(1272.884766 0)"/>
    <use xlink:href="#DejaVuSans-64" transform="translate(1300.667969 0)"/>
    <use xlink:href="#DejaVuSans-2e" transform="translate(1364.144531 0)"/>
    <use xlink:href="#DejaVuSans-64" transform="translate(1395.931641 0)"/>
    <use xlink:href="#DejaVuSans-65" transform="translate(1459.408203 0)"/>
    <use xlink:href="#DejaVuSans-66" transform="translate(1520.931641 0)"/>
    <use xlink:href="#DejaVuSans-65" transform="translate(1556.136719 0)"/>
    <use xlink:href="#DejaVuSans-63" transform="translate(1617.660156 0)"/>
    <use xlink:href="#DejaVuSans-74" transform="translate(1672.640625 0)"/>
    <use xlink:href="#DejaVuSans-73" transform="translate(1711.849609 0)"/>
    <use xlink:href="#DejaVuSans-29" transform="translate(1763.949219 0)"/>
   </g>
  </g>
 </g>
 <defs>
  <clipPath id="p32e685dfdd">
   <rect x="7.2" y="107.412834" width="213.352941" height="116.374332"/>
  </clipPath>
  <clipPath id="p594e9b21ce">
   <rect x="263.223529" y="107.412834" width="213.352941" height="116.374332"/>
  </clipPath>
  <clipPath id="p7b90e48f17">
   <rect x="519.247059" y="107.412834" width="213.352941" height="116.374332"/>
  </clipPath>
  <clipPath id="paf3a751fe1">
   <rect x="7.2" y="349.332834" width="213.352941" height="116.374332"/>
  </clipPath>
  <clipPath id="p0e6e0f0eee">
   <rect x="263.223529" y="349.332834" width="213.352941" height="116.374332"/>
  </clipPath>
  <clipPath id="pd13a3a4b2e">
   <rect x="519.247059" y="349.332834" width="213.352941" height="116.374332"/>
  </clipPath>
 </defs>
</svg>
