<?xml version="1.0" encoding="utf-8" standalone="no"?>
<!DOCTYPE svg PUBLIC "-//W3C//DTD SVG 1.1//EN"
  "http://www.w3.org/Graphics/SVG/1.1/DTD/svg11.dtd">
<svg xmlns:xlink="http://www.w3.org/1999/xlink" width="703.44pt" height="115.425739pt" viewBox="0 0 703.44 115.425739" xmlns="http://www.w3.org/2000/svg" version="1.1">
 <metadata>
  <rdf:RDF xmlns:dc="http://purl.org/dc/elements/1.1/" xmlns:cc="http://creativecommons.org/ns#" xmlns:rdf="http://www.w3.org/1999/02/22-rdf-syntax-ns#">
   <cc:Work>
    <dc:type rdf:resource="http://purl.org/dc/dcmitype/StillImage"/>
    <dc:date>2026-04-05T18:16:38.520070</dc:date>
    <dc:format>image/svg+xml</dc:format>
    <dc:creator>
     <cc:Agent>
      <dc:title>Matplotlib v3.10.8, https://matplotlib.org/</dc:title>
     </cc:Agent>
    </dc:creator>
   </cc:Work>
  </rdf:RDF>
 </metadata>
 <defs>
  <style type="text/css">*{stroke-linejoin: round; stroke-linecap: butt}</style>
 </defs>
 <g id="figure_1">
  <g id="patch_1">
   <path d="M 0 115.425739 
L 703.44 115.425739 
L 703.44 0 
L 0 0 
z
" style="fill: #fafafa"/>
  </g>
  <g id="axes_1">
   <g id="patch_2">
    <path d="M 100.629153 70.552389 
L 474.345763 70.552389 
L 474.345763 47.195101 
L 100.629153 47.195101 
z
" clip-path="url(#p0d6c3cd457)" style="fill: #dfe6e9; stroke: #7f8c8d; stroke-width: 1.5; stroke-linejoin: miter"/>
   </g>
   <g id="patch_3">
    <path d="M 100.629153 70.552389 
L 77.271864 70.552389 
L 100.629153 35.516457 
z
" clip-path="url(#p0d6c3cd457)" style="fill: url(#hcfd548abed); stroke: #1a5276; stroke-width: 1.5; stroke-linejoin: miter"/>
   </g>
   <g id="patch_4">
    <path d="M 509.381695 70.552389 
L 579.453559 70.552389 
L 579.453559 47.195101 
L 509.381695 47.195101 
z
" clip-path="url(#p0d6c3cd457)" style="fill: #2980b9; opacity: 0.15; stroke: #2980b9; stroke-linejoin: miter"/>
   </g>
   <g id="patch_5">
    <path d="M 602.810847 70.552389 
L 672.882712 70.552389 
L 637.84678 47.195101 
L 637.84678 47.195101 
z
" clip-path="url(#p0d6c3cd457)" style="fill: #f39c12; opacity: 0.15; stroke: #f39c12; stroke-linejoin: miter"/>
   </g>
   <g id="line2d_1">
    <path d="M 100.629153 70.552389 
L 100.629153 47.195101 
" clip-path="url(#p0d6c3cd457)" style="fill: none; stroke: #bdc3c7; stroke-width: 0.5; stroke-linecap: square"/>
   </g>
   <g id="line2d_2">
    <path d="M 147.343729 70.552389 
L 147.343729 47.195101 
" clip-path="url(#p0d6c3cd457)" style="fill: none; stroke: #bdc3c7; stroke-width: 0.5; stroke-linecap: square"/>
   </g>
   <g id="line2d_3">
    <path d="M 194.058305 70.552389 
L 194.058305 47.195101 
" clip-path="url(#p0d6c3cd457)" style="fill: none; stroke: #bdc3c7; stroke-width: 0.5; stroke-linecap: square"/>
   </g>
   <g id="line2d_4">
    <path d="M 240.772881 70.552389 
L 240.772881 47.195101 
" clip-path="url(#p0d6c3cd457)" style="fill: none; stroke: #bdc3c7; stroke-width: 0.5; stroke-linecap: square"/>
   </g>
   <g id="line2d_5">
    <path d="M 287.487458 70.552389 
L 287.487458 47.195101 
" clip-path="url(#p0d6c3cd457)" style="fill: none; stroke: #bdc3c7; stroke-width: 0.5; stroke-linecap: square"/>
   </g>
   <g id="line2d_6">
    <path d="M 334.202034 70.552389 
L 334.202034 47.195101 
" clip-path="url(#p0d6c3cd457)" style="fill: none; stroke: #bdc3c7; stroke-width: 0.5; stroke-linecap: square"/>
   </g>
   <g id="line2d_7">
    <path d="M 380.91661 70.552389 
L 380.91661 47.195101 
" clip-path="url(#p0d6c3cd457)" style="fill: none; stroke: #bdc3c7; stroke-width: 0.5; stroke-linecap: square"/>
   </g>
   <g id="line2d_8">
    <path d="M 427.631186 70.552389 
L 427.631186 47.195101 
" clip-path="url(#p0d6c3cd457)" style="fill: none; stroke: #bdc3c7; stroke-width: 0.5; stroke-linecap: square"/>
   </g>
   <g id="line2d_9">
    <path d="M 474.345763 70.552389 
L 474.345763 47.195101 
" clip-path="url(#p0d6c3cd457)" style="fill: none; stroke: #bdc3c7; stroke-width: 0.5; stroke-linecap: square"/>
   </g>
   <g id="line2d_10">
    <path d="M 100.629153 70.552389 
L 474.345763 70.552389 
" clip-path="url(#p0d6c3cd457)" style="fill: none; stroke: #bdc3c7; stroke-width: 0.5; stroke-linecap: square"/>
   </g>
   <g id="line2d_11">
    <path d="M 100.629153 58.873745 
L 474.345763 58.873745 
" clip-path="url(#p0d6c3cd457)" style="fill: none; stroke: #bdc3c7; stroke-width: 0.5; stroke-linecap: square"/>
   </g>
   <g id="line2d_12">
    <path d="M 100.629153 47.195101 
L 474.345763 47.195101 
" clip-path="url(#p0d6c3cd457)" style="fill: none; stroke: #bdc3c7; stroke-width: 0.5; stroke-linecap: square"/>
   </g>
   <g id="text_1">
    <!-- Weld -->
    <g style="fill: #555555" transform="translate(73.279311 53.034423) scale(0.08 -0.08)">
     <defs>
      <path id="DejaVuSans-57" d="M 213 4666 
L 850 4666 
L 1831 722 
L 2809 4666 
L 3519 4666 
L 4500 722 
L 5478 4666 
L 6119 4666 
L 4947 0 
L 4153 0 
L 3169 4050 
L 2175 0 
L 1381 0 
L 213 4666 
z
" transform="scale(0.015625)"/>
      <path id="DejaVuSans-65" d="M 3597 1894 
L 3597 1613 
L 953 1613 
Q 991 1019 1311 708 
Q 1631 397 2203 397 
Q 2534 397 2845 478 
Q 3156 559 3463 722 
L 3463 178 
Q 3153 47 2828 -22 
Q 2503 -91 2169 -91 
Q 1331 -91 842 396 
Q 353 884 353 1716 
Q 353 2575 817 3079 
Q 1281 3584 2069 3584 
Q 2775 3584 3186 3129 
Q 3597 2675 3597 1894 
z
M 3022 2063 
Q 3016 2534 2758 2815 
Q 2500 3097 2075 3097 
Q 1594 3097 1305 2825 
Q 1016 2553 972 2059 
L 3022 2063 
z
" transform="scale(0.015625)"/>
      <path id="DejaVuSans-6c" d="M 603 4863 
L 1178 4863 
L 1178 0 
L 603 0 
L 603 4863 
z
" transform="scale(0.015625)"/>
      <path id="DejaVuSans-64" d="M 2906 2969 
L 2906 4863 
L 3481 4863 
L 3481 0 
L 2906 0 
L 2906 525 
Q 2725 213 2448 61 
Q 2172 -91 1784 -91 
Q 1150 -91 751 415 
Q 353 922 353 1747 
Q 353 2572 751 3078 
Q 1150 3584 1784 3584 
Q 2172 3584 2448 3432 
Q 2725 3281 2906 2969 
z
M 947 1747 
Q 947 1113 1208 752 
Q 1469 391 1925 391 
Q 2381 391 2643 752 
Q 2906 1113 2906 1747 
Q 2906 2381 2643 2742 
Q 2381 3103 1925 3103 
Q 1469 3103 1208 2742 
Q 947 2381 947 1747 
z
" transform="scale(0.015625)"/>
     </defs>
     <use xlink:href="#DejaVuSans-57"/>
     <use xlink:href="#DejaVuSans-65" transform="translate(93.001953 0)"/>
     <use xlink:href="#DejaVuSans-6c" transform="translate(154.525391 0)"/>
     <use xlink:href="#DejaVuSans-64" transform="translate(182.308594 0)"/>
    </g>
   </g>
   <g id="patch_6">
    <path d="M 98.630796 70.552389 
Q 74.354323 70.552389 52.313919 70.552389 
" style="fill: none; stroke: #e74c3c; stroke-width: 2; stroke-linecap: round"/>
    <path d="M 56.313919 72.552389 
L 52.313919 70.552389 
L 56.313919 68.552389 
z
" style="fill: #e74c3c; stroke: #e74c3c; stroke-width: 2; stroke-linecap: round"/>
   </g>
   <g id="patch_7">
    <path d="M 98.627588 58.873745 
Q 86.61321 58.873745 76.8349 58.873745 
" style="fill: none; stroke: #e74c3c; stroke-width: 2; stroke-linecap: round"/>
    <path d="M 80.8349 60.873745 
L 76.8349 58.873745 
L 80.8349 56.873745 
z
" style="fill: #e74c3c; stroke: #e74c3c; stroke-width: 2; stroke-linecap: round"/>
   </g>
   <g id="patch_8">
    <path d="M 98.631865 47.195101 
Q 91.869987 47.195101 87.344178 47.195101 
" style="fill: none; stroke: #e74c3c; stroke-width: 2; stroke-linecap: round"/>
    <path d="M 91.344178 49.195101 
L 87.344178 47.195101 
L 91.344178 45.195101 
z
" style="fill: #e74c3c; stroke: #e74c3c; stroke-width: 2; stroke-linecap: round"/>
   </g>
   <g id="text_2">
    <!-- Nodal -->
    <g style="fill: #e74c3c" transform="translate(15.899241 31.277747) scale(0.09 -0.09)">
     <defs>
      <path id="DejaVuSans-Bold-4e" d="M 588 4666 
L 1931 4666 
L 3628 1466 
L 3628 4666 
L 4769 4666 
L 4769 0 
L 3425 0 
L 1728 3200 
L 1728 0 
L 588 0 
L 588 4666 
z
" transform="scale(0.015625)"/>
      <path id="DejaVuSans-Bold-6f" d="M 2203 2784 
Q 1831 2784 1636 2517 
Q 1441 2250 1441 1747 
Q 1441 1244 1636 976 
Q 1831 709 2203 709 
Q 2569 709 2762 976 
Q 2956 1244 2956 1747 
Q 2956 2250 2762 2517 
Q 2569 2784 2203 2784 
z
M 2203 3584 
Q 3106 3584 3614 3096 
Q 4122 2609 4122 1747 
Q 4122 884 3614 396 
Q 3106 -91 2203 -91 
Q 1297 -91 786 396 
Q 275 884 275 1747 
Q 275 2609 786 3096 
Q 1297 3584 2203 3584 
z
" transform="scale(0.015625)"/>
      <path id="DejaVuSans-Bold-64" d="M 2919 2988 
L 2919 4863 
L 4044 4863 
L 4044 0 
L 2919 0 
L 2919 506 
Q 2688 197 2409 53 
Q 2131 -91 1766 -91 
Q 1119 -91 703 423 
Q 288 938 288 1747 
Q 288 2556 703 3070 
Q 1119 3584 1766 3584 
Q 2128 3584 2408 3439 
Q 2688 3294 2919 2988 
z
M 2181 722 
Q 2541 722 2730 984 
Q 2919 1247 2919 1747 
Q 2919 2247 2730 2509 
Q 2541 2772 2181 2772 
Q 1825 2772 1636 2509 
Q 1447 2247 1447 1747 
Q 1447 1247 1636 984 
Q 1825 722 2181 722 
z
" transform="scale(0.015625)"/>
      <path id="DejaVuSans-Bold-61" d="M 2106 1575 
Q 1756 1575 1579 1456 
Q 1403 1338 1403 1106 
Q 1403 894 1545 773 
Q 1688 653 1941 653 
Q 2256 653 2472 879 
Q 2688 1106 2688 1447 
L 2688 1575 
L 2106 1575 
z
M 3816 1997 
L 3816 0 
L 2688 0 
L 2688 519 
Q 2463 200 2181 54 
Q 1900 -91 1497 -91 
Q 953 -91 614 226 
Q 275 544 275 1050 
Q 275 1666 698 1953 
Q 1122 2241 2028 2241 
L 2688 2241 
L 2688 2328 
Q 2688 2594 2478 2717 
Q 2269 2841 1825 2841 
Q 1466 2841 1156 2769 
Q 847 2697 581 2553 
L 581 3406 
Q 941 3494 1303 3539 
Q 1666 3584 2028 3584 
Q 2975 3584 3395 3211 
Q 3816 2838 3816 1997 
z
" transform="scale(0.015625)"/>
      <path id="DejaVuSans-Bold-6c" d="M 538 4863 
L 1656 4863 
L 1656 0 
L 538 0 
L 538 4863 
z
" transform="scale(0.015625)"/>
     </defs>
     <use xlink:href="#DejaVuSans-Bold-4e"/>
     <use xlink:href="#DejaVuSans-Bold-6f" transform="translate(83.691406 0)"/>
     <use xlink:href="#DejaVuSans-Bold-64" transform="translate(152.392578 0)"/>
     <use xlink:href="#DejaVuSans-Bold-61" transform="translate(223.974609 0)"/>
     <use xlink:href="#DejaVuSans-Bold-6c" transform="translate(291.455078 0)"/>
    </g>
    <!-- forces $F_i$ -->
    <g style="fill: #e74c3c" transform="translate(9.722288 41.355779) scale(0.09 -0.09)">
     <defs>
      <path id="DejaVuSans-Bold-66" d="M 2841 4863 
L 2841 4128 
L 2222 4128 
Q 1984 4128 1890 4042 
Q 1797 3956 1797 3744 
L 1797 3500 
L 2753 3500 
L 2753 2700 
L 1797 2700 
L 1797 0 
L 678 0 
L 678 2700 
L 122 2700 
L 122 3500 
L 678 3500 
L 678 3744 
Q 678 4316 997 4589 
Q 1316 4863 1984 4863 
L 2841 4863 
z
" transform="scale(0.015625)"/>
      <path id="DejaVuSans-Bold-72" d="M 3138 2547 
Q 2991 2616 2845 2648 
Q 2700 2681 2553 2681 
Q 2122 2681 1889 2404 
Q 1656 2128 1656 1613 
L 1656 0 
L 538 0 
L 538 3500 
L 1656 3500 
L 1656 2925 
Q 1872 3269 2151 3426 
Q 2431 3584 2822 3584 
Q 2878 3584 2943 3579 
Q 3009 3575 3134 3559 
L 3138 2547 
z
" transform="scale(0.015625)"/>
      <path id="DejaVuSans-Bold-63" d="M 3366 3391 
L 3366 2478 
Q 3138 2634 2908 2709 
Q 2678 2784 2431 2784 
Q 1963 2784 1702 2511 
Q 1441 2238 1441 1747 
Q 1441 1256 1702 982 
Q 1963 709 2431 709 
Q 2694 709 2930 787 
Q 3166 866 3366 1019 
L 3366 103 
Q 3103 6 2833 -42 
Q 2563 -91 2291 -91 
Q 1344 -91 809 395 
Q 275 881 275 1747 
Q 275 2613 809 3098 
Q 1344 3584 2291 3584 
Q 2566 3584 2833 3536 
Q 3100 3488 3366 3391 
z
" transform="scale(0.015625)"/>
      <path id="DejaVuSans-Bold-65" d="M 4031 1759 
L 4031 1441 
L 1416 1441 
Q 1456 1047 1700 850 
Q 1944 653 2381 653 
Q 2734 653 3104 758 
Q 3475 863 3866 1075 
L 3866 213 
Q 3469 63 3072 -14 
Q 2675 -91 2278 -91 
Q 1328 -91 801 392 
Q 275 875 275 1747 
Q 275 2603 792 3093 
Q 1309 3584 2216 3584 
Q 3041 3584 3536 3087 
Q 4031 2591 4031 1759 
z
M 2881 2131 
Q 2881 2450 2695 2645 
Q 2509 2841 2209 2841 
Q 1884 2841 1681 2658 
Q 1478 2475 1428 2131 
L 2881 2131 
z
" transform="scale(0.015625)"/>
      <path id="DejaVuSans-Bold-73" d="M 3272 3391 
L 3272 2541 
Q 2913 2691 2578 2766 
Q 2244 2841 1947 2841 
Q 1628 2841 1473 2761 
Q 1319 2681 1319 2516 
Q 1319 2381 1436 2309 
Q 1553 2238 1856 2203 
L 2053 2175 
Q 2913 2066 3209 1816 
Q 3506 1566 3506 1031 
Q 3506 472 3093 190 
Q 2681 -91 1863 -91 
Q 1516 -91 1145 -36 
Q 775 19 384 128 
L 384 978 
Q 719 816 1070 734 
Q 1422 653 1784 653 
Q 2113 653 2278 743 
Q 2444 834 2444 1013 
Q 2444 1163 2330 1236 
Q 2216 1309 1875 1350 
L 1678 1375 
Q 931 1469 631 1722 
Q 331 1975 331 2491 
Q 331 3047 712 3315 
Q 1094 3584 1881 3584 
Q 2191 3584 2531 3537 
Q 2872 3491 3272 3391 
z
" transform="scale(0.015625)"/>
      <path id="DejaVuSans-Bold-20" transform="scale(0.015625)"/>
      <path id="DejaVuSans-Oblique-46" d="M 1081 4666 
L 3756 4666 
L 3653 4134 
L 1606 4134 
L 1338 2759 
L 3188 2759 
L 3084 2228 
L 1234 2228 
L 800 0 
L 172 0 
L 1081 4666 
z
" transform="scale(0.015625)"/>
      <path id="DejaVuSans-Oblique-69" d="M 1172 4863 
L 1747 4863 
L 1606 4134 
L 1031 4134 
L 1172 4863 
z
M 909 3500 
L 1484 3500 
L 800 0 
L 225 0 
L 909 3500 
z
" transform="scale(0.015625)"/>
     </defs>
     <use xlink:href="#DejaVuSans-Bold-66" transform="translate(0 0.015625)"/>
     <use xlink:href="#DejaVuSans-Bold-6f" transform="translate(43.505859 0.015625)"/>
     <use xlink:href="#DejaVuSans-Bold-72" transform="translate(112.207031 0.015625)"/>
     <use xlink:href="#DejaVuSans-Bold-63" transform="translate(161.523438 0.015625)"/>
     <use xlink:href="#DejaVuSans-Bold-65" transform="translate(220.800781 0.015625)"/>
     <use xlink:href="#DejaVuSans-Bold-73" transform="translate(288.623047 0.015625)"/>
     <use xlink:href="#DejaVuSans-Bold-20" transform="translate(348.144531 0.015625)"/>
     <use xlink:href="#DejaVuSans-Oblique-46" transform="translate(382.958984 0.015625)"/>
     <use xlink:href="#DejaVuSans-Oblique-69" transform="translate(440.478516 -16.390625) scale(0.7)"/>
    </g>
   </g>
   <g id="patch_9">
    <path d="M 544.417627 50.870865 
Q 544.417627 58.873222 544.417627 66.875579 
" style="fill: none; stroke: #2980b9; stroke-width: 1.5; stroke-linecap: round"/>
    <path d="M 542.417627 54.870865 
L 544.417627 50.870865 
L 546.417627 54.870865 
" style="fill: none; stroke: #2980b9; stroke-width: 1.5; stroke-linecap: round"/>
    <path d="M 546.417627 62.875579 
L 544.417627 66.875579 
L 542.417627 62.875579 
" style="fill: none; stroke: #2980b9; stroke-width: 1.5; stroke-linecap: round"/>
   </g>
   <g id="text_3">
    <!-- $\sigma_m$ -->
    <g style="fill: #2980b9" transform="translate(536.317627 55.370151) scale(0.12 -0.12)">
     <defs>
      <path id="DejaVuSans-Oblique-3c3" d="M 2219 3044 
Q 1744 3044 1422 2700 
Q 1081 2341 969 1747 
Q 844 1119 1044 756 
Q 1241 397 1706 397 
Q 2166 397 2503 759 
Q 2844 1122 2966 1747 
Q 3075 2319 2881 2700 
Q 2700 3044 2219 3044 
z
M 2309 3503 
L 4219 3500 
L 4106 2925 
L 3463 2925 
Q 3706 2438 3575 1747 
Q 3406 888 2884 400 
Q 2359 -91 1609 -91 
Q 856 -91 525 400 
Q 194 888 363 1747 
Q 528 2609 1050 3097 
Q 1484 3503 2309 3503 
z
" transform="scale(0.015625)"/>
      <path id="DejaVuSans-Oblique-6d" d="M 5747 2113 
L 5338 0 
L 4763 0 
L 5166 2094 
Q 5191 2228 5203 2325 
Q 5216 2422 5216 2491 
Q 5216 2772 5059 2928 
Q 4903 3084 4622 3084 
Q 4203 3084 3875 2770 
Q 3547 2456 3450 1953 
L 3066 0 
L 2491 0 
L 2900 2094 
Q 2925 2209 2937 2307 
Q 2950 2406 2950 2484 
Q 2950 2769 2794 2926 
Q 2638 3084 2363 3084 
Q 1938 3084 1609 2770 
Q 1281 2456 1184 1953 
L 800 0 
L 225 0 
L 909 3500 
L 1484 3500 
L 1375 2956 
Q 1609 3263 1923 3423 
Q 2238 3584 2597 3584 
Q 2978 3584 3223 3384 
Q 3469 3184 3519 2828 
Q 3781 3197 4126 3390 
Q 4472 3584 4856 3584 
Q 5306 3584 5551 3325 
Q 5797 3066 5797 2591 
Q 5797 2488 5784 2364 
Q 5772 2241 5747 2113 
z
" transform="scale(0.015625)"/>
     </defs>
     <use xlink:href="#DejaVuSans-Oblique-3c3" transform="translate(0 0.265625)"/>
     <use xlink:href="#DejaVuSans-Oblique-6d" transform="translate(63.378906 -16.140625) scale(0.7)"/>
    </g>
   </g>
   <g id="text_4">
    <!-- + -->
    <g style="fill: #1a5276" transform="translate(584.428453 63.288745) scale(0.16 -0.16)">
     <defs>
      <path id="DejaVuSans-2b" d="M 2944 4013 
L 2944 2272 
L 4684 2272 
L 4684 1741 
L 2944 1741 
L 2944 0 
L 2419 0 
L 2419 1741 
L 678 1741 
L 678 2272 
L 2419 2272 
L 2419 4013 
L 2944 4013 
z
" transform="scale(0.015625)"/>
     </defs>
     <use xlink:href="#DejaVuSans-2b"/>
    </g>
   </g>
   <g id="text_5">
    <!-- $\sigma_b$ -->
    <g style="fill: #f39c12" transform="translate(631.18678 55.370151) scale(0.12 -0.12)">
     <defs>
      <path id="DejaVuSans-Oblique-62" d="M 3169 2138 
Q 3169 2591 2961 2847 
Q 2753 3103 2388 3103 
Q 2122 3103 1889 2973 
Q 1656 2844 1484 2597 
Q 1303 2338 1198 1995 
Q 1094 1653 1094 1313 
Q 1094 881 1298 636 
Q 1503 391 1863 391 
Q 2134 391 2365 517 
Q 2597 644 2772 891 
Q 2950 1147 3059 1487 
Q 3169 1828 3169 2138 
z
M 1381 2969 
Q 1594 3256 1914 3420 
Q 2234 3584 2584 3584 
Q 3122 3584 3439 3221 
Q 3756 2859 3756 2241 
Q 3756 1734 3570 1259 
Q 3384 784 3041 416 
Q 2816 172 2522 40 
Q 2228 -91 1906 -91 
Q 1566 -91 1316 65 
Q 1066 222 909 531 
L 806 0 
L 231 0 
L 1178 4863 
L 1753 4863 
L 1381 2969 
z
" transform="scale(0.015625)"/>
     </defs>
     <use xlink:href="#DejaVuSans-Oblique-3c3" transform="translate(0 0.265625)"/>
     <use xlink:href="#DejaVuSans-Oblique-62" transform="translate(63.378906 -16.140625) scale(0.7)"/>
    </g>
   </g>
   <g id="patch_10">
    <path d="M 488.02312 58.873745 
Q 497.702528 58.873745 505.704885 58.873745 
" style="fill: none; stroke-dasharray: 5.55,2.4; stroke-dashoffset: 0; stroke: #7f8c8d; stroke-width: 1.5; stroke-linecap: round"/>
    <path d="M 501.704885 56.873745 
L 505.704885 58.873745 
L 501.704885 60.873745 
z
" style="fill: #7f8c8d; stroke-dasharray: 5.55,2.4; stroke-dashoffset: 0; stroke: #7f8c8d; stroke-width: 1.5; stroke-linecap: round"/>
   </g>
   <g id="text_6">
    <g id="patch_11">
     <path d="M 68.066719 111.825739 
L 635.373281 111.825739 
Q 638.973281 111.825739 638.973281 108.225739 
L 638.973281 99.515426 
Q 638.973281 95.915426 635.373281 95.915426 
L 68.066719 95.915426 
Q 64.466719 95.915426 64.466719 99.515426 
L 64.466719 108.225739 
Q 64.466719 111.825739 68.066719 111.825739 
z
" style="fill: #fef9e7; opacity: 0.9; stroke: #f5cba7; stroke-linejoin: miter"/>
    </g>
    <!-- Key: Uses nodal force equilibrium at the weld toe line, not stress values from individual elements.  Result is mesh-insensitive. -->
    <g transform="translate(68.066719 106.35402) scale(0.09 -0.09)">
     <defs>
      <path id="DejaVuSans-Oblique-4b" d="M 1081 4666 
L 1716 4666 
L 1331 2700 
L 3781 4666 
L 4622 4666 
L 1850 2438 
L 3878 0 
L 3109 0 
L 1247 2272 
L 806 0 
L 172 0 
L 1081 4666 
z
" transform="scale(0.015625)"/>
      <path id="DejaVuSans-Oblique-65" d="M 3078 2063 
Q 3088 2113 3092 2166 
Q 3097 2219 3097 2272 
Q 3097 2653 2873 2875 
Q 2650 3097 2266 3097 
Q 1838 3097 1509 2826 
Q 1181 2556 1013 2059 
L 3078 2063 
z
M 3578 1613 
L 903 1613 
Q 884 1494 878 1425 
Q 872 1356 872 1306 
Q 872 872 1139 634 
Q 1406 397 1894 397 
Q 2269 397 2603 481 
Q 2938 566 3225 728 
L 3116 159 
Q 2806 34 2476 -28 
Q 2147 -91 1806 -91 
Q 1078 -91 686 257 
Q 294 606 294 1247 
Q 294 1794 489 2264 
Q 684 2734 1063 3103 
Q 1306 3334 1642 3459 
Q 1978 3584 2356 3584 
Q 2950 3584 3301 3228 
Q 3653 2872 3653 2272 
Q 3653 2128 3634 1964 
Q 3616 1800 3578 1613 
z
" transform="scale(0.015625)"/>
      <path id="DejaVuSans-Oblique-79" d="M 1588 -325 
Q 1188 -997 936 -1164 
Q 684 -1331 294 -1331 
L -159 -1331 
L -63 -850 
L 269 -850 
Q 509 -850 678 -719 
Q 847 -588 1056 -206 
L 1234 128 
L 459 3500 
L 1069 3500 
L 1650 819 
L 3256 3500 
L 3859 3500 
L 1588 -325 
z
" transform="scale(0.015625)"/>
      <path id="DejaVuSans-Oblique-3a" d="M 978 3309 
L 1638 3309 
L 1484 2516 
L 825 2516 
L 978 3309 
z
M 488 794 
L 1147 794 
L 991 0 
L 331 0 
L 488 794 
z
" transform="scale(0.015625)"/>
      <path id="DejaVuSans-Oblique-20" transform="scale(0.015625)"/>
      <path id="DejaVuSans-Oblique-55" d="M 991 4666 
L 1625 4666 
L 1075 1831 
Q 1041 1641 1027 1517 
Q 1013 1394 1013 1300 
Q 1013 869 1253 645 
Q 1494 422 1959 422 
Q 2563 422 2898 753 
Q 3234 1084 3378 1831 
L 3928 4666 
L 4563 4666 
L 4000 1753 
Q 3816 809 3300 359 
Q 2784 -91 1888 -91 
Q 1188 -91 780 261 
Q 372 613 372 1216 
Q 372 1325 387 1461 
Q 403 1597 434 1753 
L 991 4666 
z
" transform="scale(0.015625)"/>
      <path id="DejaVuSans-Oblique-73" d="M 3200 3397 
L 3091 2853 
Q 2863 2978 2609 3040 
Q 2356 3103 2088 3103 
Q 1634 3103 1373 2948 
Q 1113 2794 1113 2528 
Q 1113 2219 1719 2053 
Q 1766 2041 1788 2034 
L 1972 1978 
Q 2547 1819 2739 1644 
Q 2931 1469 2931 1166 
Q 2931 609 2489 259 
Q 2047 -91 1331 -91 
Q 1053 -91 747 -37 
Q 441 16 72 128 
L 184 722 
Q 500 559 806 475 
Q 1113 391 1394 391 
Q 1816 391 2080 572 
Q 2344 753 2344 1031 
Q 2344 1331 1650 1516 
L 1591 1531 
L 1394 1581 
Q 956 1697 753 1886 
Q 550 2075 550 2369 
Q 550 2928 970 3256 
Q 1391 3584 2113 3584 
Q 2397 3584 2667 3537 
Q 2938 3491 3200 3397 
z
" transform="scale(0.015625)"/>
      <path id="DejaVuSans-Oblique-6e" d="M 3566 2113 
L 3156 0 
L 2578 0 
L 2988 2091 
Q 3016 2238 3031 2350 
Q 3047 2463 3047 2528 
Q 3047 2791 2881 2937 
Q 2716 3084 2419 3084 
Q 1956 3084 1622 2776 
Q 1288 2469 1184 1941 
L 800 0 
L 225 0 
L 903 3500 
L 1478 3500 
L 1363 2950 
Q 1603 3253 1940 3418 
Q 2278 3584 2650 3584 
Q 3113 3584 3367 3334 
Q 3622 3084 3622 2631 
Q 3622 2519 3608 2391 
Q 3594 2263 3566 2113 
z
" transform="scale(0.015625)"/>
      <path id="DejaVuSans-Oblique-6f" d="M 1625 -91 
Q 1009 -91 651 289 
Q 294 669 294 1325 
Q 294 1706 417 2101 
Q 541 2497 738 2766 
Q 1047 3184 1428 3384 
Q 1809 3584 2291 3584 
Q 2888 3584 3255 3212 
Q 3622 2841 3622 2241 
Q 3622 1825 3500 1412 
Q 3378 1000 3181 728 
Q 2875 309 2494 109 
Q 2113 -91 1625 -91 
z
M 891 1344 
Q 891 869 1089 633 
Q 1288 397 1691 397 
Q 2269 397 2648 901 
Q 3028 1406 3028 2181 
Q 3028 2634 2825 2865 
Q 2622 3097 2228 3097 
Q 1903 3097 1650 2945 
Q 1397 2794 1197 2484 
Q 1050 2253 970 1956 
Q 891 1659 891 1344 
z
" transform="scale(0.015625)"/>
      <path id="DejaVuSans-Oblique-64" d="M 2675 525 
Q 2444 222 2128 65 
Q 1813 -91 1428 -91 
Q 903 -91 598 267 
Q 294 625 294 1247 
Q 294 1766 478 2236 
Q 663 2706 1013 3078 
Q 1244 3325 1534 3454 
Q 1825 3584 2144 3584 
Q 2481 3584 2739 3421 
Q 2997 3259 3138 2956 
L 3513 4863 
L 4091 4863 
L 3144 0 
L 2566 0 
L 2675 525 
z
M 891 1350 
Q 891 897 1095 644 
Q 1300 391 1663 391 
Q 1931 391 2161 520 
Q 2391 650 2566 903 
Q 2750 1166 2856 1509 
Q 2963 1853 2963 2188 
Q 2963 2622 2758 2865 
Q 2553 3109 2194 3109 
Q 1922 3109 1687 2981 
Q 1453 2853 1288 2613 
Q 1106 2353 998 2009 
Q 891 1666 891 1350 
z
" transform="scale(0.015625)"/>
      <path id="DejaVuSans-Oblique-61" d="M 3438 1997 
L 3047 0 
L 2472 0 
L 2578 531 
Q 2325 219 2001 64 
Q 1678 -91 1281 -91 
Q 834 -91 548 182 
Q 263 456 263 884 
Q 263 1497 752 1853 
Q 1241 2209 2100 2209 
L 2900 2209 
L 2931 2363 
Q 2938 2388 2941 2417 
Q 2944 2447 2944 2509 
Q 2944 2788 2717 2942 
Q 2491 3097 2081 3097 
Q 1800 3097 1504 3025 
Q 1209 2953 897 2809 
L 997 3341 
Q 1322 3463 1633 3523 
Q 1944 3584 2234 3584 
Q 2853 3584 3176 3315 
Q 3500 3047 3500 2534 
Q 3500 2431 3484 2292 
Q 3469 2153 3438 1997 
z
M 2816 1759 
L 2241 1759 
Q 1534 1759 1195 1570 
Q 856 1381 856 984 
Q 856 709 1029 553 
Q 1203 397 1509 397 
Q 1978 397 2328 733 
Q 2678 1069 2791 1631 
L 2816 1759 
z
" transform="scale(0.015625)"/>
      <path id="DejaVuSans-Oblique-6c" d="M 1172 4863 
L 1747 4863 
L 800 0 
L 225 0 
L 1172 4863 
z
" transform="scale(0.015625)"/>
      <path id="DejaVuSans-Oblique-66" d="M 3059 4863 
L 2969 4384 
L 2419 4384 
Q 2106 4384 1964 4261 
Q 1822 4138 1753 3809 
L 1691 3500 
L 2638 3500 
L 2553 3053 
L 1606 3053 
L 1013 0 
L 434 0 
L 1031 3053 
L 481 3053 
L 563 3500 
L 1113 3500 
L 1159 3744 
Q 1278 4363 1576 4613 
Q 1875 4863 2516 4863 
L 3059 4863 
z
" transform="scale(0.015625)"/>
      <path id="DejaVuSans-Oblique-72" d="M 2853 2969 
Q 2766 3016 2653 3041 
Q 2541 3066 2413 3066 
Q 1953 3066 1609 2717 
Q 1266 2369 1153 1784 
L 800 0 
L 225 0 
L 909 3500 
L 1484 3500 
L 1375 2956 
Q 1603 3259 1920 3421 
Q 2238 3584 2597 3584 
Q 2691 3584 2781 3573 
Q 2872 3563 2963 3538 
L 2853 2969 
z
" transform="scale(0.015625)"/>
      <path id="DejaVuSans-Oblique-63" d="M 3431 3366 
L 3316 2797 
Q 3109 2947 2876 3022 
Q 2644 3097 2394 3097 
Q 2119 3097 1870 3000 
Q 1622 2903 1453 2725 
Q 1184 2453 1037 2087 
Q 891 1722 891 1331 
Q 891 859 1127 628 
Q 1363 397 1844 397 
Q 2081 397 2348 469 
Q 2616 541 2906 684 
L 2797 116 
Q 2547 13 2283 -39 
Q 2019 -91 1741 -91 
Q 1044 -91 669 257 
Q 294 606 294 1253 
Q 294 1797 489 2255 
Q 684 2713 1069 3078 
Q 1331 3328 1684 3456 
Q 2038 3584 2456 3584 
Q 2700 3584 2940 3529 
Q 3181 3475 3431 3366 
z
" transform="scale(0.015625)"/>
      <path id="DejaVuSans-Oblique-71" d="M 2669 525 
Q 2438 222 2123 65 
Q 1809 -91 1428 -91 
Q 897 -91 595 267 
Q 294 625 294 1253 
Q 294 1759 480 2231 
Q 666 2703 1013 3078 
Q 1238 3322 1530 3453 
Q 1822 3584 2144 3584 
Q 2531 3584 2781 3431 
Q 3031 3278 3144 2969 
L 3244 3494 
L 3822 3494 
L 2888 -1319 
L 2309 -1319 
L 2669 525 
z
M 891 1338 
Q 891 875 1084 633 
Q 1278 391 1644 391 
Q 2188 391 2572 911 
Q 2956 1431 2956 2175 
Q 2956 2625 2757 2864 
Q 2559 3103 2188 3103 
Q 1916 3103 1684 2976 
Q 1453 2850 1281 2606 
Q 1100 2350 995 2006 
Q 891 1663 891 1338 
z
" transform="scale(0.015625)"/>
      <path id="DejaVuSans-Oblique-75" d="M 428 1388 
L 838 3500 
L 1416 3500 
L 1006 1409 
Q 975 1256 961 1147 
Q 947 1038 947 966 
Q 947 700 1109 554 
Q 1272 409 1569 409 
Q 2031 409 2368 721 
Q 2706 1034 2809 1563 
L 3194 3500 
L 3769 3500 
L 3091 0 
L 2516 0 
L 2631 550 
Q 2388 244 2052 76 
Q 1716 -91 1338 -91 
Q 878 -91 622 161 
Q 366 413 366 863 
Q 366 956 381 1097 
Q 397 1238 428 1388 
z
" transform="scale(0.015625)"/>
      <path id="DejaVuSans-Oblique-74" d="M 2706 3500 
L 2619 3053 
L 1472 3053 
L 1100 1153 
Q 1081 1047 1072 975 
Q 1063 903 1063 863 
Q 1063 663 1183 572 
Q 1303 481 1569 481 
L 2150 481 
L 2053 0 
L 1503 0 
Q 991 0 739 200 
Q 488 400 488 806 
Q 488 878 497 964 
Q 506 1050 525 1153 
L 897 3053 
L 409 3053 
L 500 3500 
L 978 3500 
L 1172 4494 
L 1747 4494 
L 1556 3500 
L 2706 3500 
z
" transform="scale(0.015625)"/>
      <path id="DejaVuSans-Oblique-68" d="M 3566 2113 
L 3156 0 
L 2578 0 
L 2988 2091 
Q 3016 2238 3031 2350 
Q 3047 2463 3047 2528 
Q 3047 2791 2881 2937 
Q 2716 3084 2419 3084 
Q 1956 3084 1617 2771 
Q 1278 2459 1178 1941 
L 800 0 
L 225 0 
L 1172 4863 
L 1747 4863 
L 1375 2950 
Q 1594 3244 1934 3414 
Q 2275 3584 2650 3584 
Q 3113 3584 3367 3334 
Q 3622 3084 3622 2631 
Q 3622 2519 3608 2391 
Q 3594 2263 3566 2113 
z
" transform="scale(0.015625)"/>
      <path id="DejaVuSans-Oblique-77" d="M 544 3500 
L 1113 3500 
L 1259 684 
L 2566 3500 
L 3231 3500 
L 3425 684 
L 4666 3500 
L 5241 3500 
L 3641 0 
L 2969 0 
L 2797 2900 
L 1459 0 
L 781 0 
L 544 3500 
z
" transform="scale(0.015625)"/>
      <path id="DejaVuSans-Oblique-2c" d="M 575 794 
L 1234 794 
L 1131 256 
L 422 -744 
L 19 -744 
L 469 256 
L 575 794 
z
" transform="scale(0.015625)"/>
      <path id="DejaVuSans-Oblique-76" d="M 459 3500 
L 1069 3500 
L 1581 525 
L 3256 3500 
L 3866 3500 
L 1875 0 
L 1100 0 
L 459 3500 
z
" transform="scale(0.015625)"/>
      <path id="DejaVuSans-Oblique-2e" d="M 525 794 
L 1184 794 
L 1031 0 
L 372 0 
L 525 794 
z
" transform="scale(0.015625)"/>
      <path id="DejaVuSans-Oblique-52" d="M 1613 4147 
L 1294 2491 
L 2106 2491 
Q 2584 2491 2879 2755 
Q 3175 3019 3175 3444 
Q 3175 3784 2976 3965 
Q 2778 4147 2406 4147 
L 1613 4147 
z
M 2772 2241 
Q 2972 2194 3105 2009 
Q 3238 1825 3413 1275 
L 3809 0 
L 3144 0 
L 2778 1197 
Q 2638 1659 2453 1815 
Q 2269 1972 1888 1972 
L 1191 1972 
L 806 0 
L 172 0 
L 1081 4666 
L 2503 4666 
Q 3150 4666 3495 4373 
Q 3841 4081 3841 3531 
Q 3841 3044 3547 2687 
Q 3253 2331 2772 2241 
z
" transform="scale(0.015625)"/>
      <path id="DejaVuSans-Oblique-2d" d="M 391 2009 
L 2075 2009 
L 1978 1497 
L 288 1497 
L 391 2009 
z
" transform="scale(0.015625)"/>
     </defs>
     <use xlink:href="#DejaVuSans-Oblique-4b"/>
     <use xlink:href="#DejaVuSans-Oblique-65" transform="translate(61.951172 0)"/>
     <use xlink:href="#DejaVuSans-Oblique-79" transform="translate(123.474609 0)"/>
     <use xlink:href="#DejaVuSans-Oblique-3a" transform="translate(182.654297 0)"/>
     <use xlink:href="#DejaVuSans-Oblique-20" transform="translate(216.345703 0)"/>
     <use xlink:href="#DejaVuSans-Oblique-55" transform="translate(248.132812 0)"/>
     <use xlink:href="#DejaVuSans-Oblique-73" transform="translate(321.326172 0)"/>
     <use xlink:href="#DejaVuSans-Oblique-65" transform="translate(373.425781 0)"/>
     <use xlink:href="#DejaVuSans-Oblique-73" transform="translate(434.949219 0)"/>
     <use xlink:href="#DejaVuSans-Oblique-20" transform="translate(487.048828 0)"/>
     <use xlink:href="#DejaVuSans-Oblique-6e" transform="translate(518.835938 0)"/>
     <use xlink:href="#DejaVuSans-Oblique-6f" transform="translate(582.214844 0)"/>
     <use xlink:href="#DejaVuSans-Oblique-64" transform="translate(643.396484 0)"/>
     <use xlink:href="#DejaVuSans-Oblique-61" transform="translate(706.873047 0)"/>
     <use xlink:href="#DejaVuSans-Oblique-6c" transform="translate(768.152344 0)"/>
     <use xlink:href="#DejaVuSans-Oblique-20" transform="translate(795.935547 0)"/>
     <use xlink:href="#DejaVuSans-Oblique-66" transform="translate(827.722656 0)"/>
     <use xlink:href="#DejaVuSans-Oblique-6f" transform="translate(862.927734 0)"/>
     <use xlink:href="#DejaVuSans-Oblique-72" transform="translate(924.109375 0)"/>
     <use xlink:href="#DejaVuSans-Oblique-63" transform="translate(965.222656 0)"/>
     <use xlink:href="#DejaVuSans-Oblique-65" transform="translate(1020.203125 0)"/>
     <use xlink:href="#DejaVuSans-Oblique-20" transform="translate(1081.726562 0)"/>
     <use xlink:href="#DejaVuSans-Oblique-65" transform="translate(1113.513672 0)"/>
     <use xlink:href="#DejaVuSans-Oblique-71" transform="translate(1175.037109 0)"/>
     <use xlink:href="#DejaVuSans-Oblique-75" transform="translate(1238.513672 0)"/>
     <use xlink:href="#DejaVuSans-Oblique-69" transform="translate(1301.892578 0)"/>
     <use xlink:href="#DejaVuSans-Oblique-6c" transform="translate(1329.675781 0)"/>
     <use xlink:href="#DejaVuSans-Oblique-69" transform="translate(1357.458984 0)"/>
     <use xlink:href="#DejaVuSans-Oblique-62" transform="translate(1385.242188 0)"/>
     <use xlink:href="#DejaVuSans-Oblique-72" transform="translate(1448.71875 0)"/>
     <use xlink:href="#DejaVuSans-Oblique-69" transform="translate(1489.832031 0)"/>
     <use xlink:href="#DejaVuSans-Oblique-75" transform="translate(1517.615234 0)"/>
     <use xlink:href="#DejaVuSans-Oblique-6d" transform="translate(1580.994141 0)"/>
     <use xlink:href="#DejaVuSans-Oblique-20" transform="translate(1678.40625 0)"/>
     <use xlink:href="#DejaVuSans-Oblique-61" transform="translate(1710.193359 0)"/>
     <use xlink:href="#DejaVuSans-Oblique-74" transform="translate(1771.472656 0)"/>
     <use xlink:href="#DejaVuSans-Oblique-20" transform="translate(1810.681641 0)"/>
     <use xlink:href="#DejaVuSans-Oblique-74" transform="translate(1842.46875 0)"/>
     <use xlink:href="#DejaVuSans-Oblique-68" transform="translate(1881.677734 0)"/>
     <use xlink:href="#DejaVuSans-Oblique-65" transform="translate(1945.056641 0)"/>
     <use xlink:href="#DejaVuSans-Oblique-20" transform="translate(2006.580078 0)"/>
     <use xlink:href="#DejaVuSans-Oblique-77" transform="translate(2038.367188 0)"/>
     <use xlink:href="#DejaVuSans-Oblique-65" transform="translate(2120.154297 0)"/>
     <use xlink:href="#DejaVuSans-Oblique-6c" transform="translate(2181.677734 0)"/>
     <use xlink:href="#DejaVuSans-Oblique-64" transform="translate(2209.460938 0)"/>
     <use xlink:href="#DejaVuSans-Oblique-20" transform="translate(2272.9375 0)"/>
     <use xlink:href="#DejaVuSans-Oblique-74" transform="translate(2304.724609 0)"/>
     <use xlink:href="#DejaVuSans-Oblique-6f" transform="translate(2343.933594 0)"/>
     <use xlink:href="#DejaVuSans-Oblique-65" transform="translate(2405.115234 0)"/>
     <use xlink:href="#DejaVuSans-Oblique-20" transform="translate(2466.638672 0)"/>
     <use xlink:href="#DejaVuSans-Oblique-6c" transform="translate(2498.425781 0)"/>
     <use xlink:href="#DejaVuSans-Oblique-69" transform="translate(2526.208984 0)"/>
     <use xlink:href="#DejaVuSans-Oblique-6e" transform="translate(2553.992188 0)"/>
     <use xlink:href="#DejaVuSans-Oblique-65" transform="translate(2617.371094 0)"/>
     <use xlink:href="#DejaVuSans-Oblique-2c" transform="translate(2678.894531 0)"/>
     <use xlink:href="#DejaVuSans-Oblique-20" transform="translate(2710.681641 0)"/>
     <use xlink:href="#DejaVuSans-Oblique-6e" transform="translate(2742.46875 0)"/>
     <use xlink:href="#DejaVuSans-Oblique-6f" transform="translate(2805.847656 0)"/>
     <use xlink:href="#DejaVuSans-Oblique-74" transform="translate(2867.029297 0)"/>
     <use xlink:href="#DejaVuSans-Oblique-20" transform="translate(2906.238281 0)"/>
     <use xlink:href="#DejaVuSans-Oblique-73" transform="translate(2938.025391 0)"/>
     <use xlink:href="#DejaVuSans-Oblique-74" transform="translate(2990.125 0)"/>
     <use xlink:href="#DejaVuSans-Oblique-72" transform="translate(3029.333984 0)"/>
     <use xlink:href="#DejaVuSans-Oblique-65" transform="translate(3070.447266 0)"/>
     <use xlink:href="#DejaVuSans-Oblique-73" transform="translate(3131.970703 0)"/>
     <use xlink:href="#DejaVuSans-Oblique-73" transform="translate(3184.070312 0)"/>
     <use xlink:href="#DejaVuSans-Oblique-20" transform="translate(3236.169922 0)"/>
     <use xlink:href="#DejaVuSans-Oblique-76" transform="translate(3267.957031 0)"/>
     <use xlink:href="#DejaVuSans-Oblique-61" transform="translate(3327.136719 0)"/>
     <use xlink:href="#DejaVuSans-Oblique-6c" transform="translate(3388.416016 0)"/>
     <use xlink:href="#DejaVuSans-Oblique-75" transform="translate(3416.199219 0)"/>
     <use xlink:href="#DejaVuSans-Oblique-65" transform="translate(3479.578125 0)"/>
     <use xlink:href="#DejaVuSans-Oblique-73" transform="translate(3541.101562 0)"/>
     <use xlink:href="#DejaVuSans-Oblique-20" transform="translate(3593.201172 0)"/>
     <use xlink:href="#DejaVuSans-Oblique-66" transform="translate(3624.988281 0)"/>
     <use xlink:href="#DejaVuSans-Oblique-72" transform="translate(3660.193359 0)"/>
     <use xlink:href="#DejaVuSans-Oblique-6f" transform="translate(3701.306641 0)"/>
     <use xlink:href="#DejaVuSans-Oblique-6d" transform="translate(3762.488281 0)"/>
     <use xlink:href="#DejaVuSans-Oblique-20" transform="translate(3859.900391 0)"/>
     <use xlink:href="#DejaVuSans-Oblique-69" transform="translate(3891.6875 0)"/>
     <use xlink:href="#DejaVuSans-Oblique-6e" transform="translate(3919.470703 0)"/>
     <use xlink:href="#DejaVuSans-Oblique-64" transform="translate(3982.849609 0)"/>
     <use xlink:href="#DejaVuSans-Oblique-69" transform="translate(4046.326172 0)"/>
     <use xlink:href="#DejaVuSans-Oblique-76" transform="translate(4074.109375 0)"/>
     <use xlink:href="#DejaVuSans-Oblique-69" transform="translate(4133.289062 0)"/>
     <use xlink:href="#DejaVuSans-Oblique-64" transform="translate(4161.072266 0)"/>
     <use xlink:href="#DejaVuSans-Oblique-75" transform="translate(4224.548828 0)"/>
     <use xlink:href="#DejaVuSans-Oblique-61" transform="translate(4287.927734 0)"/>
     <use xlink:href="#DejaVuSans-Oblique-6c" transform="translate(4349.207031 0)"/>
     <use xlink:href="#DejaVuSans-Oblique-20" transform="translate(4376.990234 0)"/>
     <use xlink:href="#DejaVuSans-Oblique-65" transform="translate(4408.777344 0)"/>
     <use xlink:href="#DejaVuSans-Oblique-6c" transform="translate(4470.300781 0)"/>
     <use xlink:href="#DejaVuSans-Oblique-65" transform="translate(4498.083984 0)"/>
     <use xlink:href="#DejaVuSans-Oblique-6d" transform="translate(4559.607422 0)"/>
     <use xlink:href="#DejaVuSans-Oblique-65" transform="translate(4657.019531 0)"/>
     <use xlink:href="#DejaVuSans-Oblique-6e" transform="translate(4718.542969 0)"/>
     <use xlink:href="#DejaVuSans-Oblique-74" transform="translate(4781.921875 0)"/>
     <use xlink:href="#DejaVuSans-Oblique-73" transform="translate(4821.130859 0)"/>
     <use xlink:href="#DejaVuSans-Oblique-2e" transform="translate(4873.230469 0)"/>
     <use xlink:href="#DejaVuSans-Oblique-20" transform="translate(4905.017578 0)"/>
     <use xlink:href="#DejaVuSans-Oblique-20" transform="translate(4936.804688 0)"/>
     <use xlink:href="#DejaVuSans-Oblique-52" transform="translate(4968.591797 0)"/>
     <use xlink:href="#DejaVuSans-Oblique-65" transform="translate(5038.074219 0)"/>
     <use xlink:href="#DejaVuSans-Oblique-73" transform="translate(5099.597656 0)"/>
     <use xlink:href="#DejaVuSans-Oblique-75" transform="translate(5151.697266 0)"/>
     <use xlink:href="#DejaVuSans-Oblique-6c" transform="translate(5215.076172 0)"/>
     <use xlink:href="#DejaVuSans-Oblique-74" transform="translate(5242.859375 0)"/>
     <use xlink:href="#DejaVuSans-Oblique-20" transform="translate(5282.068359 0)"/>
     <use xlink:href="#DejaVuSans-Oblique-69" transform="translate(5313.855469 0)"/>
     <use xlink:href="#DejaVuSans-Oblique-73" transform="translate(5341.638672 0)"/>
     <use xlink:href="#DejaVuSans-Oblique-20" transform="translate(5393.738281 0)"/>
     <use xlink:href="#DejaVuSans-Oblique-6d" transform="translate(5425.525391 0)"/>
     <use xlink:href="#DejaVuSans-Oblique-65" transform="translate(5522.9375 0)"/>
     <use xlink:href="#DejaVuSans-Oblique-73" transform="translate(5584.460938 0)"/>
     <use xlink:href="#DejaVuSans-Oblique-68" transform="translate(5636.560547 0)"/>
     <use xlink:href="#DejaVuSans-Oblique-2d" transform="translate(5699.939453 0)"/>
     <use xlink:href="#DejaVuSans-Oblique-69" transform="translate(5736.023438 0)"/>
     <use xlink:href="#DejaVuSans-Oblique-6e" transform="translate(5763.806641 0)"/>
     <use xlink:href="#DejaVuSans-Oblique-73" transform="translate(5827.185547 0)"/>
     <use xlink:href="#DejaVuSans-Oblique-65" transform="translate(5879.285156 0)"/>
     <use xlink:href="#DejaVuSans-Oblique-6e" transform="translate(5940.808594 0)"/>
     <use xlink:href="#DejaVuSans-Oblique-73" transform="translate(6004.1875 0)"/>
     <use xlink:href="#DejaVuSans-Oblique-69" transform="translate(6056.287109 0)"/>
     <use xlink:href="#DejaVuSans-Oblique-74" transform="translate(6084.070312 0)"/>
     <use xlink:href="#DejaVuSans-Oblique-69" transform="translate(6123.279297 0)"/>
     <use xlink:href="#DejaVuSans-Oblique-76" transform="translate(6151.0625 0)"/>
     <use xlink:href="#DejaVuSans-Oblique-65" transform="translate(6210.242188 0)"/>
     <use xlink:href="#DejaVuSans-Oblique-2e" transform="translate(6271.765625 0)"/>
    </g>
   </g>
   <g id="text_7">
    <!-- Dong Mesh-Insensitive Structural Stress Method -->
    <g transform="translate(159.825937 17.837812) scale(0.14 -0.14)">
     <defs>
      <path id="DejaVuSans-Bold-44" d="M 1791 3756 
L 1791 909 
L 2222 909 
Q 2959 909 3348 1275 
Q 3738 1641 3738 2338 
Q 3738 3031 3350 3393 
Q 2963 3756 2222 3756 
L 1791 3756 
z
M 588 4666 
L 1856 4666 
Q 2919 4666 3439 4514 
Q 3959 4363 4331 4000 
Q 4659 3684 4818 3271 
Q 4978 2859 4978 2338 
Q 4978 1809 4818 1395 
Q 4659 981 4331 666 
Q 3956 303 3431 151 
Q 2906 0 1856 0 
L 588 0 
L 588 4666 
z
" transform="scale(0.015625)"/>
      <path id="DejaVuSans-Bold-6e" d="M 4056 2131 
L 4056 0 
L 2931 0 
L 2931 347 
L 2931 1631 
Q 2931 2084 2911 2256 
Q 2891 2428 2841 2509 
Q 2775 2619 2662 2680 
Q 2550 2741 2406 2741 
Q 2056 2741 1856 2470 
Q 1656 2200 1656 1722 
L 1656 0 
L 538 0 
L 538 3500 
L 1656 3500 
L 1656 2988 
Q 1909 3294 2193 3439 
Q 2478 3584 2822 3584 
Q 3428 3584 3742 3212 
Q 4056 2841 4056 2131 
z
" transform="scale(0.015625)"/>
      <path id="DejaVuSans-Bold-67" d="M 2919 594 
Q 2688 288 2409 144 
Q 2131 0 1766 0 
Q 1125 0 706 504 
Q 288 1009 288 1791 
Q 288 2575 706 3076 
Q 1125 3578 1766 3578 
Q 2131 3578 2409 3434 
Q 2688 3291 2919 2981 
L 2919 3500 
L 4044 3500 
L 4044 353 
Q 4044 -491 3511 -936 
Q 2978 -1381 1966 -1381 
Q 1638 -1381 1331 -1331 
Q 1025 -1281 716 -1178 
L 716 -306 
Q 1009 -475 1290 -558 
Q 1572 -641 1856 -641 
Q 2406 -641 2662 -400 
Q 2919 -159 2919 353 
L 2919 594 
z
M 2181 2772 
Q 1834 2772 1640 2515 
Q 1447 2259 1447 1791 
Q 1447 1309 1634 1061 
Q 1822 813 2181 813 
Q 2531 813 2725 1069 
Q 2919 1325 2919 1791 
Q 2919 2259 2725 2515 
Q 2531 2772 2181 2772 
z
" transform="scale(0.015625)"/>
      <path id="DejaVuSans-Bold-4d" d="M 588 4666 
L 2119 4666 
L 3181 2169 
L 4250 4666 
L 5778 4666 
L 5778 0 
L 4641 0 
L 4641 3413 
L 3566 897 
L 2803 897 
L 1728 3413 
L 1728 0 
L 588 0 
L 588 4666 
z
" transform="scale(0.015625)"/>
      <path id="DejaVuSans-Bold-68" d="M 4056 2131 
L 4056 0 
L 2931 0 
L 2931 347 
L 2931 1625 
Q 2931 2084 2911 2256 
Q 2891 2428 2841 2509 
Q 2775 2619 2662 2680 
Q 2550 2741 2406 2741 
Q 2056 2741 1856 2470 
Q 1656 2200 1656 1722 
L 1656 0 
L 538 0 
L 538 4863 
L 1656 4863 
L 1656 2988 
Q 1909 3294 2193 3439 
Q 2478 3584 2822 3584 
Q 3428 3584 3742 3212 
Q 4056 2841 4056 2131 
z
" transform="scale(0.015625)"/>
      <path id="DejaVuSans-Bold-2d" d="M 347 2297 
L 2309 2297 
L 2309 1388 
L 347 1388 
L 347 2297 
z
" transform="scale(0.015625)"/>
      <path id="DejaVuSans-Bold-49" d="M 588 4666 
L 1791 4666 
L 1791 0 
L 588 0 
L 588 4666 
z
" transform="scale(0.015625)"/>
      <path id="DejaVuSans-Bold-69" d="M 538 3500 
L 1656 3500 
L 1656 0 
L 538 0 
L 538 3500 
z
M 538 4863 
L 1656 4863 
L 1656 3950 
L 538 3950 
L 538 4863 
z
" transform="scale(0.015625)"/>
      <path id="DejaVuSans-Bold-74" d="M 1759 4494 
L 1759 3500 
L 2913 3500 
L 2913 2700 
L 1759 2700 
L 1759 1216 
Q 1759 972 1856 886 
Q 1953 800 2241 800 
L 2816 800 
L 2816 0 
L 1856 0 
Q 1194 0 917 276 
Q 641 553 641 1216 
L 641 2700 
L 84 2700 
L 84 3500 
L 641 3500 
L 641 4494 
L 1759 4494 
z
" transform="scale(0.015625)"/>
      <path id="DejaVuSans-Bold-76" d="M 97 3500 
L 1216 3500 
L 2088 1081 
L 2956 3500 
L 4078 3500 
L 2700 0 
L 1472 0 
L 97 3500 
z
" transform="scale(0.015625)"/>
      <path id="DejaVuSans-Bold-53" d="M 3834 4519 
L 3834 3531 
Q 3450 3703 3084 3790 
Q 2719 3878 2394 3878 
Q 1963 3878 1756 3759 
Q 1550 3641 1550 3391 
Q 1550 3203 1689 3098 
Q 1828 2994 2194 2919 
L 2706 2816 
Q 3484 2659 3812 2340 
Q 4141 2022 4141 1434 
Q 4141 663 3683 286 
Q 3225 -91 2284 -91 
Q 1841 -91 1394 -6 
Q 947 78 500 244 
L 500 1259 
Q 947 1022 1364 901 
Q 1781 781 2169 781 
Q 2563 781 2772 912 
Q 2981 1044 2981 1288 
Q 2981 1506 2839 1625 
Q 2697 1744 2272 1838 
L 1806 1941 
Q 1106 2091 782 2419 
Q 459 2747 459 3303 
Q 459 4000 909 4375 
Q 1359 4750 2203 4750 
Q 2588 4750 2994 4692 
Q 3400 4634 3834 4519 
z
" transform="scale(0.015625)"/>
      <path id="DejaVuSans-Bold-75" d="M 500 1363 
L 500 3500 
L 1625 3500 
L 1625 3150 
Q 1625 2866 1622 2436 
Q 1619 2006 1619 1863 
Q 1619 1441 1641 1255 
Q 1663 1069 1716 984 
Q 1784 875 1895 815 
Q 2006 756 2150 756 
Q 2500 756 2700 1025 
Q 2900 1294 2900 1772 
L 2900 3500 
L 4019 3500 
L 4019 0 
L 2900 0 
L 2900 506 
Q 2647 200 2364 54 
Q 2081 -91 1741 -91 
Q 1134 -91 817 281 
Q 500 653 500 1363 
z
" transform="scale(0.015625)"/>
     </defs>
     <use xlink:href="#DejaVuSans-Bold-44"/>
     <use xlink:href="#DejaVuSans-Bold-6f" transform="translate(83.007812 0)"/>
     <use xlink:href="#DejaVuSans-Bold-6e" transform="translate(151.708984 0)"/>
     <use xlink:href="#DejaVuSans-Bold-67" transform="translate(222.900391 0)"/>
     <use xlink:href="#DejaVuSans-Bold-20" transform="translate(294.482422 0)"/>
     <use xlink:href="#DejaVuSans-Bold-4d" transform="translate(329.296875 0)"/>
     <use xlink:href="#DejaVuSans-Bold-65" transform="translate(428.808594 0)"/>
     <use xlink:href="#DejaVuSans-Bold-73" transform="translate(496.630859 0)"/>
     <use xlink:href="#DejaVuSans-Bold-68" transform="translate(556.152344 0)"/>
     <use xlink:href="#DejaVuSans-Bold-2d" transform="translate(627.34375 0)"/>
     <use xlink:href="#DejaVuSans-Bold-49" transform="translate(668.847656 0)"/>
     <use xlink:href="#DejaVuSans-Bold-6e" transform="translate(706.054688 0)"/>
     <use xlink:href="#DejaVuSans-Bold-73" transform="translate(777.246094 0)"/>
     <use xlink:href="#DejaVuSans-Bold-65" transform="translate(836.767578 0)"/>
     <use xlink:href="#DejaVuSans-Bold-6e" transform="translate(904.589844 0)"/>
     <use xlink:href="#DejaVuSans-Bold-73" transform="translate(975.78125 0)"/>
     <use xlink:href="#DejaVuSans-Bold-69" transform="translate(1035.302734 0)"/>
     <use xlink:href="#DejaVuSans-Bold-74" transform="translate(1069.580078 0)"/>
     <use xlink:href="#DejaVuSans-Bold-69" transform="translate(1117.382812 0)"/>
     <use xlink:href="#DejaVuSans-Bold-76" transform="translate(1151.660156 0)"/>
     <use xlink:href="#DejaVuSans-Bold-65" transform="translate(1216.845703 0)"/>
     <use xlink:href="#DejaVuSans-Bold-20" transform="translate(1284.667969 0)"/>
     <use xlink:href="#DejaVuSans-Bold-53" transform="translate(1319.482422 0)"/>
     <use xlink:href="#DejaVuSans-Bold-74" transform="translate(1391.503906 0)"/>
     <use xlink:href="#DejaVuSans-Bold-72" transform="translate(1439.306641 0)"/>
     <use xlink:href="#DejaVuSans-Bold-75" transform="translate(1488.623047 0)"/>
     <use xlink:href="#DejaVuSans-Bold-63" transform="translate(1559.814453 0)"/>
     <use xlink:href="#DejaVuSans-Bold-74" transform="translate(1619.091797 0)"/>
     <use xlink:href="#DejaVuSans-Bold-75" transform="translate(1666.894531 0)"/>
     <use xlink:href="#DejaVuSans-Bold-72" transform="translate(1738.085938 0)"/>
     <use xlink:href="#DejaVuSans-Bold-61" transform="translate(1787.402344 0)"/>
     <use xlink:href="#DejaVuSans-Bold-6c" transform="translate(1854.882812 0)"/>
     <use xlink:href="#DejaVuSans-Bold-20" transform="translate(1889.160156 0)"/>
     <use xlink:href="#DejaVuSans-Bold-53" transform="translate(1923.974609 0)"/>
     <use xlink:href="#DejaVuSans-Bold-74" transform="translate(1995.996094 0)"/>
     <use xlink:href="#DejaVuSans-Bold-72" transform="translate(2043.798828 0)"/>
     <use xlink:href="#DejaVuSans-Bold-65" transform="translate(2093.115234 0)"/>
     <use xlink:href="#DejaVuSans-Bold-73" transform="translate(2160.9375 0)"/>
     <use xlink:href="#DejaVuSans-Bold-73" transform="translate(2220.458984 0)"/>
     <use xlink:href="#DejaVuSans-Bold-20" transform="translate(2279.980469 0)"/>
     <use xlink:href="#DejaVuSans-Bold-4d" transform="translate(2314.794922 0)"/>
     <use xlink:href="#DejaVuSans-Bold-65" transform="translate(2414.306641 0)"/>
     <use xlink:href="#DejaVuSans-Bold-74" transform="translate(2482.128906 0)"/>
     <use xlink:href="#DejaVuSans-Bold-68" transform="translate(2529.931641 0)"/>
     <use xlink:href="#DejaVuSans-Bold-6f" transform="translate(2601.123047 0)"/>
     <use xlink:href="#DejaVuSans-Bold-64" transform="translate(2669.824219 0)"/>
    </g>
   </g>
   <g id="line2d_13">
    <defs>
     <path id="m4740e842ec" d="M 0 3 
C 0.795609 3 1.55874 2.683901 2.12132 2.12132 
C 2.683901 1.55874 3 0.795609 3 0 
C 3 -0.795609 2.683901 -1.55874 2.12132 -2.12132 
C 1.55874 -2.683901 0.795609 -3 0 -3 
C -0.795609 -3 -1.55874 -2.683901 -2.12132 -2.12132 
C -2.683901 -1.55874 -3 -0.795609 -3 0 
C -3 0.795609 -2.683901 1.55874 -2.12132 2.12132 
C -1.55874 2.683901 -0.795609 3 0 3 
z
" style="stroke: #000000"/>
    </defs>
    <g clip-path="url(#p0d6c3cd457)">
     <use xlink:href="#m4740e842ec" x="100.629153" y="70.552389" style="stroke: #000000"/>
    </g>
   </g>
   <g id="line2d_14">
    <g clip-path="url(#p0d6c3cd457)">
     <use xlink:href="#m4740e842ec" x="100.629153" y="58.873745" style="stroke: #000000"/>
    </g>
   </g>
   <g id="line2d_15">
    <g clip-path="url(#p0d6c3cd457)">
     <use xlink:href="#m4740e842ec" x="100.629153" y="47.195101" style="stroke: #000000"/>
    </g>
   </g>
  </g>
 </g>
 <defs>
  <clipPath id="p0d6c3cd457">
   <rect x="7.2" y="23.837812" width="689.04" height="70.071864"/>
  </clipPath>
 </defs>
 <defs>
  <pattern id="hcfd548abed" patternUnits="userSpaceOnUse" x="0" y="0" width="72" height="72">
   <rect x="0" y="0" width="73" height="73" fill="#bdc3c7"/>
   <path d="M -36 36 
L 36 -36 
M -30 42 
L 42 -30 
M -24 48 
L 48 -24 
M -18 54 
L 54 -18 
M -12 60 
L 60 -12 
M -6 66 
L 66 -6 
M 0 72 
L 72 0 
M 6 78 
L 78 6 
M 12 84 
L 84 12 
M 18 90 
L 90 18 
M 24 96 
L 96 24 
M 30 102 
L 102 30 
M 36 108 
L 108 36 
" style="fill: #1a5276; stroke: #1a5276; stroke-width: 1.0; stroke-linecap: butt; stroke-linejoin: miter"/>
  </pattern>
 </defs>
</svg>
