<?xml version="1.0" encoding="utf-8" standalone="no"?>
<!DOCTYPE svg PUBLIC "-//W3C//DTD SVG 1.1//EN"
  "http://www.w3.org/Graphics/SVG/1.1/DTD/svg11.dtd">
<svg xmlns:xlink="http://www.w3.org/1999/xlink" width="610.916875pt" height="368.249688pt" viewBox="0 0 610.916875 368.249688" xmlns="http://www.w3.org/2000/svg" version="1.1">
 <metadata>
  <rdf:RDF xmlns:dc="http://purl.org/dc/elements/1.1/" xmlns:cc="http://creativecommons.org/ns#" xmlns:rdf="http://www.w3.org/1999/02/22-rdf-syntax-ns#">
   <cc:Work>
    <dc:type rdf:resource="http://purl.org/dc/dcmitype/StillImage"/>
    <dc:date>2026-04-11T15:56:40.349915</dc:date>
    <dc:format>image/svg+xml</dc:format>
    <dc:creator>
     <cc:Agent>
      <dc:title>Matplotlib v3.10.8, https://matplotlib.org/</dc:title>
     </cc:Agent>
    </dc:creator>
   </cc:Work>
  </rdf:RDF>
 </metadata>
 <defs>
  <style type="text/css">*{stroke-linejoin: round; stroke-linecap: butt}</style>
 </defs>
 <g id="figure_1">
  <g id="patch_1">
   <path d="M 0 368.249688 
L 610.916875 368.249688 
L 610.916875 0 
L 0 0 
z
" style="fill: #fafafa"/>
  </g>
  <g id="axes_1">
   <g id="patch_2">
    <path d="M 45.716875 328.757813 
L 603.716875 328.757813 
L 603.716875 23.837813 
L 45.716875 23.837813 
z
" style="fill: #ffffff"/>
   </g>
   <g id="FillBetweenPolyCollection_1">
    <defs>
     <path id="m2a62d72be9" d="M 71.080511 -268.094398 
L 71.080511 -54.889382 
L 76.153239 -55.043602 
L 81.225966 -55.144965 
L 86.298693 -55.140165 
L 91.37142 -54.504012 
L 96.444148 -53.351875 
L 101.516875 -53.659733 
L 106.589602 -54.818212 
L 111.66233 -56.460487 
L 116.735057 -55.373085 
L 121.807784 -250.796854 
L 126.880511 -250.928633 
L 131.953239 -250.815439 
L 137.025966 -251.490427 
L 142.098693 -250.840616 
L 147.17142 -249.838343 
L 152.244148 -248.990643 
L 157.316875 -249.194395 
L 162.389602 -247.221412 
L 167.46233 -248.01283 
L 172.535057 -267.177245 
L 177.607784 -264.785104 
L 182.680511 -263.298629 
L 187.753239 -264.954044 
L 192.825966 -264.913373 
L 197.898693 -264.337692 
L 202.97142 -263.162859 
L 208.044148 -263.11915 
L 213.116875 -264.334908 
L 218.189602 -264.113157 
L 223.26233 -275.119471 
L 228.335057 -274.977559 
L 233.407784 -273.193202 
L 238.480511 -271.962608 
L 243.553239 -271.250525 
L 248.625966 -270.622371 
L 253.698693 -269.922881 
L 258.77142 -267.379502 
L 263.844148 -268.216285 
L 268.916875 -268.558762 
L 273.989602 -275.492272 
L 279.06233 -275.091117 
L 284.135057 -273.19541 
L 289.207784 -272.272918 
L 294.280511 -272.155721 
L 299.353239 -271.763719 
L 304.425966 -270.852876 
L 309.498693 -269.17553 
L 314.57142 -268.914181 
L 319.644148 -268.738006 
L 324.716875 -279.71296 
L 329.789602 -278.469627 
L 334.86233 -277.741941 
L 339.935057 -276.670603 
L 345.007784 -275.817278 
L 350.080511 -275.327917 
L 355.153239 -273.536179 
L 360.225966 -272.354669 
L 365.298693 -271.471937 
L 370.37142 -269.870271 
L 375.444148 -282.945302 
L 380.516875 -281.786073 
L 385.589602 -281.591672 
L 390.66233 -281.510953 
L 395.735057 -282.659137 
L 400.807784 -282.005365 
L 405.880511 -280.413488 
L 410.953239 -279.274706 
L 416.025966 -279.25929 
L 421.098693 -279.224788 
L 426.17142 -286.649781 
L 431.244148 -285.70966 
L 436.316875 -284.909744 
L 441.389602 -284.017371 
L 446.46233 -282.3177 
L 451.535057 -279.962366 
L 456.607784 -279.135502 
L 461.680511 -277.031836 
L 466.753239 -276.108537 
L 471.825966 -276.114478 
L 476.898693 -283.788144 
L 481.97142 -283.569724 
L 487.044148 -282.345774 
L 492.116875 -282.305663 
L 497.189602 -281.720239 
L 502.26233 -280.61208 
L 507.335057 -280.652793 
L 512.407784 -279.738528 
L 517.480511 -280.428067 
L 522.553239 -280.777427 
L 527.625966 -281.989334 
L 532.698693 -280.269032 
L 537.77142 -279.530768 
L 542.844148 -279.260186 
L 547.916875 -279.154995 
L 552.989602 -279.095085 
L 558.06233 -277.632922 
L 563.135057 -278.182266 
L 568.207784 -279.02066 
L 573.280511 -278.771284 
L 578.353239 -285.77513 
L 578.353239 -319.703606 
L 578.353239 -319.703606 
L 573.280511 -327.065501 
L 568.207784 -326.351955 
L 563.135057 -326.433822 
L 558.06233 -326.286738 
L 552.989602 -325.012192 
L 547.916875 -325.531159 
L 542.844148 -323.483077 
L 537.77142 -322.871342 
L 532.698693 -321.753311 
L 527.625966 -318.827844 
L 522.553239 -326.005847 
L 517.480511 -325.86494 
L 512.407784 -324.76774 
L 507.335057 -324.313881 
L 502.26233 -322.556125 
L 497.189602 -320.625717 
L 492.116875 -318.973886 
L 487.044148 -319.395879 
L 481.97142 -318.474124 
L 476.898693 -317.792608 
L 471.825966 -330.551875 
L 466.753239 -329.939232 
L 461.680511 -328.663844 
L 456.607784 -326.982134 
L 451.535057 -326.731523 
L 446.46233 -326.076905 
L 441.389602 -324.034975 
L 436.316875 -323.814712 
L 431.244148 -322.926721 
L 426.17142 -321.707992 
L 421.098693 -329.506998 
L 416.025966 -328.981884 
L 410.953239 -328.111277 
L 405.880511 -326.293687 
L 400.807784 -324.584887 
L 395.735057 -324.943742 
L 390.66233 -324.981768 
L 385.589602 -323.691765 
L 380.516875 -323.47537 
L 375.444148 -321.605384 
L 370.37142 -324.859322 
L 365.298693 -322.649189 
L 360.225966 -322.156086 
L 355.153239 -321.037344 
L 350.080511 -319.128596 
L 345.007784 -317.99466 
L 339.935057 -318.777701 
L 334.86233 -317.197297 
L 329.789602 -316.628255 
L 324.716875 -315.618803 
L 319.644148 -319.794648 
L 314.57142 -319.271687 
L 309.498693 -318.09442 
L 304.425966 -315.843521 
L 299.353239 -315.208982 
L 294.280511 -313.513703 
L 289.207784 -312.012557 
L 284.135057 -310.855168 
L 279.06233 -309.662319 
L 273.989602 -308.897641 
L 268.916875 -321.451354 
L 263.844148 -319.552202 
L 258.77142 -318.8577 
L 253.698693 -316.969583 
L 248.625966 -316.892475 
L 243.553239 -314.964107 
L 238.480511 -314.032859 
L 233.407784 -313.388691 
L 228.335057 -311.439243 
L 223.26233 -310.697286 
L 218.189602 -316.875408 
L 213.116875 -315.92912 
L 208.044148 -316.103275 
L 202.97142 -314.961024 
L 197.898693 -313.341696 
L 192.825966 -312.432291 
L 187.753239 -312.937353 
L 182.680511 -312.350964 
L 177.607784 -311.825703 
L 172.535057 -309.980242 
L 167.46233 -309.945779 
L 162.389602 -310.041734 
L 157.316875 -308.043113 
L 152.244148 -307.435559 
L 147.17142 -306.369548 
L 142.098693 -306.231022 
L 137.025966 -305.657468 
L 131.953239 -304.581226 
L 126.880511 -304.81105 
L 121.807784 -305.863204 
L 116.735057 -266.644456 
L 111.66233 -266.24773 
L 106.589602 -267.308745 
L 101.516875 -267.022299 
L 96.444148 -266.88049 
L 91.37142 -266.265917 
L 86.298693 -266.232156 
L 81.225966 -267.109186 
L 76.153239 -267.765255 
L 71.080511 -268.094398 
z
" style="stroke: #f39c12; stroke-opacity: 0.25"/>
    </defs>
    <g clip-path="url(#p3a983e63ce)">
     <use xlink:href="#m2a62d72be9" x="0" y="368.249688" style="fill: #f39c12; fill-opacity: 0.25; stroke: #f39c12; stroke-opacity: 0.25"/>
    </g>
   </g>
   <g id="matplotlib.axis_1">
    <g id="xtick_1">
     <g id="line2d_1">
      <path d="M 71.080511 328.757813 
L 71.080511 23.837813 
" clip-path="url(#p3a983e63ce)" style="fill: none; stroke-dasharray: 0.8,1.32; stroke-dashoffset: 0; stroke: #b0b0b0; stroke-opacity: 0.3; stroke-width: 0.8"/>
     </g>
     <g id="line2d_2">
      <defs>
       <path id="m16d80e0431" d="M 0 0 
L 0 3.5 
" style="stroke: #000000; stroke-width: 0.8"/>
      </defs>
      <g>
       <use xlink:href="#m16d80e0431" x="71.080511" y="328.757813" style="stroke: #000000; stroke-width: 0.8"/>
      </g>
     </g>
     <g id="text_1">
      <!-- 0 -->
      <g transform="translate(67.899261 343.35625) scale(0.1 -0.1)">
       <defs>
        <path id="DejaVuSans-30" d="M 2034 4250 
Q 1547 4250 1301 3770 
Q 1056 3291 1056 2328 
Q 1056 1369 1301 889 
Q 1547 409 2034 409 
Q 2525 409 2770 889 
Q 3016 1369 3016 2328 
Q 3016 3291 2770 3770 
Q 2525 4250 2034 4250 
z
M 2034 4750 
Q 2819 4750 3233 4129 
Q 3647 3509 3647 2328 
Q 3647 1150 3233 529 
Q 2819 -91 2034 -91 
Q 1250 -91 836 529 
Q 422 1150 422 2328 
Q 422 3509 836 4129 
Q 1250 4750 2034 4750 
z
" transform="scale(0.015625)"/>
       </defs>
       <use xlink:href="#DejaVuSans-30"/>
      </g>
     </g>
    </g>
    <g id="xtick_2">
     <g id="line2d_3">
      <path d="M 172.535057 328.757813 
L 172.535057 23.837813 
" clip-path="url(#p3a983e63ce)" style="fill: none; stroke-dasharray: 0.8,1.32; stroke-dashoffset: 0; stroke: #b0b0b0; stroke-opacity: 0.3; stroke-width: 0.8"/>
     </g>
     <g id="line2d_4">
      <g>
       <use xlink:href="#m16d80e0431" x="172.535057" y="328.757813" style="stroke: #000000; stroke-width: 0.8"/>
      </g>
     </g>
     <g id="text_2">
      <!-- 20 -->
      <g transform="translate(166.172557 343.35625) scale(0.1 -0.1)">
       <defs>
        <path id="DejaVuSans-32" d="M 1228 531 
L 3431 531 
L 3431 0 
L 469 0 
L 469 531 
Q 828 903 1448 1529 
Q 2069 2156 2228 2338 
Q 2531 2678 2651 2914 
Q 2772 3150 2772 3378 
Q 2772 3750 2511 3984 
Q 2250 4219 1831 4219 
Q 1534 4219 1204 4116 
Q 875 4013 500 3803 
L 500 4441 
Q 881 4594 1212 4672 
Q 1544 4750 1819 4750 
Q 2544 4750 2975 4387 
Q 3406 4025 3406 3419 
Q 3406 3131 3298 2873 
Q 3191 2616 2906 2266 
Q 2828 2175 2409 1742 
Q 1991 1309 1228 531 
z
" transform="scale(0.015625)"/>
       </defs>
       <use xlink:href="#DejaVuSans-32"/>
       <use xlink:href="#DejaVuSans-30" transform="translate(63.623047 0)"/>
      </g>
     </g>
    </g>
    <g id="xtick_3">
     <g id="line2d_5">
      <path d="M 273.989602 328.757813 
L 273.989602 23.837813 
" clip-path="url(#p3a983e63ce)" style="fill: none; stroke-dasharray: 0.8,1.32; stroke-dashoffset: 0; stroke: #b0b0b0; stroke-opacity: 0.3; stroke-width: 0.8"/>
     </g>
     <g id="line2d_6">
      <g>
       <use xlink:href="#m16d80e0431" x="273.989602" y="328.757813" style="stroke: #000000; stroke-width: 0.8"/>
      </g>
     </g>
     <g id="text_3">
      <!-- 40 -->
      <g transform="translate(267.627102 343.35625) scale(0.1 -0.1)">
       <defs>
        <path id="DejaVuSans-34" d="M 2419 4116 
L 825 1625 
L 2419 1625 
L 2419 4116 
z
M 2253 4666 
L 3047 4666 
L 3047 1625 
L 3713 1625 
L 3713 1100 
L 3047 1100 
L 3047 0 
L 2419 0 
L 2419 1100 
L 313 1100 
L 313 1709 
L 2253 4666 
z
" transform="scale(0.015625)"/>
       </defs>
       <use xlink:href="#DejaVuSans-34"/>
       <use xlink:href="#DejaVuSans-30" transform="translate(63.623047 0)"/>
      </g>
     </g>
    </g>
    <g id="xtick_4">
     <g id="line2d_7">
      <path d="M 375.444148 328.757813 
L 375.444148 23.837813 
" clip-path="url(#p3a983e63ce)" style="fill: none; stroke-dasharray: 0.8,1.32; stroke-dashoffset: 0; stroke: #b0b0b0; stroke-opacity: 0.3; stroke-width: 0.8"/>
     </g>
     <g id="line2d_8">
      <g>
       <use xlink:href="#m16d80e0431" x="375.444148" y="328.757813" style="stroke: #000000; stroke-width: 0.8"/>
      </g>
     </g>
     <g id="text_4">
      <!-- 60 -->
      <g transform="translate(369.081648 343.35625) scale(0.1 -0.1)">
       <defs>
        <path id="DejaVuSans-36" d="M 2113 2584 
Q 1688 2584 1439 2293 
Q 1191 2003 1191 1497 
Q 1191 994 1439 701 
Q 1688 409 2113 409 
Q 2538 409 2786 701 
Q 3034 994 3034 1497 
Q 3034 2003 2786 2293 
Q 2538 2584 2113 2584 
z
M 3366 4563 
L 3366 3988 
Q 3128 4100 2886 4159 
Q 2644 4219 2406 4219 
Q 1781 4219 1451 3797 
Q 1122 3375 1075 2522 
Q 1259 2794 1537 2939 
Q 1816 3084 2150 3084 
Q 2853 3084 3261 2657 
Q 3669 2231 3669 1497 
Q 3669 778 3244 343 
Q 2819 -91 2113 -91 
Q 1303 -91 875 529 
Q 447 1150 447 2328 
Q 447 3434 972 4092 
Q 1497 4750 2381 4750 
Q 2619 4750 2861 4703 
Q 3103 4656 3366 4563 
z
" transform="scale(0.015625)"/>
       </defs>
       <use xlink:href="#DejaVuSans-36"/>
       <use xlink:href="#DejaVuSans-30" transform="translate(63.623047 0)"/>
      </g>
     </g>
    </g>
    <g id="xtick_5">
     <g id="line2d_9">
      <path d="M 476.898693 328.757813 
L 476.898693 23.837813 
" clip-path="url(#p3a983e63ce)" style="fill: none; stroke-dasharray: 0.8,1.32; stroke-dashoffset: 0; stroke: #b0b0b0; stroke-opacity: 0.3; stroke-width: 0.8"/>
     </g>
     <g id="line2d_10">
      <g>
       <use xlink:href="#m16d80e0431" x="476.898693" y="328.757813" style="stroke: #000000; stroke-width: 0.8"/>
      </g>
     </g>
     <g id="text_5">
      <!-- 80 -->
      <g transform="translate(470.536193 343.35625) scale(0.1 -0.1)">
       <defs>
        <path id="DejaVuSans-38" d="M 2034 2216 
Q 1584 2216 1326 1975 
Q 1069 1734 1069 1313 
Q 1069 891 1326 650 
Q 1584 409 2034 409 
Q 2484 409 2743 651 
Q 3003 894 3003 1313 
Q 3003 1734 2745 1975 
Q 2488 2216 2034 2216 
z
M 1403 2484 
Q 997 2584 770 2862 
Q 544 3141 544 3541 
Q 544 4100 942 4425 
Q 1341 4750 2034 4750 
Q 2731 4750 3128 4425 
Q 3525 4100 3525 3541 
Q 3525 3141 3298 2862 
Q 3072 2584 2669 2484 
Q 3125 2378 3379 2068 
Q 3634 1759 3634 1313 
Q 3634 634 3220 271 
Q 2806 -91 2034 -91 
Q 1263 -91 848 271 
Q 434 634 434 1313 
Q 434 1759 690 2068 
Q 947 2378 1403 2484 
z
M 1172 3481 
Q 1172 3119 1398 2916 
Q 1625 2713 2034 2713 
Q 2441 2713 2670 2916 
Q 2900 3119 2900 3481 
Q 2900 3844 2670 4047 
Q 2441 4250 2034 4250 
Q 1625 4250 1398 4047 
Q 1172 3844 1172 3481 
z
" transform="scale(0.015625)"/>
       </defs>
       <use xlink:href="#DejaVuSans-38"/>
       <use xlink:href="#DejaVuSans-30" transform="translate(63.623047 0)"/>
      </g>
     </g>
    </g>
    <g id="xtick_6">
     <g id="line2d_11">
      <path d="M 578.353239 328.757813 
L 578.353239 23.837813 
" clip-path="url(#p3a983e63ce)" style="fill: none; stroke-dasharray: 0.8,1.32; stroke-dashoffset: 0; stroke: #b0b0b0; stroke-opacity: 0.3; stroke-width: 0.8"/>
     </g>
     <g id="line2d_12">
      <g>
       <use xlink:href="#m16d80e0431" x="578.353239" y="328.757813" style="stroke: #000000; stroke-width: 0.8"/>
      </g>
     </g>
     <g id="text_6">
      <!-- 100 -->
      <g transform="translate(568.809489 343.35625) scale(0.1 -0.1)">
       <defs>
        <path id="DejaVuSans-31" d="M 794 531 
L 1825 531 
L 1825 4091 
L 703 3866 
L 703 4441 
L 1819 4666 
L 2450 4666 
L 2450 531 
L 3481 531 
L 3481 0 
L 794 0 
L 794 531 
z
" transform="scale(0.015625)"/>
       </defs>
       <use xlink:href="#DejaVuSans-31"/>
       <use xlink:href="#DejaVuSans-30" transform="translate(63.623047 0)"/>
       <use xlink:href="#DejaVuSans-30" transform="translate(127.246094 0)"/>
      </g>
     </g>
    </g>
    <g id="text_7">
     <!-- cycle block -->
     <g transform="translate(291.38125 358.554063) scale(0.12 -0.12)">
      <defs>
       <path id="DejaVuSans-63" d="M 3122 3366 
L 3122 2828 
Q 2878 2963 2633 3030 
Q 2388 3097 2138 3097 
Q 1578 3097 1268 2742 
Q 959 2388 959 1747 
Q 959 1106 1268 751 
Q 1578 397 2138 397 
Q 2388 397 2633 464 
Q 2878 531 3122 666 
L 3122 134 
Q 2881 22 2623 -34 
Q 2366 -91 2075 -91 
Q 1284 -91 818 406 
Q 353 903 353 1747 
Q 353 2603 823 3093 
Q 1294 3584 2113 3584 
Q 2378 3584 2631 3529 
Q 2884 3475 3122 3366 
z
" transform="scale(0.015625)"/>
       <path id="DejaVuSans-79" d="M 2059 -325 
Q 1816 -950 1584 -1140 
Q 1353 -1331 966 -1331 
L 506 -1331 
L 506 -850 
L 844 -850 
Q 1081 -850 1212 -737 
Q 1344 -625 1503 -206 
L 1606 56 
L 191 3500 
L 800 3500 
L 1894 763 
L 2988 3500 
L 3597 3500 
L 2059 -325 
z
" transform="scale(0.015625)"/>
       <path id="DejaVuSans-6c" d="M 603 4863 
L 1178 4863 
L 1178 0 
L 603 0 
L 603 4863 
z
" transform="scale(0.015625)"/>
       <path id="DejaVuSans-65" d="M 3597 1894 
L 3597 1613 
L 953 1613 
Q 991 1019 1311 708 
Q 1631 397 2203 397 
Q 2534 397 2845 478 
Q 3156 559 3463 722 
L 3463 178 
Q 3153 47 2828 -22 
Q 2503 -91 2169 -91 
Q 1331 -91 842 396 
Q 353 884 353 1716 
Q 353 2575 817 3079 
Q 1281 3584 2069 3584 
Q 2775 3584 3186 3129 
Q 3597 2675 3597 1894 
z
M 3022 2063 
Q 3016 2534 2758 2815 
Q 2500 3097 2075 3097 
Q 1594 3097 1305 2825 
Q 1016 2553 972 2059 
L 3022 2063 
z
" transform="scale(0.015625)"/>
       <path id="DejaVuSans-20" transform="scale(0.015625)"/>
       <path id="DejaVuSans-62" d="M 3116 1747 
Q 3116 2381 2855 2742 
Q 2594 3103 2138 3103 
Q 1681 3103 1420 2742 
Q 1159 2381 1159 1747 
Q 1159 1113 1420 752 
Q 1681 391 2138 391 
Q 2594 391 2855 752 
Q 3116 1113 3116 1747 
z
M 1159 2969 
Q 1341 3281 1617 3432 
Q 1894 3584 2278 3584 
Q 2916 3584 3314 3078 
Q 3713 2572 3713 1747 
Q 3713 922 3314 415 
Q 2916 -91 2278 -91 
Q 1894 -91 1617 61 
Q 1341 213 1159 525 
L 1159 0 
L 581 0 
L 581 4863 
L 1159 4863 
L 1159 2969 
z
" transform="scale(0.015625)"/>
       <path id="DejaVuSans-6f" d="M 1959 3097 
Q 1497 3097 1228 2736 
Q 959 2375 959 1747 
Q 959 1119 1226 758 
Q 1494 397 1959 397 
Q 2419 397 2687 759 
Q 2956 1122 2956 1747 
Q 2956 2369 2687 2733 
Q 2419 3097 1959 3097 
z
M 1959 3584 
Q 2709 3584 3137 3096 
Q 3566 2609 3566 1747 
Q 3566 888 3137 398 
Q 2709 -91 1959 -91 
Q 1206 -91 779 398 
Q 353 888 353 1747 
Q 353 2609 779 3096 
Q 1206 3584 1959 3584 
z
" transform="scale(0.015625)"/>
       <path id="DejaVuSans-6b" d="M 581 4863 
L 1159 4863 
L 1159 1991 
L 2875 3500 
L 3609 3500 
L 1753 1863 
L 3688 0 
L 2938 0 
L 1159 1709 
L 1159 0 
L 581 0 
L 581 4863 
z
" transform="scale(0.015625)"/>
      </defs>
      <use xlink:href="#DejaVuSans-63"/>
      <use xlink:href="#DejaVuSans-79" transform="translate(54.980469 0)"/>
      <use xlink:href="#DejaVuSans-63" transform="translate(114.160156 0)"/>
      <use xlink:href="#DejaVuSans-6c" transform="translate(169.140625 0)"/>
      <use xlink:href="#DejaVuSans-65" transform="translate(196.923828 0)"/>
      <use xlink:href="#DejaVuSans-20" transform="translate(258.447266 0)"/>
      <use xlink:href="#DejaVuSans-62" transform="translate(290.234375 0)"/>
      <use xlink:href="#DejaVuSans-6c" transform="translate(353.710938 0)"/>
      <use xlink:href="#DejaVuSans-6f" transform="translate(381.494141 0)"/>
      <use xlink:href="#DejaVuSans-63" transform="translate(442.675781 0)"/>
      <use xlink:href="#DejaVuSans-6b" transform="translate(497.65625 0)"/>
     </g>
    </g>
   </g>
   <g id="matplotlib.axis_2">
    <g id="ytick_1">
     <g id="line2d_13">
      <path d="M 45.716875 326.215836 
L 603.716875 326.215836 
" clip-path="url(#p3a983e63ce)" style="fill: none; stroke-dasharray: 0.8,1.32; stroke-dashoffset: 0; stroke: #b0b0b0; stroke-opacity: 0.3; stroke-width: 0.8"/>
     </g>
     <g id="line2d_14">
      <defs>
       <path id="mdb090b4753" d="M 0 0 
L -3.5 0 
" style="stroke: #000000; stroke-width: 0.8"/>
      </defs>
      <g>
       <use xlink:href="#mdb090b4753" x="45.716875" y="326.215836" style="stroke: #000000; stroke-width: 0.8"/>
      </g>
     </g>
     <g id="text_8">
      <!-- 0.1 -->
      <g transform="translate(22.81375 330.015054) scale(0.1 -0.1)">
       <defs>
        <path id="DejaVuSans-2e" d="M 684 794 
L 1344 794 
L 1344 0 
L 684 0 
L 684 794 
z
" transform="scale(0.015625)"/>
       </defs>
       <use xlink:href="#DejaVuSans-30"/>
       <use xlink:href="#DejaVuSans-2e" transform="translate(63.623047 0)"/>
       <use xlink:href="#DejaVuSans-31" transform="translate(95.410156 0)"/>
      </g>
     </g>
    </g>
    <g id="ytick_2">
     <g id="line2d_15">
      <path d="M 45.716875 264.990916 
L 603.716875 264.990916 
" clip-path="url(#p3a983e63ce)" style="fill: none; stroke-dasharray: 0.8,1.32; stroke-dashoffset: 0; stroke: #b0b0b0; stroke-opacity: 0.3; stroke-width: 0.8"/>
     </g>
     <g id="line2d_16">
      <g>
       <use xlink:href="#mdb090b4753" x="45.716875" y="264.990916" style="stroke: #000000; stroke-width: 0.8"/>
      </g>
     </g>
     <g id="text_9">
      <!-- 0.2 -->
      <g transform="translate(22.81375 268.790134) scale(0.1 -0.1)">
       <use xlink:href="#DejaVuSans-30"/>
       <use xlink:href="#DejaVuSans-2e" transform="translate(63.623047 0)"/>
       <use xlink:href="#DejaVuSans-32" transform="translate(95.410156 0)"/>
      </g>
     </g>
    </g>
    <g id="ytick_3">
     <g id="line2d_17">
      <path d="M 45.716875 203.765996 
L 603.716875 203.765996 
" clip-path="url(#p3a983e63ce)" style="fill: none; stroke-dasharray: 0.8,1.32; stroke-dashoffset: 0; stroke: #b0b0b0; stroke-opacity: 0.3; stroke-width: 0.8"/>
     </g>
     <g id="line2d_18">
      <g>
       <use xlink:href="#mdb090b4753" x="45.716875" y="203.765996" style="stroke: #000000; stroke-width: 0.8"/>
      </g>
     </g>
     <g id="text_10">
      <!-- 0.3 -->
      <g transform="translate(22.81375 207.565214) scale(0.1 -0.1)">
       <defs>
        <path id="DejaVuSans-33" d="M 2597 2516 
Q 3050 2419 3304 2112 
Q 3559 1806 3559 1356 
Q 3559 666 3084 287 
Q 2609 -91 1734 -91 
Q 1441 -91 1130 -33 
Q 819 25 488 141 
L 488 750 
Q 750 597 1062 519 
Q 1375 441 1716 441 
Q 2309 441 2620 675 
Q 2931 909 2931 1356 
Q 2931 1769 2642 2001 
Q 2353 2234 1838 2234 
L 1294 2234 
L 1294 2753 
L 1863 2753 
Q 2328 2753 2575 2939 
Q 2822 3125 2822 3475 
Q 2822 3834 2567 4026 
Q 2313 4219 1838 4219 
Q 1578 4219 1281 4162 
Q 984 4106 628 3988 
L 628 4550 
Q 988 4650 1302 4700 
Q 1616 4750 1894 4750 
Q 2613 4750 3031 4423 
Q 3450 4097 3450 3541 
Q 3450 3153 3228 2886 
Q 3006 2619 2597 2516 
z
" transform="scale(0.015625)"/>
       </defs>
       <use xlink:href="#DejaVuSans-30"/>
       <use xlink:href="#DejaVuSans-2e" transform="translate(63.623047 0)"/>
       <use xlink:href="#DejaVuSans-33" transform="translate(95.410156 0)"/>
      </g>
     </g>
    </g>
    <g id="ytick_4">
     <g id="line2d_19">
      <path d="M 45.716875 142.541076 
L 603.716875 142.541076 
" clip-path="url(#p3a983e63ce)" style="fill: none; stroke-dasharray: 0.8,1.32; stroke-dashoffset: 0; stroke: #b0b0b0; stroke-opacity: 0.3; stroke-width: 0.8"/>
     </g>
     <g id="line2d_20">
      <g>
       <use xlink:href="#mdb090b4753" x="45.716875" y="142.541076" style="stroke: #000000; stroke-width: 0.8"/>
      </g>
     </g>
     <g id="text_11">
      <!-- 0.4 -->
      <g transform="translate(22.81375 146.340294) scale(0.1 -0.1)">
       <use xlink:href="#DejaVuSans-30"/>
       <use xlink:href="#DejaVuSans-2e" transform="translate(63.623047 0)"/>
       <use xlink:href="#DejaVuSans-34" transform="translate(95.410156 0)"/>
      </g>
     </g>
    </g>
    <g id="ytick_5">
     <g id="line2d_21">
      <path d="M 45.716875 81.316155 
L 603.716875 81.316155 
" clip-path="url(#p3a983e63ce)" style="fill: none; stroke-dasharray: 0.8,1.32; stroke-dashoffset: 0; stroke: #b0b0b0; stroke-opacity: 0.3; stroke-width: 0.8"/>
     </g>
     <g id="line2d_22">
      <g>
       <use xlink:href="#mdb090b4753" x="45.716875" y="81.316155" style="stroke: #000000; stroke-width: 0.8"/>
      </g>
     </g>
     <g id="text_12">
      <!-- 0.5 -->
      <g transform="translate(22.81375 85.115374) scale(0.1 -0.1)">
       <defs>
        <path id="DejaVuSans-35" d="M 691 4666 
L 3169 4666 
L 3169 4134 
L 1269 4134 
L 1269 2991 
Q 1406 3038 1543 3061 
Q 1681 3084 1819 3084 
Q 2600 3084 3056 2656 
Q 3513 2228 3513 1497 
Q 3513 744 3044 326 
Q 2575 -91 1722 -91 
Q 1428 -91 1123 -41 
Q 819 9 494 109 
L 494 744 
Q 775 591 1075 516 
Q 1375 441 1709 441 
Q 2250 441 2565 725 
Q 2881 1009 2881 1497 
Q 2881 1984 2565 2268 
Q 2250 2553 1709 2553 
Q 1456 2553 1204 2497 
Q 953 2441 691 2322 
L 691 4666 
z
" transform="scale(0.015625)"/>
       </defs>
       <use xlink:href="#DejaVuSans-30"/>
       <use xlink:href="#DejaVuSans-2e" transform="translate(63.623047 0)"/>
       <use xlink:href="#DejaVuSans-35" transform="translate(95.410156 0)"/>
      </g>
     </g>
    </g>
    <g id="text_13">
     <!-- crack length a (mm) -->
     <g transform="translate(16.318125 237.406875) rotate(-90) scale(0.12 -0.12)">
      <defs>
       <path id="DejaVuSans-72" d="M 2631 2963 
Q 2534 3019 2420 3045 
Q 2306 3072 2169 3072 
Q 1681 3072 1420 2755 
Q 1159 2438 1159 1844 
L 1159 0 
L 581 0 
L 581 3500 
L 1159 3500 
L 1159 2956 
Q 1341 3275 1631 3429 
Q 1922 3584 2338 3584 
Q 2397 3584 2469 3576 
Q 2541 3569 2628 3553 
L 2631 2963 
z
" transform="scale(0.015625)"/>
       <path id="DejaVuSans-61" d="M 2194 1759 
Q 1497 1759 1228 1600 
Q 959 1441 959 1056 
Q 959 750 1161 570 
Q 1363 391 1709 391 
Q 2188 391 2477 730 
Q 2766 1069 2766 1631 
L 2766 1759 
L 2194 1759 
z
M 3341 1997 
L 3341 0 
L 2766 0 
L 2766 531 
Q 2569 213 2275 61 
Q 1981 -91 1556 -91 
Q 1019 -91 701 211 
Q 384 513 384 1019 
Q 384 1609 779 1909 
Q 1175 2209 1959 2209 
L 2766 2209 
L 2766 2266 
Q 2766 2663 2505 2880 
Q 2244 3097 1772 3097 
Q 1472 3097 1187 3025 
Q 903 2953 641 2809 
L 641 3341 
Q 956 3463 1253 3523 
Q 1550 3584 1831 3584 
Q 2591 3584 2966 3190 
Q 3341 2797 3341 1997 
z
" transform="scale(0.015625)"/>
       <path id="DejaVuSans-6e" d="M 3513 2113 
L 3513 0 
L 2938 0 
L 2938 2094 
Q 2938 2591 2744 2837 
Q 2550 3084 2163 3084 
Q 1697 3084 1428 2787 
Q 1159 2491 1159 1978 
L 1159 0 
L 581 0 
L 581 3500 
L 1159 3500 
L 1159 2956 
Q 1366 3272 1645 3428 
Q 1925 3584 2291 3584 
Q 2894 3584 3203 3211 
Q 3513 2838 3513 2113 
z
" transform="scale(0.015625)"/>
       <path id="DejaVuSans-67" d="M 2906 1791 
Q 2906 2416 2648 2759 
Q 2391 3103 1925 3103 
Q 1463 3103 1205 2759 
Q 947 2416 947 1791 
Q 947 1169 1205 825 
Q 1463 481 1925 481 
Q 2391 481 2648 825 
Q 2906 1169 2906 1791 
z
M 3481 434 
Q 3481 -459 3084 -895 
Q 2688 -1331 1869 -1331 
Q 1566 -1331 1297 -1286 
Q 1028 -1241 775 -1147 
L 775 -588 
Q 1028 -725 1275 -790 
Q 1522 -856 1778 -856 
Q 2344 -856 2625 -561 
Q 2906 -266 2906 331 
L 2906 616 
Q 2728 306 2450 153 
Q 2172 0 1784 0 
Q 1141 0 747 490 
Q 353 981 353 1791 
Q 353 2603 747 3093 
Q 1141 3584 1784 3584 
Q 2172 3584 2450 3431 
Q 2728 3278 2906 2969 
L 2906 3500 
L 3481 3500 
L 3481 434 
z
" transform="scale(0.015625)"/>
       <path id="DejaVuSans-74" d="M 1172 4494 
L 1172 3500 
L 2356 3500 
L 2356 3053 
L 1172 3053 
L 1172 1153 
Q 1172 725 1289 603 
Q 1406 481 1766 481 
L 2356 481 
L 2356 0 
L 1766 0 
Q 1100 0 847 248 
Q 594 497 594 1153 
L 594 3053 
L 172 3053 
L 172 3500 
L 594 3500 
L 594 4494 
L 1172 4494 
z
" transform="scale(0.015625)"/>
       <path id="DejaVuSans-68" d="M 3513 2113 
L 3513 0 
L 2938 0 
L 2938 2094 
Q 2938 2591 2744 2837 
Q 2550 3084 2163 3084 
Q 1697 3084 1428 2787 
Q 1159 2491 1159 1978 
L 1159 0 
L 581 0 
L 581 4863 
L 1159 4863 
L 1159 2956 
Q 1366 3272 1645 3428 
Q 1925 3584 2291 3584 
Q 2894 3584 3203 3211 
Q 3513 2838 3513 2113 
z
" transform="scale(0.015625)"/>
       <path id="DejaVuSans-28" d="M 1984 4856 
Q 1566 4138 1362 3434 
Q 1159 2731 1159 2009 
Q 1159 1288 1364 580 
Q 1569 -128 1984 -844 
L 1484 -844 
Q 1016 -109 783 600 
Q 550 1309 550 2009 
Q 550 2706 781 3412 
Q 1013 4119 1484 4856 
L 1984 4856 
z
" transform="scale(0.015625)"/>
       <path id="DejaVuSans-6d" d="M 3328 2828 
Q 3544 3216 3844 3400 
Q 4144 3584 4550 3584 
Q 5097 3584 5394 3201 
Q 5691 2819 5691 2113 
L 5691 0 
L 5113 0 
L 5113 2094 
Q 5113 2597 4934 2840 
Q 4756 3084 4391 3084 
Q 3944 3084 3684 2787 
Q 3425 2491 3425 1978 
L 3425 0 
L 2847 0 
L 2847 2094 
Q 2847 2600 2669 2842 
Q 2491 3084 2119 3084 
Q 1678 3084 1418 2786 
Q 1159 2488 1159 1978 
L 1159 0 
L 581 0 
L 581 3500 
L 1159 3500 
L 1159 2956 
Q 1356 3278 1631 3431 
Q 1906 3584 2284 3584 
Q 2666 3584 2933 3390 
Q 3200 3197 3328 2828 
z
" transform="scale(0.015625)"/>
       <path id="DejaVuSans-29" d="M 513 4856 
L 1013 4856 
Q 1481 4119 1714 3412 
Q 1947 2706 1947 2009 
Q 1947 1309 1714 600 
Q 1481 -109 1013 -844 
L 513 -844 
Q 928 -128 1133 580 
Q 1338 1288 1338 2009 
Q 1338 2731 1133 3434 
Q 928 4138 513 4856 
z
" transform="scale(0.015625)"/>
      </defs>
      <use xlink:href="#DejaVuSans-63"/>
      <use xlink:href="#DejaVuSans-72" transform="translate(54.980469 0)"/>
      <use xlink:href="#DejaVuSans-61" transform="translate(96.09375 0)"/>
      <use xlink:href="#DejaVuSans-63" transform="translate(157.373047 0)"/>
      <use xlink:href="#DejaVuSans-6b" transform="translate(212.353516 0)"/>
      <use xlink:href="#DejaVuSans-20" transform="translate(270.263672 0)"/>
      <use xlink:href="#DejaVuSans-6c" transform="translate(302.050781 0)"/>
      <use xlink:href="#DejaVuSans-65" transform="translate(329.833984 0)"/>
      <use xlink:href="#DejaVuSans-6e" transform="translate(391.357422 0)"/>
      <use xlink:href="#DejaVuSans-67" transform="translate(454.736328 0)"/>
      <use xlink:href="#DejaVuSans-74" transform="translate(518.212891 0)"/>
      <use xlink:href="#DejaVuSans-68" transform="translate(557.421875 0)"/>
      <use xlink:href="#DejaVuSans-20" transform="translate(620.800781 0)"/>
      <use xlink:href="#DejaVuSans-61" transform="translate(652.587891 0)"/>
      <use xlink:href="#DejaVuSans-20" transform="translate(713.867188 0)"/>
      <use xlink:href="#DejaVuSans-28" transform="translate(745.654297 0)"/>
      <use xlink:href="#DejaVuSans-6d" transform="translate(784.667969 0)"/>
      <use xlink:href="#DejaVuSans-6d" transform="translate(882.080078 0)"/>
      <use xlink:href="#DejaVuSans-29" transform="translate(979.492188 0)"/>
     </g>
    </g>
   </g>
   <g id="line2d_23">
    <path d="M 71.080511 81.316155 
L 76.153239 81.146814 
L 81.225966 80.977333 
L 86.298693 80.807711 
L 91.37142 80.637948 
L 96.444148 80.468044 
L 101.516875 80.297998 
L 106.589602 80.127812 
L 111.66233 79.957484 
L 116.735057 79.787014 
L 121.807784 79.616403 
L 126.880511 79.445649 
L 131.953239 79.274754 
L 137.025966 79.103716 
L 142.098693 78.932536 
L 147.17142 78.761214 
L 152.244148 78.589748 
L 157.316875 78.41814 
L 162.389602 78.246388 
L 167.46233 78.074494 
L 172.535057 77.902456 
L 177.607784 77.730275 
L 182.680511 77.557949 
L 187.753239 77.38548 
L 192.825966 77.212867 
L 197.898693 77.04011 
L 202.97142 76.867209 
L 208.044148 76.694163 
L 213.116875 76.520972 
L 218.189602 76.347637 
L 223.26233 76.174156 
L 228.335057 76.000531 
L 233.407784 75.82676 
L 238.480511 75.652844 
L 243.553239 75.478782 
L 248.625966 75.304574 
L 253.698693 75.130221 
L 258.77142 74.955721 
L 263.844148 74.781075 
L 268.916875 74.606283 
L 273.989602 74.431344 
L 279.06233 74.256258 
L 284.135057 74.081025 
L 289.207784 73.905645 
L 294.280511 73.730118 
L 299.353239 73.554444 
L 304.425966 73.378622 
L 309.498693 73.202652 
L 314.57142 73.026534 
L 319.644148 72.850268 
L 324.716875 72.673854 
L 329.789602 72.497292 
L 334.86233 72.320581 
L 339.935057 72.143721 
L 345.007784 71.966713 
L 350.080511 71.789555 
L 355.153239 71.612248 
L 360.225966 71.434791 
L 365.298693 71.257185 
L 370.37142 71.079429 
L 375.444148 70.901524 
L 380.516875 70.723468 
L 385.589602 70.545262 
L 390.66233 70.366905 
L 395.735057 70.188398 
L 400.807784 70.009741 
L 405.880511 69.830932 
L 410.953239 69.651972 
L 416.025966 69.472861 
L 421.098693 69.293598 
L 426.17142 69.114184 
L 431.244148 68.934618 
L 436.316875 68.7549 
L 441.389602 68.57503 
L 446.46233 68.395008 
L 451.535057 68.214833 
L 456.607784 68.034505 
L 461.680511 67.854025 
L 466.753239 67.673392 
L 471.825966 67.492605 
L 476.898693 67.311665 
L 481.97142 67.130572 
L 487.044148 66.949325 
L 492.116875 66.767924 
L 497.189602 66.586369 
L 502.26233 66.40466 
L 507.335057 66.222796 
L 512.407784 66.040778 
L 517.480511 65.858606 
L 522.553239 65.676278 
L 527.625966 65.493795 
L 532.698693 65.311157 
L 537.77142 65.128364 
L 542.844148 64.945414 
L 547.916875 64.76231 
L 552.989602 64.579049 
L 558.06233 64.395632 
L 563.135057 64.212058 
L 568.207784 64.028329 
L 573.280511 63.844442 
L 578.353239 63.660399 
" clip-path="url(#p3a983e63ce)" style="fill: none; stroke: #1a5276; stroke-width: 2; stroke-linecap: square"/>
   </g>
   <g id="line2d_24">
    <path d="M 71.080511 206.757797 
L 76.153239 206.845259 
L 81.225966 207.122612 
L 86.298693 207.563527 
L 91.37142 207.864723 
L 96.444148 208.133505 
L 101.516875 207.908672 
L 106.589602 207.186209 
L 111.66233 206.895579 
L 116.735057 207.240917 
L 121.807784 89.919658 
L 126.880511 90.379846 
L 131.953239 90.551355 
L 137.025966 89.67574 
L 142.098693 89.713869 
L 147.17142 90.145742 
L 152.244148 90.036586 
L 157.316875 89.630934 
L 162.389602 89.618114 
L 167.46233 89.270383 
L 172.535057 79.670944 
L 177.607784 79.944284 
L 182.680511 80.424891 
L 187.753239 79.303989 
L 192.825966 79.576855 
L 197.898693 79.409993 
L 202.97142 79.187746 
L 208.044148 78.638475 
L 213.116875 78.117673 
L 218.189602 77.755405 
L 223.26233 75.341309 
L 228.335057 75.041287 
L 233.407784 74.958741 
L 238.480511 75.251954 
L 243.553239 75.142371 
L 248.625966 74.492265 
L 253.698693 74.803456 
L 258.77142 75.131087 
L 263.844148 74.365444 
L 268.916875 73.244629 
L 273.989602 76.054731 
L 279.06233 75.872969 
L 284.135057 76.224398 
L 289.207784 76.10695 
L 294.280511 75.414975 
L 299.353239 74.763337 
L 304.425966 74.901489 
L 309.498693 74.614712 
L 314.57142 74.156753 
L 319.644148 73.983361 
L 324.716875 70.583806 
L 329.789602 70.700746 
L 334.86233 70.780069 
L 339.935057 70.525536 
L 345.007784 71.343719 
L 350.080511 71.021431 
L 355.153239 70.962926 
L 360.225966 70.99431 
L 365.298693 71.189124 
L 370.37142 70.884891 
L 375.444148 65.974344 
L 380.516875 65.618966 
L 385.589602 65.607969 
L 390.66233 65.003327 
L 395.735057 64.448248 
L 400.807784 64.954562 
L 405.880511 64.8961 
L 410.953239 64.556696 
L 416.025966 64.1291 
L 421.098693 63.883795 
L 426.17142 64.070801 
L 431.244148 63.931497 
L 436.316875 63.88746 
L 441.389602 64.223514 
L 446.46233 64.052385 
L 451.535057 64.902743 
L 456.607784 65.190869 
L 461.680511 65.401847 
L 466.753239 65.225803 
L 471.825966 64.916511 
L 476.898693 67.459312 
L 481.97142 67.227763 
L 487.044148 67.378861 
L 492.116875 67.609913 
L 497.189602 67.076709 
L 502.26233 66.665585 
L 507.335057 65.766351 
L 512.407784 65.996554 
L 517.480511 65.103184 
L 522.553239 64.85805 
L 527.625966 67.841098 
L 532.698693 67.238516 
L 537.77142 67.048632 
L 542.844148 66.878056 
L 547.916875 65.90661 
L 552.989602 66.196049 
L 558.06233 66.289858 
L 563.135057 65.941644 
L 568.207784 65.56338 
L 573.280511 65.331295 
L 578.353239 65.510319 
" clip-path="url(#p3a983e63ce)" style="fill: none; stroke: #2980b9; stroke-width: 2; stroke-linecap: square"/>
   </g>
   <g id="patch_3">
    <path d="M 45.716875 328.757813 
L 45.716875 23.837813 
" style="fill: none; stroke: #000000; stroke-width: 0.8; stroke-linejoin: miter; stroke-linecap: square"/>
   </g>
   <g id="patch_4">
    <path d="M 603.716875 328.757813 
L 603.716875 23.837813 
" style="fill: none; stroke: #000000; stroke-width: 0.8; stroke-linejoin: miter; stroke-linecap: square"/>
   </g>
   <g id="patch_5">
    <path d="M 45.716875 328.757813 
L 603.716875 328.757813 
" style="fill: none; stroke: #000000; stroke-width: 0.8; stroke-linejoin: miter; stroke-linecap: square"/>
   </g>
   <g id="patch_6">
    <path d="M 45.716875 23.837813 
L 603.716875 23.837813 
" style="fill: none; stroke: #000000; stroke-width: 0.8; stroke-linejoin: miter; stroke-linecap: square"/>
   </g>
   <g id="text_14">
    <!-- EnKF crack-length assimilation from noisy strain gauges -->
    <g transform="translate(101.574375 17.837813) scale(0.14 -0.14)">
     <defs>
      <path id="DejaVuSans-Bold-45" d="M 588 4666 
L 3834 4666 
L 3834 3756 
L 1791 3756 
L 1791 2888 
L 3713 2888 
L 3713 1978 
L 1791 1978 
L 1791 909 
L 3903 909 
L 3903 0 
L 588 0 
L 588 4666 
z
" transform="scale(0.015625)"/>
      <path id="DejaVuSans-Bold-6e" d="M 4056 2131 
L 4056 0 
L 2931 0 
L 2931 347 
L 2931 1631 
Q 2931 2084 2911 2256 
Q 2891 2428 2841 2509 
Q 2775 2619 2662 2680 
Q 2550 2741 2406 2741 
Q 2056 2741 1856 2470 
Q 1656 2200 1656 1722 
L 1656 0 
L 538 0 
L 538 3500 
L 1656 3500 
L 1656 2988 
Q 1909 3294 2193 3439 
Q 2478 3584 2822 3584 
Q 3428 3584 3742 3212 
Q 4056 2841 4056 2131 
z
" transform="scale(0.015625)"/>
      <path id="DejaVuSans-Bold-4b" d="M 588 4666 
L 1791 4666 
L 1791 2963 
L 3525 4666 
L 4922 4666 
L 2675 2456 
L 5153 0 
L 3647 0 
L 1791 1838 
L 1791 0 
L 588 0 
L 588 4666 
z
" transform="scale(0.015625)"/>
      <path id="DejaVuSans-Bold-46" d="M 588 4666 
L 3834 4666 
L 3834 3756 
L 1791 3756 
L 1791 2888 
L 3713 2888 
L 3713 1978 
L 1791 1978 
L 1791 0 
L 588 0 
L 588 4666 
z
" transform="scale(0.015625)"/>
      <path id="DejaVuSans-Bold-20" transform="scale(0.015625)"/>
      <path id="DejaVuSans-Bold-63" d="M 3366 3391 
L 3366 2478 
Q 3138 2634 2908 2709 
Q 2678 2784 2431 2784 
Q 1963 2784 1702 2511 
Q 1441 2238 1441 1747 
Q 1441 1256 1702 982 
Q 1963 709 2431 709 
Q 2694 709 2930 787 
Q 3166 866 3366 1019 
L 3366 103 
Q 3103 6 2833 -42 
Q 2563 -91 2291 -91 
Q 1344 -91 809 395 
Q 275 881 275 1747 
Q 275 2613 809 3098 
Q 1344 3584 2291 3584 
Q 2566 3584 2833 3536 
Q 3100 3488 3366 3391 
z
" transform="scale(0.015625)"/>
      <path id="DejaVuSans-Bold-72" d="M 3138 2547 
Q 2991 2616 2845 2648 
Q 2700 2681 2553 2681 
Q 2122 2681 1889 2404 
Q 1656 2128 1656 1613 
L 1656 0 
L 538 0 
L 538 3500 
L 1656 3500 
L 1656 2925 
Q 1872 3269 2151 3426 
Q 2431 3584 2822 3584 
Q 2878 3584 2943 3579 
Q 3009 3575 3134 3559 
L 3138 2547 
z
" transform="scale(0.015625)"/>
      <path id="DejaVuSans-Bold-61" d="M 2106 1575 
Q 1756 1575 1579 1456 
Q 1403 1338 1403 1106 
Q 1403 894 1545 773 
Q 1688 653 1941 653 
Q 2256 653 2472 879 
Q 2688 1106 2688 1447 
L 2688 1575 
L 2106 1575 
z
M 3816 1997 
L 3816 0 
L 2688 0 
L 2688 519 
Q 2463 200 2181 54 
Q 1900 -91 1497 -91 
Q 953 -91 614 226 
Q 275 544 275 1050 
Q 275 1666 698 1953 
Q 1122 2241 2028 2241 
L 2688 2241 
L 2688 2328 
Q 2688 2594 2478 2717 
Q 2269 2841 1825 2841 
Q 1466 2841 1156 2769 
Q 847 2697 581 2553 
L 581 3406 
Q 941 3494 1303 3539 
Q 1666 3584 2028 3584 
Q 2975 3584 3395 3211 
Q 3816 2838 3816 1997 
z
" transform="scale(0.015625)"/>
      <path id="DejaVuSans-Bold-6b" d="M 538 4863 
L 1656 4863 
L 1656 2216 
L 2944 3500 
L 4244 3500 
L 2534 1894 
L 4378 0 
L 3022 0 
L 1656 1459 
L 1656 0 
L 538 0 
L 538 4863 
z
" transform="scale(0.015625)"/>
      <path id="DejaVuSans-Bold-2d" d="M 347 2297 
L 2309 2297 
L 2309 1388 
L 347 1388 
L 347 2297 
z
" transform="scale(0.015625)"/>
      <path id="DejaVuSans-Bold-6c" d="M 538 4863 
L 1656 4863 
L 1656 0 
L 538 0 
L 538 4863 
z
" transform="scale(0.015625)"/>
      <path id="DejaVuSans-Bold-65" d="M 4031 1759 
L 4031 1441 
L 1416 1441 
Q 1456 1047 1700 850 
Q 1944 653 2381 653 
Q 2734 653 3104 758 
Q 3475 863 3866 1075 
L 3866 213 
Q 3469 63 3072 -14 
Q 2675 -91 2278 -91 
Q 1328 -91 801 392 
Q 275 875 275 1747 
Q 275 2603 792 3093 
Q 1309 3584 2216 3584 
Q 3041 3584 3536 3087 
Q 4031 2591 4031 1759 
z
M 2881 2131 
Q 2881 2450 2695 2645 
Q 2509 2841 2209 2841 
Q 1884 2841 1681 2658 
Q 1478 2475 1428 2131 
L 2881 2131 
z
" transform="scale(0.015625)"/>
      <path id="DejaVuSans-Bold-67" d="M 2919 594 
Q 2688 288 2409 144 
Q 2131 0 1766 0 
Q 1125 0 706 504 
Q 288 1009 288 1791 
Q 288 2575 706 3076 
Q 1125 3578 1766 3578 
Q 2131 3578 2409 3434 
Q 2688 3291 2919 2981 
L 2919 3500 
L 4044 3500 
L 4044 353 
Q 4044 -491 3511 -936 
Q 2978 -1381 1966 -1381 
Q 1638 -1381 1331 -1331 
Q 1025 -1281 716 -1178 
L 716 -306 
Q 1009 -475 1290 -558 
Q 1572 -641 1856 -641 
Q 2406 -641 2662 -400 
Q 2919 -159 2919 353 
L 2919 594 
z
M 2181 2772 
Q 1834 2772 1640 2515 
Q 1447 2259 1447 1791 
Q 1447 1309 1634 1061 
Q 1822 813 2181 813 
Q 2531 813 2725 1069 
Q 2919 1325 2919 1791 
Q 2919 2259 2725 2515 
Q 2531 2772 2181 2772 
z
" transform="scale(0.015625)"/>
      <path id="DejaVuSans-Bold-74" d="M 1759 4494 
L 1759 3500 
L 2913 3500 
L 2913 2700 
L 1759 2700 
L 1759 1216 
Q 1759 972 1856 886 
Q 1953 800 2241 800 
L 2816 800 
L 2816 0 
L 1856 0 
Q 1194 0 917 276 
Q 641 553 641 1216 
L 641 2700 
L 84 2700 
L 84 3500 
L 641 3500 
L 641 4494 
L 1759 4494 
z
" transform="scale(0.015625)"/>
      <path id="DejaVuSans-Bold-68" d="M 4056 2131 
L 4056 0 
L 2931 0 
L 2931 347 
L 2931 1625 
Q 2931 2084 2911 2256 
Q 2891 2428 2841 2509 
Q 2775 2619 2662 2680 
Q 2550 2741 2406 2741 
Q 2056 2741 1856 2470 
Q 1656 2200 1656 1722 
L 1656 0 
L 538 0 
L 538 4863 
L 1656 4863 
L 1656 2988 
Q 1909 3294 2193 3439 
Q 2478 3584 2822 3584 
Q 3428 3584 3742 3212 
Q 4056 2841 4056 2131 
z
" transform="scale(0.015625)"/>
      <path id="DejaVuSans-Bold-73" d="M 3272 3391 
L 3272 2541 
Q 2913 2691 2578 2766 
Q 2244 2841 1947 2841 
Q 1628 2841 1473 2761 
Q 1319 2681 1319 2516 
Q 1319 2381 1436 2309 
Q 1553 2238 1856 2203 
L 2053 2175 
Q 2913 2066 3209 1816 
Q 3506 1566 3506 1031 
Q 3506 472 3093 190 
Q 2681 -91 1863 -91 
Q 1516 -91 1145 -36 
Q 775 19 384 128 
L 384 978 
Q 719 816 1070 734 
Q 1422 653 1784 653 
Q 2113 653 2278 743 
Q 2444 834 2444 1013 
Q 2444 1163 2330 1236 
Q 2216 1309 1875 1350 
L 1678 1375 
Q 931 1469 631 1722 
Q 331 1975 331 2491 
Q 331 3047 712 3315 
Q 1094 3584 1881 3584 
Q 2191 3584 2531 3537 
Q 2872 3491 3272 3391 
z
" transform="scale(0.015625)"/>
      <path id="DejaVuSans-Bold-69" d="M 538 3500 
L 1656 3500 
L 1656 0 
L 538 0 
L 538 3500 
z
M 538 4863 
L 1656 4863 
L 1656 3950 
L 538 3950 
L 538 4863 
z
" transform="scale(0.015625)"/>
      <path id="DejaVuSans-Bold-6d" d="M 3781 2919 
Q 3994 3244 4286 3414 
Q 4578 3584 4928 3584 
Q 5531 3584 5847 3212 
Q 6163 2841 6163 2131 
L 6163 0 
L 5038 0 
L 5038 1825 
Q 5041 1866 5042 1909 
Q 5044 1953 5044 2034 
Q 5044 2406 4934 2573 
Q 4825 2741 4581 2741 
Q 4263 2741 4089 2478 
Q 3916 2216 3909 1719 
L 3909 0 
L 2784 0 
L 2784 1825 
Q 2784 2406 2684 2573 
Q 2584 2741 2328 2741 
Q 2006 2741 1831 2477 
Q 1656 2213 1656 1722 
L 1656 0 
L 531 0 
L 531 3500 
L 1656 3500 
L 1656 2988 
Q 1863 3284 2130 3434 
Q 2397 3584 2719 3584 
Q 3081 3584 3359 3409 
Q 3638 3234 3781 2919 
z
" transform="scale(0.015625)"/>
      <path id="DejaVuSans-Bold-6f" d="M 2203 2784 
Q 1831 2784 1636 2517 
Q 1441 2250 1441 1747 
Q 1441 1244 1636 976 
Q 1831 709 2203 709 
Q 2569 709 2762 976 
Q 2956 1244 2956 1747 
Q 2956 2250 2762 2517 
Q 2569 2784 2203 2784 
z
M 2203 3584 
Q 3106 3584 3614 3096 
Q 4122 2609 4122 1747 
Q 4122 884 3614 396 
Q 3106 -91 2203 -91 
Q 1297 -91 786 396 
Q 275 884 275 1747 
Q 275 2609 786 3096 
Q 1297 3584 2203 3584 
z
" transform="scale(0.015625)"/>
      <path id="DejaVuSans-Bold-66" d="M 2841 4863 
L 2841 4128 
L 2222 4128 
Q 1984 4128 1890 4042 
Q 1797 3956 1797 3744 
L 1797 3500 
L 2753 3500 
L 2753 2700 
L 1797 2700 
L 1797 0 
L 678 0 
L 678 2700 
L 122 2700 
L 122 3500 
L 678 3500 
L 678 3744 
Q 678 4316 997 4589 
Q 1316 4863 1984 4863 
L 2841 4863 
z
" transform="scale(0.015625)"/>
      <path id="DejaVuSans-Bold-79" d="M 78 3500 
L 1197 3500 
L 2138 1125 
L 2938 3500 
L 4056 3500 
L 2584 -331 
Q 2363 -916 2067 -1148 
Q 1772 -1381 1288 -1381 
L 641 -1381 
L 641 -647 
L 991 -647 
Q 1275 -647 1404 -556 
Q 1534 -466 1606 -231 
L 1638 -134 
L 78 3500 
z
" transform="scale(0.015625)"/>
      <path id="DejaVuSans-Bold-75" d="M 500 1363 
L 500 3500 
L 1625 3500 
L 1625 3150 
Q 1625 2866 1622 2436 
Q 1619 2006 1619 1863 
Q 1619 1441 1641 1255 
Q 1663 1069 1716 984 
Q 1784 875 1895 815 
Q 2006 756 2150 756 
Q 2500 756 2700 1025 
Q 2900 1294 2900 1772 
L 2900 3500 
L 4019 3500 
L 4019 0 
L 2900 0 
L 2900 506 
Q 2647 200 2364 54 
Q 2081 -91 1741 -91 
Q 1134 -91 817 281 
Q 500 653 500 1363 
z
" transform="scale(0.015625)"/>
     </defs>
     <use xlink:href="#DejaVuSans-Bold-45"/>
     <use xlink:href="#DejaVuSans-Bold-6e" transform="translate(68.310547 0)"/>
     <use xlink:href="#DejaVuSans-Bold-4b" transform="translate(139.501953 0)"/>
     <use xlink:href="#DejaVuSans-Bold-46" transform="translate(216.992188 0)"/>
     <use xlink:href="#DejaVuSans-Bold-20" transform="translate(285.302734 0)"/>
     <use xlink:href="#DejaVuSans-Bold-63" transform="translate(320.117188 0)"/>
     <use xlink:href="#DejaVuSans-Bold-72" transform="translate(379.394531 0)"/>
     <use xlink:href="#DejaVuSans-Bold-61" transform="translate(428.710938 0)"/>
     <use xlink:href="#DejaVuSans-Bold-63" transform="translate(496.191406 0)"/>
     <use xlink:href="#DejaVuSans-Bold-6b" transform="translate(555.46875 0)"/>
     <use xlink:href="#DejaVuSans-Bold-2d" transform="translate(621.972656 0)"/>
     <use xlink:href="#DejaVuSans-Bold-6c" transform="translate(663.476562 0)"/>
     <use xlink:href="#DejaVuSans-Bold-65" transform="translate(697.753906 0)"/>
     <use xlink:href="#DejaVuSans-Bold-6e" transform="translate(765.576172 0)"/>
     <use xlink:href="#DejaVuSans-Bold-67" transform="translate(836.767578 0)"/>
     <use xlink:href="#DejaVuSans-Bold-74" transform="translate(908.349609 0)"/>
     <use xlink:href="#DejaVuSans-Bold-68" transform="translate(956.152344 0)"/>
     <use xlink:href="#DejaVuSans-Bold-20" transform="translate(1027.34375 0)"/>
     <use xlink:href="#DejaVuSans-Bold-61" transform="translate(1062.158203 0)"/>
     <use xlink:href="#DejaVuSans-Bold-73" transform="translate(1129.638672 0)"/>
     <use xlink:href="#DejaVuSans-Bold-73" transform="translate(1189.160156 0)"/>
     <use xlink:href="#DejaVuSans-Bold-69" transform="translate(1248.681641 0)"/>
     <use xlink:href="#DejaVuSans-Bold-6d" transform="translate(1282.958984 0)"/>
     <use xlink:href="#DejaVuSans-Bold-69" transform="translate(1387.158203 0)"/>
     <use xlink:href="#DejaVuSans-Bold-6c" transform="translate(1421.435547 0)"/>
     <use xlink:href="#DejaVuSans-Bold-61" transform="translate(1455.712891 0)"/>
     <use xlink:href="#DejaVuSans-Bold-74" transform="translate(1523.193359 0)"/>
     <use xlink:href="#DejaVuSans-Bold-69" transform="translate(1570.996094 0)"/>
     <use xlink:href="#DejaVuSans-Bold-6f" transform="translate(1605.273438 0)"/>
     <use xlink:href="#DejaVuSans-Bold-6e" transform="translate(1673.974609 0)"/>
     <use xlink:href="#DejaVuSans-Bold-20" transform="translate(1745.166016 0)"/>
     <use xlink:href="#DejaVuSans-Bold-66" transform="translate(1779.980469 0)"/>
     <use xlink:href="#DejaVuSans-Bold-72" transform="translate(1823.486328 0)"/>
     <use xlink:href="#DejaVuSans-Bold-6f" transform="translate(1872.802734 0)"/>
     <use xlink:href="#DejaVuSans-Bold-6d" transform="translate(1941.503906 0)"/>
     <use xlink:href="#DejaVuSans-Bold-20" transform="translate(2045.703125 0)"/>
     <use xlink:href="#DejaVuSans-Bold-6e" transform="translate(2080.517578 0)"/>
     <use xlink:href="#DejaVuSans-Bold-6f" transform="translate(2151.708984 0)"/>
     <use xlink:href="#DejaVuSans-Bold-69" transform="translate(2220.410156 0)"/>
     <use xlink:href="#DejaVuSans-Bold-73" transform="translate(2254.6875 0)"/>
     <use xlink:href="#DejaVuSans-Bold-79" transform="translate(2314.208984 0)"/>
     <use xlink:href="#DejaVuSans-Bold-20" transform="translate(2379.394531 0)"/>
     <use xlink:href="#DejaVuSans-Bold-73" transform="translate(2414.208984 0)"/>
     <use xlink:href="#DejaVuSans-Bold-74" transform="translate(2473.730469 0)"/>
     <use xlink:href="#DejaVuSans-Bold-72" transform="translate(2521.533203 0)"/>
     <use xlink:href="#DejaVuSans-Bold-61" transform="translate(2570.849609 0)"/>
     <use xlink:href="#DejaVuSans-Bold-69" transform="translate(2638.330078 0)"/>
     <use xlink:href="#DejaVuSans-Bold-6e" transform="translate(2672.607422 0)"/>
     <use xlink:href="#DejaVuSans-Bold-20" transform="translate(2743.798828 0)"/>
     <use xlink:href="#DejaVuSans-Bold-67" transform="translate(2778.613281 0)"/>
     <use xlink:href="#DejaVuSans-Bold-61" transform="translate(2850.195312 0)"/>
     <use xlink:href="#DejaVuSans-Bold-75" transform="translate(2917.675781 0)"/>
     <use xlink:href="#DejaVuSans-Bold-67" transform="translate(2988.867188 0)"/>
     <use xlink:href="#DejaVuSans-Bold-65" transform="translate(3060.449219 0)"/>
     <use xlink:href="#DejaVuSans-Bold-73" transform="translate(3128.271484 0)"/>
    </g>
   </g>
   <g id="PathCollection_1">
    <defs>
     <path id="m67de0e62aa" d="M 0 3.354102 
C 0.889518 3.354102 1.742724 3.000693 2.371708 2.371708 
C 3.000693 1.742724 3.354102 0.889518 3.354102 0 
C 3.354102 -0.889518 3.000693 -1.742724 2.371708 -2.371708 
C 1.742724 -3.000693 0.889518 -3.354102 0 -3.354102 
C -0.889518 -3.354102 -1.742724 -3.000693 -2.371708 -2.371708 
C -3.000693 -1.742724 -3.354102 -0.889518 -3.354102 0 
C -3.354102 0.889518 -3.000693 1.742724 -2.371708 2.371708 
C -1.742724 3.000693 -0.889518 3.354102 0 3.354102 
z
" style="stroke: #e74c3c"/>
    </defs>
    <g clip-path="url(#p3a983e63ce)">
     <use xlink:href="#m67de0e62aa" x="71.080511" y="80.546373" style="fill: #e74c3c; stroke: #e74c3c"/>
     <use xlink:href="#m67de0e62aa" x="121.807784" y="80.425214" style="fill: #e74c3c; stroke: #e74c3c"/>
     <use xlink:href="#m67de0e62aa" x="172.535057" y="73.981473" style="fill: #e74c3c; stroke: #e74c3c"/>
     <use xlink:href="#m67de0e62aa" x="223.26233" y="75.531906" style="fill: #e74c3c; stroke: #e74c3c"/>
     <use xlink:href="#m67de0e62aa" x="273.989602" y="77.710975" style="fill: #e74c3c; stroke: #e74c3c"/>
     <use xlink:href="#m67de0e62aa" x="324.716875" y="70.459992" style="fill: #e74c3c; stroke: #e74c3c"/>
     <use xlink:href="#m67de0e62aa" x="375.444148" y="62.917794" style="fill: #e74c3c; stroke: #e74c3c"/>
     <use xlink:href="#m67de0e62aa" x="426.17142" y="63.315688" style="fill: #e74c3c; stroke: #e74c3c"/>
     <use xlink:href="#m67de0e62aa" x="476.898693" y="71.620279" style="fill: #e74c3c; stroke: #e74c3c"/>
     <use xlink:href="#m67de0e62aa" x="527.625966" y="73.241328" style="fill: #e74c3c; stroke: #e74c3c"/>
     <use xlink:href="#m67de0e62aa" x="578.353239" y="67.476392" style="fill: #e74c3c; stroke: #e74c3c"/>
    </g>
   </g>
   <g id="legend_1">
    <g id="patch_7">
     <path d="M 52.716875 90.550313 
L 164.393438 90.550313 
Q 166.393438 90.550313 166.393438 88.550313 
L 166.393438 30.837813 
Q 166.393438 28.837813 164.393438 28.837813 
L 52.716875 28.837813 
Q 50.716875 28.837813 50.716875 30.837813 
L 50.716875 88.550313 
Q 50.716875 90.550313 52.716875 90.550313 
z
" style="fill: #ffffff; opacity: 0.9; stroke: #cccccc; stroke-linejoin: miter"/>
    </g>
    <g id="patch_8">
     <path d="M 54.716875 40.43625 
L 74.716875 40.43625 
L 74.716875 33.43625 
L 54.716875 33.43625 
z
" style="fill: #f39c12; fill-opacity: 0.25; stroke: #f39c12; stroke-opacity: 0.25; stroke-linejoin: miter"/>
    </g>
    <g id="text_15">
     <!-- ensemble 2$\sigma$ -->
     <g transform="translate(82.716875 40.43625) scale(0.1 -0.1)">
      <defs>
       <path id="DejaVuSans-73" d="M 2834 3397 
L 2834 2853 
Q 2591 2978 2328 3040 
Q 2066 3103 1784 3103 
Q 1356 3103 1142 2972 
Q 928 2841 928 2578 
Q 928 2378 1081 2264 
Q 1234 2150 1697 2047 
L 1894 2003 
Q 2506 1872 2764 1633 
Q 3022 1394 3022 966 
Q 3022 478 2636 193 
Q 2250 -91 1575 -91 
Q 1294 -91 989 -36 
Q 684 19 347 128 
L 347 722 
Q 666 556 975 473 
Q 1284 391 1588 391 
Q 1994 391 2212 530 
Q 2431 669 2431 922 
Q 2431 1156 2273 1281 
Q 2116 1406 1581 1522 
L 1381 1569 
Q 847 1681 609 1914 
Q 372 2147 372 2553 
Q 372 3047 722 3315 
Q 1072 3584 1716 3584 
Q 2034 3584 2315 3537 
Q 2597 3491 2834 3397 
z
" transform="scale(0.015625)"/>
       <path id="DejaVuSans-Oblique-3c3" d="M 2219 3044 
Q 1744 3044 1422 2700 
Q 1081 2341 969 1747 
Q 844 1119 1044 756 
Q 1241 397 1706 397 
Q 2166 397 2503 759 
Q 2844 1122 2966 1747 
Q 3075 2319 2881 2700 
Q 2700 3044 2219 3044 
z
M 2309 3503 
L 4219 3500 
L 4106 2925 
L 3463 2925 
Q 3706 2438 3575 1747 
Q 3406 888 2884 400 
Q 2359 -91 1609 -91 
Q 856 -91 525 400 
Q 194 888 363 1747 
Q 528 2609 1050 3097 
Q 1484 3503 2309 3503 
z
" transform="scale(0.015625)"/>
      </defs>
      <use xlink:href="#DejaVuSans-65" transform="translate(0 0.015625)"/>
      <use xlink:href="#DejaVuSans-6e" transform="translate(61.523438 0.015625)"/>
      <use xlink:href="#DejaVuSans-73" transform="translate(124.902344 0.015625)"/>
      <use xlink:href="#DejaVuSans-65" transform="translate(177.001953 0.015625)"/>
      <use xlink:href="#DejaVuSans-6d" transform="translate(238.525391 0.015625)"/>
      <use xlink:href="#DejaVuSans-62" transform="translate(335.9375 0.015625)"/>
      <use xlink:href="#DejaVuSans-6c" transform="translate(399.414062 0.015625)"/>
      <use xlink:href="#DejaVuSans-65" transform="translate(427.197266 0.015625)"/>
      <use xlink:href="#DejaVuSans-20" transform="translate(488.720703 0.015625)"/>
      <use xlink:href="#DejaVuSans-32" transform="translate(520.507812 0.015625)"/>
      <use xlink:href="#DejaVuSans-Oblique-3c3" transform="translate(584.130859 0.015625)"/>
     </g>
    </g>
    <g id="line2d_25">
     <path d="M 54.716875 51.614375 
L 64.716875 51.614375 
L 74.716875 51.614375 
" style="fill: none; stroke: #1a5276; stroke-width: 2; stroke-linecap: square"/>
    </g>
    <g id="text_16">
     <!-- truth (Paris law) -->
     <g transform="translate(82.716875 55.114375) scale(0.1 -0.1)">
      <defs>
       <path id="DejaVuSans-75" d="M 544 1381 
L 544 3500 
L 1119 3500 
L 1119 1403 
Q 1119 906 1312 657 
Q 1506 409 1894 409 
Q 2359 409 2629 706 
Q 2900 1003 2900 1516 
L 2900 3500 
L 3475 3500 
L 3475 0 
L 2900 0 
L 2900 538 
Q 2691 219 2414 64 
Q 2138 -91 1772 -91 
Q 1169 -91 856 284 
Q 544 659 544 1381 
z
M 1991 3584 
L 1991 3584 
z
" transform="scale(0.015625)"/>
       <path id="DejaVuSans-50" d="M 1259 4147 
L 1259 2394 
L 2053 2394 
Q 2494 2394 2734 2622 
Q 2975 2850 2975 3272 
Q 2975 3691 2734 3919 
Q 2494 4147 2053 4147 
L 1259 4147 
z
M 628 4666 
L 2053 4666 
Q 2838 4666 3239 4311 
Q 3641 3956 3641 3272 
Q 3641 2581 3239 2228 
Q 2838 1875 2053 1875 
L 1259 1875 
L 1259 0 
L 628 0 
L 628 4666 
z
" transform="scale(0.015625)"/>
       <path id="DejaVuSans-69" d="M 603 3500 
L 1178 3500 
L 1178 0 
L 603 0 
L 603 3500 
z
M 603 4863 
L 1178 4863 
L 1178 4134 
L 603 4134 
L 603 4863 
z
" transform="scale(0.015625)"/>
       <path id="DejaVuSans-77" d="M 269 3500 
L 844 3500 
L 1563 769 
L 2278 3500 
L 2956 3500 
L 3675 769 
L 4391 3500 
L 4966 3500 
L 4050 0 
L 3372 0 
L 2619 2869 
L 1863 0 
L 1184 0 
L 269 3500 
z
" transform="scale(0.015625)"/>
      </defs>
      <use xlink:href="#DejaVuSans-74"/>
      <use xlink:href="#DejaVuSans-72" transform="translate(39.208984 0)"/>
      <use xlink:href="#DejaVuSans-75" transform="translate(80.322266 0)"/>
      <use xlink:href="#DejaVuSans-74" transform="translate(143.701172 0)"/>
      <use xlink:href="#DejaVuSans-68" transform="translate(182.910156 0)"/>
      <use xlink:href="#DejaVuSans-20" transform="translate(246.289062 0)"/>
      <use xlink:href="#DejaVuSans-28" transform="translate(278.076172 0)"/>
      <use xlink:href="#DejaVuSans-50" transform="translate(317.089844 0)"/>
      <use xlink:href="#DejaVuSans-61" transform="translate(372.892578 0)"/>
      <use xlink:href="#DejaVuSans-72" transform="translate(434.171875 0)"/>
      <use xlink:href="#DejaVuSans-69" transform="translate(475.285156 0)"/>
      <use xlink:href="#DejaVuSans-73" transform="translate(503.068359 0)"/>
      <use xlink:href="#DejaVuSans-20" transform="translate(555.167969 0)"/>
      <use xlink:href="#DejaVuSans-6c" transform="translate(586.955078 0)"/>
      <use xlink:href="#DejaVuSans-61" transform="translate(614.738281 0)"/>
      <use xlink:href="#DejaVuSans-77" transform="translate(676.017578 0)"/>
      <use xlink:href="#DejaVuSans-29" transform="translate(757.804688 0)"/>
     </g>
    </g>
    <g id="line2d_26">
     <path d="M 54.716875 66.2925 
L 64.716875 66.2925 
L 74.716875 66.2925 
" style="fill: none; stroke: #2980b9; stroke-width: 2; stroke-linecap: square"/>
    </g>
    <g id="text_17">
     <!-- EnKF mean -->
     <g transform="translate(82.716875 69.7925) scale(0.1 -0.1)">
      <defs>
       <path id="DejaVuSans-45" d="M 628 4666 
L 3578 4666 
L 3578 4134 
L 1259 4134 
L 1259 2753 
L 3481 2753 
L 3481 2222 
L 1259 2222 
L 1259 531 
L 3634 531 
L 3634 0 
L 628 0 
L 628 4666 
z
" transform="scale(0.015625)"/>
       <path id="DejaVuSans-4b" d="M 628 4666 
L 1259 4666 
L 1259 2694 
L 3353 4666 
L 4166 4666 
L 1850 2491 
L 4331 0 
L 3500 0 
L 1259 2247 
L 1259 0 
L 628 0 
L 628 4666 
z
" transform="scale(0.015625)"/>
       <path id="DejaVuSans-46" d="M 628 4666 
L 3309 4666 
L 3309 4134 
L 1259 4134 
L 1259 2759 
L 3109 2759 
L 3109 2228 
L 1259 2228 
L 1259 0 
L 628 0 
L 628 4666 
z
" transform="scale(0.015625)"/>
      </defs>
      <use xlink:href="#DejaVuSans-45"/>
      <use xlink:href="#DejaVuSans-6e" transform="translate(63.183594 0)"/>
      <use xlink:href="#DejaVuSans-4b" transform="translate(126.5625 0)"/>
      <use xlink:href="#DejaVuSans-46" transform="translate(192.138672 0)"/>
      <use xlink:href="#DejaVuSans-20" transform="translate(249.658203 0)"/>
      <use xlink:href="#DejaVuSans-6d" transform="translate(281.445312 0)"/>
      <use xlink:href="#DejaVuSans-65" transform="translate(378.857422 0)"/>
      <use xlink:href="#DejaVuSans-61" transform="translate(440.380859 0)"/>
      <use xlink:href="#DejaVuSans-6e" transform="translate(501.660156 0)"/>
     </g>
    </g>
    <g id="PathCollection_2">
     <g>
      <use xlink:href="#m67de0e62aa" x="64.716875" y="81.845625" style="fill: #e74c3c; stroke: #e74c3c"/>
     </g>
    </g>
    <g id="text_18">
     <!-- observations -->
     <g transform="translate(82.716875 84.470625) scale(0.1 -0.1)">
      <defs>
       <path id="DejaVuSans-76" d="M 191 3500 
L 800 3500 
L 1894 563 
L 2988 3500 
L 3597 3500 
L 2284 0 
L 1503 0 
L 191 3500 
z
" transform="scale(0.015625)"/>
      </defs>
      <use xlink:href="#DejaVuSans-6f"/>
      <use xlink:href="#DejaVuSans-62" transform="translate(61.181641 0)"/>
      <use xlink:href="#DejaVuSans-73" transform="translate(124.658203 0)"/>
      <use xlink:href="#DejaVuSans-65" transform="translate(176.757812 0)"/>
      <use xlink:href="#DejaVuSans-72" transform="translate(238.28125 0)"/>
      <use xlink:href="#DejaVuSans-76" transform="translate(279.394531 0)"/>
      <use xlink:href="#DejaVuSans-61" transform="translate(338.574219 0)"/>
      <use xlink:href="#DejaVuSans-74" transform="translate(399.853516 0)"/>
      <use xlink:href="#DejaVuSans-69" transform="translate(439.0625 0)"/>
      <use xlink:href="#DejaVuSans-6f" transform="translate(466.845703 0)"/>
      <use xlink:href="#DejaVuSans-6e" transform="translate(528.027344 0)"/>
      <use xlink:href="#DejaVuSans-73" transform="translate(591.40625 0)"/>
     </g>
    </g>
   </g>
  </g>
 </g>
 <defs>
  <clipPath id="p3a983e63ce">
   <rect x="45.716875" y="23.837813" width="558" height="304.92"/>
  </clipPath>
 </defs>
</svg>
