<?xml version="1.0" encoding="utf-8" standalone="no"?>
<!DOCTYPE svg PUBLIC "-//W3C//DTD SVG 1.1//EN"
  "http://www.w3.org/Graphics/SVG/1.1/DTD/svg11.dtd">
<svg xmlns:xlink="http://www.w3.org/1999/xlink" width="631.636364pt" height="640.8pt" viewBox="0 0 631.636364 640.8" xmlns="http://www.w3.org/2000/svg" version="1.1">
 <metadata>
  <rdf:RDF xmlns:dc="http://purl.org/dc/elements/1.1/" xmlns:cc="http://creativecommons.org/ns#" xmlns:rdf="http://www.w3.org/1999/02/22-rdf-syntax-ns#">
   <cc:Work>
    <dc:type rdf:resource="http://purl.org/dc/dcmitype/StillImage"/>
    <dc:date>2026-04-11T15:56:42.187248</dc:date>
    <dc:format>image/svg+xml</dc:format>
    <dc:creator>
     <cc:Agent>
      <dc:title>Matplotlib v3.10.8, https://matplotlib.org/</dc:title>
     </cc:Agent>
    </dc:creator>
   </cc:Work>
  </rdf:RDF>
 </metadata>
 <defs>
  <style type="text/css">*{stroke-linejoin: round; stroke-linecap: butt}</style>
 </defs>
 <g id="figure_1">
  <g id="patch_1">
   <path d="M 0 640.8 
L 631.636364 640.8 
L 631.636364 0 
L 0 0 
z
" style="fill: #fafafa"/>
  </g>
  <g id="patch_2">
   <path d="M 7.2 331.2 
L 259.2 331.2 
L 259.2 79.2 
L 7.2 79.2 
z
" style="fill: #ffffff"/>
  </g>
  <g id="pane3d_1">
   <g id="patch_3">
    <path d="M 26.227738 269.064876 
L 109.446368 199.30937 
L 108.289549 98.709461 
L 21.088479 162.34483 
" style="fill: #f2f2f2; opacity: 0.5; stroke: #f2f2f2; stroke-linejoin: miter"/>
   </g>
  </g>
  <g id="pane3d_2">
   <g id="patch_4">
    <path d="M 109.446368 199.30937 
L 242.982576 238.123074 
L 247.748013 134.058116 
L 108.289549 98.709461 
" style="fill: #e6e6e6; opacity: 0.5; stroke: #e6e6e6; stroke-linejoin: miter"/>
   </g>
  </g>
  <g id="pane3d_3">
   <g id="patch_5">
    <path d="M 26.227738 269.064876 
L 167.782641 315.296707 
L 242.982576 238.123074 
L 109.446368 199.30937 
" style="fill: #ececec; opacity: 0.5; stroke: #ececec; stroke-linejoin: miter"/>
   </g>
  </g>
  <g id="grid3d_1"/>
  <g id="grid3d_2"/>
  <g id="grid3d_3"/>
  <g id="axis3d_1">
   <g id="line2d_1">
    <path d="M 26.227738 269.064876 
L 167.782641 315.296707 
" style="fill: none; stroke: #000000; stroke-width: 0.8; stroke-linecap: square"/>
   </g>
  </g>
  <g id="axis3d_2">
   <g id="line2d_2">
    <path d="M 242.982576 238.123074 
L 167.782641 315.296707 
" style="fill: none; stroke: #000000; stroke-width: 0.8; stroke-linecap: square"/>
   </g>
  </g>
  <g id="axis3d_3">
   <g id="line2d_3">
    <path d="M 242.982576 238.123074 
L 247.748013 134.058116 
" style="fill: none; stroke: #000000; stroke-width: 0.8; stroke-linecap: square"/>
   </g>
  </g>
  <g id="axes_1">
   <g id="Poly3DCollection_1">
    <path d="M 136.605405 238.588384 
L 133.200419 238.823008 
L 133.165923 215.295394 
L 136.605405 215.065165 
z
" clip-path="url(#p2fbd6bfb88)" style="fill: #f39c12; fill-opacity: 0.9; stroke: #1a5276; stroke-width: 0.5"/>
    <path d="M 140.010392 238.823008 
L 136.605405 238.588384 
L 136.605405 215.065165 
L 140.044888 215.295394 
z
" clip-path="url(#p2fbd6bfb88)" style="fill: #f39c12; fill-opacity: 0.9; stroke: #1a5276; stroke-width: 0.5"/>
    <path d="M 143.188835 239.511661 
L 140.010392 238.823008 
L 140.044888 215.295394 
L 143.255589 215.971155 
z
" clip-path="url(#p2fbd6bfb88)" style="fill: #f39c12; fill-opacity: 0.9; stroke: #1a5276; stroke-width: 0.5"/>
    <path d="M 133.200419 238.823008 
L 130.021976 239.511661 
L 129.955222 215.971155 
L 133.165923 215.295394 
z
" clip-path="url(#p2fbd6bfb88)" style="fill: #f39c12; fill-opacity: 0.9; stroke: #1a5276; stroke-width: 0.5"/>
    <path d="M 145.928183 240.609527 
L 143.188835 239.511661 
L 143.255589 215.971155 
L 146.02284 217.048492 
z
" clip-path="url(#p2fbd6bfb88)" style="fill: #f39c12; fill-opacity: 0.9; stroke: #1a5276; stroke-width: 0.5"/>
    <path d="M 130.021976 239.511661 
L 127.282628 240.609527 
L 127.187971 217.048492 
L 129.955222 215.971155 
z
" clip-path="url(#p2fbd6bfb88)" style="fill: #f39c12; fill-opacity: 0.9; stroke: #1a5276; stroke-width: 0.5"/>
    <path d="M 148.043286 242.044692 
L 145.928183 240.609527 
L 146.02284 217.048492 
L 148.159622 218.456863 
z
" clip-path="url(#p2fbd6bfb88)" style="fill: #f39c12; fill-opacity: 0.9; stroke: #1a5276; stroke-width: 0.5"/>
    <path d="M 127.282628 240.609527 
L 125.167525 242.044692 
L 125.051188 218.456863 
L 127.187971 217.048492 
z
" clip-path="url(#p2fbd6bfb88)" style="fill: #f39c12; fill-opacity: 0.9; stroke: #1a5276; stroke-width: 0.5"/>
    <path d="M 125.167525 242.044692 
L 123.82222 243.72228 
L 123.691933 220.103195 
L 125.051188 218.456863 
z
" clip-path="url(#p2fbd6bfb88)" style="fill: #f39c12; fill-opacity: 0.9; stroke: #1a5276; stroke-width: 0.5"/>
    <path d="M 149.388591 243.72228 
L 148.043286 242.044692 
L 148.159622 218.456863 
L 149.518878 220.103195 
z
" clip-path="url(#p2fbd6bfb88)" style="fill: #f39c12; fill-opacity: 0.9; stroke: #1a5276; stroke-width: 0.5"/>
    <path d="M 149.868416 245.530144 
L 149.388591 243.72228 
L 149.518878 220.103195 
L 150.003891 221.877452 
z
" clip-path="url(#p2fbd6bfb88)" style="fill: #f39c12; fill-opacity: 0.9; stroke: #1a5276; stroke-width: 0.5"/>
    <path d="M 123.82222 243.72228 
L 123.342395 245.530144 
L 123.20692 221.877452 
L 123.691933 220.103195 
z
" clip-path="url(#p2fbd6bfb88)" style="fill: #f39c12; fill-opacity: 0.9; stroke: #1a5276; stroke-width: 0.5"/>
    <path d="M 149.44451 247.345916 
L 149.868416 245.530144 
L 150.003891 221.877452 
L 149.575945 223.65955 
z
" clip-path="url(#p2fbd6bfb88)" style="fill: #f39c12; fill-opacity: 0.9; stroke: #1a5276; stroke-width: 0.5"/>
    <path d="M 123.342395 245.530144 
L 123.766301 247.345916 
L 123.634866 223.65955 
L 123.20692 221.877452 
z
" clip-path="url(#p2fbd6bfb88)" style="fill: #f39c12; fill-opacity: 0.9; stroke: #1a5276; stroke-width: 0.5"/>
    <path d="M 148.140141 249.045111 
L 149.44451 247.345916 
L 149.575945 223.65955 
L 148.258467 225.327304 
z
" clip-path="url(#p2fbd6bfb88)" style="fill: #f39c12; fill-opacity: 0.9; stroke: #1a5276; stroke-width: 0.5"/>
    <path d="M 123.766301 247.345916 
L 125.07067 249.045111 
L 124.952344 225.327304 
L 123.634866 223.65955 
z
" clip-path="url(#p2fbd6bfb88)" style="fill: #f39c12; fill-opacity: 0.9; stroke: #1a5276; stroke-width: 0.5"/>
    <path d="M 125.07067 249.045111 
L 127.170787 250.509791 
L 127.073833 226.764938 
L 124.952344 225.327304 
z
" clip-path="url(#p2fbd6bfb88)" style="fill: #f39c12; fill-opacity: 0.9; stroke: #1a5276; stroke-width: 0.5"/>
    <path d="M 146.040024 250.509791 
L 148.140141 249.045111 
L 148.258467 225.327304 
L 146.136978 226.764938 
z
" clip-path="url(#p2fbd6bfb88)" style="fill: #f39c12; fill-opacity: 0.9; stroke: #1a5276; stroke-width: 0.5"/>
    <path d="M 143.285694 251.637174 
L 146.040024 250.509791 
L 146.136978 226.764938 
L 143.354437 227.87154 
z
" clip-path="url(#p2fbd6bfb88)" style="fill: #f39c12; fill-opacity: 0.9; stroke: #1a5276; stroke-width: 0.5"/>
    <path d="M 127.170787 250.509791 
L 129.925117 251.637174 
L 129.856374 227.87154 
L 127.073833 226.764938 
z
" clip-path="url(#p2fbd6bfb88)" style="fill: #f39c12; fill-opacity: 0.9; stroke: #1a5276; stroke-width: 0.5"/>
    <path d="M 129.925117 251.637174 
L 133.144497 252.347435 
L 133.108852 228.568725 
L 129.856374 227.87154 
z
" clip-path="url(#p2fbd6bfb88)" style="fill: #f39c12; fill-opacity: 0.9; stroke: #1a5276; stroke-width: 0.5"/>
    <path d="M 140.066314 252.347435 
L 143.285694 251.637174 
L 143.354437 227.87154 
L 140.101959 228.568725 
z
" clip-path="url(#p2fbd6bfb88)" style="fill: #f39c12; fill-opacity: 0.9; stroke: #1a5276; stroke-width: 0.5"/>
    <path d="M 133.144497 252.347435 
L 136.605405 252.589969 
L 136.605405 228.806795 
L 133.108852 228.568725 
z
" clip-path="url(#p2fbd6bfb88)" style="fill: #f39c12; fill-opacity: 0.9; stroke: #1a5276; stroke-width: 0.5"/>
    <path d="M 136.605405 252.589969 
L 140.066314 252.347435 
L 140.101959 228.568725 
L 136.605405 228.806795 
z
" clip-path="url(#p2fbd6bfb88)" style="fill: #f39c12; fill-opacity: 0.9; stroke: #1a5276; stroke-width: 0.5"/>
   </g>
   <g id="text_1">
    <!-- Plug weld -->
    <g style="fill: #1a5276" transform="translate(100.125938 73.2) scale(0.12 -0.12)">
     <defs>
      <path id="DejaVuSans-Bold-50" d="M 588 4666 
L 2584 4666 
Q 3475 4666 3951 4270 
Q 4428 3875 4428 3144 
Q 4428 2409 3951 2014 
Q 3475 1619 2584 1619 
L 1791 1619 
L 1791 0 
L 588 0 
L 588 4666 
z
M 1791 3794 
L 1791 2491 
L 2456 2491 
Q 2806 2491 2997 2661 
Q 3188 2831 3188 3144 
Q 3188 3456 2997 3625 
Q 2806 3794 2456 3794 
L 1791 3794 
z
" transform="scale(0.015625)"/>
      <path id="DejaVuSans-Bold-6c" d="M 538 4863 
L 1656 4863 
L 1656 0 
L 538 0 
L 538 4863 
z
" transform="scale(0.015625)"/>
      <path id="DejaVuSans-Bold-75" d="M 500 1363 
L 500 3500 
L 1625 3500 
L 1625 3150 
Q 1625 2866 1622 2436 
Q 1619 2006 1619 1863 
Q 1619 1441 1641 1255 
Q 1663 1069 1716 984 
Q 1784 875 1895 815 
Q 2006 756 2150 756 
Q 2500 756 2700 1025 
Q 2900 1294 2900 1772 
L 2900 3500 
L 4019 3500 
L 4019 0 
L 2900 0 
L 2900 506 
Q 2647 200 2364 54 
Q 2081 -91 1741 -91 
Q 1134 -91 817 281 
Q 500 653 500 1363 
z
" transform="scale(0.015625)"/>
      <path id="DejaVuSans-Bold-67" d="M 2919 594 
Q 2688 288 2409 144 
Q 2131 0 1766 0 
Q 1125 0 706 504 
Q 288 1009 288 1791 
Q 288 2575 706 3076 
Q 1125 3578 1766 3578 
Q 2131 3578 2409 3434 
Q 2688 3291 2919 2981 
L 2919 3500 
L 4044 3500 
L 4044 353 
Q 4044 -491 3511 -936 
Q 2978 -1381 1966 -1381 
Q 1638 -1381 1331 -1331 
Q 1025 -1281 716 -1178 
L 716 -306 
Q 1009 -475 1290 -558 
Q 1572 -641 1856 -641 
Q 2406 -641 2662 -400 
Q 2919 -159 2919 353 
L 2919 594 
z
M 2181 2772 
Q 1834 2772 1640 2515 
Q 1447 2259 1447 1791 
Q 1447 1309 1634 1061 
Q 1822 813 2181 813 
Q 2531 813 2725 1069 
Q 2919 1325 2919 1791 
Q 2919 2259 2725 2515 
Q 2531 2772 2181 2772 
z
" transform="scale(0.015625)"/>
      <path id="DejaVuSans-Bold-20" transform="scale(0.015625)"/>
      <path id="DejaVuSans-Bold-77" d="M 225 3500 
L 1313 3500 
L 1900 1088 
L 2491 3500 
L 3425 3500 
L 4013 1113 
L 4603 3500 
L 5691 3500 
L 4769 0 
L 3547 0 
L 2956 2406 
L 2369 0 
L 1147 0 
L 225 3500 
z
" transform="scale(0.015625)"/>
      <path id="DejaVuSans-Bold-65" d="M 4031 1759 
L 4031 1441 
L 1416 1441 
Q 1456 1047 1700 850 
Q 1944 653 2381 653 
Q 2734 653 3104 758 
Q 3475 863 3866 1075 
L 3866 213 
Q 3469 63 3072 -14 
Q 2675 -91 2278 -91 
Q 1328 -91 801 392 
Q 275 875 275 1747 
Q 275 2603 792 3093 
Q 1309 3584 2216 3584 
Q 3041 3584 3536 3087 
Q 4031 2591 4031 1759 
z
M 2881 2131 
Q 2881 2450 2695 2645 
Q 2509 2841 2209 2841 
Q 1884 2841 1681 2658 
Q 1478 2475 1428 2131 
L 2881 2131 
z
" transform="scale(0.015625)"/>
      <path id="DejaVuSans-Bold-64" d="M 2919 2988 
L 2919 4863 
L 4044 4863 
L 4044 0 
L 2919 0 
L 2919 506 
Q 2688 197 2409 53 
Q 2131 -91 1766 -91 
Q 1119 -91 703 423 
Q 288 938 288 1747 
Q 288 2556 703 3070 
Q 1119 3584 1766 3584 
Q 2128 3584 2408 3439 
Q 2688 3294 2919 2988 
z
M 2181 722 
Q 2541 722 2730 984 
Q 2919 1247 2919 1747 
Q 2919 2247 2730 2509 
Q 2541 2772 2181 2772 
Q 1825 2772 1636 2509 
Q 1447 2247 1447 1747 
Q 1447 1247 1636 984 
Q 1825 722 2181 722 
z
" transform="scale(0.015625)"/>
     </defs>
     <use xlink:href="#DejaVuSans-Bold-50"/>
     <use xlink:href="#DejaVuSans-Bold-6c" transform="translate(73.291016 0)"/>
     <use xlink:href="#DejaVuSans-Bold-75" transform="translate(107.568359 0)"/>
     <use xlink:href="#DejaVuSans-Bold-67" transform="translate(178.759766 0)"/>
     <use xlink:href="#DejaVuSans-Bold-20" transform="translate(250.341797 0)"/>
     <use xlink:href="#DejaVuSans-Bold-77" transform="translate(285.15625 0)"/>
     <use xlink:href="#DejaVuSans-Bold-65" transform="translate(377.539062 0)"/>
     <use xlink:href="#DejaVuSans-Bold-6c" transform="translate(445.361328 0)"/>
     <use xlink:href="#DejaVuSans-Bold-64" transform="translate(479.638672 0)"/>
    </g>
   </g>
   <g id="Poly3DCollection_2">
    <path d="M 226.713993 209.49691 
L 113.432702 177.53239 
L 113.654247 200.320991 
L 225.816732 232.913418 
z
" clip-path="url(#p2fbd6bfb88)" style="fill: #2980b9; fill-opacity: 0.25; stroke: #1a5276; stroke-width: 0.6"/>
    <path d="M 113.432702 177.53239 
L 43.642786 234.650126 
L 44.597485 258.542378 
L 113.654247 200.320991 
z
" clip-path="url(#p2fbd6bfb88)" style="fill: #2980b9; fill-opacity: 0.25; stroke: #1a5276; stroke-width: 0.6"/>
    <path d="M 44.597485 258.542378 
L 162.361797 296.26504 
L 225.816732 232.913418 
L 113.654247 200.320991 
z
" clip-path="url(#p2fbd6bfb88)" style="fill: #2980b9; fill-opacity: 0.25; stroke: #1a5276; stroke-width: 0.6"/>
    <path d="M 43.642786 234.650126 
L 162.641138 271.701428 
L 226.713993 209.49691 
L 113.432702 177.53239 
z
" clip-path="url(#p2fbd6bfb88)" style="fill: #2980b9; fill-opacity: 0.25; stroke: #1a5276; stroke-width: 0.6"/>
    <path d="M 162.641138 271.701428 
L 226.713993 209.49691 
L 225.816732 232.913418 
L 162.361797 296.26504 
z
" clip-path="url(#p2fbd6bfb88)" style="fill: #2980b9; fill-opacity: 0.25; stroke: #1a5276; stroke-width: 0.6"/>
    <path d="M 43.642786 234.650126 
L 162.641138 271.701428 
L 162.361797 296.26504 
L 44.597485 258.542378 
z
" clip-path="url(#p2fbd6bfb88)" style="fill: #2980b9; fill-opacity: 0.25; stroke: #1a5276; stroke-width: 0.6"/>
   </g>
  </g>
  <g id="patch_6">
   <path d="M 372.436364 331.2 
L 624.436364 331.2 
L 624.436364 79.2 
L 372.436364 79.2 
z
" style="fill: #ffffff"/>
  </g>
  <g id="pane3d_4">
   <g id="patch_7">
    <path d="M 391.464101 269.064876 
L 474.682731 199.30937 
L 473.525913 98.709461 
L 386.324842 162.34483 
" style="fill: #f2f2f2; opacity: 0.5; stroke: #f2f2f2; stroke-linejoin: miter"/>
   </g>
  </g>
  <g id="pane3d_5">
   <g id="patch_8">
    <path d="M 474.682731 199.30937 
L 608.21894 238.123074 
L 612.984376 134.058116 
L 473.525913 98.709461 
" style="fill: #e6e6e6; opacity: 0.5; stroke: #e6e6e6; stroke-linejoin: miter"/>
   </g>
  </g>
  <g id="pane3d_6">
   <g id="patch_9">
    <path d="M 391.464101 269.064876 
L 533.019005 315.296707 
L 608.21894 238.123074 
L 474.682731 199.30937 
" style="fill: #ececec; opacity: 0.5; stroke: #ececec; stroke-linejoin: miter"/>
   </g>
  </g>
  <g id="grid3d_4"/>
  <g id="grid3d_5"/>
  <g id="grid3d_6"/>
  <g id="axis3d_4">
   <g id="line2d_4">
    <path d="M 391.464101 269.064876 
L 533.019005 315.296707 
" style="fill: none; stroke: #000000; stroke-width: 0.8; stroke-linecap: square"/>
   </g>
  </g>
  <g id="axis3d_5">
   <g id="line2d_5">
    <path d="M 608.21894 238.123074 
L 533.019005 315.296707 
" style="fill: none; stroke: #000000; stroke-width: 0.8; stroke-linecap: square"/>
   </g>
  </g>
  <g id="axis3d_6">
   <g id="line2d_6">
    <path d="M 608.21894 238.123074 
L 612.984376 134.058116 
" style="fill: none; stroke: #000000; stroke-width: 0.8; stroke-linecap: square"/>
   </g>
  </g>
  <g id="axes_2">
   <g id="Poly3DCollection_3">
    <path d="M 489.729184 235.847366 
L 524.063382 246.234136 
L 524.290559 222.568379 
L 489.606918 212.375591 
z
" clip-path="url(#pdb7b7fc80b)" style="fill: #f39c12; fill-opacity: 0.9; stroke: #1a5276; stroke-width: 0.6"/>
    <path d="M 479.657781 244.827343 
L 514.243652 255.444186 
L 524.063382 246.234136 
L 489.729184 235.847366 
z
" clip-path="url(#pdb7b7fc80b)" style="fill: #f39c12; fill-opacity: 0.9; stroke: #1a5276; stroke-width: 0.6"/>
    <path d="M 479.431376 221.187706 
L 514.371859 231.608602 
L 524.290559 222.568379 
L 489.606918 212.375591 
z
" clip-path="url(#pdb7b7fc80b)" style="fill: #f39c12; fill-opacity: 0.9; stroke: #1a5276; stroke-width: 0.6"/>
    <path d="M 479.657781 244.827343 
L 514.243652 255.444186 
L 514.371859 231.608602 
L 479.431376 221.187706 
z
" clip-path="url(#pdb7b7fc80b)" style="fill: #f39c12; fill-opacity: 0.9; stroke: #1a5276; stroke-width: 0.6"/>
   </g>
   <g id="text_2">
    <!-- Slot weld -->
    <g style="fill: #1a5276" transform="translate(467.015114 73.2) scale(0.12 -0.12)">
     <defs>
      <path id="DejaVuSans-Bold-53" d="M 3834 4519 
L 3834 3531 
Q 3450 3703 3084 3790 
Q 2719 3878 2394 3878 
Q 1963 3878 1756 3759 
Q 1550 3641 1550 3391 
Q 1550 3203 1689 3098 
Q 1828 2994 2194 2919 
L 2706 2816 
Q 3484 2659 3812 2340 
Q 4141 2022 4141 1434 
Q 4141 663 3683 286 
Q 3225 -91 2284 -91 
Q 1841 -91 1394 -6 
Q 947 78 500 244 
L 500 1259 
Q 947 1022 1364 901 
Q 1781 781 2169 781 
Q 2563 781 2772 912 
Q 2981 1044 2981 1288 
Q 2981 1506 2839 1625 
Q 2697 1744 2272 1838 
L 1806 1941 
Q 1106 2091 782 2419 
Q 459 2747 459 3303 
Q 459 4000 909 4375 
Q 1359 4750 2203 4750 
Q 2588 4750 2994 4692 
Q 3400 4634 3834 4519 
z
" transform="scale(0.015625)"/>
      <path id="DejaVuSans-Bold-6f" d="M 2203 2784 
Q 1831 2784 1636 2517 
Q 1441 2250 1441 1747 
Q 1441 1244 1636 976 
Q 1831 709 2203 709 
Q 2569 709 2762 976 
Q 2956 1244 2956 1747 
Q 2956 2250 2762 2517 
Q 2569 2784 2203 2784 
z
M 2203 3584 
Q 3106 3584 3614 3096 
Q 4122 2609 4122 1747 
Q 4122 884 3614 396 
Q 3106 -91 2203 -91 
Q 1297 -91 786 396 
Q 275 884 275 1747 
Q 275 2609 786 3096 
Q 1297 3584 2203 3584 
z
" transform="scale(0.015625)"/>
      <path id="DejaVuSans-Bold-74" d="M 1759 4494 
L 1759 3500 
L 2913 3500 
L 2913 2700 
L 1759 2700 
L 1759 1216 
Q 1759 972 1856 886 
Q 1953 800 2241 800 
L 2816 800 
L 2816 0 
L 1856 0 
Q 1194 0 917 276 
Q 641 553 641 1216 
L 641 2700 
L 84 2700 
L 84 3500 
L 641 3500 
L 641 4494 
L 1759 4494 
z
" transform="scale(0.015625)"/>
     </defs>
     <use xlink:href="#DejaVuSans-Bold-53"/>
     <use xlink:href="#DejaVuSans-Bold-6c" transform="translate(72.021484 0)"/>
     <use xlink:href="#DejaVuSans-Bold-6f" transform="translate(106.298828 0)"/>
     <use xlink:href="#DejaVuSans-Bold-74" transform="translate(175 0)"/>
     <use xlink:href="#DejaVuSans-Bold-20" transform="translate(222.802734 0)"/>
     <use xlink:href="#DejaVuSans-Bold-77" transform="translate(257.617188 0)"/>
     <use xlink:href="#DejaVuSans-Bold-65" transform="translate(350 0)"/>
     <use xlink:href="#DejaVuSans-Bold-6c" transform="translate(417.822266 0)"/>
     <use xlink:href="#DejaVuSans-Bold-64" transform="translate(452.099609 0)"/>
    </g>
   </g>
   <g id="Poly3DCollection_4">
    <path d="M 591.950357 209.49691 
L 478.669066 177.53239 
L 478.890611 200.320991 
L 591.053095 232.913418 
z
" clip-path="url(#pdb7b7fc80b)" style="fill: #2980b9; fill-opacity: 0.25; stroke: #1a5276; stroke-width: 0.6"/>
    <path d="M 478.669066 177.53239 
L 408.87915 234.650126 
L 409.833848 258.542378 
L 478.890611 200.320991 
z
" clip-path="url(#pdb7b7fc80b)" style="fill: #2980b9; fill-opacity: 0.25; stroke: #1a5276; stroke-width: 0.6"/>
    <path d="M 409.833848 258.542378 
L 527.598161 296.26504 
L 591.053095 232.913418 
L 478.890611 200.320991 
z
" clip-path="url(#pdb7b7fc80b)" style="fill: #2980b9; fill-opacity: 0.25; stroke: #1a5276; stroke-width: 0.6"/>
    <path d="M 408.87915 234.650126 
L 527.877502 271.701428 
L 591.950357 209.49691 
L 478.669066 177.53239 
z
" clip-path="url(#pdb7b7fc80b)" style="fill: #2980b9; fill-opacity: 0.25; stroke: #1a5276; stroke-width: 0.6"/>
    <path d="M 527.877502 271.701428 
L 591.950357 209.49691 
L 591.053095 232.913418 
L 527.598161 296.26504 
z
" clip-path="url(#pdb7b7fc80b)" style="fill: #2980b9; fill-opacity: 0.25; stroke: #1a5276; stroke-width: 0.6"/>
    <path d="M 408.87915 234.650126 
L 527.877502 271.701428 
L 527.598161 296.26504 
L 409.833848 258.542378 
z
" clip-path="url(#pdb7b7fc80b)" style="fill: #2980b9; fill-opacity: 0.25; stroke: #1a5276; stroke-width: 0.6"/>
   </g>
  </g>
  <g id="patch_10">
   <path d="M 7.2 633.6 
L 259.2 633.6 
L 259.2 381.6 
L 7.2 381.6 
z
" style="fill: #ffffff"/>
  </g>
  <g id="pane3d_7">
   <g id="patch_11">
    <path d="M 26.227738 571.464876 
L 109.446368 501.70937 
L 108.289549 401.109461 
L 21.088479 464.74483 
" style="fill: #f2f2f2; opacity: 0.5; stroke: #f2f2f2; stroke-linejoin: miter"/>
   </g>
  </g>
  <g id="pane3d_8">
   <g id="patch_12">
    <path d="M 109.446368 501.70937 
L 242.982576 540.523074 
L 247.748013 436.458116 
L 108.289549 401.109461 
" style="fill: #e6e6e6; opacity: 0.5; stroke: #e6e6e6; stroke-linejoin: miter"/>
   </g>
  </g>
  <g id="pane3d_9">
   <g id="patch_13">
    <path d="M 26.227738 571.464876 
L 167.782641 617.696707 
L 242.982576 540.523074 
L 109.446368 501.70937 
" style="fill: #ececec; opacity: 0.5; stroke: #ececec; stroke-linejoin: miter"/>
   </g>
  </g>
  <g id="grid3d_7"/>
  <g id="grid3d_8"/>
  <g id="grid3d_9"/>
  <g id="axis3d_7">
   <g id="line2d_7">
    <path d="M 26.227738 571.464876 
L 167.782641 617.696707 
" style="fill: none; stroke: #000000; stroke-width: 0.8; stroke-linecap: square"/>
   </g>
  </g>
  <g id="axis3d_8">
   <g id="line2d_8">
    <path d="M 242.982576 540.523074 
L 167.782641 617.696707 
" style="fill: none; stroke: #000000; stroke-width: 0.8; stroke-linecap: square"/>
   </g>
  </g>
  <g id="axis3d_9">
   <g id="line2d_9">
    <path d="M 242.982576 540.523074 
L 247.748013 436.458116 
" style="fill: none; stroke: #000000; stroke-width: 0.8; stroke-linecap: square"/>
   </g>
  </g>
  <g id="axes_3">
   <g id="Poly3DCollection_5">
    <path d="M 139.190291 519.330816 
L 136.605405 519.157425 
L 136.605405 462.289991 
L 139.253007 462.454987 
z
" clip-path="url(#p6f9a06ae6d)" style="fill: #f39c12; fill-opacity: 0.9; stroke: #1a5276; stroke-width: 0.5"/>
    <path d="M 136.605405 519.157425 
L 134.02052 519.330816 
L 133.957804 462.454987 
L 136.605405 462.289991 
z
" clip-path="url(#p6f9a06ae6d)" style="fill: #f39c12; fill-opacity: 0.9; stroke: #1a5276; stroke-width: 0.5"/>
    <path d="M 141.602191 519.839605 
L 139.190291 519.330816 
L 139.253007 462.454987 
L 141.723504 462.93915 
z
" clip-path="url(#p6f9a06ae6d)" style="fill: #f39c12; fill-opacity: 0.9; stroke: #1a5276; stroke-width: 0.5"/>
    <path d="M 134.02052 519.330816 
L 131.60862 519.839605 
L 131.487307 462.93915 
L 133.957804 462.454987 
z
" clip-path="url(#p6f9a06ae6d)" style="fill: #f39c12; fill-opacity: 0.9; stroke: #1a5276; stroke-width: 0.5"/>
    <path d="M 131.60862 519.839605 
L 129.531741 520.650302 
L 129.359828 463.710642 
L 131.487307 462.93915 
z
" clip-path="url(#p6f9a06ae6d)" style="fill: #f39c12; fill-opacity: 0.9; stroke: #1a5276; stroke-width: 0.5"/>
    <path d="M 143.67907 520.650302 
L 141.602191 519.839605 
L 141.723504 462.93915 
L 143.850983 463.710642 
z
" clip-path="url(#p6f9a06ae6d)" style="fill: #f39c12; fill-opacity: 0.9; stroke: #1a5276; stroke-width: 0.5"/>
    <path d="M 129.531741 520.650302 
L 127.930545 521.709287 
L 127.719432 464.71847 
L 129.359828 463.710642 
z
" clip-path="url(#p6f9a06ae6d)" style="fill: #f39c12; fill-opacity: 0.9; stroke: #1a5276; stroke-width: 0.5"/>
    <path d="M 145.280266 521.709287 
L 143.67907 520.650302 
L 143.850983 463.710642 
L 145.491378 464.71847 
z
" clip-path="url(#p6f9a06ae6d)" style="fill: #f39c12; fill-opacity: 0.9; stroke: #1a5276; stroke-width: 0.5"/>
    <path d="M 146.295839 522.946027 
L 145.280266 521.709287 
L 145.491378 464.71847 
L 146.532038 465.895548 
z
" clip-path="url(#p6f9a06ae6d)" style="fill: #f39c12; fill-opacity: 0.9; stroke: #1a5276; stroke-width: 0.5"/>
    <path d="M 127.930545 521.709287 
L 126.914972 522.946027 
L 126.678772 465.895548 
L 127.719432 464.71847 
z
" clip-path="url(#p6f9a06ae6d)" style="fill: #f39c12; fill-opacity: 0.9; stroke: #1a5276; stroke-width: 0.5"/>
    <path d="M 146.654269 524.277452 
L 146.295839 522.946027 
L 146.532038 465.895548 
L 146.89962 467.162842 
z
" clip-path="url(#p6f9a06ae6d)" style="fill: #f39c12; fill-opacity: 0.9; stroke: #1a5276; stroke-width: 0.5"/>
    <path d="M 126.914972 522.946027 
L 126.556541 524.277452 
L 126.311191 467.162842 
L 126.678772 465.895548 
z
" clip-path="url(#p6f9a06ae6d)" style="fill: #f39c12; fill-opacity: 0.9; stroke: #1a5276; stroke-width: 0.5"/>
    <path d="M 146.327939 525.613287 
L 146.654269 524.277452 
L 146.89962 467.162842 
L 146.565725 468.434437 
z
" clip-path="url(#p6f9a06ae6d)" style="fill: #f39c12; fill-opacity: 0.9; stroke: #1a5276; stroke-width: 0.5"/>
    <path d="M 126.556541 524.277452 
L 126.882872 525.613287 
L 126.645086 468.434437 
L 126.311191 467.162842 
z
" clip-path="url(#p6f9a06ae6d)" style="fill: #f39c12; fill-opacity: 0.9; stroke: #1a5276; stroke-width: 0.5"/>
    <path d="M 126.882872 525.613287 
L 127.874945 526.862077 
L 127.661085 469.623265 
L 126.645086 468.434437 
z
" clip-path="url(#p6f9a06ae6d)" style="fill: #f39c12; fill-opacity: 0.9; stroke: #1a5276; stroke-width: 0.5"/>
    <path d="M 145.335865 526.862077 
L 146.327939 525.613287 
L 146.565725 468.434437 
L 145.549726 469.623265 
z
" clip-path="url(#p6f9a06ae6d)" style="fill: #f39c12; fill-opacity: 0.9; stroke: #1a5276; stroke-width: 0.5"/>
    <path d="M 127.874945 526.862077 
L 129.46754 527.937522 
L 129.292453 470.647144 
L 127.661085 469.623265 
z
" clip-path="url(#p6f9a06ae6d)" style="fill: #f39c12; fill-opacity: 0.9; stroke: #1a5276; stroke-width: 0.5"/>
    <path d="M 143.743271 527.937522 
L 145.335865 526.862077 
L 145.549726 469.623265 
L 143.918358 470.647144 
z
" clip-path="url(#p6f9a06ae6d)" style="fill: #f39c12; fill-opacity: 0.9; stroke: #1a5276; stroke-width: 0.5"/>
    <path d="M 129.46754 527.937522 
L 131.553019 528.76468 
L 131.428958 471.434687 
L 129.292453 470.647144 
z
" clip-path="url(#p6f9a06ae6d)" style="fill: #f39c12; fill-opacity: 0.9; stroke: #1a5276; stroke-width: 0.5"/>
    <path d="M 141.657792 528.76468 
L 143.743271 527.937522 
L 143.918358 470.647144 
L 141.781853 471.434687 
z
" clip-path="url(#p6f9a06ae6d)" style="fill: #f39c12; fill-opacity: 0.9; stroke: #1a5276; stroke-width: 0.5"/>
    <path d="M 131.553019 528.76468 
L 133.988418 529.285519 
L 133.924116 471.930601 
L 131.428958 471.434687 
z
" clip-path="url(#p6f9a06ae6d)" style="fill: #f39c12; fill-opacity: 0.9; stroke: #1a5276; stroke-width: 0.5"/>
    <path d="M 139.222392 529.285519 
L 141.657792 528.76468 
L 141.781853 471.434687 
L 139.286695 471.930601 
z
" clip-path="url(#p6f9a06ae6d)" style="fill: #f39c12; fill-opacity: 0.9; stroke: #1a5276; stroke-width: 0.5"/>
    <path d="M 133.988418 529.285519 
L 136.605405 529.463321 
L 136.605405 472.099897 
L 133.924116 471.930601 
z
" clip-path="url(#p6f9a06ae6d)" style="fill: #f39c12; fill-opacity: 0.9; stroke: #1a5276; stroke-width: 0.5"/>
    <path d="M 136.605405 529.463321 
L 139.222392 529.285519 
L 139.286695 471.930601 
L 136.605405 472.099897 
z
" clip-path="url(#p6f9a06ae6d)" style="fill: #f39c12; fill-opacity: 0.9; stroke: #1a5276; stroke-width: 0.5"/>
   </g>
   <g id="text_3">
    <!-- Stud weld -->
    <g style="fill: #1a5276" transform="translate(99.391875 375.6) scale(0.12 -0.12)">
     <use xlink:href="#DejaVuSans-Bold-53"/>
     <use xlink:href="#DejaVuSans-Bold-74" transform="translate(72.021484 0)"/>
     <use xlink:href="#DejaVuSans-Bold-75" transform="translate(119.824219 0)"/>
     <use xlink:href="#DejaVuSans-Bold-64" transform="translate(191.015625 0)"/>
     <use xlink:href="#DejaVuSans-Bold-20" transform="translate(262.597656 0)"/>
     <use xlink:href="#DejaVuSans-Bold-77" transform="translate(297.412109 0)"/>
     <use xlink:href="#DejaVuSans-Bold-65" transform="translate(389.794922 0)"/>
     <use xlink:href="#DejaVuSans-Bold-6c" transform="translate(457.617188 0)"/>
     <use xlink:href="#DejaVuSans-Bold-64" transform="translate(491.894531 0)"/>
    </g>
   </g>
   <g id="Poly3DCollection_6">
    <path d="M 226.713993 511.89691 
L 113.432702 479.93239 
L 113.654247 502.720991 
L 225.816732 535.313418 
z
" clip-path="url(#p6f9a06ae6d)" style="fill: #2980b9; fill-opacity: 0.25; stroke: #1a5276; stroke-width: 0.6"/>
    <path d="M 113.432702 479.93239 
L 43.642786 537.050126 
L 44.597485 560.942378 
L 113.654247 502.720991 
z
" clip-path="url(#p6f9a06ae6d)" style="fill: #2980b9; fill-opacity: 0.25; stroke: #1a5276; stroke-width: 0.6"/>
    <path d="M 44.597485 560.942378 
L 162.361797 598.66504 
L 225.816732 535.313418 
L 113.654247 502.720991 
z
" clip-path="url(#p6f9a06ae6d)" style="fill: #2980b9; fill-opacity: 0.25; stroke: #1a5276; stroke-width: 0.6"/>
    <path d="M 43.642786 537.050126 
L 162.641138 574.101428 
L 226.713993 511.89691 
L 113.432702 479.93239 
z
" clip-path="url(#p6f9a06ae6d)" style="fill: #2980b9; fill-opacity: 0.25; stroke: #1a5276; stroke-width: 0.6"/>
    <path d="M 162.641138 574.101428 
L 226.713993 511.89691 
L 225.816732 535.313418 
L 162.361797 598.66504 
z
" clip-path="url(#p6f9a06ae6d)" style="fill: #2980b9; fill-opacity: 0.25; stroke: #1a5276; stroke-width: 0.6"/>
    <path d="M 43.642786 537.050126 
L 162.641138 574.101428 
L 162.361797 598.66504 
L 44.597485 560.942378 
z
" clip-path="url(#p6f9a06ae6d)" style="fill: #2980b9; fill-opacity: 0.25; stroke: #1a5276; stroke-width: 0.6"/>
   </g>
  </g>
  <g id="patch_14">
   <path d="M 372.436364 633.6 
L 624.436364 633.6 
L 624.436364 381.6 
L 372.436364 381.6 
z
" style="fill: #ffffff"/>
  </g>
  <g id="pane3d_10">
   <g id="patch_15">
    <path d="M 391.464101 571.464876 
L 474.682731 501.70937 
L 473.525913 401.109461 
L 386.324842 464.74483 
" style="fill: #f2f2f2; opacity: 0.5; stroke: #f2f2f2; stroke-linejoin: miter"/>
   </g>
  </g>
  <g id="pane3d_11">
   <g id="patch_16">
    <path d="M 474.682731 501.70937 
L 608.21894 540.523074 
L 612.984376 436.458116 
L 473.525913 401.109461 
" style="fill: #e6e6e6; opacity: 0.5; stroke: #e6e6e6; stroke-linejoin: miter"/>
   </g>
  </g>
  <g id="pane3d_12">
   <g id="patch_17">
    <path d="M 391.464101 571.464876 
L 533.019005 617.696707 
L 608.21894 540.523074 
L 474.682731 501.70937 
" style="fill: #ececec; opacity: 0.5; stroke: #ececec; stroke-linejoin: miter"/>
   </g>
  </g>
  <g id="grid3d_10"/>
  <g id="grid3d_11"/>
  <g id="grid3d_12"/>
  <g id="axis3d_10">
   <g id="line2d_10">
    <path d="M 391.464101 571.464876 
L 533.019005 617.696707 
" style="fill: none; stroke: #000000; stroke-width: 0.8; stroke-linecap: square"/>
   </g>
  </g>
  <g id="axis3d_11">
   <g id="line2d_11">
    <path d="M 608.21894 540.523074 
L 533.019005 617.696707 
" style="fill: none; stroke: #000000; stroke-width: 0.8; stroke-linecap: square"/>
   </g>
  </g>
  <g id="axis3d_12">
   <g id="line2d_12">
    <path d="M 608.21894 540.523074 
L 612.984376 436.458116 
" style="fill: none; stroke: #000000; stroke-width: 0.8; stroke-linecap: square"/>
   </g>
  </g>
  <g id="axes_4">
   <g id="line2d_13">
    <path d="M 510.572229 526.862077 
L 511.594433 525.126066 
L 511.890123 523.332289 
L 511.440664 521.614127 
L 510.282679 520.098152 
L 508.504381 518.894999 
L 506.238363 518.091688 
L 503.651571 517.745803 
L 500.933252 517.881802 
L 498.281667 518.489537 
L 495.890353 519.525029 
L 493.934661 520.913411 
L 492.559337 522.553933 
L 491.867876 524.326788 
L 491.91443 526.10146 
L 492.698959 527.746112 
L 494.16625 529.137422 
L 496.209128 530.170111 
L 498.675922 530.765367 
L 501.381741 530.87734 
L 504.122763 530.497046 
L 506.692267 529.653241 
L 508.896987 528.410118 
L 510.572229 526.862077 
" clip-path="url(#pe0b7103d89)" style="fill: none; stroke: #e74c3c; stroke-width: 2; stroke-linecap: square"/>
   </g>
   <g id="Poly3DCollection_7">
    <path d="M 591.950357 511.89691 
L 478.669066 479.93239 
L 478.890611 502.720991 
L 591.053095 535.313418 
z
" clip-path="url(#pe0b7103d89)" style="fill: #2980b9; fill-opacity: 0.25; stroke: #1a5276; stroke-width: 0.6"/>
    <path d="M 478.669066 479.93239 
L 408.87915 537.050126 
L 409.833848 560.942378 
L 478.890611 502.720991 
z
" clip-path="url(#pe0b7103d89)" style="fill: #2980b9; fill-opacity: 0.25; stroke: #1a5276; stroke-width: 0.6"/>
    <path d="M 409.833848 560.942378 
L 527.598161 598.66504 
L 591.053095 535.313418 
L 478.890611 502.720991 
z
" clip-path="url(#pe0b7103d89)" style="fill: #2980b9; fill-opacity: 0.25; stroke: #1a5276; stroke-width: 0.6"/>
    <path d="M 408.87915 537.050126 
L 527.877502 574.101428 
L 591.950357 511.89691 
L 478.669066 479.93239 
z
" clip-path="url(#pe0b7103d89)" style="fill: #2980b9; fill-opacity: 0.25; stroke: #1a5276; stroke-width: 0.6"/>
    <path d="M 527.877502 574.101428 
L 591.950357 511.89691 
L 591.053095 535.313418 
L 527.598161 598.66504 
z
" clip-path="url(#pe0b7103d89)" style="fill: #2980b9; fill-opacity: 0.25; stroke: #1a5276; stroke-width: 0.6"/>
    <path d="M 408.87915 537.050126 
L 527.877502 574.101428 
L 527.598161 598.66504 
L 409.833848 560.942378 
z
" clip-path="url(#pe0b7103d89)" style="fill: #2980b9; fill-opacity: 0.25; stroke: #1a5276; stroke-width: 0.6"/>
   </g>
   <g id="text_4">
    <!-- Spot weld -->
    <g style="fill: #1a5276" transform="translate(464.777301 375.6) scale(0.12 -0.12)">
     <defs>
      <path id="DejaVuSans-Bold-70" d="M 1656 506 
L 1656 -1331 
L 538 -1331 
L 538 3500 
L 1656 3500 
L 1656 2988 
Q 1888 3294 2169 3439 
Q 2450 3584 2816 3584 
Q 3463 3584 3878 3070 
Q 4294 2556 4294 1747 
Q 4294 938 3878 423 
Q 3463 -91 2816 -91 
Q 2450 -91 2169 54 
Q 1888 200 1656 506 
z
M 2400 2772 
Q 2041 2772 1848 2508 
Q 1656 2244 1656 1747 
Q 1656 1250 1848 986 
Q 2041 722 2400 722 
Q 2759 722 2948 984 
Q 3138 1247 3138 1747 
Q 3138 2247 2948 2509 
Q 2759 2772 2400 2772 
z
" transform="scale(0.015625)"/>
     </defs>
     <use xlink:href="#DejaVuSans-Bold-53"/>
     <use xlink:href="#DejaVuSans-Bold-70" transform="translate(72.021484 0)"/>
     <use xlink:href="#DejaVuSans-Bold-6f" transform="translate(143.603516 0)"/>
     <use xlink:href="#DejaVuSans-Bold-74" transform="translate(212.304688 0)"/>
     <use xlink:href="#DejaVuSans-Bold-20" transform="translate(260.107422 0)"/>
     <use xlink:href="#DejaVuSans-Bold-77" transform="translate(294.921875 0)"/>
     <use xlink:href="#DejaVuSans-Bold-65" transform="translate(387.304688 0)"/>
     <use xlink:href="#DejaVuSans-Bold-6c" transform="translate(455.126953 0)"/>
     <use xlink:href="#DejaVuSans-Bold-64" transform="translate(489.404297 0)"/>
    </g>
   </g>
   <g id="Poly3DCollection_8">
    <path d="M 592.86585 488.004583 
L 478.443202 456.699548 
L 478.669066 479.93239 
L 591.950357 511.89691 
z
" clip-path="url(#pe0b7103d89)" style="fill: #2980b9; fill-opacity: 0.25; stroke: #1a5276; stroke-width: 0.6"/>
    <path d="M 478.443202 456.699548 
L 407.904431 512.65685 
L 408.87915 537.050126 
L 478.669066 479.93239 
z
" clip-path="url(#pe0b7103d89)" style="fill: #2980b9; fill-opacity: 0.25; stroke: #1a5276; stroke-width: 0.6"/>
    <path d="M 408.87915 537.050126 
L 527.877502 574.101428 
L 591.950357 511.89691 
L 478.669066 479.93239 
z
" clip-path="url(#pe0b7103d89)" style="fill: #2980b9; fill-opacity: 0.25; stroke: #1a5276; stroke-width: 0.6"/>
    <path d="M 407.904431 512.65685 
L 528.162969 548.999163 
L 592.86585 488.004583 
L 478.443202 456.699548 
z
" clip-path="url(#pe0b7103d89)" style="fill: #2980b9; fill-opacity: 0.25; stroke: #1a5276; stroke-width: 0.6"/>
    <path d="M 528.162969 548.999163 
L 592.86585 488.004583 
L 591.950357 511.89691 
L 527.877502 574.101428 
z
" clip-path="url(#pe0b7103d89)" style="fill: #2980b9; fill-opacity: 0.25; stroke: #1a5276; stroke-width: 0.6"/>
    <path d="M 407.904431 512.65685 
L 528.162969 548.999163 
L 527.877502 574.101428 
L 408.87915 537.050126 
z
" clip-path="url(#pe0b7103d89)" style="fill: #2980b9; fill-opacity: 0.25; stroke: #1a5276; stroke-width: 0.6"/>
   </g>
  </g>
  <g id="text_5">
   <!-- Fastener weld types (geometry.fastener_welds) -->
   <g transform="translate(139.388338 17.837812) scale(0.14 -0.14)">
    <defs>
     <path id="DejaVuSans-46" d="M 628 4666 
L 3309 4666 
L 3309 4134 
L 1259 4134 
L 1259 2759 
L 3109 2759 
L 3109 2228 
L 1259 2228 
L 1259 0 
L 628 0 
L 628 4666 
z
" transform="scale(0.015625)"/>
     <path id="DejaVuSans-61" d="M 2194 1759 
Q 1497 1759 1228 1600 
Q 959 1441 959 1056 
Q 959 750 1161 570 
Q 1363 391 1709 391 
Q 2188 391 2477 730 
Q 2766 1069 2766 1631 
L 2766 1759 
L 2194 1759 
z
M 3341 1997 
L 3341 0 
L 2766 0 
L 2766 531 
Q 2569 213 2275 61 
Q 1981 -91 1556 -91 
Q 1019 -91 701 211 
Q 384 513 384 1019 
Q 384 1609 779 1909 
Q 1175 2209 1959 2209 
L 2766 2209 
L 2766 2266 
Q 2766 2663 2505 2880 
Q 2244 3097 1772 3097 
Q 1472 3097 1187 3025 
Q 903 2953 641 2809 
L 641 3341 
Q 956 3463 1253 3523 
Q 1550 3584 1831 3584 
Q 2591 3584 2966 3190 
Q 3341 2797 3341 1997 
z
" transform="scale(0.015625)"/>
     <path id="DejaVuSans-73" d="M 2834 3397 
L 2834 2853 
Q 2591 2978 2328 3040 
Q 2066 3103 1784 3103 
Q 1356 3103 1142 2972 
Q 928 2841 928 2578 
Q 928 2378 1081 2264 
Q 1234 2150 1697 2047 
L 1894 2003 
Q 2506 1872 2764 1633 
Q 3022 1394 3022 966 
Q 3022 478 2636 193 
Q 2250 -91 1575 -91 
Q 1294 -91 989 -36 
Q 684 19 347 128 
L 347 722 
Q 666 556 975 473 
Q 1284 391 1588 391 
Q 1994 391 2212 530 
Q 2431 669 2431 922 
Q 2431 1156 2273 1281 
Q 2116 1406 1581 1522 
L 1381 1569 
Q 847 1681 609 1914 
Q 372 2147 372 2553 
Q 372 3047 722 3315 
Q 1072 3584 1716 3584 
Q 2034 3584 2315 3537 
Q 2597 3491 2834 3397 
z
" transform="scale(0.015625)"/>
     <path id="DejaVuSans-74" d="M 1172 4494 
L 1172 3500 
L 2356 3500 
L 2356 3053 
L 1172 3053 
L 1172 1153 
Q 1172 725 1289 603 
Q 1406 481 1766 481 
L 2356 481 
L 2356 0 
L 1766 0 
Q 1100 0 847 248 
Q 594 497 594 1153 
L 594 3053 
L 172 3053 
L 172 3500 
L 594 3500 
L 594 4494 
L 1172 4494 
z
" transform="scale(0.015625)"/>
     <path id="DejaVuSans-65" d="M 3597 1894 
L 3597 1613 
L 953 1613 
Q 991 1019 1311 708 
Q 1631 397 2203 397 
Q 2534 397 2845 478 
Q 3156 559 3463 722 
L 3463 178 
Q 3153 47 2828 -22 
Q 2503 -91 2169 -91 
Q 1331 -91 842 396 
Q 353 884 353 1716 
Q 353 2575 817 3079 
Q 1281 3584 2069 3584 
Q 2775 3584 3186 3129 
Q 3597 2675 3597 1894 
z
M 3022 2063 
Q 3016 2534 2758 2815 
Q 2500 3097 2075 3097 
Q 1594 3097 1305 2825 
Q 1016 2553 972 2059 
L 3022 2063 
z
" transform="scale(0.015625)"/>
     <path id="DejaVuSans-6e" d="M 3513 2113 
L 3513 0 
L 2938 0 
L 2938 2094 
Q 2938 2591 2744 2837 
Q 2550 3084 2163 3084 
Q 1697 3084 1428 2787 
Q 1159 2491 1159 1978 
L 1159 0 
L 581 0 
L 581 3500 
L 1159 3500 
L 1159 2956 
Q 1366 3272 1645 3428 
Q 1925 3584 2291 3584 
Q 2894 3584 3203 3211 
Q 3513 2838 3513 2113 
z
" transform="scale(0.015625)"/>
     <path id="DejaVuSans-72" d="M 2631 2963 
Q 2534 3019 2420 3045 
Q 2306 3072 2169 3072 
Q 1681 3072 1420 2755 
Q 1159 2438 1159 1844 
L 1159 0 
L 581 0 
L 581 3500 
L 1159 3500 
L 1159 2956 
Q 1341 3275 1631 3429 
Q 1922 3584 2338 3584 
Q 2397 3584 2469 3576 
Q 2541 3569 2628 3553 
L 2631 2963 
z
" transform="scale(0.015625)"/>
     <path id="DejaVuSans-20" transform="scale(0.015625)"/>
     <path id="DejaVuSans-77" d="M 269 3500 
L 844 3500 
L 1563 769 
L 2278 3500 
L 2956 3500 
L 3675 769 
L 4391 3500 
L 4966 3500 
L 4050 0 
L 3372 0 
L 2619 2869 
L 1863 0 
L 1184 0 
L 269 3500 
z
" transform="scale(0.015625)"/>
     <path id="DejaVuSans-6c" d="M 603 4863 
L 1178 4863 
L 1178 0 
L 603 0 
L 603 4863 
z
" transform="scale(0.015625)"/>
     <path id="DejaVuSans-64" d="M 2906 2969 
L 2906 4863 
L 3481 4863 
L 3481 0 
L 2906 0 
L 2906 525 
Q 2725 213 2448 61 
Q 2172 -91 1784 -91 
Q 1150 -91 751 415 
Q 353 922 353 1747 
Q 353 2572 751 3078 
Q 1150 3584 1784 3584 
Q 2172 3584 2448 3432 
Q 2725 3281 2906 2969 
z
M 947 1747 
Q 947 1113 1208 752 
Q 1469 391 1925 391 
Q 2381 391 2643 752 
Q 2906 1113 2906 1747 
Q 2906 2381 2643 2742 
Q 2381 3103 1925 3103 
Q 1469 3103 1208 2742 
Q 947 2381 947 1747 
z
" transform="scale(0.015625)"/>
     <path id="DejaVuSans-79" d="M 2059 -325 
Q 1816 -950 1584 -1140 
Q 1353 -1331 966 -1331 
L 506 -1331 
L 506 -850 
L 844 -850 
Q 1081 -850 1212 -737 
Q 1344 -625 1503 -206 
L 1606 56 
L 191 3500 
L 800 3500 
L 1894 763 
L 2988 3500 
L 3597 3500 
L 2059 -325 
z
" transform="scale(0.015625)"/>
     <path id="DejaVuSans-70" d="M 1159 525 
L 1159 -1331 
L 581 -1331 
L 581 3500 
L 1159 3500 
L 1159 2969 
Q 1341 3281 1617 3432 
Q 1894 3584 2278 3584 
Q 2916 3584 3314 3078 
Q 3713 2572 3713 1747 
Q 3713 922 3314 415 
Q 2916 -91 2278 -91 
Q 1894 -91 1617 61 
Q 1341 213 1159 525 
z
M 3116 1747 
Q 3116 2381 2855 2742 
Q 2594 3103 2138 3103 
Q 1681 3103 1420 2742 
Q 1159 2381 1159 1747 
Q 1159 1113 1420 752 
Q 1681 391 2138 391 
Q 2594 391 2855 752 
Q 3116 1113 3116 1747 
z
" transform="scale(0.015625)"/>
     <path id="DejaVuSans-28" d="M 1984 4856 
Q 1566 4138 1362 3434 
Q 1159 2731 1159 2009 
Q 1159 1288 1364 580 
Q 1569 -128 1984 -844 
L 1484 -844 
Q 1016 -109 783 600 
Q 550 1309 550 2009 
Q 550 2706 781 3412 
Q 1013 4119 1484 4856 
L 1984 4856 
z
" transform="scale(0.015625)"/>
     <path id="DejaVuSans-67" d="M 2906 1791 
Q 2906 2416 2648 2759 
Q 2391 3103 1925 3103 
Q 1463 3103 1205 2759 
Q 947 2416 947 1791 
Q 947 1169 1205 825 
Q 1463 481 1925 481 
Q 2391 481 2648 825 
Q 2906 1169 2906 1791 
z
M 3481 434 
Q 3481 -459 3084 -895 
Q 2688 -1331 1869 -1331 
Q 1566 -1331 1297 -1286 
Q 1028 -1241 775 -1147 
L 775 -588 
Q 1028 -725 1275 -790 
Q 1522 -856 1778 -856 
Q 2344 -856 2625 -561 
Q 2906 -266 2906 331 
L 2906 616 
Q 2728 306 2450 153 
Q 2172 0 1784 0 
Q 1141 0 747 490 
Q 353 981 353 1791 
Q 353 2603 747 3093 
Q 1141 3584 1784 3584 
Q 2172 3584 2450 3431 
Q 2728 3278 2906 2969 
L 2906 3500 
L 3481 3500 
L 3481 434 
z
" transform="scale(0.015625)"/>
     <path id="DejaVuSans-6f" d="M 1959 3097 
Q 1497 3097 1228 2736 
Q 959 2375 959 1747 
Q 959 1119 1226 758 
Q 1494 397 1959 397 
Q 2419 397 2687 759 
Q 2956 1122 2956 1747 
Q 2956 2369 2687 2733 
Q 2419 3097 1959 3097 
z
M 1959 3584 
Q 2709 3584 3137 3096 
Q 3566 2609 3566 1747 
Q 3566 888 3137 398 
Q 2709 -91 1959 -91 
Q 1206 -91 779 398 
Q 353 888 353 1747 
Q 353 2609 779 3096 
Q 1206 3584 1959 3584 
z
" transform="scale(0.015625)"/>
     <path id="DejaVuSans-6d" d="M 3328 2828 
Q 3544 3216 3844 3400 
Q 4144 3584 4550 3584 
Q 5097 3584 5394 3201 
Q 5691 2819 5691 2113 
L 5691 0 
L 5113 0 
L 5113 2094 
Q 5113 2597 4934 2840 
Q 4756 3084 4391 3084 
Q 3944 3084 3684 2787 
Q 3425 2491 3425 1978 
L 3425 0 
L 2847 0 
L 2847 2094 
Q 2847 2600 2669 2842 
Q 2491 3084 2119 3084 
Q 1678 3084 1418 2786 
Q 1159 2488 1159 1978 
L 1159 0 
L 581 0 
L 581 3500 
L 1159 3500 
L 1159 2956 
Q 1356 3278 1631 3431 
Q 1906 3584 2284 3584 
Q 2666 3584 2933 3390 
Q 3200 3197 3328 2828 
z
" transform="scale(0.015625)"/>
     <path id="DejaVuSans-2e" d="M 684 794 
L 1344 794 
L 1344 0 
L 684 0 
L 684 794 
z
" transform="scale(0.015625)"/>
     <path id="DejaVuSans-66" d="M 2375 4863 
L 2375 4384 
L 1825 4384 
Q 1516 4384 1395 4259 
Q 1275 4134 1275 3809 
L 1275 3500 
L 2222 3500 
L 2222 3053 
L 1275 3053 
L 1275 0 
L 697 0 
L 697 3053 
L 147 3053 
L 147 3500 
L 697 3500 
L 697 3744 
Q 697 4328 969 4595 
Q 1241 4863 1831 4863 
L 2375 4863 
z
" transform="scale(0.015625)"/>
     <path id="DejaVuSans-5f" d="M 3263 -1063 
L 3263 -1509 
L -63 -1509 
L -63 -1063 
L 3263 -1063 
z
" transform="scale(0.015625)"/>
     <path id="DejaVuSans-29" d="M 513 4856 
L 1013 4856 
Q 1481 4119 1714 3412 
Q 1947 2706 1947 2009 
Q 1947 1309 1714 600 
Q 1481 -109 1013 -844 
L 513 -844 
Q 928 -128 1133 580 
Q 1338 1288 1338 2009 
Q 1338 2731 1133 3434 
Q 928 4138 513 4856 
z
" transform="scale(0.015625)"/>
    </defs>
    <use xlink:href="#DejaVuSans-46"/>
    <use xlink:href="#DejaVuSans-61" transform="translate(48.394531 0)"/>
    <use xlink:href="#DejaVuSans-73" transform="translate(109.673828 0)"/>
    <use xlink:href="#DejaVuSans-74" transform="translate(161.773438 0)"/>
    <use xlink:href="#DejaVuSans-65" transform="translate(200.982422 0)"/>
    <use xlink:href="#DejaVuSans-6e" transform="translate(262.505859 0)"/>
    <use xlink:href="#DejaVuSans-65" transform="translate(325.884766 0)"/>
    <use xlink:href="#DejaVuSans-72" transform="translate(387.408203 0)"/>
    <use xlink:href="#DejaVuSans-20" transform="translate(428.521484 0)"/>
    <use xlink:href="#DejaVuSans-77" transform="translate(460.308594 0)"/>
    <use xlink:href="#DejaVuSans-65" transform="translate(542.095703 0)"/>
    <use xlink:href="#DejaVuSans-6c" transform="translate(603.619141 0)"/>
    <use xlink:href="#DejaVuSans-64" transform="translate(631.402344 0)"/>
    <use xlink:href="#DejaVuSans-20" transform="translate(694.878906 0)"/>
    <use xlink:href="#DejaVuSans-74" transform="translate(726.666016 0)"/>
    <use xlink:href="#DejaVuSans-79" transform="translate(765.875 0)"/>
    <use xlink:href="#DejaVuSans-70" transform="translate(825.054688 0)"/>
    <use xlink:href="#DejaVuSans-65" transform="translate(888.53125 0)"/>
    <use xlink:href="#DejaVuSans-73" transform="translate(950.054688 0)"/>
    <use xlink:href="#DejaVuSans-20" transform="translate(1002.154297 0)"/>
    <use xlink:href="#DejaVuSans-28" transform="translate(1033.941406 0)"/>
    <use xlink:href="#DejaVuSans-67" transform="translate(1072.955078 0)"/>
    <use xlink:href="#DejaVuSans-65" transform="translate(1136.431641 0)"/>
    <use xlink:href="#DejaVuSans-6f" transform="translate(1197.955078 0)"/>
    <use xlink:href="#DejaVuSans-6d" transform="translate(1259.136719 0)"/>
    <use xlink:href="#DejaVuSans-65" transform="translate(1356.548828 0)"/>
    <use xlink:href="#DejaVuSans-74" transform="translate(1418.072266 0)"/>
    <use xlink:href="#DejaVuSans-72" transform="translate(1457.28125 0)"/>
    <use xlink:href="#DejaVuSans-79" transform="translate(1498.394531 0)"/>
    <use xlink:href="#DejaVuSans-2e" transform="translate(1543.324219 0)"/>
    <use xlink:href="#DejaVuSans-66" transform="translate(1575.111328 0)"/>
    <use xlink:href="#DejaVuSans-61" transform="translate(1610.316406 0)"/>
    <use xlink:href="#DejaVuSans-73" transform="translate(1671.595703 0)"/>
    <use xlink:href="#DejaVuSans-74" transform="translate(1723.695312 0)"/>
    <use xlink:href="#DejaVuSans-65" transform="translate(1762.904297 0)"/>
    <use xlink:href="#DejaVuSans-6e" transform="translate(1824.427734 0)"/>
    <use xlink:href="#DejaVuSans-65" transform="translate(1887.806641 0)"/>
    <use xlink:href="#DejaVuSans-72" transform="translate(1949.330078 0)"/>
    <use xlink:href="#DejaVuSans-5f" transform="translate(1990.443359 0)"/>
    <use xlink:href="#DejaVuSans-77" transform="translate(2040.443359 0)"/>
    <use xlink:href="#DejaVuSans-65" transform="translate(2122.230469 0)"/>
    <use xlink:href="#DejaVuSans-6c" transform="translate(2183.753906 0)"/>
    <use xlink:href="#DejaVuSans-64" transform="translate(2211.537109 0)"/>
    <use xlink:href="#DejaVuSans-73" transform="translate(2275.013672 0)"/>
    <use xlink:href="#DejaVuSans-29" transform="translate(2327.113281 0)"/>
   </g>
  </g>
 </g>
 <defs>
  <clipPath id="p2fbd6bfb88">
   <rect x="7.2" y="79.2" width="252" height="252"/>
  </clipPath>
  <clipPath id="pdb7b7fc80b">
   <rect x="372.436364" y="79.2" width="252" height="252"/>
  </clipPath>
  <clipPath id="p6f9a06ae6d">
   <rect x="7.2" y="381.6" width="252" height="252"/>
  </clipPath>
  <clipPath id="pe0b7103d89">
   <rect x="372.436364" y="381.6" width="252" height="252"/>
  </clipPath>
 </defs>
</svg>
