<?xml version="1.0" encoding="utf-8" standalone="no"?>
<!DOCTYPE svg PUBLIC "-//W3C//DTD SVG 1.1//EN"
  "http://www.w3.org/Graphics/SVG/1.1/DTD/svg11.dtd">
<svg xmlns:xlink="http://www.w3.org/1999/xlink" width="480.72pt" height="352.637812pt" viewBox="0 0 480.72 352.637812" xmlns="http://www.w3.org/2000/svg" version="1.1">
 <metadata>
  <rdf:RDF xmlns:dc="http://purl.org/dc/elements/1.1/" xmlns:cc="http://creativecommons.org/ns#" xmlns:rdf="http://www.w3.org/1999/02/22-rdf-syntax-ns#">
   <cc:Work>
    <dc:type rdf:resource="http://purl.org/dc/dcmitype/StillImage"/>
    <dc:date>2026-04-05T18:16:38.224597</dc:date>
    <dc:format>image/svg+xml</dc:format>
    <dc:creator>
     <cc:Agent>
      <dc:title>Matplotlib v3.10.8, https://matplotlib.org/</dc:title>
     </cc:Agent>
    </dc:creator>
   </cc:Work>
  </rdf:RDF>
 </metadata>
 <defs>
  <style type="text/css">*{stroke-linejoin: round; stroke-linecap: butt}</style>
 </defs>
 <g id="figure_1">
  <g id="patch_1">
   <path d="M -0 352.637812 
L 480.72 352.637812 
L 480.72 0 
L -0 0 
z
" style="fill: #fafafa"/>
  </g>
  <g id="axes_1">
   <g id="patch_2">
    <path d="M 248.4 313.277812 
C 299.57359 313.277812 348.658132 299.723491 384.843324 275.600029 
C 421.028517 251.476567 441.36 218.753539 441.36 184.637812 
C 441.36 150.522086 421.028517 117.799058 384.843324 93.675596 
C 348.658132 69.552134 299.57359 55.997812 248.4 55.997812 
C 197.22641 55.997812 148.141868 69.552134 111.956676 93.675596 
C 75.771483 117.799058 55.44 150.522086 55.44 184.637812 
C 55.44 218.753539 75.771483 251.476567 111.956676 275.600029 
C 148.141868 299.723491 197.22641 313.277812 248.4 313.277812 
z
" clip-path="url(#pc4f30cfce7)" style="fill: #ffeaa7; opacity: 0.5; stroke-dasharray: 7.4,3.2; stroke-dashoffset: 0; stroke: #f39c12; stroke-width: 2; stroke-linejoin: miter"/>
   </g>
   <g id="patch_3">
    <path d="M 248.4 313.277812 
C 273.986795 313.277812 298.529066 299.723491 316.621662 275.600029 
C 334.714259 251.476567 344.88 218.753539 344.88 184.637812 
C 344.88 150.522086 334.714259 117.799058 316.621662 93.675596 
C 298.529066 69.552134 273.986795 55.997812 248.4 55.997812 
C 222.813205 55.997812 198.270934 69.552134 180.178338 93.675596 
C 162.085741 117.799058 151.92 150.522086 151.92 184.637812 
C 151.92 218.753539 162.085741 251.476567 180.178338 275.600029 
C 198.270934 299.723491 222.813205 313.277812 248.4 313.277812 
z
" clip-path="url(#pc4f30cfce7)" style="fill: #fab1a0; opacity: 0.6; stroke: #e74c3c; stroke-width: 2; stroke-linejoin: miter"/>
   </g>
   <g id="patch_4">
    <path d="M 248.4 252.173812 
C 266.310757 252.173812 283.490346 245.057793 296.155164 232.392976 
C 308.819981 219.728159 315.936 202.548569 315.936 184.637812 
C 315.936 166.727056 308.819981 149.547466 296.155164 136.882649 
C 283.490346 124.217832 266.310757 117.101812 248.4 117.101812 
C 230.489243 117.101812 213.309654 124.217832 200.644836 136.882649 
C 187.980019 149.547466 180.864 166.727056 180.864 184.637812 
C 180.864 202.548569 187.980019 219.728159 200.644836 232.392976 
C 213.309654 245.057793 230.489243 252.173812 248.4 252.173812 
z
" clip-path="url(#pc4f30cfce7)" style="fill: #e74c3c; opacity: 0.21; stroke: #e74c3c; stroke-linejoin: miter"/>
   </g>
   <g id="patch_5">
    <path d="M 248.4 232.877812 
C 261.193398 232.877812 273.464533 227.794942 282.510831 218.748644 
C 291.557129 209.702345 296.64 197.43121 296.64 184.637812 
C 296.64 171.844415 291.557129 159.57328 282.510831 150.526981 
C 273.464533 141.480683 261.193398 136.397812 248.4 136.397812 
C 235.606602 136.397812 223.335467 141.480683 214.289169 150.526981 
C 205.242871 159.57328 200.16 171.844415 200.16 184.637812 
C 200.16 197.43121 205.242871 209.702345 214.289169 218.748644 
C 223.335467 227.794942 235.606602 232.877812 248.4 232.877812 
z
" clip-path="url(#pc4f30cfce7)" style="fill: #e74c3c; opacity: 0.25; stroke: #e74c3c; stroke-linejoin: miter"/>
   </g>
   <g id="patch_6">
    <path d="M 248.4 213.581812 
C 256.076039 213.581812 263.43872 210.53209 268.866499 205.104311 
C 274.294278 199.676532 277.344 192.313851 277.344 184.637812 
C 277.344 176.961774 274.294278 169.599093 268.866499 164.171314 
C 263.43872 158.743535 256.076039 155.693812 248.4 155.693812 
C 240.723961 155.693812 233.36128 158.743535 227.933501 164.171314 
C 222.505722 169.599093 219.456 176.961774 219.456 184.637812 
C 219.456 192.313851 222.505722 199.676532 227.933501 205.104311 
C 233.36128 210.53209 240.723961 213.581812 248.4 213.581812 
z
" clip-path="url(#pc4f30cfce7)" style="fill: #e74c3c; opacity: 0.29; stroke: #e74c3c; stroke-linejoin: miter"/>
   </g>
   <g id="patch_7">
    <path d="M 248.4 194.285812 
C 250.95868 194.285812 253.412907 193.269238 255.222166 191.459979 
C 257.031426 189.650719 258.048 187.196492 258.048 184.637812 
C 258.048 182.079133 257.031426 179.624906 255.222166 177.815646 
C 253.412907 176.006387 250.95868 174.989812 248.4 174.989812 
C 245.84132 174.989812 243.387093 176.006387 241.577834 177.815646 
C 239.768574 179.624906 238.752 182.079133 238.752 184.637812 
C 238.752 187.196492 239.768574 189.650719 241.577834 191.459979 
C 243.387093 193.269238 245.84132 194.285812 248.4 194.285812 
z
" clip-path="url(#pc4f30cfce7)" style="fill: #e74c3c; opacity: 0.33; stroke: #e74c3c; stroke-linejoin: miter"/>
   </g>
   <g id="text_1">
    <!-- q_max -->
    <g style="fill: #1a5276" transform="translate(256.44 176.597812) scale(0.09 -0.09)">
     <defs>
      <path id="DejaVuSans-Bold-71" d="M 2181 2772 
Q 1825 2772 1636 2509 
Q 1447 2247 1447 1747 
Q 1447 1247 1636 984 
Q 1825 722 2181 722 
Q 2541 722 2730 984 
Q 2919 1247 2919 1747 
Q 2919 2247 2730 2509 
Q 2541 2772 2181 2772 
z
M 2919 506 
Q 2688 197 2409 53 
Q 2131 -91 1766 -91 
Q 1119 -91 703 423 
Q 288 938 288 1747 
Q 288 2556 703 3067 
Q 1119 3578 1766 3578 
Q 2131 3578 2409 3434 
Q 2688 3291 2919 2981 
L 2919 3500 
L 4044 3500 
L 4044 -1331 
L 2919 -1331 
L 2919 506 
z
" transform="scale(0.015625)"/>
      <path id="DejaVuSans-Bold-5f" d="M 3200 -916 
L 3200 -1509 
L 0 -1509 
L 0 -916 
L 3200 -916 
z
" transform="scale(0.015625)"/>
      <path id="DejaVuSans-Bold-6d" d="M 3781 2919 
Q 3994 3244 4286 3414 
Q 4578 3584 4928 3584 
Q 5531 3584 5847 3212 
Q 6163 2841 6163 2131 
L 6163 0 
L 5038 0 
L 5038 1825 
Q 5041 1866 5042 1909 
Q 5044 1953 5044 2034 
Q 5044 2406 4934 2573 
Q 4825 2741 4581 2741 
Q 4263 2741 4089 2478 
Q 3916 2216 3909 1719 
L 3909 0 
L 2784 0 
L 2784 1825 
Q 2784 2406 2684 2573 
Q 2584 2741 2328 2741 
Q 2006 2741 1831 2477 
Q 1656 2213 1656 1722 
L 1656 0 
L 531 0 
L 531 3500 
L 1656 3500 
L 1656 2988 
Q 1863 3284 2130 3434 
Q 2397 3584 2719 3584 
Q 3081 3584 3359 3409 
Q 3638 3234 3781 2919 
z
" transform="scale(0.015625)"/>
      <path id="DejaVuSans-Bold-61" d="M 2106 1575 
Q 1756 1575 1579 1456 
Q 1403 1338 1403 1106 
Q 1403 894 1545 773 
Q 1688 653 1941 653 
Q 2256 653 2472 879 
Q 2688 1106 2688 1447 
L 2688 1575 
L 2106 1575 
z
M 3816 1997 
L 3816 0 
L 2688 0 
L 2688 519 
Q 2463 200 2181 54 
Q 1900 -91 1497 -91 
Q 953 -91 614 226 
Q 275 544 275 1050 
Q 275 1666 698 1953 
Q 1122 2241 2028 2241 
L 2688 2241 
L 2688 2328 
Q 2688 2594 2478 2717 
Q 2269 2841 1825 2841 
Q 1466 2841 1156 2769 
Q 847 2697 581 2553 
L 581 3406 
Q 941 3494 1303 3539 
Q 1666 3584 2028 3584 
Q 2975 3584 3395 3211 
Q 3816 2838 3816 1997 
z
" transform="scale(0.015625)"/>
      <path id="DejaVuSans-Bold-78" d="M 1422 1791 
L 159 3500 
L 1344 3500 
L 2059 2463 
L 2784 3500 
L 3969 3500 
L 2706 1797 
L 4031 0 
L 2847 0 
L 2059 1106 
L 1281 0 
L 97 0 
L 1422 1791 
z
" transform="scale(0.015625)"/>
     </defs>
     <use xlink:href="#DejaVuSans-Bold-71"/>
     <use xlink:href="#DejaVuSans-Bold-5f" transform="translate(71.582031 0)"/>
     <use xlink:href="#DejaVuSans-Bold-6d" transform="translate(121.582031 0)"/>
     <use xlink:href="#DejaVuSans-Bold-61" transform="translate(225.78125 0)"/>
     <use xlink:href="#DejaVuSans-Bold-78" transform="translate(293.261719 0)"/>
    </g>
   </g>
   <g id="patch_8">
    <path d="M 252.076255 184.637812 
Q 296.64053 184.637812 341.204805 184.637812 
" style="fill: none; stroke: #1a5276; stroke-width: 1.5; stroke-linecap: round"/>
    <path d="M 256.076255 186.637812 
L 252.076255 184.637812 
L 256.076255 182.637812 
" style="fill: none; stroke: #1a5276; stroke-width: 1.5; stroke-linecap: round"/>
    <path d="M 337.204805 182.637812 
L 341.204805 184.637812 
L 337.204805 186.637812 
" style="fill: none; stroke: #1a5276; stroke-width: 1.5; stroke-linecap: round"/>
   </g>
   <g id="text_2">
    <!-- $a_f$ -->
    <g style="fill: #1a5276" transform="translate(291.745 197.501812) scale(0.11 -0.11)">
     <defs>
      <path id="DejaVuSans-Oblique-61" d="M 3438 1997 
L 3047 0 
L 2472 0 
L 2578 531 
Q 2325 219 2001 64 
Q 1678 -91 1281 -91 
Q 834 -91 548 182 
Q 263 456 263 884 
Q 263 1497 752 1853 
Q 1241 2209 2100 2209 
L 2900 2209 
L 2931 2363 
Q 2938 2388 2941 2417 
Q 2944 2447 2944 2509 
Q 2944 2788 2717 2942 
Q 2491 3097 2081 3097 
Q 1800 3097 1504 3025 
Q 1209 2953 897 2809 
L 997 3341 
Q 1322 3463 1633 3523 
Q 1944 3584 2234 3584 
Q 2853 3584 3176 3315 
Q 3500 3047 3500 2534 
Q 3500 2431 3484 2292 
Q 3469 2153 3438 1997 
z
M 2816 1759 
L 2241 1759 
Q 1534 1759 1195 1570 
Q 856 1381 856 984 
Q 856 709 1029 553 
Q 1203 397 1509 397 
Q 1978 397 2328 733 
Q 2678 1069 2791 1631 
L 2816 1759 
z
" transform="scale(0.015625)"/>
      <path id="DejaVuSans-Oblique-66" d="M 3059 4863 
L 2969 4384 
L 2419 4384 
Q 2106 4384 1964 4261 
Q 1822 4138 1753 3809 
L 1691 3500 
L 2638 3500 
L 2553 3053 
L 1606 3053 
L 1013 0 
L 434 0 
L 1031 3053 
L 481 3053 
L 563 3500 
L 1113 3500 
L 1159 3744 
Q 1278 4363 1576 4613 
Q 1875 4863 2516 4863 
L 3059 4863 
z
" transform="scale(0.015625)"/>
     </defs>
     <use xlink:href="#DejaVuSans-Oblique-61"/>
     <use xlink:href="#DejaVuSans-Oblique-66" transform="translate(61.279297 -16.40625) scale(0.7)"/>
    </g>
   </g>
   <g id="patch_9">
    <path d="M 244.723745 184.637812 
Q 151.921299 184.637812 59.118853 184.637812 
" style="fill: none; stroke: #1a5276; stroke-width: 1.5; stroke-linecap: round"/>
    <path d="M 240.723745 182.637812 
L 244.723745 184.637812 
L 240.723745 186.637812 
" style="fill: none; stroke: #1a5276; stroke-width: 1.5; stroke-linecap: round"/>
    <path d="M 63.118853 186.637812 
L 59.118853 184.637812 
L 63.118853 182.637812 
" style="fill: none; stroke: #1a5276; stroke-width: 1.5; stroke-linecap: round"/>
   </g>
   <g id="text_3">
    <!-- $a_r$ -->
    <g style="fill: #1a5276" transform="translate(146.805 197.501812) scale(0.11 -0.11)">
     <defs>
      <path id="DejaVuSans-Oblique-72" d="M 2853 2969 
Q 2766 3016 2653 3041 
Q 2541 3066 2413 3066 
Q 1953 3066 1609 2717 
Q 1266 2369 1153 1784 
L 800 0 
L 225 0 
L 909 3500 
L 1484 3500 
L 1375 2956 
Q 1603 3259 1920 3421 
Q 2238 3584 2597 3584 
Q 2691 3584 2781 3573 
Q 2872 3563 2963 3538 
L 2853 2969 
z
" transform="scale(0.015625)"/>
     </defs>
     <use xlink:href="#DejaVuSans-Oblique-61"/>
     <use xlink:href="#DejaVuSans-Oblique-72" transform="translate(61.279297 -16.40625) scale(0.7)"/>
    </g>
   </g>
   <g id="patch_10">
    <path d="M 248.4 180.962539 
Q 248.4 120.317752 248.4 59.672965 
" style="fill: none; stroke: #2980b9; stroke-width: 1.5; stroke-linecap: round"/>
    <path d="M 250.4 176.962539 
L 248.4 180.962539 
L 246.4 176.962539 
" style="fill: none; stroke: #2980b9; stroke-width: 1.5; stroke-linecap: round"/>
    <path d="M 246.4 63.672965 
L 248.4 59.672965 
L 250.4 63.672965 
" style="fill: none; stroke: #2980b9; stroke-width: 1.5; stroke-linecap: round"/>
   </g>
   <g id="text_4">
    <!-- $b$ -->
    <g style="fill: #2980b9" transform="translate(261.264 120.317812) scale(0.11 -0.11)">
     <defs>
      <path id="DejaVuSans-Oblique-62" d="M 3169 2138 
Q 3169 2591 2961 2847 
Q 2753 3103 2388 3103 
Q 2122 3103 1889 2973 
Q 1656 2844 1484 2597 
Q 1303 2338 1198 1995 
Q 1094 1653 1094 1313 
Q 1094 881 1298 636 
Q 1503 391 1863 391 
Q 2134 391 2365 517 
Q 2597 644 2772 891 
Q 2950 1147 3059 1487 
Q 3169 1828 3169 2138 
z
M 1381 2969 
Q 1594 3256 1914 3420 
Q 2234 3584 2584 3584 
Q 3122 3584 3439 3221 
Q 3756 2859 3756 2241 
Q 3756 1734 3570 1259 
Q 3384 784 3041 416 
Q 2816 172 2522 40 
Q 2228 -91 1906 -91 
Q 1566 -91 1316 65 
Q 1066 222 909 531 
L 806 0 
L 231 0 
L 1178 4863 
L 1753 4863 
L 1381 2969 
z
" transform="scale(0.015625)"/>
     </defs>
     <use xlink:href="#DejaVuSans-Oblique-62" transform="translate(0 0.015625)"/>
    </g>
   </g>
   <g id="patch_11">
    <path d="M 402.978165 184.637812 
Q 399.047896 184.637812 397.353694 184.637812 
" style="fill: none; stroke: #7f8c8d; stroke-width: 2; stroke-linecap: round"/>
    <path d="M 401.353694 186.637812 
L 397.353694 184.637812 
L 401.353694 182.637812 
z
" style="fill: #7f8c8d; stroke: #7f8c8d; stroke-width: 2; stroke-linecap: round"/>
   </g>
   <g id="text_5">
    <!-- Travel direction -->
    <g style="fill: #7f8c8d" transform="translate(360.96 187.397187) scale(0.1 -0.1)">
     <defs>
      <path id="DejaVuSans-Bold-54" d="M 31 4666 
L 4331 4666 
L 4331 3756 
L 2784 3756 
L 2784 0 
L 1581 0 
L 1581 3756 
L 31 3756 
L 31 4666 
z
" transform="scale(0.015625)"/>
      <path id="DejaVuSans-Bold-72" d="M 3138 2547 
Q 2991 2616 2845 2648 
Q 2700 2681 2553 2681 
Q 2122 2681 1889 2404 
Q 1656 2128 1656 1613 
L 1656 0 
L 538 0 
L 538 3500 
L 1656 3500 
L 1656 2925 
Q 1872 3269 2151 3426 
Q 2431 3584 2822 3584 
Q 2878 3584 2943 3579 
Q 3009 3575 3134 3559 
L 3138 2547 
z
" transform="scale(0.015625)"/>
      <path id="DejaVuSans-Bold-76" d="M 97 3500 
L 1216 3500 
L 2088 1081 
L 2956 3500 
L 4078 3500 
L 2700 0 
L 1472 0 
L 97 3500 
z
" transform="scale(0.015625)"/>
      <path id="DejaVuSans-Bold-65" d="M 4031 1759 
L 4031 1441 
L 1416 1441 
Q 1456 1047 1700 850 
Q 1944 653 2381 653 
Q 2734 653 3104 758 
Q 3475 863 3866 1075 
L 3866 213 
Q 3469 63 3072 -14 
Q 2675 -91 2278 -91 
Q 1328 -91 801 392 
Q 275 875 275 1747 
Q 275 2603 792 3093 
Q 1309 3584 2216 3584 
Q 3041 3584 3536 3087 
Q 4031 2591 4031 1759 
z
M 2881 2131 
Q 2881 2450 2695 2645 
Q 2509 2841 2209 2841 
Q 1884 2841 1681 2658 
Q 1478 2475 1428 2131 
L 2881 2131 
z
" transform="scale(0.015625)"/>
      <path id="DejaVuSans-Bold-6c" d="M 538 4863 
L 1656 4863 
L 1656 0 
L 538 0 
L 538 4863 
z
" transform="scale(0.015625)"/>
      <path id="DejaVuSans-Bold-20" transform="scale(0.015625)"/>
      <path id="DejaVuSans-Bold-64" d="M 2919 2988 
L 2919 4863 
L 4044 4863 
L 4044 0 
L 2919 0 
L 2919 506 
Q 2688 197 2409 53 
Q 2131 -91 1766 -91 
Q 1119 -91 703 423 
Q 288 938 288 1747 
Q 288 2556 703 3070 
Q 1119 3584 1766 3584 
Q 2128 3584 2408 3439 
Q 2688 3294 2919 2988 
z
M 2181 722 
Q 2541 722 2730 984 
Q 2919 1247 2919 1747 
Q 2919 2247 2730 2509 
Q 2541 2772 2181 2772 
Q 1825 2772 1636 2509 
Q 1447 2247 1447 1747 
Q 1447 1247 1636 984 
Q 1825 722 2181 722 
z
" transform="scale(0.015625)"/>
      <path id="DejaVuSans-Bold-69" d="M 538 3500 
L 1656 3500 
L 1656 0 
L 538 0 
L 538 3500 
z
M 538 4863 
L 1656 4863 
L 1656 3950 
L 538 3950 
L 538 4863 
z
" transform="scale(0.015625)"/>
      <path id="DejaVuSans-Bold-63" d="M 3366 3391 
L 3366 2478 
Q 3138 2634 2908 2709 
Q 2678 2784 2431 2784 
Q 1963 2784 1702 2511 
Q 1441 2238 1441 1747 
Q 1441 1256 1702 982 
Q 1963 709 2431 709 
Q 2694 709 2930 787 
Q 3166 866 3366 1019 
L 3366 103 
Q 3103 6 2833 -42 
Q 2563 -91 2291 -91 
Q 1344 -91 809 395 
Q 275 881 275 1747 
Q 275 2613 809 3098 
Q 1344 3584 2291 3584 
Q 2566 3584 2833 3536 
Q 3100 3488 3366 3391 
z
" transform="scale(0.015625)"/>
      <path id="DejaVuSans-Bold-74" d="M 1759 4494 
L 1759 3500 
L 2913 3500 
L 2913 2700 
L 1759 2700 
L 1759 1216 
Q 1759 972 1856 886 
Q 1953 800 2241 800 
L 2816 800 
L 2816 0 
L 1856 0 
Q 1194 0 917 276 
Q 641 553 641 1216 
L 641 2700 
L 84 2700 
L 84 3500 
L 641 3500 
L 641 4494 
L 1759 4494 
z
" transform="scale(0.015625)"/>
      <path id="DejaVuSans-Bold-6f" d="M 2203 2784 
Q 1831 2784 1636 2517 
Q 1441 2250 1441 1747 
Q 1441 1244 1636 976 
Q 1831 709 2203 709 
Q 2569 709 2762 976 
Q 2956 1244 2956 1747 
Q 2956 2250 2762 2517 
Q 2569 2784 2203 2784 
z
M 2203 3584 
Q 3106 3584 3614 3096 
Q 4122 2609 4122 1747 
Q 4122 884 3614 396 
Q 3106 -91 2203 -91 
Q 1297 -91 786 396 
Q 275 884 275 1747 
Q 275 2609 786 3096 
Q 1297 3584 2203 3584 
z
" transform="scale(0.015625)"/>
      <path id="DejaVuSans-Bold-6e" d="M 4056 2131 
L 4056 0 
L 2931 0 
L 2931 347 
L 2931 1631 
Q 2931 2084 2911 2256 
Q 2891 2428 2841 2509 
Q 2775 2619 2662 2680 
Q 2550 2741 2406 2741 
Q 2056 2741 1856 2470 
Q 1656 2200 1656 1722 
L 1656 0 
L 538 0 
L 538 3500 
L 1656 3500 
L 1656 2988 
Q 1909 3294 2193 3439 
Q 2478 3584 2822 3584 
Q 3428 3584 3742 3212 
Q 4056 2841 4056 2131 
z
" transform="scale(0.015625)"/>
     </defs>
     <use xlink:href="#DejaVuSans-Bold-54"/>
     <use xlink:href="#DejaVuSans-Bold-72" transform="translate(57.212891 0)"/>
     <use xlink:href="#DejaVuSans-Bold-61" transform="translate(106.529297 0)"/>
     <use xlink:href="#DejaVuSans-Bold-76" transform="translate(174.009766 0)"/>
     <use xlink:href="#DejaVuSans-Bold-65" transform="translate(239.195312 0)"/>
     <use xlink:href="#DejaVuSans-Bold-6c" transform="translate(307.017578 0)"/>
     <use xlink:href="#DejaVuSans-Bold-20" transform="translate(341.294922 0)"/>
     <use xlink:href="#DejaVuSans-Bold-64" transform="translate(376.109375 0)"/>
     <use xlink:href="#DejaVuSans-Bold-69" transform="translate(447.691406 0)"/>
     <use xlink:href="#DejaVuSans-Bold-72" transform="translate(481.96875 0)"/>
     <use xlink:href="#DejaVuSans-Bold-65" transform="translate(531.285156 0)"/>
     <use xlink:href="#DejaVuSans-Bold-63" transform="translate(599.107422 0)"/>
     <use xlink:href="#DejaVuSans-Bold-74" transform="translate(658.384766 0)"/>
     <use xlink:href="#DejaVuSans-Bold-69" transform="translate(706.1875 0)"/>
     <use xlink:href="#DejaVuSans-Bold-6f" transform="translate(740.464844 0)"/>
     <use xlink:href="#DejaVuSans-Bold-6e" transform="translate(809.166016 0)"/>
    </g>
   </g>
   <g id="text_6">
    <!-- Front -->
    <g style="fill: #e74c3c; opacity: 0.8" transform="translate(295.792375 104.927562) scale(0.08 -0.08)">
     <defs>
      <path id="DejaVuSans-Oblique-46" d="M 1081 4666 
L 3756 4666 
L 3653 4134 
L 1606 4134 
L 1338 2759 
L 3188 2759 
L 3084 2228 
L 1234 2228 
L 800 0 
L 172 0 
L 1081 4666 
z
" transform="scale(0.015625)"/>
      <path id="DejaVuSans-Oblique-6f" d="M 1625 -91 
Q 1009 -91 651 289 
Q 294 669 294 1325 
Q 294 1706 417 2101 
Q 541 2497 738 2766 
Q 1047 3184 1428 3384 
Q 1809 3584 2291 3584 
Q 2888 3584 3255 3212 
Q 3622 2841 3622 2241 
Q 3622 1825 3500 1412 
Q 3378 1000 3181 728 
Q 2875 309 2494 109 
Q 2113 -91 1625 -91 
z
M 891 1344 
Q 891 869 1089 633 
Q 1288 397 1691 397 
Q 2269 397 2648 901 
Q 3028 1406 3028 2181 
Q 3028 2634 2825 2865 
Q 2622 3097 2228 3097 
Q 1903 3097 1650 2945 
Q 1397 2794 1197 2484 
Q 1050 2253 970 1956 
Q 891 1659 891 1344 
z
" transform="scale(0.015625)"/>
      <path id="DejaVuSans-Oblique-6e" d="M 3566 2113 
L 3156 0 
L 2578 0 
L 2988 2091 
Q 3016 2238 3031 2350 
Q 3047 2463 3047 2528 
Q 3047 2791 2881 2937 
Q 2716 3084 2419 3084 
Q 1956 3084 1622 2776 
Q 1288 2469 1184 1941 
L 800 0 
L 225 0 
L 903 3500 
L 1478 3500 
L 1363 2950 
Q 1603 3253 1940 3418 
Q 2278 3584 2650 3584 
Q 3113 3584 3367 3334 
Q 3622 3084 3622 2631 
Q 3622 2519 3608 2391 
Q 3594 2263 3566 2113 
z
" transform="scale(0.015625)"/>
      <path id="DejaVuSans-Oblique-74" d="M 2706 3500 
L 2619 3053 
L 1472 3053 
L 1100 1153 
Q 1081 1047 1072 975 
Q 1063 903 1063 863 
Q 1063 663 1183 572 
Q 1303 481 1569 481 
L 2150 481 
L 2053 0 
L 1503 0 
Q 991 0 739 200 
Q 488 400 488 806 
Q 488 878 497 964 
Q 506 1050 525 1153 
L 897 3053 
L 409 3053 
L 500 3500 
L 978 3500 
L 1172 4494 
L 1747 4494 
L 1556 3500 
L 2706 3500 
z
" transform="scale(0.015625)"/>
     </defs>
     <use xlink:href="#DejaVuSans-Oblique-46"/>
     <use xlink:href="#DejaVuSans-Oblique-72" transform="translate(57.519531 0)"/>
     <use xlink:href="#DejaVuSans-Oblique-6f" transform="translate(98.632812 0)"/>
     <use xlink:href="#DejaVuSans-Oblique-6e" transform="translate(159.814453 0)"/>
     <use xlink:href="#DejaVuSans-Oblique-74" transform="translate(223.193359 0)"/>
    </g>
    <!-- half -->
    <g style="fill: #e74c3c; opacity: 0.8" transform="translate(298.782375 113.885812) scale(0.08 -0.08)">
     <defs>
      <path id="DejaVuSans-Oblique-68" d="M 3566 2113 
L 3156 0 
L 2578 0 
L 2988 2091 
Q 3016 2238 3031 2350 
Q 3047 2463 3047 2528 
Q 3047 2791 2881 2937 
Q 2716 3084 2419 3084 
Q 1956 3084 1617 2771 
Q 1278 2459 1178 1941 
L 800 0 
L 225 0 
L 1172 4863 
L 1747 4863 
L 1375 2950 
Q 1594 3244 1934 3414 
Q 2275 3584 2650 3584 
Q 3113 3584 3367 3334 
Q 3622 3084 3622 2631 
Q 3622 2519 3608 2391 
Q 3594 2263 3566 2113 
z
" transform="scale(0.015625)"/>
      <path id="DejaVuSans-Oblique-6c" d="M 1172 4863 
L 1747 4863 
L 800 0 
L 225 0 
L 1172 4863 
z
" transform="scale(0.015625)"/>
     </defs>
     <use xlink:href="#DejaVuSans-Oblique-68"/>
     <use xlink:href="#DejaVuSans-Oblique-61" transform="translate(63.378906 0)"/>
     <use xlink:href="#DejaVuSans-Oblique-6c" transform="translate(124.658203 0)"/>
     <use xlink:href="#DejaVuSans-Oblique-66" transform="translate(152.441406 0)"/>
    </g>
   </g>
   <g id="text_7">
    <!-- Rear -->
    <g style="fill: #f39c12; opacity: 0.8" transform="translate(142.58375 104.927562) scale(0.08 -0.08)">
     <defs>
      <path id="DejaVuSans-Oblique-52" d="M 1613 4147 
L 1294 2491 
L 2106 2491 
Q 2584 2491 2879 2755 
Q 3175 3019 3175 3444 
Q 3175 3784 2976 3965 
Q 2778 4147 2406 4147 
L 1613 4147 
z
M 2772 2241 
Q 2972 2194 3105 2009 
Q 3238 1825 3413 1275 
L 3809 0 
L 3144 0 
L 2778 1197 
Q 2638 1659 2453 1815 
Q 2269 1972 1888 1972 
L 1191 1972 
L 806 0 
L 172 0 
L 1081 4666 
L 2503 4666 
Q 3150 4666 3495 4373 
Q 3841 4081 3841 3531 
Q 3841 3044 3547 2687 
Q 3253 2331 2772 2241 
z
" transform="scale(0.015625)"/>
      <path id="DejaVuSans-Oblique-65" d="M 3078 2063 
Q 3088 2113 3092 2166 
Q 3097 2219 3097 2272 
Q 3097 2653 2873 2875 
Q 2650 3097 2266 3097 
Q 1838 3097 1509 2826 
Q 1181 2556 1013 2059 
L 3078 2063 
z
M 3578 1613 
L 903 1613 
Q 884 1494 878 1425 
Q 872 1356 872 1306 
Q 872 872 1139 634 
Q 1406 397 1894 397 
Q 2269 397 2603 481 
Q 2938 566 3225 728 
L 3116 159 
Q 2806 34 2476 -28 
Q 2147 -91 1806 -91 
Q 1078 -91 686 257 
Q 294 606 294 1247 
Q 294 1794 489 2264 
Q 684 2734 1063 3103 
Q 1306 3334 1642 3459 
Q 1978 3584 2356 3584 
Q 2950 3584 3301 3228 
Q 3653 2872 3653 2272 
Q 3653 2128 3634 1964 
Q 3616 1800 3578 1613 
z
" transform="scale(0.015625)"/>
     </defs>
     <use xlink:href="#DejaVuSans-Oblique-52"/>
     <use xlink:href="#DejaVuSans-Oblique-65" transform="translate(69.482422 0)"/>
     <use xlink:href="#DejaVuSans-Oblique-61" transform="translate(131.005859 0)"/>
     <use xlink:href="#DejaVuSans-Oblique-72" transform="translate(192.285156 0)"/>
    </g>
    <!-- half -->
    <g style="fill: #f39c12; opacity: 0.8" transform="translate(144.414375 113.885812) scale(0.08 -0.08)">
     <use xlink:href="#DejaVuSans-Oblique-68"/>
     <use xlink:href="#DejaVuSans-Oblique-61" transform="translate(63.378906 0)"/>
     <use xlink:href="#DejaVuSans-Oblique-6c" transform="translate(124.658203 0)"/>
     <use xlink:href="#DejaVuSans-Oblique-66" transform="translate(152.441406 0)"/>
    </g>
   </g>
   <g id="text_8">
    <g id="patch_12">
     <path d="M 16.5264 341.705812 
L 184.2864 341.705812 
Q 186.9864 341.705812 186.9864 339.005812 
L 186.9864 322.445812 
Q 186.9864 319.745812 184.2864 319.745812 
L 16.5264 319.745812 
Q 13.8264 319.745812 13.8264 322.445812 
L 13.8264 339.005812 
Q 13.8264 341.705812 16.5264 341.705812 
z
" style="fill: #ffffff; opacity: 0.9; stroke: #bdc3c7; stroke-linejoin: miter"/>
    </g>
    <!-- $q(x,y,z) = \frac{6\sqrt{3}\,f\,Q}{abc\pi\sqrt{\pi}}\exp\left(-\frac{3x^2}{a^2} - \frac{3y^2}{b^2} - \frac{3z^2}{c^2}\right)$ -->
    <g transform="translate(16.5264 334.325812) scale(0.09 -0.09)">
     <defs>
      <path id="DejaVuSans-Oblique-71" d="M 2669 525 
Q 2438 222 2123 65 
Q 1809 -91 1428 -91 
Q 897 -91 595 267 
Q 294 625 294 1253 
Q 294 1759 480 2231 
Q 666 2703 1013 3078 
Q 1238 3322 1530 3453 
Q 1822 3584 2144 3584 
Q 2531 3584 2781 3431 
Q 3031 3278 3144 2969 
L 3244 3494 
L 3822 3494 
L 2888 -1319 
L 2309 -1319 
L 2669 525 
z
M 891 1338 
Q 891 875 1084 633 
Q 1278 391 1644 391 
Q 2188 391 2572 911 
Q 2956 1431 2956 2175 
Q 2956 2625 2757 2864 
Q 2559 3103 2188 3103 
Q 1916 3103 1684 2976 
Q 1453 2850 1281 2606 
Q 1100 2350 995 2006 
Q 891 1663 891 1338 
z
" transform="scale(0.015625)"/>
      <path id="DejaVuSans-28" d="M 1984 4856 
Q 1566 4138 1362 3434 
Q 1159 2731 1159 2009 
Q 1159 1288 1364 580 
Q 1569 -128 1984 -844 
L 1484 -844 
Q 1016 -109 783 600 
Q 550 1309 550 2009 
Q 550 2706 781 3412 
Q 1013 4119 1484 4856 
L 1984 4856 
z
" transform="scale(0.015625)"/>
      <path id="DejaVuSans-Oblique-78" d="M 3841 3500 
L 2234 1784 
L 3219 0 
L 2559 0 
L 1819 1388 
L 531 0 
L -166 0 
L 1556 1844 
L 641 3500 
L 1300 3500 
L 1972 2234 
L 3144 3500 
L 3841 3500 
z
" transform="scale(0.015625)"/>
      <path id="DejaVuSans-2c" d="M 750 794 
L 1409 794 
L 1409 256 
L 897 -744 
L 494 -744 
L 750 256 
L 750 794 
z
" transform="scale(0.015625)"/>
      <path id="DejaVuSans-Oblique-79" d="M 1588 -325 
Q 1188 -997 936 -1164 
Q 684 -1331 294 -1331 
L -159 -1331 
L -63 -850 
L 269 -850 
Q 509 -850 678 -719 
Q 847 -588 1056 -206 
L 1234 128 
L 459 3500 
L 1069 3500 
L 1650 819 
L 3256 3500 
L 3859 3500 
L 1588 -325 
z
" transform="scale(0.015625)"/>
      <path id="DejaVuSans-Oblique-7a" d="M 744 3500 
L 3475 3500 
L 3372 2975 
L 738 459 
L 2913 459 
L 2822 0 
L -19 0 
L 84 525 
L 2719 3041 
L 653 3041 
L 744 3500 
z
" transform="scale(0.015625)"/>
      <path id="DejaVuSans-29" d="M 513 4856 
L 1013 4856 
Q 1481 4119 1714 3412 
Q 1947 2706 1947 2009 
Q 1947 1309 1714 600 
Q 1481 -109 1013 -844 
L 513 -844 
Q 928 -128 1133 580 
Q 1338 1288 1338 2009 
Q 1338 2731 1133 3434 
Q 928 4138 513 4856 
z
" transform="scale(0.015625)"/>
      <path id="DejaVuSans-3d" d="M 678 2906 
L 4684 2906 
L 4684 2381 
L 678 2381 
L 678 2906 
z
M 678 1631 
L 4684 1631 
L 4684 1100 
L 678 1100 
L 678 1631 
z
" transform="scale(0.015625)"/>
      <path id="DejaVuSans-36" d="M 2113 2584 
Q 1688 2584 1439 2293 
Q 1191 2003 1191 1497 
Q 1191 994 1439 701 
Q 1688 409 2113 409 
Q 2538 409 2786 701 
Q 3034 994 3034 1497 
Q 3034 2003 2786 2293 
Q 2538 2584 2113 2584 
z
M 3366 4563 
L 3366 3988 
Q 3128 4100 2886 4159 
Q 2644 4219 2406 4219 
Q 1781 4219 1451 3797 
Q 1122 3375 1075 2522 
Q 1259 2794 1537 2939 
Q 1816 3084 2150 3084 
Q 2853 3084 3261 2657 
Q 3669 2231 3669 1497 
Q 3669 778 3244 343 
Q 2819 -91 2113 -91 
Q 1303 -91 875 529 
Q 447 1150 447 2328 
Q 447 3434 972 4092 
Q 1497 4750 2381 4750 
Q 2619 4750 2861 4703 
Q 3103 4656 3366 4563 
z
" transform="scale(0.015625)"/>
      <path id="STIXSizeOneSym-Regular-221a" d="M 6970 9933 
L 3373 -1888 
L 3104 -1888 
L 1626 2918 
Q 1555 3149 1465 3251 
Q 1376 3354 1229 3354 
Q 1011 3354 794 3181 
L 717 3309 
L 1766 4115 
L 1926 4115 
L 3379 -602 
L 3405 -602 
L 6605 9933 
L 6970 9933 
z
" transform="scale(0.015625)"/>
      <path id="DejaVuSans-33" d="M 2597 2516 
Q 3050 2419 3304 2112 
Q 3559 1806 3559 1356 
Q 3559 666 3084 287 
Q 2609 -91 1734 -91 
Q 1441 -91 1130 -33 
Q 819 25 488 141 
L 488 750 
Q 750 597 1062 519 
Q 1375 441 1716 441 
Q 2309 441 2620 675 
Q 2931 909 2931 1356 
Q 2931 1769 2642 2001 
Q 2353 2234 1838 2234 
L 1294 2234 
L 1294 2753 
L 1863 2753 
Q 2328 2753 2575 2939 
Q 2822 3125 2822 3475 
Q 2822 3834 2567 4026 
Q 2313 4219 1838 4219 
Q 1578 4219 1281 4162 
Q 984 4106 628 3988 
L 628 4550 
Q 988 4650 1302 4700 
Q 1616 4750 1894 4750 
Q 2613 4750 3031 4423 
Q 3450 4097 3450 3541 
Q 3450 3153 3228 2886 
Q 3006 2619 2597 2516 
z
" transform="scale(0.015625)"/>
      <path id="DejaVuSans-Oblique-51" d="M 2309 -84 
Q 2275 -88 2237 -89 
Q 2200 -91 2125 -91 
Q 1250 -91 756 411 
Q 263 913 263 1797 
Q 263 2319 452 2844 
Q 641 3369 978 3788 
Q 1369 4269 1858 4509 
Q 2347 4750 2938 4750 
Q 3794 4750 4287 4245 
Q 4781 3741 4781 2869 
Q 4781 1928 4265 1147 
Q 3750 366 2919 44 
L 3553 -825 
L 2847 -825 
L 2309 -84 
z
M 2919 4238 
Q 2400 4238 2003 3986 
Q 1606 3734 1313 3219 
Q 1125 2891 1026 2522 
Q 928 2153 928 1778 
Q 928 1128 1239 775 
Q 1550 422 2119 422 
Q 2631 422 3032 676 
Q 3434 931 3719 1434 
Q 3909 1772 4009 2142 
Q 4109 2513 4109 2881 
Q 4109 3528 3796 3883 
Q 3484 4238 2919 4238 
z
" transform="scale(0.015625)"/>
      <path id="DejaVuSans-Oblique-63" d="M 3431 3366 
L 3316 2797 
Q 3109 2947 2876 3022 
Q 2644 3097 2394 3097 
Q 2119 3097 1870 3000 
Q 1622 2903 1453 2725 
Q 1184 2453 1037 2087 
Q 891 1722 891 1331 
Q 891 859 1127 628 
Q 1363 397 1844 397 
Q 2081 397 2348 469 
Q 2616 541 2906 684 
L 2797 116 
Q 2547 13 2283 -39 
Q 2019 -91 1741 -91 
Q 1044 -91 669 257 
Q 294 606 294 1253 
Q 294 1797 489 2255 
Q 684 2713 1069 3078 
Q 1331 3328 1684 3456 
Q 2038 3584 2456 3584 
Q 2700 3584 2940 3529 
Q 3181 3475 3431 3366 
z
" transform="scale(0.015625)"/>
      <path id="DejaVuSans-Oblique-3c0" d="M 584 3500 
L 3938 3500 
L 3825 2925 
L 3384 2925 
L 2966 775 
Q 2922 550 2981 450 
Q 3038 353 3209 353 
Q 3256 353 3325 363 
Q 3397 369 3419 372 
L 3338 -44 
Q 3222 -84 3103 -103 
Q 2981 -122 2866 -122 
Q 2491 -122 2388 81 
Q 2284 288 2391 838 
L 2797 2925 
L 1506 2925 
L 938 0 
L 350 0 
L 919 2925 
L 472 2925 
L 584 3500 
z
" transform="scale(0.015625)"/>
      <path id="DejaVuSans-221a" d="M 3488 5191 
L 4078 5191 
L 4078 4891 
L 3719 4891 
L 1863 -128 
L 1656 -128 
L 659 2631 
L 269 2491 
L 191 2741 
L 1075 3047 
L 1875 831 
L 3488 5191 
z
" transform="scale(0.015625)"/>
      <path id="DejaVuSans-65" d="M 3597 1894 
L 3597 1613 
L 953 1613 
Q 991 1019 1311 708 
Q 1631 397 2203 397 
Q 2534 397 2845 478 
Q 3156 559 3463 722 
L 3463 178 
Q 3153 47 2828 -22 
Q 2503 -91 2169 -91 
Q 1331 -91 842 396 
Q 353 884 353 1716 
Q 353 2575 817 3079 
Q 1281 3584 2069 3584 
Q 2775 3584 3186 3129 
Q 3597 2675 3597 1894 
z
M 3022 2063 
Q 3016 2534 2758 2815 
Q 2500 3097 2075 3097 
Q 1594 3097 1305 2825 
Q 1016 2553 972 2059 
L 3022 2063 
z
" transform="scale(0.015625)"/>
      <path id="DejaVuSans-78" d="M 3513 3500 
L 2247 1797 
L 3578 0 
L 2900 0 
L 1881 1375 
L 863 0 
L 184 0 
L 1544 1831 
L 300 3500 
L 978 3500 
L 1906 2253 
L 2834 3500 
L 3513 3500 
z
" transform="scale(0.015625)"/>
      <path id="DejaVuSans-70" d="M 1159 525 
L 1159 -1331 
L 581 -1331 
L 581 3500 
L 1159 3500 
L 1159 2969 
Q 1341 3281 1617 3432 
Q 1894 3584 2278 3584 
Q 2916 3584 3314 3078 
Q 3713 2572 3713 1747 
Q 3713 922 3314 415 
Q 2916 -91 2278 -91 
Q 1894 -91 1617 61 
Q 1341 213 1159 525 
z
M 3116 1747 
Q 3116 2381 2855 2742 
Q 2594 3103 2138 3103 
Q 1681 3103 1420 2742 
Q 1159 2381 1159 1747 
Q 1159 1113 1420 752 
Q 1681 391 2138 391 
Q 2594 391 2855 752 
Q 3116 1113 3116 1747 
z
" transform="scale(0.015625)"/>
      <path id="STIXSizeTwoSym-Regular-28" d="M 3219 -1555 
L 3219 -1786 
Q 2144 -774 1517 730 
Q 890 2234 890 4115 
Q 890 6003 1533 7593 
Q 2176 9184 3219 10022 
L 3219 9811 
Q 2490 9062 1994 7606 
Q 1498 6150 1498 4115 
Q 1498 563 3219 -1555 
z
" transform="scale(0.015625)"/>
      <path id="DejaVuSans-2212" d="M 678 2272 
L 4684 2272 
L 4684 1741 
L 678 1741 
L 678 2272 
z
" transform="scale(0.015625)"/>
      <path id="DejaVuSans-32" d="M 1228 531 
L 3431 531 
L 3431 0 
L 469 0 
L 469 531 
Q 828 903 1448 1529 
Q 2069 2156 2228 2338 
Q 2531 2678 2651 2914 
Q 2772 3150 2772 3378 
Q 2772 3750 2511 3984 
Q 2250 4219 1831 4219 
Q 1534 4219 1204 4116 
Q 875 4013 500 3803 
L 500 4441 
Q 881 4594 1212 4672 
Q 1544 4750 1819 4750 
Q 2544 4750 2975 4387 
Q 3406 4025 3406 3419 
Q 3406 3131 3298 2873 
Q 3191 2616 2906 2266 
Q 2828 2175 2409 1742 
Q 1991 1309 1228 531 
z
" transform="scale(0.015625)"/>
      <path id="STIXSizeTwoSym-Regular-29" d="M 730 9792 
L 730 10022 
Q 1805 9011 2432 7507 
Q 3059 6003 3059 4115 
Q 3059 2234 2416 643 
Q 1773 -947 730 -1786 
L 730 -1574 
Q 1459 -826 1955 633 
Q 2451 2093 2451 4115 
Q 2451 7674 730 9792 
z
" transform="scale(0.015625)"/>
     </defs>
     <use xlink:href="#DejaVuSans-Oblique-71" transform="translate(0 0.9875)"/>
     <use xlink:href="#DejaVuSans-28" transform="translate(63.476562 0.9875)"/>
     <use xlink:href="#DejaVuSans-Oblique-78" transform="translate(102.490234 0.9875)"/>
     <use xlink:href="#DejaVuSans-2c" transform="translate(161.669922 0.9875)"/>
     <use xlink:href="#DejaVuSans-Oblique-79" transform="translate(212.939453 0.9875)"/>
     <use xlink:href="#DejaVuSans-2c" transform="translate(272.119141 0.9875)"/>
     <use xlink:href="#DejaVuSans-Oblique-7a" transform="translate(323.388672 0.9875)"/>
     <use xlink:href="#DejaVuSans-29" transform="translate(375.878906 0.9875)"/>
     <use xlink:href="#DejaVuSans-3d" transform="translate(434.375 0.9875)"/>
     <use xlink:href="#DejaVuSans-36" transform="translate(547.646484 53.807813) scale(0.7)"/>
     <use xlink:href="#STIXSizeOneSym-Regular-221a" transform="translate(592.182617 64.789063) scale(0.405101)"/>
     <use xlink:href="#DejaVuSans-33" transform="translate(643.754329 53.671875) scale(0.7)"/>
     <use xlink:href="#DejaVuSans-Oblique-66" transform="translate(708.405435 53.807813) scale(0.7)"/>
     <use xlink:href="#DejaVuSans-Oblique-51" transform="translate(744.413963 53.807813) scale(0.7)"/>
     <use xlink:href="#DejaVuSans-Oblique-61" transform="translate(537.646484 -47.442187) scale(0.7)"/>
     <use xlink:href="#DejaVuSans-Oblique-62" transform="translate(580.541992 -47.442187) scale(0.7)"/>
     <use xlink:href="#DejaVuSans-Oblique-63" transform="translate(624.975586 -47.442187) scale(0.7)"/>
     <use xlink:href="#DejaVuSans-Oblique-3c0" transform="translate(663.461914 -47.442187) scale(0.7)"/>
     <use xlink:href="#DejaVuSans-221a" transform="translate(705.605469 -47.442187) scale(0.7)"/>
     <use xlink:href="#DejaVuSans-Oblique-3c0" transform="translate(758.959961 -47.121875) scale(0.7)"/>
     <use xlink:href="#DejaVuSans-65" transform="translate(822.353516 0.9875)"/>
     <use xlink:href="#DejaVuSans-78" transform="translate(883.876953 0.9875)"/>
     <use xlink:href="#DejaVuSans-70" transform="translate(943.056641 0.9875)"/>
     <use xlink:href="#STIXSizeTwoSym-Regular-28" transform="translate(1022.768879 -24.40625) scale(0.938381)"/>
     <use xlink:href="#DejaVuSans-2212" transform="translate(1078.061238 0.9875)"/>
     <use xlink:href="#DejaVuSans-33" transform="translate(1161.8503 45.779688) scale(0.7)"/>
     <use xlink:href="#DejaVuSans-Oblique-78" transform="translate(1206.386433 45.779688) scale(0.7)"/>
     <use xlink:href="#DejaVuSans-32" transform="translate(1250.938516 72.576563) scale(0.49)"/>
     <use xlink:href="#DejaVuSans-Oblique-61" transform="translate(1182.8503 -49.629687) scale(0.7)"/>
     <use xlink:href="#DejaVuSans-32" transform="translate(1229.000735 -22.832812) scale(0.49)"/>
     <use xlink:href="#DejaVuSans-2212" transform="translate(1316.010294 0.9875)"/>
     <use xlink:href="#DejaVuSans-33" transform="translate(1419.281778 59.342188) scale(0.7)"/>
     <use xlink:href="#DejaVuSans-Oblique-79" transform="translate(1463.817911 59.342188) scale(0.7)"/>
     <use xlink:href="#DejaVuSans-32" transform="translate(1508.369994 86.139063) scale(0.49)"/>
     <use xlink:href="#DejaVuSans-Oblique-62" transform="translate(1439.281778 -49.629687) scale(0.7)"/>
     <use xlink:href="#DejaVuSans-32" transform="translate(1488.928768 -22.832812) scale(0.49)"/>
     <use xlink:href="#DejaVuSans-2212" transform="translate(1573.441772 0.9875)"/>
     <use xlink:href="#DejaVuSans-33" transform="translate(1676.713256 45.779688) scale(0.7)"/>
     <use xlink:href="#DejaVuSans-Oblique-7a" transform="translate(1721.249389 45.779688) scale(0.7)"/>
     <use xlink:href="#DejaVuSans-32" transform="translate(1761.118855 72.576563) scale(0.49)"/>
     <use xlink:href="#DejaVuSans-Oblique-63" transform="translate(1697.713256 -49.629687) scale(0.7)"/>
     <use xlink:href="#DejaVuSans-32" transform="translate(1739.454511 -22.832812) scale(0.49)"/>
     <use xlink:href="#STIXSizeTwoSym-Regular-29" transform="translate(1806.70821 -24.40625) scale(0.938381)"/>
     <path d="M 635.004329 123.25 
L 635.004329 127.625 
L 697.040462 127.625 
L 697.040462 123.25 
L 635.004329 123.25 
z
"/>
     <path d="M 537.646484 19.784375 
L 537.646484 26.034375 
L 809.853516 26.034375 
L 809.853516 19.784375 
L 537.646484 19.784375 
z
"/>
     <path d="M 750.209961 4.784375 
L 750.209961 9.159375 
L 809.853516 9.159375 
L 809.853516 4.784375 
L 750.209961 4.784375 
z
"/>
     <path d="M 1161.8503 19.784375 
L 1161.8503 26.034375 
L 1284.027872 26.034375 
L 1284.027872 19.784375 
L 1161.8503 19.784375 
z
"/>
     <path d="M 1419.281778 19.784375 
L 1419.281778 26.034375 
L 1541.45935 26.034375 
L 1541.45935 19.784375 
L 1419.281778 19.784375 
z
"/>
     <path d="M 1676.713256 19.784375 
L 1676.713256 26.034375 
L 1794.20821 26.034375 
L 1794.20821 19.784375 
L 1676.713256 19.784375 
z
"/>
    </g>
   </g>
   <g id="text_9">
    <!-- Goldak Double-Ellipsoid Heat Source Model -->
    <g transform="translate(69.433125 17.837812) scale(0.14 -0.14)">
     <defs>
      <path id="DejaVuSans-Bold-47" d="M 4781 347 
Q 4331 128 3847 18 
Q 3363 -91 2847 -91 
Q 1681 -91 1000 561 
Q 319 1213 319 2328 
Q 319 3456 1012 4103 
Q 1706 4750 2913 4750 
Q 3378 4750 3804 4662 
Q 4231 4575 4609 4403 
L 4609 3438 
Q 4219 3659 3833 3768 
Q 3447 3878 3059 3878 
Q 2341 3878 1952 3476 
Q 1563 3075 1563 2328 
Q 1563 1588 1938 1184 
Q 2313 781 3003 781 
Q 3191 781 3352 804 
Q 3513 828 3641 878 
L 3641 1784 
L 2906 1784 
L 2906 2591 
L 4781 2591 
L 4781 347 
z
" transform="scale(0.015625)"/>
      <path id="DejaVuSans-Bold-6b" d="M 538 4863 
L 1656 4863 
L 1656 2216 
L 2944 3500 
L 4244 3500 
L 2534 1894 
L 4378 0 
L 3022 0 
L 1656 1459 
L 1656 0 
L 538 0 
L 538 4863 
z
" transform="scale(0.015625)"/>
      <path id="DejaVuSans-Bold-44" d="M 1791 3756 
L 1791 909 
L 2222 909 
Q 2959 909 3348 1275 
Q 3738 1641 3738 2338 
Q 3738 3031 3350 3393 
Q 2963 3756 2222 3756 
L 1791 3756 
z
M 588 4666 
L 1856 4666 
Q 2919 4666 3439 4514 
Q 3959 4363 4331 4000 
Q 4659 3684 4818 3271 
Q 4978 2859 4978 2338 
Q 4978 1809 4818 1395 
Q 4659 981 4331 666 
Q 3956 303 3431 151 
Q 2906 0 1856 0 
L 588 0 
L 588 4666 
z
" transform="scale(0.015625)"/>
      <path id="DejaVuSans-Bold-75" d="M 500 1363 
L 500 3500 
L 1625 3500 
L 1625 3150 
Q 1625 2866 1622 2436 
Q 1619 2006 1619 1863 
Q 1619 1441 1641 1255 
Q 1663 1069 1716 984 
Q 1784 875 1895 815 
Q 2006 756 2150 756 
Q 2500 756 2700 1025 
Q 2900 1294 2900 1772 
L 2900 3500 
L 4019 3500 
L 4019 0 
L 2900 0 
L 2900 506 
Q 2647 200 2364 54 
Q 2081 -91 1741 -91 
Q 1134 -91 817 281 
Q 500 653 500 1363 
z
" transform="scale(0.015625)"/>
      <path id="DejaVuSans-Bold-62" d="M 2400 722 
Q 2759 722 2948 984 
Q 3138 1247 3138 1747 
Q 3138 2247 2948 2509 
Q 2759 2772 2400 2772 
Q 2041 2772 1848 2508 
Q 1656 2244 1656 1747 
Q 1656 1250 1848 986 
Q 2041 722 2400 722 
z
M 1656 2988 
Q 1888 3294 2169 3439 
Q 2450 3584 2816 3584 
Q 3463 3584 3878 3070 
Q 4294 2556 4294 1747 
Q 4294 938 3878 423 
Q 3463 -91 2816 -91 
Q 2450 -91 2169 54 
Q 1888 200 1656 506 
L 1656 0 
L 538 0 
L 538 4863 
L 1656 4863 
L 1656 2988 
z
" transform="scale(0.015625)"/>
      <path id="DejaVuSans-Bold-2d" d="M 347 2297 
L 2309 2297 
L 2309 1388 
L 347 1388 
L 347 2297 
z
" transform="scale(0.015625)"/>
      <path id="DejaVuSans-Bold-45" d="M 588 4666 
L 3834 4666 
L 3834 3756 
L 1791 3756 
L 1791 2888 
L 3713 2888 
L 3713 1978 
L 1791 1978 
L 1791 909 
L 3903 909 
L 3903 0 
L 588 0 
L 588 4666 
z
" transform="scale(0.015625)"/>
      <path id="DejaVuSans-Bold-70" d="M 1656 506 
L 1656 -1331 
L 538 -1331 
L 538 3500 
L 1656 3500 
L 1656 2988 
Q 1888 3294 2169 3439 
Q 2450 3584 2816 3584 
Q 3463 3584 3878 3070 
Q 4294 2556 4294 1747 
Q 4294 938 3878 423 
Q 3463 -91 2816 -91 
Q 2450 -91 2169 54 
Q 1888 200 1656 506 
z
M 2400 2772 
Q 2041 2772 1848 2508 
Q 1656 2244 1656 1747 
Q 1656 1250 1848 986 
Q 2041 722 2400 722 
Q 2759 722 2948 984 
Q 3138 1247 3138 1747 
Q 3138 2247 2948 2509 
Q 2759 2772 2400 2772 
z
" transform="scale(0.015625)"/>
      <path id="DejaVuSans-Bold-73" d="M 3272 3391 
L 3272 2541 
Q 2913 2691 2578 2766 
Q 2244 2841 1947 2841 
Q 1628 2841 1473 2761 
Q 1319 2681 1319 2516 
Q 1319 2381 1436 2309 
Q 1553 2238 1856 2203 
L 2053 2175 
Q 2913 2066 3209 1816 
Q 3506 1566 3506 1031 
Q 3506 472 3093 190 
Q 2681 -91 1863 -91 
Q 1516 -91 1145 -36 
Q 775 19 384 128 
L 384 978 
Q 719 816 1070 734 
Q 1422 653 1784 653 
Q 2113 653 2278 743 
Q 2444 834 2444 1013 
Q 2444 1163 2330 1236 
Q 2216 1309 1875 1350 
L 1678 1375 
Q 931 1469 631 1722 
Q 331 1975 331 2491 
Q 331 3047 712 3315 
Q 1094 3584 1881 3584 
Q 2191 3584 2531 3537 
Q 2872 3491 3272 3391 
z
" transform="scale(0.015625)"/>
      <path id="DejaVuSans-Bold-48" d="M 588 4666 
L 1791 4666 
L 1791 2888 
L 3566 2888 
L 3566 4666 
L 4769 4666 
L 4769 0 
L 3566 0 
L 3566 1978 
L 1791 1978 
L 1791 0 
L 588 0 
L 588 4666 
z
" transform="scale(0.015625)"/>
      <path id="DejaVuSans-Bold-53" d="M 3834 4519 
L 3834 3531 
Q 3450 3703 3084 3790 
Q 2719 3878 2394 3878 
Q 1963 3878 1756 3759 
Q 1550 3641 1550 3391 
Q 1550 3203 1689 3098 
Q 1828 2994 2194 2919 
L 2706 2816 
Q 3484 2659 3812 2340 
Q 4141 2022 4141 1434 
Q 4141 663 3683 286 
Q 3225 -91 2284 -91 
Q 1841 -91 1394 -6 
Q 947 78 500 244 
L 500 1259 
Q 947 1022 1364 901 
Q 1781 781 2169 781 
Q 2563 781 2772 912 
Q 2981 1044 2981 1288 
Q 2981 1506 2839 1625 
Q 2697 1744 2272 1838 
L 1806 1941 
Q 1106 2091 782 2419 
Q 459 2747 459 3303 
Q 459 4000 909 4375 
Q 1359 4750 2203 4750 
Q 2588 4750 2994 4692 
Q 3400 4634 3834 4519 
z
" transform="scale(0.015625)"/>
      <path id="DejaVuSans-Bold-4d" d="M 588 4666 
L 2119 4666 
L 3181 2169 
L 4250 4666 
L 5778 4666 
L 5778 0 
L 4641 0 
L 4641 3413 
L 3566 897 
L 2803 897 
L 1728 3413 
L 1728 0 
L 588 0 
L 588 4666 
z
" transform="scale(0.015625)"/>
     </defs>
     <use xlink:href="#DejaVuSans-Bold-47"/>
     <use xlink:href="#DejaVuSans-Bold-6f" transform="translate(82.080078 0)"/>
     <use xlink:href="#DejaVuSans-Bold-6c" transform="translate(150.78125 0)"/>
     <use xlink:href="#DejaVuSans-Bold-64" transform="translate(185.058594 0)"/>
     <use xlink:href="#DejaVuSans-Bold-61" transform="translate(256.640625 0)"/>
     <use xlink:href="#DejaVuSans-Bold-6b" transform="translate(324.121094 0)"/>
     <use xlink:href="#DejaVuSans-Bold-20" transform="translate(390.625 0)"/>
     <use xlink:href="#DejaVuSans-Bold-44" transform="translate(425.439453 0)"/>
     <use xlink:href="#DejaVuSans-Bold-6f" transform="translate(508.447266 0)"/>
     <use xlink:href="#DejaVuSans-Bold-75" transform="translate(577.148438 0)"/>
     <use xlink:href="#DejaVuSans-Bold-62" transform="translate(648.339844 0)"/>
     <use xlink:href="#DejaVuSans-Bold-6c" transform="translate(719.921875 0)"/>
     <use xlink:href="#DejaVuSans-Bold-65" transform="translate(754.199219 0)"/>
     <use xlink:href="#DejaVuSans-Bold-2d" transform="translate(822.021484 0)"/>
     <use xlink:href="#DejaVuSans-Bold-45" transform="translate(863.525391 0)"/>
     <use xlink:href="#DejaVuSans-Bold-6c" transform="translate(931.835938 0)"/>
     <use xlink:href="#DejaVuSans-Bold-6c" transform="translate(966.113281 0)"/>
     <use xlink:href="#DejaVuSans-Bold-69" transform="translate(1000.390625 0)"/>
     <use xlink:href="#DejaVuSans-Bold-70" transform="translate(1034.667969 0)"/>
     <use xlink:href="#DejaVuSans-Bold-73" transform="translate(1106.25 0)"/>
     <use xlink:href="#DejaVuSans-Bold-6f" transform="translate(1165.771484 0)"/>
     <use xlink:href="#DejaVuSans-Bold-69" transform="translate(1234.472656 0)"/>
     <use xlink:href="#DejaVuSans-Bold-64" transform="translate(1268.75 0)"/>
     <use xlink:href="#DejaVuSans-Bold-20" transform="translate(1340.332031 0)"/>
     <use xlink:href="#DejaVuSans-Bold-48" transform="translate(1375.146484 0)"/>
     <use xlink:href="#DejaVuSans-Bold-65" transform="translate(1458.837891 0)"/>
     <use xlink:href="#DejaVuSans-Bold-61" transform="translate(1526.660156 0)"/>
     <use xlink:href="#DejaVuSans-Bold-74" transform="translate(1594.140625 0)"/>
     <use xlink:href="#DejaVuSans-Bold-20" transform="translate(1641.943359 0)"/>
     <use xlink:href="#DejaVuSans-Bold-53" transform="translate(1676.757812 0)"/>
     <use xlink:href="#DejaVuSans-Bold-6f" transform="translate(1748.779297 0)"/>
     <use xlink:href="#DejaVuSans-Bold-75" transform="translate(1817.480469 0)"/>
     <use xlink:href="#DejaVuSans-Bold-72" transform="translate(1888.671875 0)"/>
     <use xlink:href="#DejaVuSans-Bold-63" transform="translate(1937.988281 0)"/>
     <use xlink:href="#DejaVuSans-Bold-65" transform="translate(1997.265625 0)"/>
     <use xlink:href="#DejaVuSans-Bold-20" transform="translate(2065.087891 0)"/>
     <use xlink:href="#DejaVuSans-Bold-4d" transform="translate(2099.902344 0)"/>
     <use xlink:href="#DejaVuSans-Bold-6f" transform="translate(2199.414062 0)"/>
     <use xlink:href="#DejaVuSans-Bold-64" transform="translate(2268.115234 0)"/>
     <use xlink:href="#DejaVuSans-Bold-65" transform="translate(2339.697266 0)"/>
     <use xlink:href="#DejaVuSans-Bold-6c" transform="translate(2407.519531 0)"/>
    </g>
   </g>
   <g id="line2d_1">
    <defs>
     <path id="m18bbbccdd0" d="M 0 3 
C 0.795609 3 1.55874 2.683901 2.12132 2.12132 
C 2.683901 1.55874 3 0.795609 3 0 
C 3 -0.795609 2.683901 -1.55874 2.12132 -2.12132 
C 1.55874 -2.683901 0.795609 -3 0 -3 
C -0.795609 -3 -1.55874 -2.683901 -2.12132 -2.12132 
C -2.683901 -1.55874 -3 -0.795609 -3 0 
C -3 0.795609 -2.683901 1.55874 -2.12132 2.12132 
C -1.55874 2.683901 -0.795609 3 0 3 
z
" style="stroke: #000000"/>
    </defs>
    <g clip-path="url(#pc4f30cfce7)">
     <use xlink:href="#m18bbbccdd0" x="248.4" y="184.637812" style="stroke: #000000"/>
    </g>
   </g>
  </g>
 </g>
 <defs>
  <clipPath id="pc4f30cfce7">
   <rect x="7.2" y="23.837812" width="466.32" height="321.6"/>
  </clipPath>
 </defs>
</svg>
