<?xml version="1.0" encoding="utf-8" standalone="no"?>
<!DOCTYPE svg PUBLIC "-//W3C//DTD SVG 1.1//EN"
  "http://www.w3.org/Graphics/SVG/1.1/DTD/svg11.dtd">
<svg xmlns:xlink="http://www.w3.org/1999/xlink" width="907.2pt" height="245.441379pt" viewBox="0 0 907.2 245.441379" xmlns="http://www.w3.org/2000/svg" version="1.1">
 <metadata>
  <rdf:RDF xmlns:dc="http://purl.org/dc/elements/1.1/" xmlns:cc="http://creativecommons.org/ns#" xmlns:rdf="http://www.w3.org/1999/02/22-rdf-syntax-ns#">
   <cc:Work>
    <dc:type rdf:resource="http://purl.org/dc/dcmitype/StillImage"/>
    <dc:date>2026-04-11T16:05:13.255266</dc:date>
    <dc:format>image/svg+xml</dc:format>
    <dc:creator>
     <cc:Agent>
      <dc:title>Matplotlib v3.10.8, https://matplotlib.org/</dc:title>
     </cc:Agent>
    </dc:creator>
   </cc:Work>
  </rdf:RDF>
 </metadata>
 <defs>
  <style type="text/css">*{stroke-linejoin: round; stroke-linecap: butt}</style>
 </defs>
 <g id="figure_1">
  <g id="patch_1">
   <path d="M 0 245.441379 
L 907.2 245.441379 
L 907.2 -0 
L 0 -0 
z
" style="fill: #fafafa"/>
  </g>
  <g id="axes_1">
   <g id="patch_2">
    <path d="M 7.2 238.241379 
L 161.131034 238.241379 
L 161.131034 125.358621 
L 7.2 125.358621 
z
" style="fill: #ffffff"/>
   </g>
   <g id="patch_3">
    <path d="M 7.2 233.110345 
L 161.131034 233.110345 
L 161.131034 130.489655 
L 7.2 130.489655 
z
" clip-path="url(#p5a8d5a1bc2)" style="fill: #dcdcdc; stroke: #7f8c8d; stroke-linejoin: miter"/>
   </g>
   <g id="patch_4">
    <path d="M 79.034483 233.110345 
L 89.296552 233.110345 
L 89.296552 222.848276 
L 142.619826 130.489655 
L 25.711208 130.489655 
L 79.034483 222.848276 
z
" clip-path="url(#p5a8d5a1bc2)" style="fill: #f39c12; fill-opacity: 0.6; stroke: #f39c12; stroke-width: 2; stroke-linejoin: miter"/>
   </g>
   <g id="matplotlib.axis_1"/>
   <g id="matplotlib.axis_2"/>
   <g id="patch_5">
    <path d="M 7.2 238.241379 
L 7.2 125.358621 
" style="fill: none; stroke: #000000; stroke-width: 0.8; stroke-linejoin: miter; stroke-linecap: square"/>
   </g>
   <g id="patch_6">
    <path d="M 161.131034 238.241379 
L 161.131034 125.358621 
" style="fill: none; stroke: #000000; stroke-width: 0.8; stroke-linejoin: miter; stroke-linecap: square"/>
   </g>
   <g id="patch_7">
    <path d="M 7.2 238.241379 
L 161.131034 238.241379 
" style="fill: none; stroke: #000000; stroke-width: 0.8; stroke-linejoin: miter; stroke-linecap: square"/>
   </g>
   <g id="patch_8">
    <path d="M 7.2 125.358621 
L 161.131034 125.358621 
" style="fill: none; stroke: #000000; stroke-width: 0.8; stroke-linejoin: miter; stroke-linecap: square"/>
   </g>
   <g id="text_1">
    <!-- V-groove -->
    <g transform="translate(56.503095 106.955089) scale(0.11 -0.11)">
     <defs>
      <path id="DejaVuSans-Bold-56" d="M 31 4666 
L 1241 4666 
L 2478 1222 
L 3713 4666 
L 4922 4666 
L 3194 0 
L 1759 0 
L 31 4666 
z
" transform="scale(0.015625)"/>
      <path id="DejaVuSans-Bold-2d" d="M 347 2297 
L 2309 2297 
L 2309 1388 
L 347 1388 
L 347 2297 
z
" transform="scale(0.015625)"/>
      <path id="DejaVuSans-Bold-67" d="M 2919 594 
Q 2688 288 2409 144 
Q 2131 0 1766 0 
Q 1125 0 706 504 
Q 288 1009 288 1791 
Q 288 2575 706 3076 
Q 1125 3578 1766 3578 
Q 2131 3578 2409 3434 
Q 2688 3291 2919 2981 
L 2919 3500 
L 4044 3500 
L 4044 353 
Q 4044 -491 3511 -936 
Q 2978 -1381 1966 -1381 
Q 1638 -1381 1331 -1331 
Q 1025 -1281 716 -1178 
L 716 -306 
Q 1009 -475 1290 -558 
Q 1572 -641 1856 -641 
Q 2406 -641 2662 -400 
Q 2919 -159 2919 353 
L 2919 594 
z
M 2181 2772 
Q 1834 2772 1640 2515 
Q 1447 2259 1447 1791 
Q 1447 1309 1634 1061 
Q 1822 813 2181 813 
Q 2531 813 2725 1069 
Q 2919 1325 2919 1791 
Q 2919 2259 2725 2515 
Q 2531 2772 2181 2772 
z
" transform="scale(0.015625)"/>
      <path id="DejaVuSans-Bold-72" d="M 3138 2547 
Q 2991 2616 2845 2648 
Q 2700 2681 2553 2681 
Q 2122 2681 1889 2404 
Q 1656 2128 1656 1613 
L 1656 0 
L 538 0 
L 538 3500 
L 1656 3500 
L 1656 2925 
Q 1872 3269 2151 3426 
Q 2431 3584 2822 3584 
Q 2878 3584 2943 3579 
Q 3009 3575 3134 3559 
L 3138 2547 
z
" transform="scale(0.015625)"/>
      <path id="DejaVuSans-Bold-6f" d="M 2203 2784 
Q 1831 2784 1636 2517 
Q 1441 2250 1441 1747 
Q 1441 1244 1636 976 
Q 1831 709 2203 709 
Q 2569 709 2762 976 
Q 2956 1244 2956 1747 
Q 2956 2250 2762 2517 
Q 2569 2784 2203 2784 
z
M 2203 3584 
Q 3106 3584 3614 3096 
Q 4122 2609 4122 1747 
Q 4122 884 3614 396 
Q 3106 -91 2203 -91 
Q 1297 -91 786 396 
Q 275 884 275 1747 
Q 275 2609 786 3096 
Q 1297 3584 2203 3584 
z
" transform="scale(0.015625)"/>
      <path id="DejaVuSans-Bold-76" d="M 97 3500 
L 1216 3500 
L 2088 1081 
L 2956 3500 
L 4078 3500 
L 2700 0 
L 1472 0 
L 97 3500 
z
" transform="scale(0.015625)"/>
      <path id="DejaVuSans-Bold-65" d="M 4031 1759 
L 4031 1441 
L 1416 1441 
Q 1456 1047 1700 850 
Q 1944 653 2381 653 
Q 2734 653 3104 758 
Q 3475 863 3866 1075 
L 3866 213 
Q 3469 63 3072 -14 
Q 2675 -91 2278 -91 
Q 1328 -91 801 392 
Q 275 875 275 1747 
Q 275 2603 792 3093 
Q 1309 3584 2216 3584 
Q 3041 3584 3536 3087 
Q 4031 2591 4031 1759 
z
M 2881 2131 
Q 2881 2450 2695 2645 
Q 2509 2841 2209 2841 
Q 1884 2841 1681 2658 
Q 1478 2475 1428 2131 
L 2881 2131 
z
" transform="scale(0.015625)"/>
     </defs>
     <use xlink:href="#DejaVuSans-Bold-56"/>
     <use xlink:href="#DejaVuSans-Bold-2d" transform="translate(70.142578 0)"/>
     <use xlink:href="#DejaVuSans-Bold-67" transform="translate(111.646484 0)"/>
     <use xlink:href="#DejaVuSans-Bold-72" transform="translate(183.228516 0)"/>
     <use xlink:href="#DejaVuSans-Bold-6f" transform="translate(232.544922 0)"/>
     <use xlink:href="#DejaVuSans-Bold-6f" transform="translate(301.246094 0)"/>
     <use xlink:href="#DejaVuSans-Bold-76" transform="translate(369.947266 0)"/>
     <use xlink:href="#DejaVuSans-Bold-65" transform="translate(435.132812 0)"/>
    </g>
    <!-- area = 227.1 mm² -->
    <g transform="translate(28.679111 119.358621) scale(0.11 -0.11)">
     <defs>
      <path id="DejaVuSans-Bold-61" d="M 2106 1575 
Q 1756 1575 1579 1456 
Q 1403 1338 1403 1106 
Q 1403 894 1545 773 
Q 1688 653 1941 653 
Q 2256 653 2472 879 
Q 2688 1106 2688 1447 
L 2688 1575 
L 2106 1575 
z
M 3816 1997 
L 3816 0 
L 2688 0 
L 2688 519 
Q 2463 200 2181 54 
Q 1900 -91 1497 -91 
Q 953 -91 614 226 
Q 275 544 275 1050 
Q 275 1666 698 1953 
Q 1122 2241 2028 2241 
L 2688 2241 
L 2688 2328 
Q 2688 2594 2478 2717 
Q 2269 2841 1825 2841 
Q 1466 2841 1156 2769 
Q 847 2697 581 2553 
L 581 3406 
Q 941 3494 1303 3539 
Q 1666 3584 2028 3584 
Q 2975 3584 3395 3211 
Q 3816 2838 3816 1997 
z
" transform="scale(0.015625)"/>
      <path id="DejaVuSans-Bold-20" transform="scale(0.015625)"/>
      <path id="DejaVuSans-Bold-3d" d="M 678 3084 
L 4684 3084 
L 4684 2350 
L 678 2350 
L 678 3084 
z
M 678 1663 
L 4684 1663 
L 4684 922 
L 678 922 
L 678 1663 
z
" transform="scale(0.015625)"/>
      <path id="DejaVuSans-Bold-32" d="M 1844 884 
L 3897 884 
L 3897 0 
L 506 0 
L 506 884 
L 2209 2388 
Q 2438 2594 2547 2791 
Q 2656 2988 2656 3200 
Q 2656 3528 2436 3728 
Q 2216 3928 1850 3928 
Q 1569 3928 1234 3808 
Q 900 3688 519 3450 
L 519 4475 
Q 925 4609 1322 4679 
Q 1719 4750 2100 4750 
Q 2938 4750 3402 4381 
Q 3866 4013 3866 3353 
Q 3866 2972 3669 2642 
Q 3472 2313 2841 1759 
L 1844 884 
z
" transform="scale(0.015625)"/>
      <path id="DejaVuSans-Bold-37" d="M 428 4666 
L 3944 4666 
L 3944 3988 
L 2125 0 
L 953 0 
L 2675 3781 
L 428 3781 
L 428 4666 
z
" transform="scale(0.015625)"/>
      <path id="DejaVuSans-Bold-2e" d="M 653 1209 
L 1778 1209 
L 1778 0 
L 653 0 
L 653 1209 
z
" transform="scale(0.015625)"/>
      <path id="DejaVuSans-Bold-31" d="M 750 831 
L 1813 831 
L 1813 3847 
L 722 3622 
L 722 4441 
L 1806 4666 
L 2950 4666 
L 2950 831 
L 4013 831 
L 4013 0 
L 750 0 
L 750 831 
z
" transform="scale(0.015625)"/>
      <path id="DejaVuSans-Bold-6d" d="M 3781 2919 
Q 3994 3244 4286 3414 
Q 4578 3584 4928 3584 
Q 5531 3584 5847 3212 
Q 6163 2841 6163 2131 
L 6163 0 
L 5038 0 
L 5038 1825 
Q 5041 1866 5042 1909 
Q 5044 1953 5044 2034 
Q 5044 2406 4934 2573 
Q 4825 2741 4581 2741 
Q 4263 2741 4089 2478 
Q 3916 2216 3909 1719 
L 3909 0 
L 2784 0 
L 2784 1825 
Q 2784 2406 2684 2573 
Q 2584 2741 2328 2741 
Q 2006 2741 1831 2477 
Q 1656 2213 1656 1722 
L 1656 0 
L 531 0 
L 531 3500 
L 1656 3500 
L 1656 2988 
Q 1863 3284 2130 3434 
Q 2397 3584 2719 3584 
Q 3081 3584 3359 3409 
Q 3638 3234 3781 2919 
z
" transform="scale(0.015625)"/>
      <path id="DejaVuSans-Bold-b2" d="M 1288 2613 
L 2444 2613 
L 2444 2088 
L 341 2088 
L 341 2566 
L 1319 3397 
Q 1509 3563 1590 3688 
Q 1672 3813 1672 3938 
Q 1672 4094 1558 4191 
Q 1444 4288 1259 4288 
Q 1066 4288 844 4217 
Q 622 4147 359 4000 
L 359 4581 
Q 631 4666 886 4708 
Q 1141 4750 1375 4750 
Q 1869 4750 2150 4548 
Q 2431 4347 2431 4000 
Q 2431 3775 2320 3586 
Q 2209 3397 1894 3128 
L 1288 2613 
z
" transform="scale(0.015625)"/>
     </defs>
     <use xlink:href="#DejaVuSans-Bold-61"/>
     <use xlink:href="#DejaVuSans-Bold-72" transform="translate(67.480469 0)"/>
     <use xlink:href="#DejaVuSans-Bold-65" transform="translate(116.796875 0)"/>
     <use xlink:href="#DejaVuSans-Bold-61" transform="translate(184.619141 0)"/>
     <use xlink:href="#DejaVuSans-Bold-20" transform="translate(252.099609 0)"/>
     <use xlink:href="#DejaVuSans-Bold-3d" transform="translate(286.914062 0)"/>
     <use xlink:href="#DejaVuSans-Bold-20" transform="translate(370.703125 0)"/>
     <use xlink:href="#DejaVuSans-Bold-32" transform="translate(405.517578 0)"/>
     <use xlink:href="#DejaVuSans-Bold-32" transform="translate(475.097656 0)"/>
     <use xlink:href="#DejaVuSans-Bold-37" transform="translate(544.677734 0)"/>
     <use xlink:href="#DejaVuSans-Bold-2e" transform="translate(614.257812 0)"/>
     <use xlink:href="#DejaVuSans-Bold-31" transform="translate(652.246094 0)"/>
     <use xlink:href="#DejaVuSans-Bold-20" transform="translate(721.826172 0)"/>
     <use xlink:href="#DejaVuSans-Bold-6d" transform="translate(756.640625 0)"/>
     <use xlink:href="#DejaVuSans-Bold-6d" transform="translate(860.839844 0)"/>
     <use xlink:href="#DejaVuSans-Bold-b2" transform="translate(965.039062 0)"/>
    </g>
   </g>
  </g>
  <g id="axes_2">
   <g id="patch_9">
    <path d="M 191.917241 238.241379 
L 345.848276 238.241379 
L 345.848276 125.358621 
L 191.917241 125.358621 
z
" style="fill: #ffffff"/>
   </g>
   <g id="patch_10">
    <path d="M 191.917241 233.110345 
L 345.848276 233.110345 
L 345.848276 130.489655 
L 191.917241 130.489655 
z
" clip-path="url(#p950b3f0ef7)" style="fill: #dcdcdc; stroke: #7f8c8d; stroke-linejoin: miter"/>
   </g>
   <g id="patch_11">
    <path d="M 263.751724 233.110345 
L 274.013793 233.110345 
L 274.013793 222.848276 
L 274.013793 222.848276 
L 276.611994 222.683155 
L 279.168389 222.190451 
L 281.641845 221.378089 
L 283.992562 220.259143 
L 286.182717 218.851616 
L 288.17707 217.178155 
L 289.94353 215.265688 
L 291.453675 213.144986 
L 292.683206 210.850173 
L 293.612338 208.418173 
L 294.226123 205.888117 
L 307.520906 130.489655 
L 230.244611 130.489655 
L 243.539394 205.888117 
L 244.153179 208.418173 
L 245.082312 210.850173 
L 246.311842 213.144986 
L 247.821987 215.265688 
L 249.588447 217.178155 
L 251.5828 218.851616 
L 253.772955 220.259143 
L 256.123673 221.378089 
L 258.597128 222.190451 
L 261.153523 222.683155 
L 263.751724 222.848276 
L 263.751724 222.848276 
z
" clip-path="url(#p950b3f0ef7)" style="fill: #f39c12; fill-opacity: 0.6; stroke: #f39c12; stroke-width: 2; stroke-linejoin: miter"/>
   </g>
   <g id="matplotlib.axis_3"/>
   <g id="matplotlib.axis_4"/>
   <g id="patch_12">
    <path d="M 191.917241 238.241379 
L 191.917241 125.358621 
" style="fill: none; stroke: #000000; stroke-width: 0.8; stroke-linejoin: miter; stroke-linecap: square"/>
   </g>
   <g id="patch_13">
    <path d="M 345.848276 238.241379 
L 345.848276 125.358621 
" style="fill: none; stroke: #000000; stroke-width: 0.8; stroke-linejoin: miter; stroke-linecap: square"/>
   </g>
   <g id="patch_14">
    <path d="M 191.917241 238.241379 
L 345.848276 238.241379 
" style="fill: none; stroke: #000000; stroke-width: 0.8; stroke-linejoin: miter; stroke-linecap: square"/>
   </g>
   <g id="patch_15">
    <path d="M 191.917241 125.358621 
L 345.848276 125.358621 
" style="fill: none; stroke: #000000; stroke-width: 0.8; stroke-linejoin: miter; stroke-linecap: square"/>
   </g>
   <g id="text_2">
    <!-- U-groove -->
    <g transform="translate(240.611899 106.955089) scale(0.11 -0.11)">
     <defs>
      <path id="DejaVuSans-Bold-55" d="M 588 4666 
L 1791 4666 
L 1791 1869 
Q 1791 1291 1980 1042 
Q 2169 794 2597 794 
Q 3028 794 3217 1042 
Q 3406 1291 3406 1869 
L 3406 4666 
L 4609 4666 
L 4609 1869 
Q 4609 878 4112 393 
Q 3616 -91 2597 -91 
Q 1581 -91 1084 393 
Q 588 878 588 1869 
L 588 4666 
z
" transform="scale(0.015625)"/>
     </defs>
     <use xlink:href="#DejaVuSans-Bold-55"/>
     <use xlink:href="#DejaVuSans-Bold-2d" transform="translate(81.201172 0)"/>
     <use xlink:href="#DejaVuSans-Bold-67" transform="translate(122.705078 0)"/>
     <use xlink:href="#DejaVuSans-Bold-72" transform="translate(194.287109 0)"/>
     <use xlink:href="#DejaVuSans-Bold-6f" transform="translate(243.603516 0)"/>
     <use xlink:href="#DejaVuSans-Bold-6f" transform="translate(312.304688 0)"/>
     <use xlink:href="#DejaVuSans-Bold-76" transform="translate(381.005859 0)"/>
     <use xlink:href="#DejaVuSans-Bold-65" transform="translate(446.191406 0)"/>
    </g>
    <!-- area = 213.4 mm² -->
    <g transform="translate(213.396352 119.358621) scale(0.11 -0.11)">
     <defs>
      <path id="DejaVuSans-Bold-33" d="M 2981 2516 
Q 3453 2394 3698 2092 
Q 3944 1791 3944 1325 
Q 3944 631 3412 270 
Q 2881 -91 1863 -91 
Q 1503 -91 1142 -33 
Q 781 25 428 141 
L 428 1069 
Q 766 900 1098 814 
Q 1431 728 1753 728 
Q 2231 728 2486 893 
Q 2741 1059 2741 1369 
Q 2741 1688 2480 1852 
Q 2219 2016 1709 2016 
L 1228 2016 
L 1228 2791 
L 1734 2791 
Q 2188 2791 2409 2933 
Q 2631 3075 2631 3366 
Q 2631 3634 2415 3781 
Q 2200 3928 1806 3928 
Q 1516 3928 1219 3862 
Q 922 3797 628 3669 
L 628 4550 
Q 984 4650 1334 4700 
Q 1684 4750 2022 4750 
Q 2931 4750 3382 4451 
Q 3834 4153 3834 3553 
Q 3834 3144 3618 2883 
Q 3403 2622 2981 2516 
z
" transform="scale(0.015625)"/>
      <path id="DejaVuSans-Bold-34" d="M 2356 3675 
L 1038 1722 
L 2356 1722 
L 2356 3675 
z
M 2156 4666 
L 3494 4666 
L 3494 1722 
L 4159 1722 
L 4159 850 
L 3494 850 
L 3494 0 
L 2356 0 
L 2356 850 
L 288 850 
L 288 1881 
L 2156 4666 
z
" transform="scale(0.015625)"/>
     </defs>
     <use xlink:href="#DejaVuSans-Bold-61"/>
     <use xlink:href="#DejaVuSans-Bold-72" transform="translate(67.480469 0)"/>
     <use xlink:href="#DejaVuSans-Bold-65" transform="translate(116.796875 0)"/>
     <use xlink:href="#DejaVuSans-Bold-61" transform="translate(184.619141 0)"/>
     <use xlink:href="#DejaVuSans-Bold-20" transform="translate(252.099609 0)"/>
     <use xlink:href="#DejaVuSans-Bold-3d" transform="translate(286.914062 0)"/>
     <use xlink:href="#DejaVuSans-Bold-20" transform="translate(370.703125 0)"/>
     <use xlink:href="#DejaVuSans-Bold-32" transform="translate(405.517578 0)"/>
     <use xlink:href="#DejaVuSans-Bold-31" transform="translate(475.097656 0)"/>
     <use xlink:href="#DejaVuSans-Bold-33" transform="translate(544.677734 0)"/>
     <use xlink:href="#DejaVuSans-Bold-2e" transform="translate(614.257812 0)"/>
     <use xlink:href="#DejaVuSans-Bold-34" transform="translate(652.246094 0)"/>
     <use xlink:href="#DejaVuSans-Bold-20" transform="translate(721.826172 0)"/>
     <use xlink:href="#DejaVuSans-Bold-6d" transform="translate(756.640625 0)"/>
     <use xlink:href="#DejaVuSans-Bold-6d" transform="translate(860.839844 0)"/>
     <use xlink:href="#DejaVuSans-Bold-b2" transform="translate(965.039062 0)"/>
    </g>
   </g>
  </g>
  <g id="axes_3">
   <g id="patch_16">
    <path d="M 376.634483 238.241379 
L 530.565517 238.241379 
L 530.565517 125.358621 
L 376.634483 125.358621 
z
" style="fill: #ffffff"/>
   </g>
   <g id="patch_17">
    <path d="M 376.634483 233.110345 
L 530.565517 233.110345 
L 530.565517 130.489655 
L 376.634483 130.489655 
z
" clip-path="url(#p633e35b977)" style="fill: #dcdcdc; stroke: #7f8c8d; stroke-linejoin: miter"/>
   </g>
   <g id="patch_18">
    <path d="M 448.468966 233.110345 
L 458.731034 233.110345 
L 458.731034 222.848276 
L 458.731034 202.324138 
L 458.823969 200.373195 
L 459.101932 198.439919 
L 459.562406 196.54182 
L 460.201221 194.696086 
L 461.012591 192.919434 
L 461.989169 191.227951 
L 463.12211 189.636958 
L 464.401155 188.160861 
L 465.81472 186.813029 
L 467.350004 185.605669 
L 468.993103 184.549713 
L 500.204692 130.489655 
L 448.468966 130.489655 
z
" clip-path="url(#p633e35b977)" style="fill: #f39c12; fill-opacity: 0.6; stroke: #f39c12; stroke-width: 2; stroke-linejoin: miter"/>
   </g>
   <g id="matplotlib.axis_5"/>
   <g id="matplotlib.axis_6"/>
   <g id="patch_19">
    <path d="M 376.634483 238.241379 
L 376.634483 125.358621 
" style="fill: none; stroke: #000000; stroke-width: 0.8; stroke-linejoin: miter; stroke-linecap: square"/>
   </g>
   <g id="patch_20">
    <path d="M 530.565517 238.241379 
L 530.565517 125.358621 
" style="fill: none; stroke: #000000; stroke-width: 0.8; stroke-linejoin: miter; stroke-linecap: square"/>
   </g>
   <g id="patch_21">
    <path d="M 376.634483 238.241379 
L 530.565517 238.241379 
" style="fill: none; stroke: #000000; stroke-width: 0.8; stroke-linejoin: miter; stroke-linecap: square"/>
   </g>
   <g id="patch_22">
    <path d="M 376.634483 125.358621 
L 530.565517 125.358621 
" style="fill: none; stroke: #000000; stroke-width: 0.8; stroke-linejoin: miter; stroke-linecap: square"/>
   </g>
   <g id="text_3">
    <!-- J-groove -->
    <g transform="translate(427.749141 106.955089) scale(0.11 -0.11)">
     <defs>
      <path id="DejaVuSans-Bold-4a" d="M 588 4666 
L 1791 4666 
L 1791 453 
Q 1791 -419 1317 -850 
Q 844 -1281 -116 -1281 
L -359 -1281 
L -359 -372 
L -172 -372 
Q 203 -372 395 -162 
Q 588 47 588 453 
L 588 4666 
z
" transform="scale(0.015625)"/>
     </defs>
     <use xlink:href="#DejaVuSans-Bold-4a"/>
     <use xlink:href="#DejaVuSans-Bold-2d" transform="translate(37.207031 0)"/>
     <use xlink:href="#DejaVuSans-Bold-67" transform="translate(78.710938 0)"/>
     <use xlink:href="#DejaVuSans-Bold-72" transform="translate(150.292969 0)"/>
     <use xlink:href="#DejaVuSans-Bold-6f" transform="translate(199.609375 0)"/>
     <use xlink:href="#DejaVuSans-Bold-6f" transform="translate(268.310547 0)"/>
     <use xlink:href="#DejaVuSans-Bold-76" transform="translate(337.011719 0)"/>
     <use xlink:href="#DejaVuSans-Bold-65" transform="translate(402.197266 0)"/>
    </g>
    <!-- area = 95.1 mm² -->
    <g transform="translate(401.940391 119.358621) scale(0.11 -0.11)">
     <defs>
      <path id="DejaVuSans-Bold-39" d="M 641 103 
L 641 966 
Q 928 831 1190 764 
Q 1453 697 1709 697 
Q 2247 697 2547 995 
Q 2847 1294 2900 1881 
Q 2688 1725 2447 1647 
Q 2206 1569 1925 1569 
Q 1209 1569 770 1986 
Q 331 2403 331 3084 
Q 331 3838 820 4291 
Q 1309 4744 2131 4744 
Q 3044 4744 3544 4128 
Q 4044 3513 4044 2388 
Q 4044 1231 3459 570 
Q 2875 -91 1856 -91 
Q 1528 -91 1228 -42 
Q 928 6 641 103 
z
M 2125 2350 
Q 2441 2350 2600 2554 
Q 2759 2759 2759 3169 
Q 2759 3575 2600 3781 
Q 2441 3988 2125 3988 
Q 1809 3988 1650 3781 
Q 1491 3575 1491 3169 
Q 1491 2759 1650 2554 
Q 1809 2350 2125 2350 
z
" transform="scale(0.015625)"/>
      <path id="DejaVuSans-Bold-35" d="M 678 4666 
L 3669 4666 
L 3669 3781 
L 1638 3781 
L 1638 3059 
Q 1775 3097 1914 3117 
Q 2053 3138 2203 3138 
Q 3056 3138 3531 2711 
Q 4006 2284 4006 1522 
Q 4006 766 3489 337 
Q 2972 -91 2053 -91 
Q 1656 -91 1267 -14 
Q 878 63 494 219 
L 494 1166 
Q 875 947 1217 837 
Q 1559 728 1863 728 
Q 2300 728 2551 942 
Q 2803 1156 2803 1522 
Q 2803 1891 2551 2103 
Q 2300 2316 1863 2316 
Q 1603 2316 1309 2248 
Q 1016 2181 678 2041 
L 678 4666 
z
" transform="scale(0.015625)"/>
     </defs>
     <use xlink:href="#DejaVuSans-Bold-61"/>
     <use xlink:href="#DejaVuSans-Bold-72" transform="translate(67.480469 0)"/>
     <use xlink:href="#DejaVuSans-Bold-65" transform="translate(116.796875 0)"/>
     <use xlink:href="#DejaVuSans-Bold-61" transform="translate(184.619141 0)"/>
     <use xlink:href="#DejaVuSans-Bold-20" transform="translate(252.099609 0)"/>
     <use xlink:href="#DejaVuSans-Bold-3d" transform="translate(286.914062 0)"/>
     <use xlink:href="#DejaVuSans-Bold-20" transform="translate(370.703125 0)"/>
     <use xlink:href="#DejaVuSans-Bold-39" transform="translate(405.517578 0)"/>
     <use xlink:href="#DejaVuSans-Bold-35" transform="translate(475.097656 0)"/>
     <use xlink:href="#DejaVuSans-Bold-2e" transform="translate(544.677734 0)"/>
     <use xlink:href="#DejaVuSans-Bold-31" transform="translate(582.666016 0)"/>
     <use xlink:href="#DejaVuSans-Bold-20" transform="translate(652.246094 0)"/>
     <use xlink:href="#DejaVuSans-Bold-6d" transform="translate(687.060547 0)"/>
     <use xlink:href="#DejaVuSans-Bold-6d" transform="translate(791.259766 0)"/>
     <use xlink:href="#DejaVuSans-Bold-b2" transform="translate(895.458984 0)"/>
    </g>
   </g>
  </g>
  <g id="axes_4">
   <g id="patch_23">
    <path d="M 561.351724 238.241379 
L 715.282759 238.241379 
L 715.282759 125.358621 
L 561.351724 125.358621 
z
" style="fill: #ffffff"/>
   </g>
   <g id="patch_24">
    <path d="M 561.351724 233.110345 
L 715.282759 233.110345 
L 715.282759 130.489655 
L 561.351724 130.489655 
z
" clip-path="url(#pe13784fd7c)" style="fill: #dcdcdc; stroke: #7f8c8d; stroke-linejoin: miter"/>
   </g>
   <g id="patch_25">
    <path d="M 608.005772 233.110345 
L 668.628711 233.110345 
L 643.448276 189.496552 
L 643.448276 174.103448 
L 668.628711 130.489655 
L 608.005772 130.489655 
L 633.186207 174.103448 
L 633.186207 189.496552 
z
" clip-path="url(#pe13784fd7c)" style="fill: #f39c12; fill-opacity: 0.6; stroke: #f39c12; stroke-width: 2; stroke-linejoin: miter"/>
   </g>
   <g id="matplotlib.axis_7"/>
   <g id="matplotlib.axis_8"/>
   <g id="patch_26">
    <path d="M 561.351724 238.241379 
L 561.351724 125.358621 
" style="fill: none; stroke: #000000; stroke-width: 0.8; stroke-linejoin: miter; stroke-linecap: square"/>
   </g>
   <g id="patch_27">
    <path d="M 715.282759 238.241379 
L 715.282759 125.358621 
" style="fill: none; stroke: #000000; stroke-width: 0.8; stroke-linejoin: miter; stroke-linecap: square"/>
   </g>
   <g id="patch_28">
    <path d="M 561.351724 238.241379 
L 715.282759 238.241379 
" style="fill: none; stroke: #000000; stroke-width: 0.8; stroke-linejoin: miter; stroke-linecap: square"/>
   </g>
   <g id="patch_29">
    <path d="M 561.351724 125.358621 
L 715.282759 125.358621 
" style="fill: none; stroke: #000000; stroke-width: 0.8; stroke-linejoin: miter; stroke-linecap: square"/>
   </g>
   <g id="text_4">
    <!-- X-groove -->
    <g transform="translate(610.719273 106.955089) scale(0.11 -0.11)">
     <defs>
      <path id="DejaVuSans-Bold-58" d="M 3188 2381 
L 4806 0 
L 3553 0 
L 2463 1594 
L 1381 0 
L 122 0 
L 1741 2381 
L 184 4666 
L 1441 4666 
L 2463 3163 
L 3481 4666 
L 4744 4666 
L 3188 2381 
z
" transform="scale(0.015625)"/>
     </defs>
     <use xlink:href="#DejaVuSans-Bold-58"/>
     <use xlink:href="#DejaVuSans-Bold-2d" transform="translate(68.974609 0)"/>
     <use xlink:href="#DejaVuSans-Bold-67" transform="translate(110.478516 0)"/>
     <use xlink:href="#DejaVuSans-Bold-72" transform="translate(182.060547 0)"/>
     <use xlink:href="#DejaVuSans-Bold-6f" transform="translate(231.376953 0)"/>
     <use xlink:href="#DejaVuSans-Bold-6f" transform="translate(300.078125 0)"/>
     <use xlink:href="#DejaVuSans-Bold-76" transform="translate(368.779297 0)"/>
     <use xlink:href="#DejaVuSans-Bold-65" transform="translate(433.964844 0)"/>
    </g>
    <!-- area = 123.4 mm² -->
    <g transform="translate(582.830835 119.358621) scale(0.11 -0.11)">
     <use xlink:href="#DejaVuSans-Bold-61"/>
     <use xlink:href="#DejaVuSans-Bold-72" transform="translate(67.480469 0)"/>
     <use xlink:href="#DejaVuSans-Bold-65" transform="translate(116.796875 0)"/>
     <use xlink:href="#DejaVuSans-Bold-61" transform="translate(184.619141 0)"/>
     <use xlink:href="#DejaVuSans-Bold-20" transform="translate(252.099609 0)"/>
     <use xlink:href="#DejaVuSans-Bold-3d" transform="translate(286.914062 0)"/>
     <use xlink:href="#DejaVuSans-Bold-20" transform="translate(370.703125 0)"/>
     <use xlink:href="#DejaVuSans-Bold-31" transform="translate(405.517578 0)"/>
     <use xlink:href="#DejaVuSans-Bold-32" transform="translate(475.097656 0)"/>
     <use xlink:href="#DejaVuSans-Bold-33" transform="translate(544.677734 0)"/>
     <use xlink:href="#DejaVuSans-Bold-2e" transform="translate(614.257812 0)"/>
     <use xlink:href="#DejaVuSans-Bold-34" transform="translate(652.246094 0)"/>
     <use xlink:href="#DejaVuSans-Bold-20" transform="translate(721.826172 0)"/>
     <use xlink:href="#DejaVuSans-Bold-6d" transform="translate(756.640625 0)"/>
     <use xlink:href="#DejaVuSans-Bold-6d" transform="translate(860.839844 0)"/>
     <use xlink:href="#DejaVuSans-Bold-b2" transform="translate(965.039062 0)"/>
    </g>
   </g>
  </g>
  <g id="axes_5">
   <g id="patch_30">
    <path d="M 746.068966 238.241379 
L 900 238.241379 
L 900 125.358621 
L 746.068966 125.358621 
z
" style="fill: #ffffff"/>
   </g>
   <g id="patch_31">
    <path d="M 746.068966 233.110345 
L 900 233.110345 
L 900 130.489655 
L 746.068966 130.489655 
z
" clip-path="url(#p56ae67615e)" style="fill: #dcdcdc; stroke: #7f8c8d; stroke-linejoin: miter"/>
   </g>
   <g id="patch_32">
    <path d="M 817.903448 233.110345 
L 828.165517 233.110345 
L 828.165517 222.848276 
L 920.524138 130.489655 
L 817.903448 130.489655 
z
" clip-path="url(#p56ae67615e)" style="fill: #f39c12; fill-opacity: 0.6; stroke: #f39c12; stroke-width: 2; stroke-linejoin: miter"/>
   </g>
   <g id="matplotlib.axis_9"/>
   <g id="matplotlib.axis_10"/>
   <g id="patch_33">
    <path d="M 746.068966 238.241379 
L 746.068966 125.358621 
" style="fill: none; stroke: #000000; stroke-width: 0.8; stroke-linejoin: miter; stroke-linecap: square"/>
   </g>
   <g id="patch_34">
    <path d="M 900 238.241379 
L 900 125.358621 
" style="fill: none; stroke: #000000; stroke-width: 0.8; stroke-linejoin: miter; stroke-linecap: square"/>
   </g>
   <g id="patch_35">
    <path d="M 746.068966 238.241379 
L 900 238.241379 
" style="fill: none; stroke: #000000; stroke-width: 0.8; stroke-linejoin: miter; stroke-linecap: square"/>
   </g>
   <g id="patch_36">
    <path d="M 746.068966 125.358621 
L 900 125.358621 
" style="fill: none; stroke: #000000; stroke-width: 0.8; stroke-linejoin: miter; stroke-linecap: square"/>
   </g>
   <g id="text_5">
    <!-- K-groove -->
    <g transform="translate(795.449405 106.955089) scale(0.11 -0.11)">
     <defs>
      <path id="DejaVuSans-Bold-4b" d="M 588 4666 
L 1791 4666 
L 1791 2963 
L 3525 4666 
L 4922 4666 
L 2675 2456 
L 5153 0 
L 3647 0 
L 1791 1838 
L 1791 0 
L 588 0 
L 588 4666 
z
" transform="scale(0.015625)"/>
     </defs>
     <use xlink:href="#DejaVuSans-Bold-4b"/>
     <use xlink:href="#DejaVuSans-Bold-2d" transform="translate(68.740234 0)"/>
     <use xlink:href="#DejaVuSans-Bold-67" transform="translate(110.244141 0)"/>
     <use xlink:href="#DejaVuSans-Bold-72" transform="translate(181.826172 0)"/>
     <use xlink:href="#DejaVuSans-Bold-6f" transform="translate(231.142578 0)"/>
     <use xlink:href="#DejaVuSans-Bold-6f" transform="translate(299.84375 0)"/>
     <use xlink:href="#DejaVuSans-Bold-76" transform="translate(368.544922 0)"/>
     <use xlink:href="#DejaVuSans-Bold-65" transform="translate(433.730469 0)"/>
    </g>
    <!-- area = 202.0 mm² -->
    <g transform="translate(767.548077 119.358621) scale(0.11 -0.11)">
     <defs>
      <path id="DejaVuSans-Bold-30" d="M 2944 2338 
Q 2944 3213 2780 3570 
Q 2616 3928 2228 3928 
Q 1841 3928 1675 3570 
Q 1509 3213 1509 2338 
Q 1509 1453 1675 1090 
Q 1841 728 2228 728 
Q 2613 728 2778 1090 
Q 2944 1453 2944 2338 
z
M 4147 2328 
Q 4147 1169 3647 539 
Q 3147 -91 2228 -91 
Q 1306 -91 806 539 
Q 306 1169 306 2328 
Q 306 3491 806 4120 
Q 1306 4750 2228 4750 
Q 3147 4750 3647 4120 
Q 4147 3491 4147 2328 
z
" transform="scale(0.015625)"/>
     </defs>
     <use xlink:href="#DejaVuSans-Bold-61"/>
     <use xlink:href="#DejaVuSans-Bold-72" transform="translate(67.480469 0)"/>
     <use xlink:href="#DejaVuSans-Bold-65" transform="translate(116.796875 0)"/>
     <use xlink:href="#DejaVuSans-Bold-61" transform="translate(184.619141 0)"/>
     <use xlink:href="#DejaVuSans-Bold-20" transform="translate(252.099609 0)"/>
     <use xlink:href="#DejaVuSans-Bold-3d" transform="translate(286.914062 0)"/>
     <use xlink:href="#DejaVuSans-Bold-20" transform="translate(370.703125 0)"/>
     <use xlink:href="#DejaVuSans-Bold-32" transform="translate(405.517578 0)"/>
     <use xlink:href="#DejaVuSans-Bold-30" transform="translate(475.097656 0)"/>
     <use xlink:href="#DejaVuSans-Bold-32" transform="translate(544.677734 0)"/>
     <use xlink:href="#DejaVuSans-Bold-2e" transform="translate(614.257812 0)"/>
     <use xlink:href="#DejaVuSans-Bold-30" transform="translate(652.246094 0)"/>
     <use xlink:href="#DejaVuSans-Bold-20" transform="translate(721.826172 0)"/>
     <use xlink:href="#DejaVuSans-Bold-6d" transform="translate(756.640625 0)"/>
     <use xlink:href="#DejaVuSans-Bold-6d" transform="translate(860.839844 0)"/>
     <use xlink:href="#DejaVuSans-Bold-b2" transform="translate(965.039062 0)"/>
    </g>
   </g>
  </g>
  <g id="text_6">
   <!-- Weld groove preparation gallery (plate thickness = 20 mm) -->
   <g transform="translate(245.517266 17.077969) scale(0.13 -0.13)">
    <defs>
     <path id="DejaVuSans-57" d="M 213 4666 
L 850 4666 
L 1831 722 
L 2809 4666 
L 3519 4666 
L 4500 722 
L 5478 4666 
L 6119 4666 
L 4947 0 
L 4153 0 
L 3169 4050 
L 2175 0 
L 1381 0 
L 213 4666 
z
" transform="scale(0.015625)"/>
     <path id="DejaVuSans-65" d="M 3597 1894 
L 3597 1613 
L 953 1613 
Q 991 1019 1311 708 
Q 1631 397 2203 397 
Q 2534 397 2845 478 
Q 3156 559 3463 722 
L 3463 178 
Q 3153 47 2828 -22 
Q 2503 -91 2169 -91 
Q 1331 -91 842 396 
Q 353 884 353 1716 
Q 353 2575 817 3079 
Q 1281 3584 2069 3584 
Q 2775 3584 3186 3129 
Q 3597 2675 3597 1894 
z
M 3022 2063 
Q 3016 2534 2758 2815 
Q 2500 3097 2075 3097 
Q 1594 3097 1305 2825 
Q 1016 2553 972 2059 
L 3022 2063 
z
" transform="scale(0.015625)"/>
     <path id="DejaVuSans-6c" d="M 603 4863 
L 1178 4863 
L 1178 0 
L 603 0 
L 603 4863 
z
" transform="scale(0.015625)"/>
     <path id="DejaVuSans-64" d="M 2906 2969 
L 2906 4863 
L 3481 4863 
L 3481 0 
L 2906 0 
L 2906 525 
Q 2725 213 2448 61 
Q 2172 -91 1784 -91 
Q 1150 -91 751 415 
Q 353 922 353 1747 
Q 353 2572 751 3078 
Q 1150 3584 1784 3584 
Q 2172 3584 2448 3432 
Q 2725 3281 2906 2969 
z
M 947 1747 
Q 947 1113 1208 752 
Q 1469 391 1925 391 
Q 2381 391 2643 752 
Q 2906 1113 2906 1747 
Q 2906 2381 2643 2742 
Q 2381 3103 1925 3103 
Q 1469 3103 1208 2742 
Q 947 2381 947 1747 
z
" transform="scale(0.015625)"/>
     <path id="DejaVuSans-20" transform="scale(0.015625)"/>
     <path id="DejaVuSans-67" d="M 2906 1791 
Q 2906 2416 2648 2759 
Q 2391 3103 1925 3103 
Q 1463 3103 1205 2759 
Q 947 2416 947 1791 
Q 947 1169 1205 825 
Q 1463 481 1925 481 
Q 2391 481 2648 825 
Q 2906 1169 2906 1791 
z
M 3481 434 
Q 3481 -459 3084 -895 
Q 2688 -1331 1869 -1331 
Q 1566 -1331 1297 -1286 
Q 1028 -1241 775 -1147 
L 775 -588 
Q 1028 -725 1275 -790 
Q 1522 -856 1778 -856 
Q 2344 -856 2625 -561 
Q 2906 -266 2906 331 
L 2906 616 
Q 2728 306 2450 153 
Q 2172 0 1784 0 
Q 1141 0 747 490 
Q 353 981 353 1791 
Q 353 2603 747 3093 
Q 1141 3584 1784 3584 
Q 2172 3584 2450 3431 
Q 2728 3278 2906 2969 
L 2906 3500 
L 3481 3500 
L 3481 434 
z
" transform="scale(0.015625)"/>
     <path id="DejaVuSans-72" d="M 2631 2963 
Q 2534 3019 2420 3045 
Q 2306 3072 2169 3072 
Q 1681 3072 1420 2755 
Q 1159 2438 1159 1844 
L 1159 0 
L 581 0 
L 581 3500 
L 1159 3500 
L 1159 2956 
Q 1341 3275 1631 3429 
Q 1922 3584 2338 3584 
Q 2397 3584 2469 3576 
Q 2541 3569 2628 3553 
L 2631 2963 
z
" transform="scale(0.015625)"/>
     <path id="DejaVuSans-6f" d="M 1959 3097 
Q 1497 3097 1228 2736 
Q 959 2375 959 1747 
Q 959 1119 1226 758 
Q 1494 397 1959 397 
Q 2419 397 2687 759 
Q 2956 1122 2956 1747 
Q 2956 2369 2687 2733 
Q 2419 3097 1959 3097 
z
M 1959 3584 
Q 2709 3584 3137 3096 
Q 3566 2609 3566 1747 
Q 3566 888 3137 398 
Q 2709 -91 1959 -91 
Q 1206 -91 779 398 
Q 353 888 353 1747 
Q 353 2609 779 3096 
Q 1206 3584 1959 3584 
z
" transform="scale(0.015625)"/>
     <path id="DejaVuSans-76" d="M 191 3500 
L 800 3500 
L 1894 563 
L 2988 3500 
L 3597 3500 
L 2284 0 
L 1503 0 
L 191 3500 
z
" transform="scale(0.015625)"/>
     <path id="DejaVuSans-70" d="M 1159 525 
L 1159 -1331 
L 581 -1331 
L 581 3500 
L 1159 3500 
L 1159 2969 
Q 1341 3281 1617 3432 
Q 1894 3584 2278 3584 
Q 2916 3584 3314 3078 
Q 3713 2572 3713 1747 
Q 3713 922 3314 415 
Q 2916 -91 2278 -91 
Q 1894 -91 1617 61 
Q 1341 213 1159 525 
z
M 3116 1747 
Q 3116 2381 2855 2742 
Q 2594 3103 2138 3103 
Q 1681 3103 1420 2742 
Q 1159 2381 1159 1747 
Q 1159 1113 1420 752 
Q 1681 391 2138 391 
Q 2594 391 2855 752 
Q 3116 1113 3116 1747 
z
" transform="scale(0.015625)"/>
     <path id="DejaVuSans-61" d="M 2194 1759 
Q 1497 1759 1228 1600 
Q 959 1441 959 1056 
Q 959 750 1161 570 
Q 1363 391 1709 391 
Q 2188 391 2477 730 
Q 2766 1069 2766 1631 
L 2766 1759 
L 2194 1759 
z
M 3341 1997 
L 3341 0 
L 2766 0 
L 2766 531 
Q 2569 213 2275 61 
Q 1981 -91 1556 -91 
Q 1019 -91 701 211 
Q 384 513 384 1019 
Q 384 1609 779 1909 
Q 1175 2209 1959 2209 
L 2766 2209 
L 2766 2266 
Q 2766 2663 2505 2880 
Q 2244 3097 1772 3097 
Q 1472 3097 1187 3025 
Q 903 2953 641 2809 
L 641 3341 
Q 956 3463 1253 3523 
Q 1550 3584 1831 3584 
Q 2591 3584 2966 3190 
Q 3341 2797 3341 1997 
z
" transform="scale(0.015625)"/>
     <path id="DejaVuSans-74" d="M 1172 4494 
L 1172 3500 
L 2356 3500 
L 2356 3053 
L 1172 3053 
L 1172 1153 
Q 1172 725 1289 603 
Q 1406 481 1766 481 
L 2356 481 
L 2356 0 
L 1766 0 
Q 1100 0 847 248 
Q 594 497 594 1153 
L 594 3053 
L 172 3053 
L 172 3500 
L 594 3500 
L 594 4494 
L 1172 4494 
z
" transform="scale(0.015625)"/>
     <path id="DejaVuSans-69" d="M 603 3500 
L 1178 3500 
L 1178 0 
L 603 0 
L 603 3500 
z
M 603 4863 
L 1178 4863 
L 1178 4134 
L 603 4134 
L 603 4863 
z
" transform="scale(0.015625)"/>
     <path id="DejaVuSans-6e" d="M 3513 2113 
L 3513 0 
L 2938 0 
L 2938 2094 
Q 2938 2591 2744 2837 
Q 2550 3084 2163 3084 
Q 1697 3084 1428 2787 
Q 1159 2491 1159 1978 
L 1159 0 
L 581 0 
L 581 3500 
L 1159 3500 
L 1159 2956 
Q 1366 3272 1645 3428 
Q 1925 3584 2291 3584 
Q 2894 3584 3203 3211 
Q 3513 2838 3513 2113 
z
" transform="scale(0.015625)"/>
     <path id="DejaVuSans-79" d="M 2059 -325 
Q 1816 -950 1584 -1140 
Q 1353 -1331 966 -1331 
L 506 -1331 
L 506 -850 
L 844 -850 
Q 1081 -850 1212 -737 
Q 1344 -625 1503 -206 
L 1606 56 
L 191 3500 
L 800 3500 
L 1894 763 
L 2988 3500 
L 3597 3500 
L 2059 -325 
z
" transform="scale(0.015625)"/>
     <path id="DejaVuSans-28" d="M 1984 4856 
Q 1566 4138 1362 3434 
Q 1159 2731 1159 2009 
Q 1159 1288 1364 580 
Q 1569 -128 1984 -844 
L 1484 -844 
Q 1016 -109 783 600 
Q 550 1309 550 2009 
Q 550 2706 781 3412 
Q 1013 4119 1484 4856 
L 1984 4856 
z
" transform="scale(0.015625)"/>
     <path id="DejaVuSans-68" d="M 3513 2113 
L 3513 0 
L 2938 0 
L 2938 2094 
Q 2938 2591 2744 2837 
Q 2550 3084 2163 3084 
Q 1697 3084 1428 2787 
Q 1159 2491 1159 1978 
L 1159 0 
L 581 0 
L 581 4863 
L 1159 4863 
L 1159 2956 
Q 1366 3272 1645 3428 
Q 1925 3584 2291 3584 
Q 2894 3584 3203 3211 
Q 3513 2838 3513 2113 
z
" transform="scale(0.015625)"/>
     <path id="DejaVuSans-63" d="M 3122 3366 
L 3122 2828 
Q 2878 2963 2633 3030 
Q 2388 3097 2138 3097 
Q 1578 3097 1268 2742 
Q 959 2388 959 1747 
Q 959 1106 1268 751 
Q 1578 397 2138 397 
Q 2388 397 2633 464 
Q 2878 531 3122 666 
L 3122 134 
Q 2881 22 2623 -34 
Q 2366 -91 2075 -91 
Q 1284 -91 818 406 
Q 353 903 353 1747 
Q 353 2603 823 3093 
Q 1294 3584 2113 3584 
Q 2378 3584 2631 3529 
Q 2884 3475 3122 3366 
z
" transform="scale(0.015625)"/>
     <path id="DejaVuSans-6b" d="M 581 4863 
L 1159 4863 
L 1159 1991 
L 2875 3500 
L 3609 3500 
L 1753 1863 
L 3688 0 
L 2938 0 
L 1159 1709 
L 1159 0 
L 581 0 
L 581 4863 
z
" transform="scale(0.015625)"/>
     <path id="DejaVuSans-73" d="M 2834 3397 
L 2834 2853 
Q 2591 2978 2328 3040 
Q 2066 3103 1784 3103 
Q 1356 3103 1142 2972 
Q 928 2841 928 2578 
Q 928 2378 1081 2264 
Q 1234 2150 1697 2047 
L 1894 2003 
Q 2506 1872 2764 1633 
Q 3022 1394 3022 966 
Q 3022 478 2636 193 
Q 2250 -91 1575 -91 
Q 1294 -91 989 -36 
Q 684 19 347 128 
L 347 722 
Q 666 556 975 473 
Q 1284 391 1588 391 
Q 1994 391 2212 530 
Q 2431 669 2431 922 
Q 2431 1156 2273 1281 
Q 2116 1406 1581 1522 
L 1381 1569 
Q 847 1681 609 1914 
Q 372 2147 372 2553 
Q 372 3047 722 3315 
Q 1072 3584 1716 3584 
Q 2034 3584 2315 3537 
Q 2597 3491 2834 3397 
z
" transform="scale(0.015625)"/>
     <path id="DejaVuSans-3d" d="M 678 2906 
L 4684 2906 
L 4684 2381 
L 678 2381 
L 678 2906 
z
M 678 1631 
L 4684 1631 
L 4684 1100 
L 678 1100 
L 678 1631 
z
" transform="scale(0.015625)"/>
     <path id="DejaVuSans-32" d="M 1228 531 
L 3431 531 
L 3431 0 
L 469 0 
L 469 531 
Q 828 903 1448 1529 
Q 2069 2156 2228 2338 
Q 2531 2678 2651 2914 
Q 2772 3150 2772 3378 
Q 2772 3750 2511 3984 
Q 2250 4219 1831 4219 
Q 1534 4219 1204 4116 
Q 875 4013 500 3803 
L 500 4441 
Q 881 4594 1212 4672 
Q 1544 4750 1819 4750 
Q 2544 4750 2975 4387 
Q 3406 4025 3406 3419 
Q 3406 3131 3298 2873 
Q 3191 2616 2906 2266 
Q 2828 2175 2409 1742 
Q 1991 1309 1228 531 
z
" transform="scale(0.015625)"/>
     <path id="DejaVuSans-30" d="M 2034 4250 
Q 1547 4250 1301 3770 
Q 1056 3291 1056 2328 
Q 1056 1369 1301 889 
Q 1547 409 2034 409 
Q 2525 409 2770 889 
Q 3016 1369 3016 2328 
Q 3016 3291 2770 3770 
Q 2525 4250 2034 4250 
z
M 2034 4750 
Q 2819 4750 3233 4129 
Q 3647 3509 3647 2328 
Q 3647 1150 3233 529 
Q 2819 -91 2034 -91 
Q 1250 -91 836 529 
Q 422 1150 422 2328 
Q 422 3509 836 4129 
Q 1250 4750 2034 4750 
z
" transform="scale(0.015625)"/>
     <path id="DejaVuSans-6d" d="M 3328 2828 
Q 3544 3216 3844 3400 
Q 4144 3584 4550 3584 
Q 5097 3584 5394 3201 
Q 5691 2819 5691 2113 
L 5691 0 
L 5113 0 
L 5113 2094 
Q 5113 2597 4934 2840 
Q 4756 3084 4391 3084 
Q 3944 3084 3684 2787 
Q 3425 2491 3425 1978 
L 3425 0 
L 2847 0 
L 2847 2094 
Q 2847 2600 2669 2842 
Q 2491 3084 2119 3084 
Q 1678 3084 1418 2786 
Q 1159 2488 1159 1978 
L 1159 0 
L 581 0 
L 581 3500 
L 1159 3500 
L 1159 2956 
Q 1356 3278 1631 3431 
Q 1906 3584 2284 3584 
Q 2666 3584 2933 3390 
Q 3200 3197 3328 2828 
z
" transform="scale(0.015625)"/>
     <path id="DejaVuSans-29" d="M 513 4856 
L 1013 4856 
Q 1481 4119 1714 3412 
Q 1947 2706 1947 2009 
Q 1947 1309 1714 600 
Q 1481 -109 1013 -844 
L 513 -844 
Q 928 -128 1133 580 
Q 1338 1288 1338 2009 
Q 1338 2731 1133 3434 
Q 928 4138 513 4856 
z
" transform="scale(0.015625)"/>
    </defs>
    <use xlink:href="#DejaVuSans-57"/>
    <use xlink:href="#DejaVuSans-65" transform="translate(93.001953 0)"/>
    <use xlink:href="#DejaVuSans-6c" transform="translate(154.525391 0)"/>
    <use xlink:href="#DejaVuSans-64" transform="translate(182.308594 0)"/>
    <use xlink:href="#DejaVuSans-20" transform="translate(245.785156 0)"/>
    <use xlink:href="#DejaVuSans-67" transform="translate(277.572266 0)"/>
    <use xlink:href="#DejaVuSans-72" transform="translate(341.048828 0)"/>
    <use xlink:href="#DejaVuSans-6f" transform="translate(379.912109 0)"/>
    <use xlink:href="#DejaVuSans-6f" transform="translate(441.09375 0)"/>
    <use xlink:href="#DejaVuSans-76" transform="translate(502.275391 0)"/>
    <use xlink:href="#DejaVuSans-65" transform="translate(561.455078 0)"/>
    <use xlink:href="#DejaVuSans-20" transform="translate(622.978516 0)"/>
    <use xlink:href="#DejaVuSans-70" transform="translate(654.765625 0)"/>
    <use xlink:href="#DejaVuSans-72" transform="translate(718.242188 0)"/>
    <use xlink:href="#DejaVuSans-65" transform="translate(757.105469 0)"/>
    <use xlink:href="#DejaVuSans-70" transform="translate(818.628906 0)"/>
    <use xlink:href="#DejaVuSans-61" transform="translate(882.105469 0)"/>
    <use xlink:href="#DejaVuSans-72" transform="translate(943.384766 0)"/>
    <use xlink:href="#DejaVuSans-61" transform="translate(984.498047 0)"/>
    <use xlink:href="#DejaVuSans-74" transform="translate(1045.777344 0)"/>
    <use xlink:href="#DejaVuSans-69" transform="translate(1084.986328 0)"/>
    <use xlink:href="#DejaVuSans-6f" transform="translate(1112.769531 0)"/>
    <use xlink:href="#DejaVuSans-6e" transform="translate(1173.951172 0)"/>
    <use xlink:href="#DejaVuSans-20" transform="translate(1237.330078 0)"/>
    <use xlink:href="#DejaVuSans-67" transform="translate(1269.117188 0)"/>
    <use xlink:href="#DejaVuSans-61" transform="translate(1332.59375 0)"/>
    <use xlink:href="#DejaVuSans-6c" transform="translate(1393.873047 0)"/>
    <use xlink:href="#DejaVuSans-6c" transform="translate(1421.65625 0)"/>
    <use xlink:href="#DejaVuSans-65" transform="translate(1449.439453 0)"/>
    <use xlink:href="#DejaVuSans-72" transform="translate(1510.962891 0)"/>
    <use xlink:href="#DejaVuSans-79" transform="translate(1552.076172 0)"/>
    <use xlink:href="#DejaVuSans-20" transform="translate(1611.255859 0)"/>
    <use xlink:href="#DejaVuSans-28" transform="translate(1643.042969 0)"/>
    <use xlink:href="#DejaVuSans-70" transform="translate(1682.056641 0)"/>
    <use xlink:href="#DejaVuSans-6c" transform="translate(1745.533203 0)"/>
    <use xlink:href="#DejaVuSans-61" transform="translate(1773.316406 0)"/>
    <use xlink:href="#DejaVuSans-74" transform="translate(1834.595703 0)"/>
    <use xlink:href="#DejaVuSans-65" transform="translate(1873.804688 0)"/>
    <use xlink:href="#DejaVuSans-20" transform="translate(1935.328125 0)"/>
    <use xlink:href="#DejaVuSans-74" transform="translate(1967.115234 0)"/>
    <use xlink:href="#DejaVuSans-68" transform="translate(2006.324219 0)"/>
    <use xlink:href="#DejaVuSans-69" transform="translate(2069.703125 0)"/>
    <use xlink:href="#DejaVuSans-63" transform="translate(2097.486328 0)"/>
    <use xlink:href="#DejaVuSans-6b" transform="translate(2152.466797 0)"/>
    <use xlink:href="#DejaVuSans-6e" transform="translate(2210.376953 0)"/>
    <use xlink:href="#DejaVuSans-65" transform="translate(2273.755859 0)"/>
    <use xlink:href="#DejaVuSans-73" transform="translate(2335.279297 0)"/>
    <use xlink:href="#DejaVuSans-73" transform="translate(2387.378906 0)"/>
    <use xlink:href="#DejaVuSans-20" transform="translate(2439.478516 0)"/>
    <use xlink:href="#DejaVuSans-3d" transform="translate(2471.265625 0)"/>
    <use xlink:href="#DejaVuSans-20" transform="translate(2555.054688 0)"/>
    <use xlink:href="#DejaVuSans-32" transform="translate(2586.841797 0)"/>
    <use xlink:href="#DejaVuSans-30" transform="translate(2650.464844 0)"/>
    <use xlink:href="#DejaVuSans-20" transform="translate(2714.087891 0)"/>
    <use xlink:href="#DejaVuSans-6d" transform="translate(2745.875 0)"/>
    <use xlink:href="#DejaVuSans-6d" transform="translate(2843.287109 0)"/>
    <use xlink:href="#DejaVuSans-29" transform="translate(2940.699219 0)"/>
   </g>
  </g>
 </g>
 <defs>
  <clipPath id="p5a8d5a1bc2">
   <rect x="7.2" y="125.358621" width="153.931034" height="112.882759"/>
  </clipPath>
  <clipPath id="p950b3f0ef7">
   <rect x="191.917241" y="125.358621" width="153.931034" height="112.882759"/>
  </clipPath>
  <clipPath id="p633e35b977">
   <rect x="376.634483" y="125.358621" width="153.931034" height="112.882759"/>
  </clipPath>
  <clipPath id="pe13784fd7c">
   <rect x="561.351724" y="125.358621" width="153.931034" height="112.882759"/>
  </clipPath>
  <clipPath id="p56ae67615e">
   <rect x="746.068966" y="125.358621" width="153.931034" height="112.882759"/>
  </clipPath>
 </defs>
</svg>
