<?xml version="1.0" encoding="utf-8" standalone="no"?>
<!DOCTYPE svg PUBLIC "-//W3C//DTD SVG 1.1//EN"
  "http://www.w3.org/Graphics/SVG/1.1/DTD/svg11.dtd">
<svg xmlns:xlink="http://www.w3.org/1999/xlink" width="712.8pt" height="350.889687pt" viewBox="0 0 712.8 350.889687" xmlns="http://www.w3.org/2000/svg" version="1.1">
 <metadata>
  <rdf:RDF xmlns:dc="http://purl.org/dc/elements/1.1/" xmlns:cc="http://creativecommons.org/ns#" xmlns:rdf="http://www.w3.org/1999/02/22-rdf-syntax-ns#">
   <cc:Work>
    <dc:type rdf:resource="http://purl.org/dc/dcmitype/StillImage"/>
    <dc:date>2026-04-05T18:16:38.027542</dc:date>
    <dc:format>image/svg+xml</dc:format>
    <dc:creator>
     <cc:Agent>
      <dc:title>Matplotlib v3.10.8, https://matplotlib.org/</dc:title>
     </cc:Agent>
    </dc:creator>
   </cc:Work>
  </rdf:RDF>
 </metadata>
 <defs>
  <style type="text/css">*{stroke-linejoin: round; stroke-linecap: butt}</style>
 </defs>
 <g id="figure_1">
  <g id="patch_1">
   <path d="M -0 350.889687 
L 712.8 350.889687 
L 712.8 0 
L -0 0 
z
" style="fill: #fafafa"/>
  </g>
  <g id="axes_1">
   <g id="patch_2">
    <path d="M 7.2 311.397812 
L 705.6 311.397812 
L 705.6 23.837812 
L 7.2 23.837812 
z
" style="fill: #ffffff"/>
   </g>
   <g id="FillBetweenPolyCollection_1">
    <defs>
     <path id="m23e788149a" d="M 27.154286 -76.762491 
L 27.154286 -52.562784 
L 705.6 -52.562784 
L 705.6 -76.762491 
L 705.6 -76.762491 
L 27.154286 -76.762491 
z
" style="stroke: #7f8c8d"/>
    </defs>
    <g clip-path="url(#pd83ee8d9e1)">
     <use xlink:href="#m23e788149a" x="0" y="350.889687" style="fill: #dfe6e9; stroke: #7f8c8d"/>
    </g>
   </g>
   <g id="patch_3">
    <path d="M 106.971429 274.127196 
L 59.081143 274.127196 
L 94.998857 219.677855 
L 106.971429 213.627928 
z
" clip-path="url(#pd83ee8d9e1)" style="fill: url(#h79ccec4e87); stroke: #7f8c8d; stroke-width: 1.5; stroke-linejoin: miter"/>
   </g>
   <g id="matplotlib.axis_1">
    <g id="xtick_1">
     <g id="line2d_1">
      <path d="M 27.154286 311.397812 
L 27.154286 23.837812 
" clip-path="url(#pd83ee8d9e1)" style="fill: none; stroke-dasharray: 0.8,1.32; stroke-dashoffset: 0; stroke: #b0b0b0; stroke-opacity: 0.3; stroke-width: 0.8"/>
     </g>
     <g id="line2d_2">
      <defs>
       <path id="m2bec710c27" d="M 0 0 
L 0 3.5 
" style="stroke: #000000; stroke-width: 0.8"/>
      </defs>
      <g>
       <use xlink:href="#m2bec710c27" x="27.154286" y="311.397812" style="stroke: #000000; stroke-width: 0.8"/>
      </g>
     </g>
     <g id="text_1">
      <!-- −2 -->
      <g transform="translate(19.783192 325.99625) scale(0.1 -0.1)">
       <defs>
        <path id="DejaVuSans-2212" d="M 678 2272 
L 4684 2272 
L 4684 1741 
L 678 1741 
L 678 2272 
z
" transform="scale(0.015625)"/>
        <path id="DejaVuSans-32" d="M 1228 531 
L 3431 531 
L 3431 0 
L 469 0 
L 469 531 
Q 828 903 1448 1529 
Q 2069 2156 2228 2338 
Q 2531 2678 2651 2914 
Q 2772 3150 2772 3378 
Q 2772 3750 2511 3984 
Q 2250 4219 1831 4219 
Q 1534 4219 1204 4116 
Q 875 4013 500 3803 
L 500 4441 
Q 881 4594 1212 4672 
Q 1544 4750 1819 4750 
Q 2544 4750 2975 4387 
Q 3406 4025 3406 3419 
Q 3406 3131 3298 2873 
Q 3191 2616 2906 2266 
Q 2828 2175 2409 1742 
Q 1991 1309 1228 531 
z
" transform="scale(0.015625)"/>
       </defs>
       <use xlink:href="#DejaVuSans-2212"/>
       <use xlink:href="#DejaVuSans-32" transform="translate(83.789062 0)"/>
      </g>
     </g>
    </g>
    <g id="xtick_2">
     <g id="line2d_3">
      <path d="M 106.971429 311.397812 
L 106.971429 23.837812 
" clip-path="url(#pd83ee8d9e1)" style="fill: none; stroke-dasharray: 0.8,1.32; stroke-dashoffset: 0; stroke: #b0b0b0; stroke-opacity: 0.3; stroke-width: 0.8"/>
     </g>
     <g id="line2d_4">
      <g>
       <use xlink:href="#m2bec710c27" x="106.971429" y="311.397812" style="stroke: #000000; stroke-width: 0.8"/>
      </g>
     </g>
     <g id="text_2">
      <!-- 0 -->
      <g transform="translate(103.790179 325.99625) scale(0.1 -0.1)">
       <defs>
        <path id="DejaVuSans-30" d="M 2034 4250 
Q 1547 4250 1301 3770 
Q 1056 3291 1056 2328 
Q 1056 1369 1301 889 
Q 1547 409 2034 409 
Q 2525 409 2770 889 
Q 3016 1369 3016 2328 
Q 3016 3291 2770 3770 
Q 2525 4250 2034 4250 
z
M 2034 4750 
Q 2819 4750 3233 4129 
Q 3647 3509 3647 2328 
Q 3647 1150 3233 529 
Q 2819 -91 2034 -91 
Q 1250 -91 836 529 
Q 422 1150 422 2328 
Q 422 3509 836 4129 
Q 1250 4750 2034 4750 
z
" transform="scale(0.015625)"/>
       </defs>
       <use xlink:href="#DejaVuSans-30"/>
      </g>
     </g>
    </g>
    <g id="xtick_3">
     <g id="line2d_5">
      <path d="M 186.788571 311.397812 
L 186.788571 23.837812 
" clip-path="url(#pd83ee8d9e1)" style="fill: none; stroke-dasharray: 0.8,1.32; stroke-dashoffset: 0; stroke: #b0b0b0; stroke-opacity: 0.3; stroke-width: 0.8"/>
     </g>
     <g id="line2d_6">
      <g>
       <use xlink:href="#m2bec710c27" x="186.788571" y="311.397812" style="stroke: #000000; stroke-width: 0.8"/>
      </g>
     </g>
     <g id="text_3">
      <!-- 2 -->
      <g transform="translate(183.607321 325.99625) scale(0.1 -0.1)">
       <use xlink:href="#DejaVuSans-32"/>
      </g>
     </g>
    </g>
    <g id="xtick_4">
     <g id="line2d_7">
      <path d="M 266.605714 311.397812 
L 266.605714 23.837812 
" clip-path="url(#pd83ee8d9e1)" style="fill: none; stroke-dasharray: 0.8,1.32; stroke-dashoffset: 0; stroke: #b0b0b0; stroke-opacity: 0.3; stroke-width: 0.8"/>
     </g>
     <g id="line2d_8">
      <g>
       <use xlink:href="#m2bec710c27" x="266.605714" y="311.397812" style="stroke: #000000; stroke-width: 0.8"/>
      </g>
     </g>
     <g id="text_4">
      <!-- 4 -->
      <g transform="translate(263.424464 325.99625) scale(0.1 -0.1)">
       <defs>
        <path id="DejaVuSans-34" d="M 2419 4116 
L 825 1625 
L 2419 1625 
L 2419 4116 
z
M 2253 4666 
L 3047 4666 
L 3047 1625 
L 3713 1625 
L 3713 1100 
L 3047 1100 
L 3047 0 
L 2419 0 
L 2419 1100 
L 313 1100 
L 313 1709 
L 2253 4666 
z
" transform="scale(0.015625)"/>
       </defs>
       <use xlink:href="#DejaVuSans-34"/>
      </g>
     </g>
    </g>
    <g id="xtick_5">
     <g id="line2d_9">
      <path d="M 346.422857 311.397812 
L 346.422857 23.837812 
" clip-path="url(#pd83ee8d9e1)" style="fill: none; stroke-dasharray: 0.8,1.32; stroke-dashoffset: 0; stroke: #b0b0b0; stroke-opacity: 0.3; stroke-width: 0.8"/>
     </g>
     <g id="line2d_10">
      <g>
       <use xlink:href="#m2bec710c27" x="346.422857" y="311.397812" style="stroke: #000000; stroke-width: 0.8"/>
      </g>
     </g>
     <g id="text_5">
      <!-- 6 -->
      <g transform="translate(343.241607 325.99625) scale(0.1 -0.1)">
       <defs>
        <path id="DejaVuSans-36" d="M 2113 2584 
Q 1688 2584 1439 2293 
Q 1191 2003 1191 1497 
Q 1191 994 1439 701 
Q 1688 409 2113 409 
Q 2538 409 2786 701 
Q 3034 994 3034 1497 
Q 3034 2003 2786 2293 
Q 2538 2584 2113 2584 
z
M 3366 4563 
L 3366 3988 
Q 3128 4100 2886 4159 
Q 2644 4219 2406 4219 
Q 1781 4219 1451 3797 
Q 1122 3375 1075 2522 
Q 1259 2794 1537 2939 
Q 1816 3084 2150 3084 
Q 2853 3084 3261 2657 
Q 3669 2231 3669 1497 
Q 3669 778 3244 343 
Q 2819 -91 2113 -91 
Q 1303 -91 875 529 
Q 447 1150 447 2328 
Q 447 3434 972 4092 
Q 1497 4750 2381 4750 
Q 2619 4750 2861 4703 
Q 3103 4656 3366 4563 
z
" transform="scale(0.015625)"/>
       </defs>
       <use xlink:href="#DejaVuSans-36"/>
      </g>
     </g>
    </g>
    <g id="xtick_6">
     <g id="line2d_11">
      <path d="M 426.24 311.397812 
L 426.24 23.837812 
" clip-path="url(#pd83ee8d9e1)" style="fill: none; stroke-dasharray: 0.8,1.32; stroke-dashoffset: 0; stroke: #b0b0b0; stroke-opacity: 0.3; stroke-width: 0.8"/>
     </g>
     <g id="line2d_12">
      <g>
       <use xlink:href="#m2bec710c27" x="426.24" y="311.397812" style="stroke: #000000; stroke-width: 0.8"/>
      </g>
     </g>
     <g id="text_6">
      <!-- 8 -->
      <g transform="translate(423.05875 325.99625) scale(0.1 -0.1)">
       <defs>
        <path id="DejaVuSans-38" d="M 2034 2216 
Q 1584 2216 1326 1975 
Q 1069 1734 1069 1313 
Q 1069 891 1326 650 
Q 1584 409 2034 409 
Q 2484 409 2743 651 
Q 3003 894 3003 1313 
Q 3003 1734 2745 1975 
Q 2488 2216 2034 2216 
z
M 1403 2484 
Q 997 2584 770 2862 
Q 544 3141 544 3541 
Q 544 4100 942 4425 
Q 1341 4750 2034 4750 
Q 2731 4750 3128 4425 
Q 3525 4100 3525 3541 
Q 3525 3141 3298 2862 
Q 3072 2584 2669 2484 
Q 3125 2378 3379 2068 
Q 3634 1759 3634 1313 
Q 3634 634 3220 271 
Q 2806 -91 2034 -91 
Q 1263 -91 848 271 
Q 434 634 434 1313 
Q 434 1759 690 2068 
Q 947 2378 1403 2484 
z
M 1172 3481 
Q 1172 3119 1398 2916 
Q 1625 2713 2034 2713 
Q 2441 2713 2670 2916 
Q 2900 3119 2900 3481 
Q 2900 3844 2670 4047 
Q 2441 4250 2034 4250 
Q 1625 4250 1398 4047 
Q 1172 3844 1172 3481 
z
" transform="scale(0.015625)"/>
       </defs>
       <use xlink:href="#DejaVuSans-38"/>
      </g>
     </g>
    </g>
    <g id="xtick_7">
     <g id="line2d_13">
      <path d="M 506.057143 311.397812 
L 506.057143 23.837812 
" clip-path="url(#pd83ee8d9e1)" style="fill: none; stroke-dasharray: 0.8,1.32; stroke-dashoffset: 0; stroke: #b0b0b0; stroke-opacity: 0.3; stroke-width: 0.8"/>
     </g>
     <g id="line2d_14">
      <g>
       <use xlink:href="#m2bec710c27" x="506.057143" y="311.397812" style="stroke: #000000; stroke-width: 0.8"/>
      </g>
     </g>
     <g id="text_7">
      <!-- 10 -->
      <g transform="translate(499.694643 325.99625) scale(0.1 -0.1)">
       <defs>
        <path id="DejaVuSans-31" d="M 794 531 
L 1825 531 
L 1825 4091 
L 703 3866 
L 703 4441 
L 1819 4666 
L 2450 4666 
L 2450 531 
L 3481 531 
L 3481 0 
L 794 0 
L 794 531 
z
" transform="scale(0.015625)"/>
       </defs>
       <use xlink:href="#DejaVuSans-31"/>
       <use xlink:href="#DejaVuSans-30" transform="translate(63.623047 0)"/>
      </g>
     </g>
    </g>
    <g id="xtick_8">
     <g id="line2d_15">
      <path d="M 585.874286 311.397812 
L 585.874286 23.837812 
" clip-path="url(#pd83ee8d9e1)" style="fill: none; stroke-dasharray: 0.8,1.32; stroke-dashoffset: 0; stroke: #b0b0b0; stroke-opacity: 0.3; stroke-width: 0.8"/>
     </g>
     <g id="line2d_16">
      <g>
       <use xlink:href="#m2bec710c27" x="585.874286" y="311.397812" style="stroke: #000000; stroke-width: 0.8"/>
      </g>
     </g>
     <g id="text_8">
      <!-- 12 -->
      <g transform="translate(579.511786 325.99625) scale(0.1 -0.1)">
       <use xlink:href="#DejaVuSans-31"/>
       <use xlink:href="#DejaVuSans-32" transform="translate(63.623047 0)"/>
      </g>
     </g>
    </g>
    <g id="xtick_9">
     <g id="line2d_17">
      <path d="M 665.691429 311.397812 
L 665.691429 23.837812 
" clip-path="url(#pd83ee8d9e1)" style="fill: none; stroke-dasharray: 0.8,1.32; stroke-dashoffset: 0; stroke: #b0b0b0; stroke-opacity: 0.3; stroke-width: 0.8"/>
     </g>
     <g id="line2d_18">
      <g>
       <use xlink:href="#m2bec710c27" x="665.691429" y="311.397812" style="stroke: #000000; stroke-width: 0.8"/>
      </g>
     </g>
     <g id="text_9">
      <!-- 14 -->
      <g transform="translate(659.328929 325.99625) scale(0.1 -0.1)">
       <use xlink:href="#DejaVuSans-31"/>
       <use xlink:href="#DejaVuSans-34" transform="translate(63.623047 0)"/>
      </g>
     </g>
    </g>
    <g id="text_10">
     <!-- Distance from weld toe (mm) -->
     <g transform="translate(268.4175 341.194062) scale(0.12 -0.12)">
      <defs>
       <path id="DejaVuSans-44" d="M 1259 4147 
L 1259 519 
L 2022 519 
Q 2988 519 3436 956 
Q 3884 1394 3884 2338 
Q 3884 3275 3436 3711 
Q 2988 4147 2022 4147 
L 1259 4147 
z
M 628 4666 
L 1925 4666 
Q 3281 4666 3915 4102 
Q 4550 3538 4550 2338 
Q 4550 1131 3912 565 
Q 3275 0 1925 0 
L 628 0 
L 628 4666 
z
" transform="scale(0.015625)"/>
       <path id="DejaVuSans-69" d="M 603 3500 
L 1178 3500 
L 1178 0 
L 603 0 
L 603 3500 
z
M 603 4863 
L 1178 4863 
L 1178 4134 
L 603 4134 
L 603 4863 
z
" transform="scale(0.015625)"/>
       <path id="DejaVuSans-73" d="M 2834 3397 
L 2834 2853 
Q 2591 2978 2328 3040 
Q 2066 3103 1784 3103 
Q 1356 3103 1142 2972 
Q 928 2841 928 2578 
Q 928 2378 1081 2264 
Q 1234 2150 1697 2047 
L 1894 2003 
Q 2506 1872 2764 1633 
Q 3022 1394 3022 966 
Q 3022 478 2636 193 
Q 2250 -91 1575 -91 
Q 1294 -91 989 -36 
Q 684 19 347 128 
L 347 722 
Q 666 556 975 473 
Q 1284 391 1588 391 
Q 1994 391 2212 530 
Q 2431 669 2431 922 
Q 2431 1156 2273 1281 
Q 2116 1406 1581 1522 
L 1381 1569 
Q 847 1681 609 1914 
Q 372 2147 372 2553 
Q 372 3047 722 3315 
Q 1072 3584 1716 3584 
Q 2034 3584 2315 3537 
Q 2597 3491 2834 3397 
z
" transform="scale(0.015625)"/>
       <path id="DejaVuSans-74" d="M 1172 4494 
L 1172 3500 
L 2356 3500 
L 2356 3053 
L 1172 3053 
L 1172 1153 
Q 1172 725 1289 603 
Q 1406 481 1766 481 
L 2356 481 
L 2356 0 
L 1766 0 
Q 1100 0 847 248 
Q 594 497 594 1153 
L 594 3053 
L 172 3053 
L 172 3500 
L 594 3500 
L 594 4494 
L 1172 4494 
z
" transform="scale(0.015625)"/>
       <path id="DejaVuSans-61" d="M 2194 1759 
Q 1497 1759 1228 1600 
Q 959 1441 959 1056 
Q 959 750 1161 570 
Q 1363 391 1709 391 
Q 2188 391 2477 730 
Q 2766 1069 2766 1631 
L 2766 1759 
L 2194 1759 
z
M 3341 1997 
L 3341 0 
L 2766 0 
L 2766 531 
Q 2569 213 2275 61 
Q 1981 -91 1556 -91 
Q 1019 -91 701 211 
Q 384 513 384 1019 
Q 384 1609 779 1909 
Q 1175 2209 1959 2209 
L 2766 2209 
L 2766 2266 
Q 2766 2663 2505 2880 
Q 2244 3097 1772 3097 
Q 1472 3097 1187 3025 
Q 903 2953 641 2809 
L 641 3341 
Q 956 3463 1253 3523 
Q 1550 3584 1831 3584 
Q 2591 3584 2966 3190 
Q 3341 2797 3341 1997 
z
" transform="scale(0.015625)"/>
       <path id="DejaVuSans-6e" d="M 3513 2113 
L 3513 0 
L 2938 0 
L 2938 2094 
Q 2938 2591 2744 2837 
Q 2550 3084 2163 3084 
Q 1697 3084 1428 2787 
Q 1159 2491 1159 1978 
L 1159 0 
L 581 0 
L 581 3500 
L 1159 3500 
L 1159 2956 
Q 1366 3272 1645 3428 
Q 1925 3584 2291 3584 
Q 2894 3584 3203 3211 
Q 3513 2838 3513 2113 
z
" transform="scale(0.015625)"/>
       <path id="DejaVuSans-63" d="M 3122 3366 
L 3122 2828 
Q 2878 2963 2633 3030 
Q 2388 3097 2138 3097 
Q 1578 3097 1268 2742 
Q 959 2388 959 1747 
Q 959 1106 1268 751 
Q 1578 397 2138 397 
Q 2388 397 2633 464 
Q 2878 531 3122 666 
L 3122 134 
Q 2881 22 2623 -34 
Q 2366 -91 2075 -91 
Q 1284 -91 818 406 
Q 353 903 353 1747 
Q 353 2603 823 3093 
Q 1294 3584 2113 3584 
Q 2378 3584 2631 3529 
Q 2884 3475 3122 3366 
z
" transform="scale(0.015625)"/>
       <path id="DejaVuSans-65" d="M 3597 1894 
L 3597 1613 
L 953 1613 
Q 991 1019 1311 708 
Q 1631 397 2203 397 
Q 2534 397 2845 478 
Q 3156 559 3463 722 
L 3463 178 
Q 3153 47 2828 -22 
Q 2503 -91 2169 -91 
Q 1331 -91 842 396 
Q 353 884 353 1716 
Q 353 2575 817 3079 
Q 1281 3584 2069 3584 
Q 2775 3584 3186 3129 
Q 3597 2675 3597 1894 
z
M 3022 2063 
Q 3016 2534 2758 2815 
Q 2500 3097 2075 3097 
Q 1594 3097 1305 2825 
Q 1016 2553 972 2059 
L 3022 2063 
z
" transform="scale(0.015625)"/>
       <path id="DejaVuSans-20" transform="scale(0.015625)"/>
       <path id="DejaVuSans-66" d="M 2375 4863 
L 2375 4384 
L 1825 4384 
Q 1516 4384 1395 4259 
Q 1275 4134 1275 3809 
L 1275 3500 
L 2222 3500 
L 2222 3053 
L 1275 3053 
L 1275 0 
L 697 0 
L 697 3053 
L 147 3053 
L 147 3500 
L 697 3500 
L 697 3744 
Q 697 4328 969 4595 
Q 1241 4863 1831 4863 
L 2375 4863 
z
" transform="scale(0.015625)"/>
       <path id="DejaVuSans-72" d="M 2631 2963 
Q 2534 3019 2420 3045 
Q 2306 3072 2169 3072 
Q 1681 3072 1420 2755 
Q 1159 2438 1159 1844 
L 1159 0 
L 581 0 
L 581 3500 
L 1159 3500 
L 1159 2956 
Q 1341 3275 1631 3429 
Q 1922 3584 2338 3584 
Q 2397 3584 2469 3576 
Q 2541 3569 2628 3553 
L 2631 2963 
z
" transform="scale(0.015625)"/>
       <path id="DejaVuSans-6f" d="M 1959 3097 
Q 1497 3097 1228 2736 
Q 959 2375 959 1747 
Q 959 1119 1226 758 
Q 1494 397 1959 397 
Q 2419 397 2687 759 
Q 2956 1122 2956 1747 
Q 2956 2369 2687 2733 
Q 2419 3097 1959 3097 
z
M 1959 3584 
Q 2709 3584 3137 3096 
Q 3566 2609 3566 1747 
Q 3566 888 3137 398 
Q 2709 -91 1959 -91 
Q 1206 -91 779 398 
Q 353 888 353 1747 
Q 353 2609 779 3096 
Q 1206 3584 1959 3584 
z
" transform="scale(0.015625)"/>
       <path id="DejaVuSans-6d" d="M 3328 2828 
Q 3544 3216 3844 3400 
Q 4144 3584 4550 3584 
Q 5097 3584 5394 3201 
Q 5691 2819 5691 2113 
L 5691 0 
L 5113 0 
L 5113 2094 
Q 5113 2597 4934 2840 
Q 4756 3084 4391 3084 
Q 3944 3084 3684 2787 
Q 3425 2491 3425 1978 
L 3425 0 
L 2847 0 
L 2847 2094 
Q 2847 2600 2669 2842 
Q 2491 3084 2119 3084 
Q 1678 3084 1418 2786 
Q 1159 2488 1159 1978 
L 1159 0 
L 581 0 
L 581 3500 
L 1159 3500 
L 1159 2956 
Q 1356 3278 1631 3431 
Q 1906 3584 2284 3584 
Q 2666 3584 2933 3390 
Q 3200 3197 3328 2828 
z
" transform="scale(0.015625)"/>
       <path id="DejaVuSans-77" d="M 269 3500 
L 844 3500 
L 1563 769 
L 2278 3500 
L 2956 3500 
L 3675 769 
L 4391 3500 
L 4966 3500 
L 4050 0 
L 3372 0 
L 2619 2869 
L 1863 0 
L 1184 0 
L 269 3500 
z
" transform="scale(0.015625)"/>
       <path id="DejaVuSans-6c" d="M 603 4863 
L 1178 4863 
L 1178 0 
L 603 0 
L 603 4863 
z
" transform="scale(0.015625)"/>
       <path id="DejaVuSans-64" d="M 2906 2969 
L 2906 4863 
L 3481 4863 
L 3481 0 
L 2906 0 
L 2906 525 
Q 2725 213 2448 61 
Q 2172 -91 1784 -91 
Q 1150 -91 751 415 
Q 353 922 353 1747 
Q 353 2572 751 3078 
Q 1150 3584 1784 3584 
Q 2172 3584 2448 3432 
Q 2725 3281 2906 2969 
z
M 947 1747 
Q 947 1113 1208 752 
Q 1469 391 1925 391 
Q 2381 391 2643 752 
Q 2906 1113 2906 1747 
Q 2906 2381 2643 2742 
Q 2381 3103 1925 3103 
Q 1469 3103 1208 2742 
Q 947 2381 947 1747 
z
" transform="scale(0.015625)"/>
       <path id="DejaVuSans-28" d="M 1984 4856 
Q 1566 4138 1362 3434 
Q 1159 2731 1159 2009 
Q 1159 1288 1364 580 
Q 1569 -128 1984 -844 
L 1484 -844 
Q 1016 -109 783 600 
Q 550 1309 550 2009 
Q 550 2706 781 3412 
Q 1013 4119 1484 4856 
L 1984 4856 
z
" transform="scale(0.015625)"/>
       <path id="DejaVuSans-29" d="M 513 4856 
L 1013 4856 
Q 1481 4119 1714 3412 
Q 1947 2706 1947 2009 
Q 1947 1309 1714 600 
Q 1481 -109 1013 -844 
L 513 -844 
Q 928 -128 1133 580 
Q 1338 1288 1338 2009 
Q 1338 2731 1133 3434 
Q 928 4138 513 4856 
z
" transform="scale(0.015625)"/>
      </defs>
      <use xlink:href="#DejaVuSans-44"/>
      <use xlink:href="#DejaVuSans-69" transform="translate(77.001953 0)"/>
      <use xlink:href="#DejaVuSans-73" transform="translate(104.785156 0)"/>
      <use xlink:href="#DejaVuSans-74" transform="translate(156.884766 0)"/>
      <use xlink:href="#DejaVuSans-61" transform="translate(196.09375 0)"/>
      <use xlink:href="#DejaVuSans-6e" transform="translate(257.373047 0)"/>
      <use xlink:href="#DejaVuSans-63" transform="translate(320.751953 0)"/>
      <use xlink:href="#DejaVuSans-65" transform="translate(375.732422 0)"/>
      <use xlink:href="#DejaVuSans-20" transform="translate(437.255859 0)"/>
      <use xlink:href="#DejaVuSans-66" transform="translate(469.042969 0)"/>
      <use xlink:href="#DejaVuSans-72" transform="translate(504.248047 0)"/>
      <use xlink:href="#DejaVuSans-6f" transform="translate(543.111328 0)"/>
      <use xlink:href="#DejaVuSans-6d" transform="translate(604.292969 0)"/>
      <use xlink:href="#DejaVuSans-20" transform="translate(701.705078 0)"/>
      <use xlink:href="#DejaVuSans-77" transform="translate(733.492188 0)"/>
      <use xlink:href="#DejaVuSans-65" transform="translate(815.279297 0)"/>
      <use xlink:href="#DejaVuSans-6c" transform="translate(876.802734 0)"/>
      <use xlink:href="#DejaVuSans-64" transform="translate(904.585938 0)"/>
      <use xlink:href="#DejaVuSans-20" transform="translate(968.0625 0)"/>
      <use xlink:href="#DejaVuSans-74" transform="translate(999.849609 0)"/>
      <use xlink:href="#DejaVuSans-6f" transform="translate(1039.058594 0)"/>
      <use xlink:href="#DejaVuSans-65" transform="translate(1100.240234 0)"/>
      <use xlink:href="#DejaVuSans-20" transform="translate(1161.763672 0)"/>
      <use xlink:href="#DejaVuSans-28" transform="translate(1193.550781 0)"/>
      <use xlink:href="#DejaVuSans-6d" transform="translate(1232.564453 0)"/>
      <use xlink:href="#DejaVuSans-6d" transform="translate(1329.976562 0)"/>
      <use xlink:href="#DejaVuSans-29" transform="translate(1427.388672 0)"/>
     </g>
    </g>
   </g>
   <g id="matplotlib.axis_2"/>
   <g id="line2d_19">
    <path d="M 110.962286 36.908722 
L 113.749869 42.058934 
L 119.325037 51.667038 
L 124.900204 60.420722 
L 130.475371 68.395966 
L 136.050538 75.661995 
L 141.625706 82.281877 
L 147.200873 88.313073 
L 152.77604 93.807932 
L 158.351207 98.814149 
L 163.926375 103.375178 
L 169.501542 107.530608 
L 175.076709 111.316508 
L 180.651877 114.765739 
L 186.227044 117.90824 
L 191.802211 120.771288 
L 197.377378 123.379733 
L 202.952546 125.756217 
L 208.527713 127.921367 
L 214.10288 129.893976 
L 219.678047 131.691168 
L 228.040798 134.091786 
L 236.403549 136.179413 
L 244.7663 137.994855 
L 253.129051 139.573601 
L 261.491802 140.946511 
L 272.642136 142.502739 
L 283.792471 143.794493 
L 294.942805 144.866717 
L 308.880724 145.954503 
L 322.818642 146.816342 
L 339.544144 147.617669 
L 359.057229 148.309203 
L 381.357898 148.867309 
L 409.233734 149.327592 
L 445.472322 149.680039 
L 495.648827 149.920468 
L 576.488752 150.056217 
L 665.691429 150.092997 
L 665.691429 150.092997 
" clip-path="url(#pd83ee8d9e1)" style="fill: none; stroke: #1a5276; stroke-width: 2; stroke-linecap: square"/>
   </g>
   <g id="line2d_20">
    <path d="M 106.971429 136.194028 
L 111.405714 136.346869 
L 115.84 136.49971 
L 120.274286 136.652551 
L 124.708571 136.805392 
L 129.142857 136.958233 
L 133.577143 137.111074 
L 138.011429 137.263915 
L 142.445714 137.416756 
L 146.88 137.569597 
L 151.314286 137.722438 
L 155.748571 137.875278 
L 160.182857 138.028119 
L 164.617143 138.18096 
L 169.051429 138.333801 
L 173.485714 138.486642 
L 177.92 138.639483 
L 182.354286 138.792324 
L 186.788571 138.945165 
L 191.222857 139.098006 
L 195.657143 139.250847 
L 200.091429 139.403688 
L 204.525714 139.556528 
L 208.96 139.709369 
L 213.394286 139.86221 
L 217.828571 140.015051 
L 222.262857 140.167892 
L 226.697143 140.320733 
L 231.131429 140.473574 
L 235.565714 140.626415 
L 240 140.779256 
L 244.434286 140.932097 
L 248.868571 141.084938 
L 253.302857 141.237778 
L 257.737143 141.390619 
L 262.171429 141.54346 
L 266.605714 141.696301 
L 271.04 141.849142 
L 275.474286 142.001983 
L 279.908571 142.154824 
L 284.342857 142.307665 
L 288.777143 142.460506 
L 293.211429 142.613347 
L 297.645714 142.766188 
L 302.08 142.919028 
L 306.514286 143.071869 
L 310.948571 143.22471 
L 315.382857 143.377551 
L 319.817143 143.530392 
L 324.251429 143.683233 
L 328.685714 143.836074 
L 333.12 143.988915 
L 337.554286 144.141756 
L 341.988571 144.294597 
L 346.422857 144.447438 
L 350.857143 144.600278 
L 355.291429 144.753119 
L 359.725714 144.90596 
L 364.16 145.058801 
L 368.594286 145.211642 
L 373.028571 145.364483 
L 377.462857 145.517324 
L 381.897143 145.670165 
L 386.331429 145.823006 
L 390.765714 145.975847 
L 395.2 146.128688 
L 399.634286 146.281528 
L 404.068571 146.434369 
L 408.502857 146.58721 
L 412.937143 146.740051 
L 417.371429 146.892892 
L 421.805714 147.045733 
L 426.24 147.198574 
L 430.674286 147.351415 
L 435.108571 147.504256 
L 439.542857 147.657097 
L 443.977143 147.809937 
L 448.411429 147.962778 
L 452.845714 148.115619 
L 457.28 148.26846 
L 461.714286 148.421301 
L 466.148571 148.574142 
L 470.582857 148.726983 
L 475.017143 148.879824 
L 479.451429 149.032665 
L 483.885714 149.185506 
L 488.32 149.338347 
L 492.754286 149.491187 
L 497.188571 149.644028 
L 501.622857 149.796869 
L 506.057143 149.94971 
L 510.491429 150.102551 
L 514.925714 150.255392 
L 519.36 150.408233 
L 523.794286 150.561074 
L 528.228571 150.713915 
L 532.662857 150.866756 
L 537.097143 151.019597 
L 541.531429 151.172437 
L 545.965714 151.325278 
" clip-path="url(#pd83ee8d9e1)" style="fill: none; stroke-dasharray: 5.55,2.4; stroke-dashoffset: 0; stroke: #2980b9; stroke-width: 1.5"/>
   </g>
   <g id="line2d_21">
    <path d="M 7.2 150.103697 
L 705.6 150.103697 
" clip-path="url(#pd83ee8d9e1)" style="fill: none; stroke-dasharray: 1,1.65; stroke-dashoffset: 0; stroke: #27ae60; stroke-opacity: 0.6"/>
   </g>
   <g id="patch_4">
    <path d="M 7.2 311.397812 
L 7.2 23.837812 
" style="fill: none; stroke: #000000; stroke-width: 0.8; stroke-linejoin: miter; stroke-linecap: square"/>
   </g>
   <g id="patch_5">
    <path d="M 705.6 311.397812 
L 705.6 23.837812 
" style="fill: none; stroke: #000000; stroke-width: 0.8; stroke-linejoin: miter; stroke-linecap: square"/>
   </g>
   <g id="patch_6">
    <path d="M 7.2 311.397812 
L 705.6 311.397812 
" style="fill: none; stroke: #000000; stroke-width: 0.8; stroke-linejoin: miter; stroke-linecap: square"/>
   </g>
   <g id="patch_7">
    <path d="M 7.2 23.837812 
L 705.6 23.837812 
" style="fill: none; stroke: #000000; stroke-width: 0.8; stroke-linejoin: miter; stroke-linecap: square"/>
   </g>
   <g id="text_11">
    <!-- Base plate -->
    <g style="fill: #555555" transform="translate(382.499699 286.22705) scale(0.09 -0.09)">
     <defs>
      <path id="DejaVuSans-42" d="M 1259 2228 
L 1259 519 
L 2272 519 
Q 2781 519 3026 730 
Q 3272 941 3272 1375 
Q 3272 1813 3026 2020 
Q 2781 2228 2272 2228 
L 1259 2228 
z
M 1259 4147 
L 1259 2741 
L 2194 2741 
Q 2656 2741 2882 2914 
Q 3109 3088 3109 3444 
Q 3109 3797 2882 3972 
Q 2656 4147 2194 4147 
L 1259 4147 
z
M 628 4666 
L 2241 4666 
Q 2963 4666 3353 4366 
Q 3744 4066 3744 3513 
Q 3744 3084 3544 2831 
Q 3344 2578 2956 2516 
Q 3422 2416 3680 2098 
Q 3938 1781 3938 1306 
Q 3938 681 3513 340 
Q 3088 0 2303 0 
L 628 0 
L 628 4666 
z
" transform="scale(0.015625)"/>
      <path id="DejaVuSans-70" d="M 1159 525 
L 1159 -1331 
L 581 -1331 
L 581 3500 
L 1159 3500 
L 1159 2969 
Q 1341 3281 1617 3432 
Q 1894 3584 2278 3584 
Q 2916 3584 3314 3078 
Q 3713 2572 3713 1747 
Q 3713 922 3314 415 
Q 2916 -91 2278 -91 
Q 1894 -91 1617 61 
Q 1341 213 1159 525 
z
M 3116 1747 
Q 3116 2381 2855 2742 
Q 2594 3103 2138 3103 
Q 1681 3103 1420 2742 
Q 1159 2381 1159 1747 
Q 1159 1113 1420 752 
Q 1681 391 2138 391 
Q 2594 391 2855 752 
Q 3116 1113 3116 1747 
z
" transform="scale(0.015625)"/>
     </defs>
     <use xlink:href="#DejaVuSans-42"/>
     <use xlink:href="#DejaVuSans-61" transform="translate(68.603516 0)"/>
     <use xlink:href="#DejaVuSans-73" transform="translate(129.882812 0)"/>
     <use xlink:href="#DejaVuSans-65" transform="translate(181.982422 0)"/>
     <use xlink:href="#DejaVuSans-20" transform="translate(243.505859 0)"/>
     <use xlink:href="#DejaVuSans-70" transform="translate(275.292969 0)"/>
     <use xlink:href="#DejaVuSans-6c" transform="translate(338.769531 0)"/>
     <use xlink:href="#DejaVuSans-61" transform="translate(366.552734 0)"/>
     <use xlink:href="#DejaVuSans-74" transform="translate(427.832031 0)"/>
     <use xlink:href="#DejaVuSans-65" transform="translate(467.041016 0)"/>
    </g>
   </g>
   <g id="text_12">
    <!-- Weld -->
    <g style="fill: #555555" transform="translate(65.212696 246.902526) scale(0.08 -0.08)">
     <defs>
      <path id="DejaVuSans-57" d="M 213 4666 
L 850 4666 
L 1831 722 
L 2809 4666 
L 3519 4666 
L 4500 722 
L 5478 4666 
L 6119 4666 
L 4947 0 
L 4153 0 
L 3169 4050 
L 2175 0 
L 1381 0 
L 213 4666 
z
" transform="scale(0.015625)"/>
     </defs>
     <use xlink:href="#DejaVuSans-57"/>
     <use xlink:href="#DejaVuSans-65" transform="translate(93.001953 0)"/>
     <use xlink:href="#DejaVuSans-6c" transform="translate(154.525391 0)"/>
     <use xlink:href="#DejaVuSans-64" transform="translate(182.308594 0)"/>
    </g>
   </g>
   <g id="text_13">
    <!-- 4 mm -->
    <g style="fill: #2980b9" transform="translate(256.448058 124.839643) scale(0.07 -0.07)">
     <use xlink:href="#DejaVuSans-34"/>
     <use xlink:href="#DejaVuSans-20" transform="translate(63.623047 0)"/>
     <use xlink:href="#DejaVuSans-6d" transform="translate(95.410156 0)"/>
     <use xlink:href="#DejaVuSans-6d" transform="translate(192.822266 0)"/>
    </g>
    <!-- (94 MPa) -->
    <g style="fill: #2980b9" transform="translate(251.190949 132.678111) scale(0.07 -0.07)">
     <defs>
      <path id="DejaVuSans-39" d="M 703 97 
L 703 672 
Q 941 559 1184 500 
Q 1428 441 1663 441 
Q 2288 441 2617 861 
Q 2947 1281 2994 2138 
Q 2813 1869 2534 1725 
Q 2256 1581 1919 1581 
Q 1219 1581 811 2004 
Q 403 2428 403 3163 
Q 403 3881 828 4315 
Q 1253 4750 1959 4750 
Q 2769 4750 3195 4129 
Q 3622 3509 3622 2328 
Q 3622 1225 3098 567 
Q 2575 -91 1691 -91 
Q 1453 -91 1209 -44 
Q 966 3 703 97 
z
M 1959 2075 
Q 2384 2075 2632 2365 
Q 2881 2656 2881 3163 
Q 2881 3666 2632 3958 
Q 2384 4250 1959 4250 
Q 1534 4250 1286 3958 
Q 1038 3666 1038 3163 
Q 1038 2656 1286 2365 
Q 1534 2075 1959 2075 
z
" transform="scale(0.015625)"/>
      <path id="DejaVuSans-4d" d="M 628 4666 
L 1569 4666 
L 2759 1491 
L 3956 4666 
L 4897 4666 
L 4897 0 
L 4281 0 
L 4281 4097 
L 3078 897 
L 2444 897 
L 1241 4097 
L 1241 0 
L 628 0 
L 628 4666 
z
" transform="scale(0.015625)"/>
      <path id="DejaVuSans-50" d="M 1259 4147 
L 1259 2394 
L 2053 2394 
Q 2494 2394 2734 2622 
Q 2975 2850 2975 3272 
Q 2975 3691 2734 3919 
Q 2494 4147 2053 4147 
L 1259 4147 
z
M 628 4666 
L 2053 4666 
Q 2838 4666 3239 4311 
Q 3641 3956 3641 3272 
Q 3641 2581 3239 2228 
Q 2838 1875 2053 1875 
L 1259 1875 
L 1259 0 
L 628 0 
L 628 4666 
z
" transform="scale(0.015625)"/>
     </defs>
     <use xlink:href="#DejaVuSans-28"/>
     <use xlink:href="#DejaVuSans-39" transform="translate(39.013672 0)"/>
     <use xlink:href="#DejaVuSans-34" transform="translate(102.636719 0)"/>
     <use xlink:href="#DejaVuSans-20" transform="translate(166.259766 0)"/>
     <use xlink:href="#DejaVuSans-4d" transform="translate(198.046875 0)"/>
     <use xlink:href="#DejaVuSans-50" transform="translate(284.326172 0)"/>
     <use xlink:href="#DejaVuSans-61" transform="translate(340.128906 0)"/>
     <use xlink:href="#DejaVuSans-29" transform="translate(401.408203 0)"/>
    </g>
   </g>
   <g id="text_14">
    <!-- 10 mm -->
    <g style="fill: #2980b9" transform="translate(493.672612 133.093052) scale(0.07 -0.07)">
     <use xlink:href="#DejaVuSans-31"/>
     <use xlink:href="#DejaVuSans-30" transform="translate(63.623047 0)"/>
     <use xlink:href="#DejaVuSans-20" transform="translate(127.246094 0)"/>
     <use xlink:href="#DejaVuSans-6d" transform="translate(159.033203 0)"/>
     <use xlink:href="#DejaVuSans-6d" transform="translate(256.445312 0)"/>
    </g>
    <!-- (80 MPa) -->
    <g style="fill: #2980b9" transform="translate(490.642377 140.93152) scale(0.07 -0.07)">
     <use xlink:href="#DejaVuSans-28"/>
     <use xlink:href="#DejaVuSans-38" transform="translate(39.013672 0)"/>
     <use xlink:href="#DejaVuSans-30" transform="translate(102.636719 0)"/>
     <use xlink:href="#DejaVuSans-20" transform="translate(166.259766 0)"/>
     <use xlink:href="#DejaVuSans-4d" transform="translate(198.046875 0)"/>
     <use xlink:href="#DejaVuSans-50" transform="translate(284.326172 0)"/>
     <use xlink:href="#DejaVuSans-61" transform="translate(340.128906 0)"/>
     <use xlink:href="#DejaVuSans-29" transform="translate(401.408203 0)"/>
    </g>
   </g>
   <g id="patch_8">
    <path d="M 262.676834 94.982535 
Q 185.791113 115.332345 110.526617 135.253055 
" style="fill: none; stroke: #e74c3c; stroke-width: 1.5; stroke-linecap: round"/>
    <path d="M 114.905198 136.163017 
L 110.526617 135.253055 
L 113.881736 132.296168 
" style="fill: none; stroke: #e74c3c; stroke-width: 1.5; stroke-linecap: round"/>
   </g>
   <g id="text_15">
    <!-- Hot-spot stress -->
    <g style="fill: #e74c3c" transform="translate(266.605714 79.621765) scale(0.1 -0.1)">
     <defs>
      <path id="DejaVuSans-Bold-48" d="M 588 4666 
L 1791 4666 
L 1791 2888 
L 3566 2888 
L 3566 4666 
L 4769 4666 
L 4769 0 
L 3566 0 
L 3566 1978 
L 1791 1978 
L 1791 0 
L 588 0 
L 588 4666 
z
" transform="scale(0.015625)"/>
      <path id="DejaVuSans-Bold-6f" d="M 2203 2784 
Q 1831 2784 1636 2517 
Q 1441 2250 1441 1747 
Q 1441 1244 1636 976 
Q 1831 709 2203 709 
Q 2569 709 2762 976 
Q 2956 1244 2956 1747 
Q 2956 2250 2762 2517 
Q 2569 2784 2203 2784 
z
M 2203 3584 
Q 3106 3584 3614 3096 
Q 4122 2609 4122 1747 
Q 4122 884 3614 396 
Q 3106 -91 2203 -91 
Q 1297 -91 786 396 
Q 275 884 275 1747 
Q 275 2609 786 3096 
Q 1297 3584 2203 3584 
z
" transform="scale(0.015625)"/>
      <path id="DejaVuSans-Bold-74" d="M 1759 4494 
L 1759 3500 
L 2913 3500 
L 2913 2700 
L 1759 2700 
L 1759 1216 
Q 1759 972 1856 886 
Q 1953 800 2241 800 
L 2816 800 
L 2816 0 
L 1856 0 
Q 1194 0 917 276 
Q 641 553 641 1216 
L 641 2700 
L 84 2700 
L 84 3500 
L 641 3500 
L 641 4494 
L 1759 4494 
z
" transform="scale(0.015625)"/>
      <path id="DejaVuSans-Bold-2d" d="M 347 2297 
L 2309 2297 
L 2309 1388 
L 347 1388 
L 347 2297 
z
" transform="scale(0.015625)"/>
      <path id="DejaVuSans-Bold-73" d="M 3272 3391 
L 3272 2541 
Q 2913 2691 2578 2766 
Q 2244 2841 1947 2841 
Q 1628 2841 1473 2761 
Q 1319 2681 1319 2516 
Q 1319 2381 1436 2309 
Q 1553 2238 1856 2203 
L 2053 2175 
Q 2913 2066 3209 1816 
Q 3506 1566 3506 1031 
Q 3506 472 3093 190 
Q 2681 -91 1863 -91 
Q 1516 -91 1145 -36 
Q 775 19 384 128 
L 384 978 
Q 719 816 1070 734 
Q 1422 653 1784 653 
Q 2113 653 2278 743 
Q 2444 834 2444 1013 
Q 2444 1163 2330 1236 
Q 2216 1309 1875 1350 
L 1678 1375 
Q 931 1469 631 1722 
Q 331 1975 331 2491 
Q 331 3047 712 3315 
Q 1094 3584 1881 3584 
Q 2191 3584 2531 3537 
Q 2872 3491 3272 3391 
z
" transform="scale(0.015625)"/>
      <path id="DejaVuSans-Bold-70" d="M 1656 506 
L 1656 -1331 
L 538 -1331 
L 538 3500 
L 1656 3500 
L 1656 2988 
Q 1888 3294 2169 3439 
Q 2450 3584 2816 3584 
Q 3463 3584 3878 3070 
Q 4294 2556 4294 1747 
Q 4294 938 3878 423 
Q 3463 -91 2816 -91 
Q 2450 -91 2169 54 
Q 1888 200 1656 506 
z
M 2400 2772 
Q 2041 2772 1848 2508 
Q 1656 2244 1656 1747 
Q 1656 1250 1848 986 
Q 2041 722 2400 722 
Q 2759 722 2948 984 
Q 3138 1247 3138 1747 
Q 3138 2247 2948 2509 
Q 2759 2772 2400 2772 
z
" transform="scale(0.015625)"/>
      <path id="DejaVuSans-Bold-20" transform="scale(0.015625)"/>
      <path id="DejaVuSans-Bold-72" d="M 3138 2547 
Q 2991 2616 2845 2648 
Q 2700 2681 2553 2681 
Q 2122 2681 1889 2404 
Q 1656 2128 1656 1613 
L 1656 0 
L 538 0 
L 538 3500 
L 1656 3500 
L 1656 2925 
Q 1872 3269 2151 3426 
Q 2431 3584 2822 3584 
Q 2878 3584 2943 3579 
Q 3009 3575 3134 3559 
L 3138 2547 
z
" transform="scale(0.015625)"/>
      <path id="DejaVuSans-Bold-65" d="M 4031 1759 
L 4031 1441 
L 1416 1441 
Q 1456 1047 1700 850 
Q 1944 653 2381 653 
Q 2734 653 3104 758 
Q 3475 863 3866 1075 
L 3866 213 
Q 3469 63 3072 -14 
Q 2675 -91 2278 -91 
Q 1328 -91 801 392 
Q 275 875 275 1747 
Q 275 2603 792 3093 
Q 1309 3584 2216 3584 
Q 3041 3584 3536 3087 
Q 4031 2591 4031 1759 
z
M 2881 2131 
Q 2881 2450 2695 2645 
Q 2509 2841 2209 2841 
Q 1884 2841 1681 2658 
Q 1478 2475 1428 2131 
L 2881 2131 
z
" transform="scale(0.015625)"/>
     </defs>
     <use xlink:href="#DejaVuSans-Bold-48"/>
     <use xlink:href="#DejaVuSans-Bold-6f" transform="translate(83.691406 0)"/>
     <use xlink:href="#DejaVuSans-Bold-74" transform="translate(152.392578 0)"/>
     <use xlink:href="#DejaVuSans-Bold-2d" transform="translate(200.195312 0)"/>
     <use xlink:href="#DejaVuSans-Bold-73" transform="translate(241.699219 0)"/>
     <use xlink:href="#DejaVuSans-Bold-70" transform="translate(301.220703 0)"/>
     <use xlink:href="#DejaVuSans-Bold-6f" transform="translate(372.802734 0)"/>
     <use xlink:href="#DejaVuSans-Bold-74" transform="translate(441.503906 0)"/>
     <use xlink:href="#DejaVuSans-Bold-20" transform="translate(489.306641 0)"/>
     <use xlink:href="#DejaVuSans-Bold-73" transform="translate(524.121094 0)"/>
     <use xlink:href="#DejaVuSans-Bold-74" transform="translate(583.642578 0)"/>
     <use xlink:href="#DejaVuSans-Bold-72" transform="translate(631.445312 0)"/>
     <use xlink:href="#DejaVuSans-Bold-65" transform="translate(680.761719 0)"/>
     <use xlink:href="#DejaVuSans-Bold-73" transform="translate(748.583984 0)"/>
     <use xlink:href="#DejaVuSans-Bold-73" transform="translate(808.105469 0)"/>
    </g>
    <!-- = 103 MPa -->
    <g style="fill: #e74c3c" transform="translate(266.605714 90.819578) scale(0.1 -0.1)">
     <defs>
      <path id="DejaVuSans-Bold-3d" d="M 678 3084 
L 4684 3084 
L 4684 2350 
L 678 2350 
L 678 3084 
z
M 678 1663 
L 4684 1663 
L 4684 922 
L 678 922 
L 678 1663 
z
" transform="scale(0.015625)"/>
      <path id="DejaVuSans-Bold-31" d="M 750 831 
L 1813 831 
L 1813 3847 
L 722 3622 
L 722 4441 
L 1806 4666 
L 2950 4666 
L 2950 831 
L 4013 831 
L 4013 0 
L 750 0 
L 750 831 
z
" transform="scale(0.015625)"/>
      <path id="DejaVuSans-Bold-30" d="M 2944 2338 
Q 2944 3213 2780 3570 
Q 2616 3928 2228 3928 
Q 1841 3928 1675 3570 
Q 1509 3213 1509 2338 
Q 1509 1453 1675 1090 
Q 1841 728 2228 728 
Q 2613 728 2778 1090 
Q 2944 1453 2944 2338 
z
M 4147 2328 
Q 4147 1169 3647 539 
Q 3147 -91 2228 -91 
Q 1306 -91 806 539 
Q 306 1169 306 2328 
Q 306 3491 806 4120 
Q 1306 4750 2228 4750 
Q 3147 4750 3647 4120 
Q 4147 3491 4147 2328 
z
" transform="scale(0.015625)"/>
      <path id="DejaVuSans-Bold-33" d="M 2981 2516 
Q 3453 2394 3698 2092 
Q 3944 1791 3944 1325 
Q 3944 631 3412 270 
Q 2881 -91 1863 -91 
Q 1503 -91 1142 -33 
Q 781 25 428 141 
L 428 1069 
Q 766 900 1098 814 
Q 1431 728 1753 728 
Q 2231 728 2486 893 
Q 2741 1059 2741 1369 
Q 2741 1688 2480 1852 
Q 2219 2016 1709 2016 
L 1228 2016 
L 1228 2791 
L 1734 2791 
Q 2188 2791 2409 2933 
Q 2631 3075 2631 3366 
Q 2631 3634 2415 3781 
Q 2200 3928 1806 3928 
Q 1516 3928 1219 3862 
Q 922 3797 628 3669 
L 628 4550 
Q 984 4650 1334 4700 
Q 1684 4750 2022 4750 
Q 2931 4750 3382 4451 
Q 3834 4153 3834 3553 
Q 3834 3144 3618 2883 
Q 3403 2622 2981 2516 
z
" transform="scale(0.015625)"/>
      <path id="DejaVuSans-Bold-4d" d="M 588 4666 
L 2119 4666 
L 3181 2169 
L 4250 4666 
L 5778 4666 
L 5778 0 
L 4641 0 
L 4641 3413 
L 3566 897 
L 2803 897 
L 1728 3413 
L 1728 0 
L 588 0 
L 588 4666 
z
" transform="scale(0.015625)"/>
      <path id="DejaVuSans-Bold-50" d="M 588 4666 
L 2584 4666 
Q 3475 4666 3951 4270 
Q 4428 3875 4428 3144 
Q 4428 2409 3951 2014 
Q 3475 1619 2584 1619 
L 1791 1619 
L 1791 0 
L 588 0 
L 588 4666 
z
M 1791 3794 
L 1791 2491 
L 2456 2491 
Q 2806 2491 2997 2661 
Q 3188 2831 3188 3144 
Q 3188 3456 2997 3625 
Q 2806 3794 2456 3794 
L 1791 3794 
z
" transform="scale(0.015625)"/>
      <path id="DejaVuSans-Bold-61" d="M 2106 1575 
Q 1756 1575 1579 1456 
Q 1403 1338 1403 1106 
Q 1403 894 1545 773 
Q 1688 653 1941 653 
Q 2256 653 2472 879 
Q 2688 1106 2688 1447 
L 2688 1575 
L 2106 1575 
z
M 3816 1997 
L 3816 0 
L 2688 0 
L 2688 519 
Q 2463 200 2181 54 
Q 1900 -91 1497 -91 
Q 953 -91 614 226 
Q 275 544 275 1050 
Q 275 1666 698 1953 
Q 1122 2241 2028 2241 
L 2688 2241 
L 2688 2328 
Q 2688 2594 2478 2717 
Q 2269 2841 1825 2841 
Q 1466 2841 1156 2769 
Q 847 2697 581 2553 
L 581 3406 
Q 941 3494 1303 3539 
Q 1666 3584 2028 3584 
Q 2975 3584 3395 3211 
Q 3816 2838 3816 1997 
z
" transform="scale(0.015625)"/>
     </defs>
     <use xlink:href="#DejaVuSans-Bold-3d"/>
     <use xlink:href="#DejaVuSans-Bold-20" transform="translate(83.789062 0)"/>
     <use xlink:href="#DejaVuSans-Bold-31" transform="translate(118.603516 0)"/>
     <use xlink:href="#DejaVuSans-Bold-30" transform="translate(188.183594 0)"/>
     <use xlink:href="#DejaVuSans-Bold-33" transform="translate(257.763672 0)"/>
     <use xlink:href="#DejaVuSans-Bold-20" transform="translate(327.34375 0)"/>
     <use xlink:href="#DejaVuSans-Bold-4d" transform="translate(362.158203 0)"/>
     <use xlink:href="#DejaVuSans-Bold-50" transform="translate(461.669922 0)"/>
     <use xlink:href="#DejaVuSans-Bold-61" transform="translate(532.335938 0)"/>
    </g>
   </g>
   <g id="text_16">
    <!-- Nominal = 80 MPa -->
    <g style="fill: #27ae60" transform="translate(551.912857 145.566252) scale(0.08 -0.08)">
     <defs>
      <path id="DejaVuSans-4e" d="M 628 4666 
L 1478 4666 
L 3547 763 
L 3547 4666 
L 4159 4666 
L 4159 0 
L 3309 0 
L 1241 3903 
L 1241 0 
L 628 0 
L 628 4666 
z
" transform="scale(0.015625)"/>
      <path id="DejaVuSans-3d" d="M 678 2906 
L 4684 2906 
L 4684 2381 
L 678 2381 
L 678 2906 
z
M 678 1631 
L 4684 1631 
L 4684 1100 
L 678 1100 
L 678 1631 
z
" transform="scale(0.015625)"/>
     </defs>
     <use xlink:href="#DejaVuSans-4e"/>
     <use xlink:href="#DejaVuSans-6f" transform="translate(74.804688 0)"/>
     <use xlink:href="#DejaVuSans-6d" transform="translate(135.986328 0)"/>
     <use xlink:href="#DejaVuSans-69" transform="translate(233.398438 0)"/>
     <use xlink:href="#DejaVuSans-6e" transform="translate(261.181641 0)"/>
     <use xlink:href="#DejaVuSans-61" transform="translate(324.560547 0)"/>
     <use xlink:href="#DejaVuSans-6c" transform="translate(385.839844 0)"/>
     <use xlink:href="#DejaVuSans-20" transform="translate(413.623047 0)"/>
     <use xlink:href="#DejaVuSans-3d" transform="translate(445.410156 0)"/>
     <use xlink:href="#DejaVuSans-20" transform="translate(529.199219 0)"/>
     <use xlink:href="#DejaVuSans-38" transform="translate(560.986328 0)"/>
     <use xlink:href="#DejaVuSans-30" transform="translate(624.609375 0)"/>
     <use xlink:href="#DejaVuSans-20" transform="translate(688.232422 0)"/>
     <use xlink:href="#DejaVuSans-4d" transform="translate(720.019531 0)"/>
     <use xlink:href="#DejaVuSans-50" transform="translate(806.298828 0)"/>
     <use xlink:href="#DejaVuSans-61" transform="translate(862.101562 0)"/>
    </g>
   </g>
   <g id="patch_9">
    <path d="M 106.971429 215.627831 
Q 106.971429 262.027751 106.971429 308.427671 
" style="fill: none; stroke-dasharray: 0.5,0.825; stroke-dashoffset: 0; stroke: #808080; stroke-width: 0.5; stroke-linecap: round"/>
   </g>
   <g id="text_17">
    <!-- Weld toe -->
    <g style="fill: #7f8c8d" transform="translate(89.391429 316.476684) scale(0.08 -0.08)">
     <use xlink:href="#DejaVuSans-57"/>
     <use xlink:href="#DejaVuSans-65" transform="translate(93.001953 0)"/>
     <use xlink:href="#DejaVuSans-6c" transform="translate(154.525391 0)"/>
     <use xlink:href="#DejaVuSans-64" transform="translate(182.308594 0)"/>
     <use xlink:href="#DejaVuSans-20" transform="translate(245.785156 0)"/>
     <use xlink:href="#DejaVuSans-74" transform="translate(277.572266 0)"/>
     <use xlink:href="#DejaVuSans-6f" transform="translate(316.78125 0)"/>
     <use xlink:href="#DejaVuSans-65" transform="translate(377.962891 0)"/>
    </g>
   </g>
   <g id="text_18">
    <g id="patch_10">
     <path d="M 21.168 308.046612 
L 148.3305 308.046612 
Q 150.7305 308.046612 150.7305 305.646612 
L 150.7305 288.945862 
Q 150.7305 286.545862 148.3305 286.545862 
L 21.168 286.545862 
Q 18.768 286.545862 18.768 288.945862 
L 18.768 305.646612 
Q 18.768 308.046612 21.168 308.046612 
z
" style="fill: #eaf2f8; opacity: 0.9; stroke: #bdc3c7; stroke-linejoin: miter"/>
    </g>
    <!-- Type A: 0.4t, 1.0t (linear) -->
    <g transform="translate(21.168 295.024612) scale(0.08 -0.08)">
     <defs>
      <path id="DejaVuSans-54" d="M -19 4666 
L 3928 4666 
L 3928 4134 
L 2272 4134 
L 2272 0 
L 1638 0 
L 1638 4134 
L -19 4134 
L -19 4666 
z
" transform="scale(0.015625)"/>
      <path id="DejaVuSans-79" d="M 2059 -325 
Q 1816 -950 1584 -1140 
Q 1353 -1331 966 -1331 
L 506 -1331 
L 506 -850 
L 844 -850 
Q 1081 -850 1212 -737 
Q 1344 -625 1503 -206 
L 1606 56 
L 191 3500 
L 800 3500 
L 1894 763 
L 2988 3500 
L 3597 3500 
L 2059 -325 
z
" transform="scale(0.015625)"/>
      <path id="DejaVuSans-41" d="M 2188 4044 
L 1331 1722 
L 3047 1722 
L 2188 4044 
z
M 1831 4666 
L 2547 4666 
L 4325 0 
L 3669 0 
L 3244 1197 
L 1141 1197 
L 716 0 
L 50 0 
L 1831 4666 
z
" transform="scale(0.015625)"/>
      <path id="DejaVuSans-3a" d="M 750 794 
L 1409 794 
L 1409 0 
L 750 0 
L 750 794 
z
M 750 3309 
L 1409 3309 
L 1409 2516 
L 750 2516 
L 750 3309 
z
" transform="scale(0.015625)"/>
      <path id="DejaVuSans-2e" d="M 684 794 
L 1344 794 
L 1344 0 
L 684 0 
L 684 794 
z
" transform="scale(0.015625)"/>
      <path id="DejaVuSans-2c" d="M 750 794 
L 1409 794 
L 1409 256 
L 897 -744 
L 494 -744 
L 750 256 
L 750 794 
z
" transform="scale(0.015625)"/>
     </defs>
     <use xlink:href="#DejaVuSans-54"/>
     <use xlink:href="#DejaVuSans-79" transform="translate(45.458984 0)"/>
     <use xlink:href="#DejaVuSans-70" transform="translate(104.638672 0)"/>
     <use xlink:href="#DejaVuSans-65" transform="translate(168.115234 0)"/>
     <use xlink:href="#DejaVuSans-20" transform="translate(229.638672 0)"/>
     <use xlink:href="#DejaVuSans-41" transform="translate(261.425781 0)"/>
     <use xlink:href="#DejaVuSans-3a" transform="translate(328.083984 0)"/>
     <use xlink:href="#DejaVuSans-20" transform="translate(361.775391 0)"/>
     <use xlink:href="#DejaVuSans-30" transform="translate(393.5625 0)"/>
     <use xlink:href="#DejaVuSans-2e" transform="translate(457.185547 0)"/>
     <use xlink:href="#DejaVuSans-34" transform="translate(488.972656 0)"/>
     <use xlink:href="#DejaVuSans-74" transform="translate(552.595703 0)"/>
     <use xlink:href="#DejaVuSans-2c" transform="translate(591.804688 0)"/>
     <use xlink:href="#DejaVuSans-20" transform="translate(623.591797 0)"/>
     <use xlink:href="#DejaVuSans-31" transform="translate(655.378906 0)"/>
     <use xlink:href="#DejaVuSans-2e" transform="translate(719.001953 0)"/>
     <use xlink:href="#DejaVuSans-30" transform="translate(750.789062 0)"/>
     <use xlink:href="#DejaVuSans-74" transform="translate(814.412109 0)"/>
     <use xlink:href="#DejaVuSans-20" transform="translate(853.621094 0)"/>
     <use xlink:href="#DejaVuSans-28" transform="translate(885.408203 0)"/>
     <use xlink:href="#DejaVuSans-6c" transform="translate(924.421875 0)"/>
     <use xlink:href="#DejaVuSans-69" transform="translate(952.205078 0)"/>
     <use xlink:href="#DejaVuSans-6e" transform="translate(979.988281 0)"/>
     <use xlink:href="#DejaVuSans-65" transform="translate(1043.367188 0)"/>
     <use xlink:href="#DejaVuSans-61" transform="translate(1104.890625 0)"/>
     <use xlink:href="#DejaVuSans-72" transform="translate(1166.169922 0)"/>
     <use xlink:href="#DejaVuSans-29" transform="translate(1207.283203 0)"/>
    </g>
    <!-- Type B: 4, 8, 12 mm (quadratic) -->
    <g transform="translate(21.168 303.982862) scale(0.08 -0.08)">
     <defs>
      <path id="DejaVuSans-71" d="M 947 1747 
Q 947 1113 1208 752 
Q 1469 391 1925 391 
Q 2381 391 2643 752 
Q 2906 1113 2906 1747 
Q 2906 2381 2643 2742 
Q 2381 3103 1925 3103 
Q 1469 3103 1208 2742 
Q 947 2381 947 1747 
z
M 2906 525 
Q 2725 213 2448 61 
Q 2172 -91 1784 -91 
Q 1150 -91 751 415 
Q 353 922 353 1747 
Q 353 2572 751 3078 
Q 1150 3584 1784 3584 
Q 2172 3584 2448 3432 
Q 2725 3281 2906 2969 
L 2906 3500 
L 3481 3500 
L 3481 -1331 
L 2906 -1331 
L 2906 525 
z
" transform="scale(0.015625)"/>
      <path id="DejaVuSans-75" d="M 544 1381 
L 544 3500 
L 1119 3500 
L 1119 1403 
Q 1119 906 1312 657 
Q 1506 409 1894 409 
Q 2359 409 2629 706 
Q 2900 1003 2900 1516 
L 2900 3500 
L 3475 3500 
L 3475 0 
L 2900 0 
L 2900 538 
Q 2691 219 2414 64 
Q 2138 -91 1772 -91 
Q 1169 -91 856 284 
Q 544 659 544 1381 
z
M 1991 3584 
L 1991 3584 
z
" transform="scale(0.015625)"/>
     </defs>
     <use xlink:href="#DejaVuSans-54"/>
     <use xlink:href="#DejaVuSans-79" transform="translate(45.458984 0)"/>
     <use xlink:href="#DejaVuSans-70" transform="translate(104.638672 0)"/>
     <use xlink:href="#DejaVuSans-65" transform="translate(168.115234 0)"/>
     <use xlink:href="#DejaVuSans-20" transform="translate(229.638672 0)"/>
     <use xlink:href="#DejaVuSans-42" transform="translate(261.425781 0)"/>
     <use xlink:href="#DejaVuSans-3a" transform="translate(330.029297 0)"/>
     <use xlink:href="#DejaVuSans-20" transform="translate(363.720703 0)"/>
     <use xlink:href="#DejaVuSans-34" transform="translate(395.507812 0)"/>
     <use xlink:href="#DejaVuSans-2c" transform="translate(459.130859 0)"/>
     <use xlink:href="#DejaVuSans-20" transform="translate(490.917969 0)"/>
     <use xlink:href="#DejaVuSans-38" transform="translate(522.705078 0)"/>
     <use xlink:href="#DejaVuSans-2c" transform="translate(586.328125 0)"/>
     <use xlink:href="#DejaVuSans-20" transform="translate(618.115234 0)"/>
     <use xlink:href="#DejaVuSans-31" transform="translate(649.902344 0)"/>
     <use xlink:href="#DejaVuSans-32" transform="translate(713.525391 0)"/>
     <use xlink:href="#DejaVuSans-20" transform="translate(777.148438 0)"/>
     <use xlink:href="#DejaVuSans-6d" transform="translate(808.935547 0)"/>
     <use xlink:href="#DejaVuSans-6d" transform="translate(906.347656 0)"/>
     <use xlink:href="#DejaVuSans-20" transform="translate(1003.759766 0)"/>
     <use xlink:href="#DejaVuSans-28" transform="translate(1035.546875 0)"/>
     <use xlink:href="#DejaVuSans-71" transform="translate(1074.560547 0)"/>
     <use xlink:href="#DejaVuSans-75" transform="translate(1138.037109 0)"/>
     <use xlink:href="#DejaVuSans-61" transform="translate(1201.416016 0)"/>
     <use xlink:href="#DejaVuSans-64" transform="translate(1262.695312 0)"/>
     <use xlink:href="#DejaVuSans-72" transform="translate(1326.171875 0)"/>
     <use xlink:href="#DejaVuSans-61" transform="translate(1367.285156 0)"/>
     <use xlink:href="#DejaVuSans-74" transform="translate(1428.564453 0)"/>
     <use xlink:href="#DejaVuSans-69" transform="translate(1467.773438 0)"/>
     <use xlink:href="#DejaVuSans-63" transform="translate(1495.556641 0)"/>
     <use xlink:href="#DejaVuSans-29" transform="translate(1550.537109 0)"/>
    </g>
   </g>
   <g id="text_19">
    <!-- Hot-Spot Stress Extrapolation (IIW) -->
    <g transform="translate(216.418594 17.837812) scale(0.14 -0.14)">
     <defs>
      <path id="DejaVuSans-Bold-53" d="M 3834 4519 
L 3834 3531 
Q 3450 3703 3084 3790 
Q 2719 3878 2394 3878 
Q 1963 3878 1756 3759 
Q 1550 3641 1550 3391 
Q 1550 3203 1689 3098 
Q 1828 2994 2194 2919 
L 2706 2816 
Q 3484 2659 3812 2340 
Q 4141 2022 4141 1434 
Q 4141 663 3683 286 
Q 3225 -91 2284 -91 
Q 1841 -91 1394 -6 
Q 947 78 500 244 
L 500 1259 
Q 947 1022 1364 901 
Q 1781 781 2169 781 
Q 2563 781 2772 912 
Q 2981 1044 2981 1288 
Q 2981 1506 2839 1625 
Q 2697 1744 2272 1838 
L 1806 1941 
Q 1106 2091 782 2419 
Q 459 2747 459 3303 
Q 459 4000 909 4375 
Q 1359 4750 2203 4750 
Q 2588 4750 2994 4692 
Q 3400 4634 3834 4519 
z
" transform="scale(0.015625)"/>
      <path id="DejaVuSans-Bold-45" d="M 588 4666 
L 3834 4666 
L 3834 3756 
L 1791 3756 
L 1791 2888 
L 3713 2888 
L 3713 1978 
L 1791 1978 
L 1791 909 
L 3903 909 
L 3903 0 
L 588 0 
L 588 4666 
z
" transform="scale(0.015625)"/>
      <path id="DejaVuSans-Bold-78" d="M 1422 1791 
L 159 3500 
L 1344 3500 
L 2059 2463 
L 2784 3500 
L 3969 3500 
L 2706 1797 
L 4031 0 
L 2847 0 
L 2059 1106 
L 1281 0 
L 97 0 
L 1422 1791 
z
" transform="scale(0.015625)"/>
      <path id="DejaVuSans-Bold-6c" d="M 538 4863 
L 1656 4863 
L 1656 0 
L 538 0 
L 538 4863 
z
" transform="scale(0.015625)"/>
      <path id="DejaVuSans-Bold-69" d="M 538 3500 
L 1656 3500 
L 1656 0 
L 538 0 
L 538 3500 
z
M 538 4863 
L 1656 4863 
L 1656 3950 
L 538 3950 
L 538 4863 
z
" transform="scale(0.015625)"/>
      <path id="DejaVuSans-Bold-6e" d="M 4056 2131 
L 4056 0 
L 2931 0 
L 2931 347 
L 2931 1631 
Q 2931 2084 2911 2256 
Q 2891 2428 2841 2509 
Q 2775 2619 2662 2680 
Q 2550 2741 2406 2741 
Q 2056 2741 1856 2470 
Q 1656 2200 1656 1722 
L 1656 0 
L 538 0 
L 538 3500 
L 1656 3500 
L 1656 2988 
Q 1909 3294 2193 3439 
Q 2478 3584 2822 3584 
Q 3428 3584 3742 3212 
Q 4056 2841 4056 2131 
z
" transform="scale(0.015625)"/>
      <path id="DejaVuSans-Bold-28" d="M 2413 -844 
L 1484 -844 
Q 1006 -72 778 623 
Q 550 1319 550 2003 
Q 550 2688 779 3389 
Q 1009 4091 1484 4856 
L 2413 4856 
Q 2013 4116 1813 3408 
Q 1613 2700 1613 2009 
Q 1613 1319 1811 609 
Q 2009 -100 2413 -844 
z
" transform="scale(0.015625)"/>
      <path id="DejaVuSans-Bold-49" d="M 588 4666 
L 1791 4666 
L 1791 0 
L 588 0 
L 588 4666 
z
" transform="scale(0.015625)"/>
      <path id="DejaVuSans-Bold-57" d="M 191 4666 
L 1344 4666 
L 2150 1275 
L 2950 4666 
L 4109 4666 
L 4909 1275 
L 5716 4666 
L 6859 4666 
L 5759 0 
L 4372 0 
L 3525 3547 
L 2688 0 
L 1300 0 
L 191 4666 
z
" transform="scale(0.015625)"/>
      <path id="DejaVuSans-Bold-29" d="M 513 -844 
Q 913 -100 1113 609 
Q 1313 1319 1313 2009 
Q 1313 2700 1113 3408 
Q 913 4116 513 4856 
L 1441 4856 
Q 1916 4091 2145 3389 
Q 2375 2688 2375 2003 
Q 2375 1319 2147 623 
Q 1919 -72 1441 -844 
L 513 -844 
z
" transform="scale(0.015625)"/>
     </defs>
     <use xlink:href="#DejaVuSans-Bold-48"/>
     <use xlink:href="#DejaVuSans-Bold-6f" transform="translate(83.691406 0)"/>
     <use xlink:href="#DejaVuSans-Bold-74" transform="translate(152.392578 0)"/>
     <use xlink:href="#DejaVuSans-Bold-2d" transform="translate(200.195312 0)"/>
     <use xlink:href="#DejaVuSans-Bold-53" transform="translate(241.699219 0)"/>
     <use xlink:href="#DejaVuSans-Bold-70" transform="translate(313.720703 0)"/>
     <use xlink:href="#DejaVuSans-Bold-6f" transform="translate(385.302734 0)"/>
     <use xlink:href="#DejaVuSans-Bold-74" transform="translate(454.003906 0)"/>
     <use xlink:href="#DejaVuSans-Bold-20" transform="translate(501.806641 0)"/>
     <use xlink:href="#DejaVuSans-Bold-53" transform="translate(536.621094 0)"/>
     <use xlink:href="#DejaVuSans-Bold-74" transform="translate(608.642578 0)"/>
     <use xlink:href="#DejaVuSans-Bold-72" transform="translate(656.445312 0)"/>
     <use xlink:href="#DejaVuSans-Bold-65" transform="translate(705.761719 0)"/>
     <use xlink:href="#DejaVuSans-Bold-73" transform="translate(773.583984 0)"/>
     <use xlink:href="#DejaVuSans-Bold-73" transform="translate(833.105469 0)"/>
     <use xlink:href="#DejaVuSans-Bold-20" transform="translate(892.626953 0)"/>
     <use xlink:href="#DejaVuSans-Bold-45" transform="translate(927.441406 0)"/>
     <use xlink:href="#DejaVuSans-Bold-78" transform="translate(995.751953 0)"/>
     <use xlink:href="#DejaVuSans-Bold-74" transform="translate(1060.253906 0)"/>
     <use xlink:href="#DejaVuSans-Bold-72" transform="translate(1108.056641 0)"/>
     <use xlink:href="#DejaVuSans-Bold-61" transform="translate(1157.373047 0)"/>
     <use xlink:href="#DejaVuSans-Bold-70" transform="translate(1224.853516 0)"/>
     <use xlink:href="#DejaVuSans-Bold-6f" transform="translate(1296.435547 0)"/>
     <use xlink:href="#DejaVuSans-Bold-6c" transform="translate(1365.136719 0)"/>
     <use xlink:href="#DejaVuSans-Bold-61" transform="translate(1399.414062 0)"/>
     <use xlink:href="#DejaVuSans-Bold-74" transform="translate(1466.894531 0)"/>
     <use xlink:href="#DejaVuSans-Bold-69" transform="translate(1514.697266 0)"/>
     <use xlink:href="#DejaVuSans-Bold-6f" transform="translate(1548.974609 0)"/>
     <use xlink:href="#DejaVuSans-Bold-6e" transform="translate(1617.675781 0)"/>
     <use xlink:href="#DejaVuSans-Bold-20" transform="translate(1688.867188 0)"/>
     <use xlink:href="#DejaVuSans-Bold-28" transform="translate(1723.681641 0)"/>
     <use xlink:href="#DejaVuSans-Bold-49" transform="translate(1769.384766 0)"/>
     <use xlink:href="#DejaVuSans-Bold-49" transform="translate(1806.591797 0)"/>
     <use xlink:href="#DejaVuSans-Bold-57" transform="translate(1843.798828 0)"/>
     <use xlink:href="#DejaVuSans-Bold-29" transform="translate(1954.101562 0)"/>
    </g>
   </g>
   <g id="line2d_22">
    <defs>
     <path id="mcdd85ef2a9" d="M 0 5 
C 1.326016 5 2.597899 4.473168 3.535534 3.535534 
C 4.473168 2.597899 5 1.326016 5 0 
C 5 -1.326016 4.473168 -2.597899 3.535534 -3.535534 
C 2.597899 -4.473168 1.326016 -5 0 -5 
C -1.326016 -5 -2.597899 -4.473168 -3.535534 -3.535534 
C -4.473168 -2.597899 -5 -1.326016 -5 0 
C -5 1.326016 -4.473168 2.597899 -3.535534 3.535534 
C -2.597899 4.473168 -1.326016 5 0 5 
z
" style="stroke: #0000ff"/>
    </defs>
    <g clip-path="url(#pd83ee8d9e1)">
     <use xlink:href="#mcdd85ef2a9" x="266.605714" y="141.696301" style="fill: #0000ff; stroke: #0000ff"/>
    </g>
   </g>
   <g id="line2d_23">
    <g clip-path="url(#pd83ee8d9e1)">
     <use xlink:href="#mcdd85ef2a9" x="506.057143" y="149.94971" style="fill: #0000ff; stroke: #0000ff"/>
    </g>
   </g>
   <g id="legend_1">
    <g id="patch_11">
     <path d="M 579.742031 57.458437 
L 699.3 57.458437 
Q 701.1 57.458437 701.1 55.658437 
L 701.1 30.137812 
Q 701.1 28.337812 699.3 28.337812 
L 579.742031 28.337812 
Q 577.942031 28.337812 577.942031 30.137812 
L 577.942031 55.658437 
Q 577.942031 57.458437 579.742031 57.458437 
z
" style="fill: #ffffff; opacity: 0.8; stroke: #cccccc; stroke-linejoin: miter"/>
    </g>
    <g id="line2d_24">
     <path d="M 581.542031 35.626406 
L 590.542031 35.626406 
L 599.542031 35.626406 
" style="fill: none; stroke: #1a5276; stroke-width: 2; stroke-linecap: square"/>
    </g>
    <g id="text_20">
     <!-- Actual stress -->
     <g transform="translate(606.742031 38.776406) scale(0.09 -0.09)">
      <use xlink:href="#DejaVuSans-41"/>
      <use xlink:href="#DejaVuSans-63" transform="translate(66.658203 0)"/>
      <use xlink:href="#DejaVuSans-74" transform="translate(121.638672 0)"/>
      <use xlink:href="#DejaVuSans-75" transform="translate(160.847656 0)"/>
      <use xlink:href="#DejaVuSans-61" transform="translate(224.226562 0)"/>
      <use xlink:href="#DejaVuSans-6c" transform="translate(285.505859 0)"/>
      <use xlink:href="#DejaVuSans-20" transform="translate(313.289062 0)"/>
      <use xlink:href="#DejaVuSans-73" transform="translate(345.076172 0)"/>
      <use xlink:href="#DejaVuSans-74" transform="translate(397.175781 0)"/>
      <use xlink:href="#DejaVuSans-72" transform="translate(436.384766 0)"/>
      <use xlink:href="#DejaVuSans-65" transform="translate(475.248047 0)"/>
      <use xlink:href="#DejaVuSans-73" transform="translate(536.771484 0)"/>
      <use xlink:href="#DejaVuSans-73" transform="translate(588.871094 0)"/>
     </g>
    </g>
    <g id="line2d_25">
     <path d="M 581.542031 48.836719 
L 590.542031 48.836719 
L 599.542031 48.836719 
" style="fill: none; stroke-dasharray: 5.55,2.4; stroke-dashoffset: 0; stroke: #2980b9; stroke-width: 1.5"/>
    </g>
    <g id="text_21">
     <!-- Linear extrapolation -->
     <g transform="translate(606.742031 51.986719) scale(0.09 -0.09)">
      <defs>
       <path id="DejaVuSans-4c" d="M 628 4666 
L 1259 4666 
L 1259 531 
L 3531 531 
L 3531 0 
L 628 0 
L 628 4666 
z
" transform="scale(0.015625)"/>
       <path id="DejaVuSans-78" d="M 3513 3500 
L 2247 1797 
L 3578 0 
L 2900 0 
L 1881 1375 
L 863 0 
L 184 0 
L 1544 1831 
L 300 3500 
L 978 3500 
L 1906 2253 
L 2834 3500 
L 3513 3500 
z
" transform="scale(0.015625)"/>
      </defs>
      <use xlink:href="#DejaVuSans-4c"/>
      <use xlink:href="#DejaVuSans-69" transform="translate(55.712891 0)"/>
      <use xlink:href="#DejaVuSans-6e" transform="translate(83.496094 0)"/>
      <use xlink:href="#DejaVuSans-65" transform="translate(146.875 0)"/>
      <use xlink:href="#DejaVuSans-61" transform="translate(208.398438 0)"/>
      <use xlink:href="#DejaVuSans-72" transform="translate(269.677734 0)"/>
      <use xlink:href="#DejaVuSans-20" transform="translate(310.791016 0)"/>
      <use xlink:href="#DejaVuSans-65" transform="translate(342.578125 0)"/>
      <use xlink:href="#DejaVuSans-78" transform="translate(402.351562 0)"/>
      <use xlink:href="#DejaVuSans-74" transform="translate(461.53125 0)"/>
      <use xlink:href="#DejaVuSans-72" transform="translate(500.740234 0)"/>
      <use xlink:href="#DejaVuSans-61" transform="translate(541.853516 0)"/>
      <use xlink:href="#DejaVuSans-70" transform="translate(603.132812 0)"/>
      <use xlink:href="#DejaVuSans-6f" transform="translate(666.609375 0)"/>
      <use xlink:href="#DejaVuSans-6c" transform="translate(727.791016 0)"/>
      <use xlink:href="#DejaVuSans-61" transform="translate(755.574219 0)"/>
      <use xlink:href="#DejaVuSans-74" transform="translate(816.853516 0)"/>
      <use xlink:href="#DejaVuSans-69" transform="translate(856.0625 0)"/>
      <use xlink:href="#DejaVuSans-6f" transform="translate(883.845703 0)"/>
      <use xlink:href="#DejaVuSans-6e" transform="translate(945.027344 0)"/>
     </g>
    </g>
   </g>
   <g id="line2d_26">
    <defs>
     <path id="mbb951447ea" d="M 0 -8 
L -1.796112 -2.472136 
L -7.608452 -2.472136 
L -2.90617 0.944272 
L -4.702282 6.472136 
L -0 3.055728 
L 4.702282 6.472136 
L 2.90617 0.944272 
L 7.608452 -2.472136 
L 1.796112 -2.472136 
z
" style="stroke: #ff0000; stroke-linejoin: bevel"/>
    </defs>
    <g clip-path="url(#pd83ee8d9e1)">
     <use xlink:href="#mbb951447ea" x="106.971429" y="136.194028" style="fill: #ff0000; stroke: #ff0000; stroke-linejoin: bevel"/>
    </g>
   </g>
  </g>
 </g>
 <defs>
  <clipPath id="pd83ee8d9e1">
   <rect x="7.2" y="23.837812" width="698.4" height="287.56"/>
  </clipPath>
 </defs>
 <defs>
  <pattern id="h79ccec4e87" patternUnits="userSpaceOnUse" x="0" y="0" width="72" height="72">
   <rect x="0" y="0" width="73" height="73" fill="#bdc3c7"/>
   <path d="M -36 36 
L 36 -36 
M -30 42 
L 42 -30 
M -24 48 
L 48 -24 
M -18 54 
L 54 -18 
M -12 60 
L 60 -12 
M -6 66 
L 66 -6 
M 0 72 
L 72 0 
M 6 78 
L 78 6 
M 12 84 
L 84 12 
M 18 90 
L 90 18 
M 24 96 
L 96 24 
M 30 102 
L 102 30 
M 36 108 
L 108 36 
" style="fill: #7f8c8d; stroke: #7f8c8d; stroke-width: 1.0; stroke-linecap: butt; stroke-linejoin: miter"/>
  </pattern>
 </defs>
</svg>
