<?xml version="1.0" encoding="utf-8" standalone="no"?>
<!DOCTYPE svg PUBLIC "-//W3C//DTD SVG 1.1//EN"
  "http://www.w3.org/Graphics/SVG/1.1/DTD/svg11.dtd">
<svg xmlns:xlink="http://www.w3.org/1999/xlink" width="684pt" height="308.237813pt" viewBox="0 0 684 308.237813" xmlns="http://www.w3.org/2000/svg" version="1.1">
 <metadata>
  <rdf:RDF xmlns:dc="http://purl.org/dc/elements/1.1/" xmlns:cc="http://creativecommons.org/ns#" xmlns:rdf="http://www.w3.org/1999/02/22-rdf-syntax-ns#">
   <cc:Work>
    <dc:type rdf:resource="http://purl.org/dc/dcmitype/StillImage"/>
    <dc:date>2026-04-11T15:56:34.581517</dc:date>
    <dc:format>image/svg+xml</dc:format>
    <dc:creator>
     <cc:Agent>
      <dc:title>Matplotlib v3.10.8, https://matplotlib.org/</dc:title>
     </cc:Agent>
    </dc:creator>
   </cc:Work>
  </rdf:RDF>
 </metadata>
 <defs>
  <style type="text/css">*{stroke-linejoin: round; stroke-linecap: butt}</style>
 </defs>
 <g id="figure_1">
  <g id="patch_1">
   <path d="M 0 308.237813 
L 684 308.237813 
L 684 0 
L 0 0 
z
" style="fill: #fafafa"/>
  </g>
  <g id="axes_1">
   <g id="patch_2">
    <path d="M 23.94 192.929813 
L 135.54 192.929813 
Q 138.33 192.929813 138.33 190.157813 
L 138.33 134.717812 
Q 138.33 131.945813 135.54 131.945813 
L 23.94 131.945813 
Q 21.15 131.945813 21.15 134.717812 
L 21.15 190.157813 
Q 21.15 192.929813 23.94 192.929813 
z
" clip-path="url(#pc1b1cbf3af)" style="fill: #2980b9; fill-opacity: 0.133333; stroke: #2980b9; stroke-width: 2; stroke-linejoin: miter"/>
   </g>
   <g id="patch_3">
    <path d="M 163.44 192.929813 
L 275.04 192.929813 
Q 277.83 192.929813 277.83 190.157813 
L 277.83 134.717812 
Q 277.83 131.945813 275.04 131.945813 
L 163.44 131.945813 
Q 160.65 131.945813 160.65 134.717812 
L 160.65 190.157813 
Q 160.65 192.929813 163.44 192.929813 
z
" clip-path="url(#pc1b1cbf3af)" style="fill: #1a5276; fill-opacity: 0.133333; stroke: #1a5276; stroke-width: 2; stroke-linejoin: miter"/>
   </g>
   <g id="patch_4">
    <path d="M 302.94 192.929813 
L 431.28 192.929813 
Q 434.07 192.929813 434.07 190.157813 
L 434.07 134.717812 
Q 434.07 131.945813 431.28 131.945813 
L 302.94 131.945813 
Q 300.15 131.945813 300.15 134.717812 
L 300.15 190.157813 
Q 300.15 192.929813 302.94 192.929813 
z
" clip-path="url(#pc1b1cbf3af)" style="fill: #f39c12; fill-opacity: 0.133333; stroke: #f39c12; stroke-width: 2; stroke-linejoin: miter"/>
   </g>
   <g id="patch_5">
    <path d="M 459.18 192.929813 
L 559.62 192.929813 
Q 562.41 192.929813 562.41 190.157813 
L 562.41 134.717812 
Q 562.41 131.945813 559.62 131.945813 
L 459.18 131.945813 
Q 456.39 131.945813 456.39 134.717812 
L 456.39 190.157813 
Q 456.39 192.929813 459.18 192.929813 
z
" clip-path="url(#pc1b1cbf3af)" style="fill: #2980b9; fill-opacity: 0.133333; stroke: #2980b9; stroke-width: 2; stroke-linejoin: miter"/>
   </g>
   <g id="patch_6">
    <path d="M 576.36 192.929813 
L 665.64 192.929813 
Q 668.43 192.929813 668.43 190.157813 
L 668.43 134.717812 
Q 668.43 131.945813 665.64 131.945813 
L 576.36 131.945813 
Q 573.57 131.945813 573.57 134.717812 
L 573.57 190.157813 
Q 573.57 192.929813 576.36 192.929813 
z
" clip-path="url(#pc1b1cbf3af)" style="fill: #27ae60; fill-opacity: 0.133333; stroke: #27ae60; stroke-width: 2; stroke-linejoin: miter"/>
   </g>
   <g id="patch_7">
    <path d="M 137.539182 162.437813 
Q 149.488906 162.437813 159.649776 162.437813 
" clip-path="url(#pc1b1cbf3af)" style="fill: none; stroke: #1a5276; stroke-width: 1.6; stroke-linecap: round"/>
    <path d="M 152.449776 158.837813 
L 159.649776 162.437813 
L 152.449776 166.037813 
z
" clip-path="url(#pc1b1cbf3af)" style="fill: #1a5276; stroke: #1a5276; stroke-width: 1.6; stroke-linecap: round"/>
   </g>
   <g id="patch_8">
    <path d="M 277.039182 162.437813 
Q 288.988906 162.437813 299.149776 162.437813 
" clip-path="url(#pc1b1cbf3af)" style="fill: none; stroke: #1a5276; stroke-width: 1.6; stroke-linecap: round"/>
    <path d="M 291.949776 158.837813 
L 299.149776 162.437813 
L 291.949776 166.037813 
z
" clip-path="url(#pc1b1cbf3af)" style="fill: #1a5276; stroke: #1a5276; stroke-width: 1.6; stroke-linecap: round"/>
   </g>
   <g id="patch_9">
    <path d="M 433.279182 162.437813 
Q 445.228906 162.437813 455.389776 162.437813 
" clip-path="url(#pc1b1cbf3af)" style="fill: none; stroke: #1a5276; stroke-width: 1.6; stroke-linecap: round"/>
    <path d="M 448.189776 158.837813 
L 455.389776 162.437813 
L 448.189776 166.037813 
z
" clip-path="url(#pc1b1cbf3af)" style="fill: #1a5276; stroke: #1a5276; stroke-width: 1.6; stroke-linecap: round"/>
   </g>
   <g id="patch_10">
    <path d="M 561.618501 162.437813 
Q 567.990528 162.437813 572.573701 162.437813 
" clip-path="url(#pc1b1cbf3af)" style="fill: none; stroke: #1a5276; stroke-width: 1.6; stroke-linecap: round"/>
    <path d="M 565.373701 158.837813 
L 572.573701 162.437813 
L 565.373701 166.037813 
z
" clip-path="url(#pc1b1cbf3af)" style="fill: #1a5276; stroke: #1a5276; stroke-width: 1.6; stroke-linecap: round"/>
   </g>
   <g id="patch_11">
    <path d="M 585.52218 112.541812 
Q 567.993199 112.541812 552.029465 112.541812 
" clip-path="url(#pc1b1cbf3af)" style="fill: none; stroke-dasharray: 5.18,2.24; stroke-dashoffset: 0; stroke: #e74c3c; stroke-width: 1.4; stroke-linecap: round"/>
    <path d="M 558.429465 115.741812 
L 552.029465 112.541812 
L 558.429465 109.341813 
z
" clip-path="url(#pc1b1cbf3af)" style="fill: #e74c3c; stroke-dasharray: 5.18,2.24; stroke-dashoffset: 0; stroke: #e74c3c; stroke-width: 1.4; stroke-linecap: round"/>
   </g>
   <g id="patch_12">
    <path d="M 468.338434 112.541812 
Q 445.228372 112.541812 423.683558 112.541812 
" clip-path="url(#pc1b1cbf3af)" style="fill: none; stroke-dasharray: 5.18,2.24; stroke-dashoffset: 0; stroke: #e74c3c; stroke-width: 1.4; stroke-linecap: round"/>
    <path d="M 430.083558 115.741812 
L 423.683558 112.541812 
L 430.083558 109.341813 
z
" clip-path="url(#pc1b1cbf3af)" style="fill: #e74c3c; stroke-dasharray: 5.18,2.24; stroke-dashoffset: 0; stroke: #e74c3c; stroke-width: 1.4; stroke-linecap: round"/>
   </g>
   <g id="patch_13">
    <path d="M 312.098434 112.541812 
Q 288.988372 112.541812 267.443558 112.541812 
" clip-path="url(#pc1b1cbf3af)" style="fill: none; stroke-dasharray: 5.18,2.24; stroke-dashoffset: 0; stroke: #e74c3c; stroke-width: 1.4; stroke-linecap: round"/>
    <path d="M 273.843558 115.741812 
L 267.443558 112.541812 
L 273.843558 109.341813 
z
" clip-path="url(#pc1b1cbf3af)" style="fill: #e74c3c; stroke-dasharray: 5.18,2.24; stroke-dashoffset: 0; stroke: #e74c3c; stroke-width: 1.4; stroke-linecap: round"/>
   </g>
   <g id="patch_14">
    <path d="M 172.598434 112.541812 
Q 149.488372 112.541812 127.943558 112.541812 
" clip-path="url(#pc1b1cbf3af)" style="fill: none; stroke-dasharray: 5.18,2.24; stroke-dashoffset: 0; stroke: #e74c3c; stroke-width: 1.4; stroke-linecap: round"/>
    <path d="M 134.343558 115.741812 
L 127.943558 112.541812 
L 134.343558 109.341813 
z
" clip-path="url(#pc1b1cbf3af)" style="fill: #e74c3c; stroke-dasharray: 5.18,2.24; stroke-dashoffset: 0; stroke: #e74c3c; stroke-width: 1.4; stroke-linecap: round"/>
   </g>
   <g id="patch_15">
    <path d="M 587.52 287.177813 
L 665.64 287.177813 
Q 668.43 287.177813 668.43 284.405813 
L 668.43 234.509813 
Q 668.43 231.737813 665.64 231.737813 
L 587.52 231.737813 
Q 584.73 231.737813 584.73 234.509813 
L 584.73 284.405813 
Q 584.73 287.177813 587.52 287.177813 
z
" clip-path="url(#pc1b1cbf3af)" style="fill: #fff0ef; stroke: #e74c3c; stroke-width: 2; stroke-linejoin: miter"/>
   </g>
   <g id="patch_16">
    <path d="M 621.249642 192.142066 
Q 623.790054 212.334238 626.135079 230.973405 
" clip-path="url(#pc1b1cbf3af)" style="fill: none; stroke: #1a5276; stroke-width: 1.4; stroke-linecap: round"/>
    <path d="M 628.511153 224.224015 
L 626.135079 230.973405 
L 622.161211 225.022912 
z
" clip-path="url(#pc1b1cbf3af)" style="fill: #1a5276; stroke: #1a5276; stroke-width: 1.4; stroke-linecap: round"/>
   </g>
   <g id="text_1">
    <!-- AnalysisCase -->
    <g transform="translate(42.886875 159.520156) scale(0.1 -0.1)">
     <defs>
      <path id="DejaVuSans-Bold-41" d="M 3419 850 
L 1538 850 
L 1241 0 
L 31 0 
L 1759 4666 
L 3194 4666 
L 4922 0 
L 3713 0 
L 3419 850 
z
M 1838 1716 
L 3116 1716 
L 2478 3572 
L 1838 1716 
z
" transform="scale(0.015625)"/>
      <path id="DejaVuSans-Bold-6e" d="M 4056 2131 
L 4056 0 
L 2931 0 
L 2931 347 
L 2931 1631 
Q 2931 2084 2911 2256 
Q 2891 2428 2841 2509 
Q 2775 2619 2662 2680 
Q 2550 2741 2406 2741 
Q 2056 2741 1856 2470 
Q 1656 2200 1656 1722 
L 1656 0 
L 538 0 
L 538 3500 
L 1656 3500 
L 1656 2988 
Q 1909 3294 2193 3439 
Q 2478 3584 2822 3584 
Q 3428 3584 3742 3212 
Q 4056 2841 4056 2131 
z
" transform="scale(0.015625)"/>
      <path id="DejaVuSans-Bold-61" d="M 2106 1575 
Q 1756 1575 1579 1456 
Q 1403 1338 1403 1106 
Q 1403 894 1545 773 
Q 1688 653 1941 653 
Q 2256 653 2472 879 
Q 2688 1106 2688 1447 
L 2688 1575 
L 2106 1575 
z
M 3816 1997 
L 3816 0 
L 2688 0 
L 2688 519 
Q 2463 200 2181 54 
Q 1900 -91 1497 -91 
Q 953 -91 614 226 
Q 275 544 275 1050 
Q 275 1666 698 1953 
Q 1122 2241 2028 2241 
L 2688 2241 
L 2688 2328 
Q 2688 2594 2478 2717 
Q 2269 2841 1825 2841 
Q 1466 2841 1156 2769 
Q 847 2697 581 2553 
L 581 3406 
Q 941 3494 1303 3539 
Q 1666 3584 2028 3584 
Q 2975 3584 3395 3211 
Q 3816 2838 3816 1997 
z
" transform="scale(0.015625)"/>
      <path id="DejaVuSans-Bold-6c" d="M 538 4863 
L 1656 4863 
L 1656 0 
L 538 0 
L 538 4863 
z
" transform="scale(0.015625)"/>
      <path id="DejaVuSans-Bold-79" d="M 78 3500 
L 1197 3500 
L 2138 1125 
L 2938 3500 
L 4056 3500 
L 2584 -331 
Q 2363 -916 2067 -1148 
Q 1772 -1381 1288 -1381 
L 641 -1381 
L 641 -647 
L 991 -647 
Q 1275 -647 1404 -556 
Q 1534 -466 1606 -231 
L 1638 -134 
L 78 3500 
z
" transform="scale(0.015625)"/>
      <path id="DejaVuSans-Bold-73" d="M 3272 3391 
L 3272 2541 
Q 2913 2691 2578 2766 
Q 2244 2841 1947 2841 
Q 1628 2841 1473 2761 
Q 1319 2681 1319 2516 
Q 1319 2381 1436 2309 
Q 1553 2238 1856 2203 
L 2053 2175 
Q 2913 2066 3209 1816 
Q 3506 1566 3506 1031 
Q 3506 472 3093 190 
Q 2681 -91 1863 -91 
Q 1516 -91 1145 -36 
Q 775 19 384 128 
L 384 978 
Q 719 816 1070 734 
Q 1422 653 1784 653 
Q 2113 653 2278 743 
Q 2444 834 2444 1013 
Q 2444 1163 2330 1236 
Q 2216 1309 1875 1350 
L 1678 1375 
Q 931 1469 631 1722 
Q 331 1975 331 2491 
Q 331 3047 712 3315 
Q 1094 3584 1881 3584 
Q 2191 3584 2531 3537 
Q 2872 3491 3272 3391 
z
" transform="scale(0.015625)"/>
      <path id="DejaVuSans-Bold-69" d="M 538 3500 
L 1656 3500 
L 1656 0 
L 538 0 
L 538 3500 
z
M 538 4863 
L 1656 4863 
L 1656 3950 
L 538 3950 
L 538 4863 
z
" transform="scale(0.015625)"/>
      <path id="DejaVuSans-Bold-43" d="M 4288 256 
Q 3956 84 3597 -3 
Q 3238 -91 2847 -91 
Q 1681 -91 1000 561 
Q 319 1213 319 2328 
Q 319 3447 1000 4098 
Q 1681 4750 2847 4750 
Q 3238 4750 3597 4662 
Q 3956 4575 4288 4403 
L 4288 3438 
Q 3953 3666 3628 3772 
Q 3303 3878 2944 3878 
Q 2300 3878 1931 3465 
Q 1563 3053 1563 2328 
Q 1563 1606 1931 1193 
Q 2300 781 2944 781 
Q 3303 781 3628 887 
Q 3953 994 4288 1222 
L 4288 256 
z
" transform="scale(0.015625)"/>
      <path id="DejaVuSans-Bold-65" d="M 4031 1759 
L 4031 1441 
L 1416 1441 
Q 1456 1047 1700 850 
Q 1944 653 2381 653 
Q 2734 653 3104 758 
Q 3475 863 3866 1075 
L 3866 213 
Q 3469 63 3072 -14 
Q 2675 -91 2278 -91 
Q 1328 -91 801 392 
Q 275 875 275 1747 
Q 275 2603 792 3093 
Q 1309 3584 2216 3584 
Q 3041 3584 3536 3087 
Q 4031 2591 4031 1759 
z
M 2881 2131 
Q 2881 2450 2695 2645 
Q 2509 2841 2209 2841 
Q 1884 2841 1681 2658 
Q 1478 2475 1428 2131 
L 2881 2131 
z
" transform="scale(0.015625)"/>
     </defs>
     <use xlink:href="#DejaVuSans-Bold-41"/>
     <use xlink:href="#DejaVuSans-Bold-6e" transform="translate(77.392578 0)"/>
     <use xlink:href="#DejaVuSans-Bold-61" transform="translate(148.583984 0)"/>
     <use xlink:href="#DejaVuSans-Bold-6c" transform="translate(216.064453 0)"/>
     <use xlink:href="#DejaVuSans-Bold-79" transform="translate(250.341797 0)"/>
     <use xlink:href="#DejaVuSans-Bold-73" transform="translate(315.527344 0)"/>
     <use xlink:href="#DejaVuSans-Bold-69" transform="translate(375.048828 0)"/>
     <use xlink:href="#DejaVuSans-Bold-73" transform="translate(409.326172 0)"/>
     <use xlink:href="#DejaVuSans-Bold-43" transform="translate(468.847656 0)"/>
     <use xlink:href="#DejaVuSans-Bold-61" transform="translate(542.236328 0)"/>
     <use xlink:href="#DejaVuSans-Bold-73" transform="translate(609.716797 0)"/>
     <use xlink:href="#DejaVuSans-Bold-65" transform="translate(669.238281 0)"/>
    </g>
    <!-- (pydantic) -->
    <g transform="translate(50.750937 170.796094) scale(0.1 -0.1)">
     <defs>
      <path id="DejaVuSans-Bold-28" d="M 2413 -844 
L 1484 -844 
Q 1006 -72 778 623 
Q 550 1319 550 2003 
Q 550 2688 779 3389 
Q 1009 4091 1484 4856 
L 2413 4856 
Q 2013 4116 1813 3408 
Q 1613 2700 1613 2009 
Q 1613 1319 1811 609 
Q 2009 -100 2413 -844 
z
" transform="scale(0.015625)"/>
      <path id="DejaVuSans-Bold-70" d="M 1656 506 
L 1656 -1331 
L 538 -1331 
L 538 3500 
L 1656 3500 
L 1656 2988 
Q 1888 3294 2169 3439 
Q 2450 3584 2816 3584 
Q 3463 3584 3878 3070 
Q 4294 2556 4294 1747 
Q 4294 938 3878 423 
Q 3463 -91 2816 -91 
Q 2450 -91 2169 54 
Q 1888 200 1656 506 
z
M 2400 2772 
Q 2041 2772 1848 2508 
Q 1656 2244 1656 1747 
Q 1656 1250 1848 986 
Q 2041 722 2400 722 
Q 2759 722 2948 984 
Q 3138 1247 3138 1747 
Q 3138 2247 2948 2509 
Q 2759 2772 2400 2772 
z
" transform="scale(0.015625)"/>
      <path id="DejaVuSans-Bold-64" d="M 2919 2988 
L 2919 4863 
L 4044 4863 
L 4044 0 
L 2919 0 
L 2919 506 
Q 2688 197 2409 53 
Q 2131 -91 1766 -91 
Q 1119 -91 703 423 
Q 288 938 288 1747 
Q 288 2556 703 3070 
Q 1119 3584 1766 3584 
Q 2128 3584 2408 3439 
Q 2688 3294 2919 2988 
z
M 2181 722 
Q 2541 722 2730 984 
Q 2919 1247 2919 1747 
Q 2919 2247 2730 2509 
Q 2541 2772 2181 2772 
Q 1825 2772 1636 2509 
Q 1447 2247 1447 1747 
Q 1447 1247 1636 984 
Q 1825 722 2181 722 
z
" transform="scale(0.015625)"/>
      <path id="DejaVuSans-Bold-74" d="M 1759 4494 
L 1759 3500 
L 2913 3500 
L 2913 2700 
L 1759 2700 
L 1759 1216 
Q 1759 972 1856 886 
Q 1953 800 2241 800 
L 2816 800 
L 2816 0 
L 1856 0 
Q 1194 0 917 276 
Q 641 553 641 1216 
L 641 2700 
L 84 2700 
L 84 3500 
L 641 3500 
L 641 4494 
L 1759 4494 
z
" transform="scale(0.015625)"/>
      <path id="DejaVuSans-Bold-63" d="M 3366 3391 
L 3366 2478 
Q 3138 2634 2908 2709 
Q 2678 2784 2431 2784 
Q 1963 2784 1702 2511 
Q 1441 2238 1441 1747 
Q 1441 1256 1702 982 
Q 1963 709 2431 709 
Q 2694 709 2930 787 
Q 3166 866 3366 1019 
L 3366 103 
Q 3103 6 2833 -42 
Q 2563 -91 2291 -91 
Q 1344 -91 809 395 
Q 275 881 275 1747 
Q 275 2613 809 3098 
Q 1344 3584 2291 3584 
Q 2566 3584 2833 3536 
Q 3100 3488 3366 3391 
z
" transform="scale(0.015625)"/>
      <path id="DejaVuSans-Bold-29" d="M 513 -844 
Q 913 -100 1113 609 
Q 1313 1319 1313 2009 
Q 1313 2700 1113 3408 
Q 913 4116 513 4856 
L 1441 4856 
Q 1916 4091 2145 3389 
Q 2375 2688 2375 2003 
Q 2375 1319 2147 623 
Q 1919 -72 1441 -844 
L 513 -844 
z
" transform="scale(0.015625)"/>
     </defs>
     <use xlink:href="#DejaVuSans-Bold-28"/>
     <use xlink:href="#DejaVuSans-Bold-70" transform="translate(45.703125 0)"/>
     <use xlink:href="#DejaVuSans-Bold-79" transform="translate(117.285156 0)"/>
     <use xlink:href="#DejaVuSans-Bold-64" transform="translate(182.470703 0)"/>
     <use xlink:href="#DejaVuSans-Bold-61" transform="translate(254.052734 0)"/>
     <use xlink:href="#DejaVuSans-Bold-6e" transform="translate(321.533203 0)"/>
     <use xlink:href="#DejaVuSans-Bold-74" transform="translate(392.724609 0)"/>
     <use xlink:href="#DejaVuSans-Bold-69" transform="translate(440.527344 0)"/>
     <use xlink:href="#DejaVuSans-Bold-63" transform="translate(474.804688 0)"/>
     <use xlink:href="#DejaVuSans-Bold-29" transform="translate(534.082031 0)"/>
    </g>
   </g>
   <g id="text_2">
    <!-- JAXBackend -->
    <g transform="translate(185.782969 159.459219) scale(0.1 -0.1)">
     <defs>
      <path id="DejaVuSans-Bold-4a" d="M 588 4666 
L 1791 4666 
L 1791 453 
Q 1791 -419 1317 -850 
Q 844 -1281 -116 -1281 
L -359 -1281 
L -359 -372 
L -172 -372 
Q 203 -372 395 -162 
Q 588 47 588 453 
L 588 4666 
z
" transform="scale(0.015625)"/>
      <path id="DejaVuSans-Bold-58" d="M 3188 2381 
L 4806 0 
L 3553 0 
L 2463 1594 
L 1381 0 
L 122 0 
L 1741 2381 
L 184 4666 
L 1441 4666 
L 2463 3163 
L 3481 4666 
L 4744 4666 
L 3188 2381 
z
" transform="scale(0.015625)"/>
      <path id="DejaVuSans-Bold-42" d="M 2456 2859 
Q 2741 2859 2887 2984 
Q 3034 3109 3034 3353 
Q 3034 3594 2887 3720 
Q 2741 3847 2456 3847 
L 1791 3847 
L 1791 2859 
L 2456 2859 
z
M 2497 819 
Q 2859 819 3042 972 
Q 3225 1125 3225 1434 
Q 3225 1738 3044 1889 
Q 2863 2041 2497 2041 
L 1791 2041 
L 1791 819 
L 2497 819 
z
M 3616 2497 
Q 4003 2384 4215 2081 
Q 4428 1778 4428 1338 
Q 4428 663 3972 331 
Q 3516 0 2584 0 
L 588 0 
L 588 4666 
L 2394 4666 
Q 3366 4666 3802 4372 
Q 4238 4078 4238 3431 
Q 4238 3091 4078 2852 
Q 3919 2613 3616 2497 
z
" transform="scale(0.015625)"/>
      <path id="DejaVuSans-Bold-6b" d="M 538 4863 
L 1656 4863 
L 1656 2216 
L 2944 3500 
L 4244 3500 
L 2534 1894 
L 4378 0 
L 3022 0 
L 1656 1459 
L 1656 0 
L 538 0 
L 538 4863 
z
" transform="scale(0.015625)"/>
     </defs>
     <use xlink:href="#DejaVuSans-Bold-4a"/>
     <use xlink:href="#DejaVuSans-Bold-41" transform="translate(37.207031 0)"/>
     <use xlink:href="#DejaVuSans-Bold-58" transform="translate(114.599609 0)"/>
     <use xlink:href="#DejaVuSans-Bold-42" transform="translate(191.699219 0)"/>
     <use xlink:href="#DejaVuSans-Bold-61" transform="translate(267.919922 0)"/>
     <use xlink:href="#DejaVuSans-Bold-63" transform="translate(335.400391 0)"/>
     <use xlink:href="#DejaVuSans-Bold-6b" transform="translate(394.677734 0)"/>
     <use xlink:href="#DejaVuSans-Bold-65" transform="translate(458.556641 0)"/>
     <use xlink:href="#DejaVuSans-Bold-6e" transform="translate(526.378906 0)"/>
     <use xlink:href="#DejaVuSans-Bold-64" transform="translate(597.570312 0)"/>
    </g>
    <!-- .solve_static -->
    <g transform="translate(184.257188 170.657031) scale(0.1 -0.1)">
     <defs>
      <path id="DejaVuSans-Bold-2e" d="M 653 1209 
L 1778 1209 
L 1778 0 
L 653 0 
L 653 1209 
z
" transform="scale(0.015625)"/>
      <path id="DejaVuSans-Bold-6f" d="M 2203 2784 
Q 1831 2784 1636 2517 
Q 1441 2250 1441 1747 
Q 1441 1244 1636 976 
Q 1831 709 2203 709 
Q 2569 709 2762 976 
Q 2956 1244 2956 1747 
Q 2956 2250 2762 2517 
Q 2569 2784 2203 2784 
z
M 2203 3584 
Q 3106 3584 3614 3096 
Q 4122 2609 4122 1747 
Q 4122 884 3614 396 
Q 3106 -91 2203 -91 
Q 1297 -91 786 396 
Q 275 884 275 1747 
Q 275 2609 786 3096 
Q 1297 3584 2203 3584 
z
" transform="scale(0.015625)"/>
      <path id="DejaVuSans-Bold-76" d="M 97 3500 
L 1216 3500 
L 2088 1081 
L 2956 3500 
L 4078 3500 
L 2700 0 
L 1472 0 
L 97 3500 
z
" transform="scale(0.015625)"/>
      <path id="DejaVuSans-Bold-5f" d="M 3200 -916 
L 3200 -1509 
L 0 -1509 
L 0 -916 
L 3200 -916 
z
" transform="scale(0.015625)"/>
     </defs>
     <use xlink:href="#DejaVuSans-Bold-2e"/>
     <use xlink:href="#DejaVuSans-Bold-73" transform="translate(37.988281 0)"/>
     <use xlink:href="#DejaVuSans-Bold-6f" transform="translate(97.509766 0)"/>
     <use xlink:href="#DejaVuSans-Bold-6c" transform="translate(166.210938 0)"/>
     <use xlink:href="#DejaVuSans-Bold-76" transform="translate(200.488281 0)"/>
     <use xlink:href="#DejaVuSans-Bold-65" transform="translate(265.673828 0)"/>
     <use xlink:href="#DejaVuSans-Bold-5f" transform="translate(333.496094 0)"/>
     <use xlink:href="#DejaVuSans-Bold-73" transform="translate(383.496094 0)"/>
     <use xlink:href="#DejaVuSans-Bold-74" transform="translate(443.017578 0)"/>
     <use xlink:href="#DejaVuSans-Bold-61" transform="translate(490.820312 0)"/>
     <use xlink:href="#DejaVuSans-Bold-74" transform="translate(558.300781 0)"/>
     <use xlink:href="#DejaVuSans-Bold-69" transform="translate(606.103516 0)"/>
     <use xlink:href="#DejaVuSans-Bold-63" transform="translate(640.380859 0)"/>
    </g>
   </g>
   <g id="text_3">
    <!-- JAXConstitutiveModel -->
    <g transform="translate(306.163906 159.559219) scale(0.1 -0.1)">
     <defs>
      <path id="DejaVuSans-Bold-75" d="M 500 1363 
L 500 3500 
L 1625 3500 
L 1625 3150 
Q 1625 2866 1622 2436 
Q 1619 2006 1619 1863 
Q 1619 1441 1641 1255 
Q 1663 1069 1716 984 
Q 1784 875 1895 815 
Q 2006 756 2150 756 
Q 2500 756 2700 1025 
Q 2900 1294 2900 1772 
L 2900 3500 
L 4019 3500 
L 4019 0 
L 2900 0 
L 2900 506 
Q 2647 200 2364 54 
Q 2081 -91 1741 -91 
Q 1134 -91 817 281 
Q 500 653 500 1363 
z
" transform="scale(0.015625)"/>
      <path id="DejaVuSans-Bold-4d" d="M 588 4666 
L 2119 4666 
L 3181 2169 
L 4250 4666 
L 5778 4666 
L 5778 0 
L 4641 0 
L 4641 3413 
L 3566 897 
L 2803 897 
L 1728 3413 
L 1728 0 
L 588 0 
L 588 4666 
z
" transform="scale(0.015625)"/>
     </defs>
     <use xlink:href="#DejaVuSans-Bold-4a"/>
     <use xlink:href="#DejaVuSans-Bold-41" transform="translate(37.207031 0)"/>
     <use xlink:href="#DejaVuSans-Bold-58" transform="translate(114.599609 0)"/>
     <use xlink:href="#DejaVuSans-Bold-43" transform="translate(188.074219 0)"/>
     <use xlink:href="#DejaVuSans-Bold-6f" transform="translate(261.462891 0)"/>
     <use xlink:href="#DejaVuSans-Bold-6e" transform="translate(330.164062 0)"/>
     <use xlink:href="#DejaVuSans-Bold-73" transform="translate(401.355469 0)"/>
     <use xlink:href="#DejaVuSans-Bold-74" transform="translate(460.876953 0)"/>
     <use xlink:href="#DejaVuSans-Bold-69" transform="translate(508.679688 0)"/>
     <use xlink:href="#DejaVuSans-Bold-74" transform="translate(542.957031 0)"/>
     <use xlink:href="#DejaVuSans-Bold-75" transform="translate(590.759766 0)"/>
     <use xlink:href="#DejaVuSans-Bold-74" transform="translate(661.951172 0)"/>
     <use xlink:href="#DejaVuSans-Bold-69" transform="translate(709.753906 0)"/>
     <use xlink:href="#DejaVuSans-Bold-76" transform="translate(744.03125 0)"/>
     <use xlink:href="#DejaVuSans-Bold-65" transform="translate(809.216797 0)"/>
     <use xlink:href="#DejaVuSans-Bold-4d" transform="translate(877.039062 0)"/>
     <use xlink:href="#DejaVuSans-Bold-6f" transform="translate(976.550781 0)"/>
     <use xlink:href="#DejaVuSans-Bold-64" transform="translate(1045.251953 0)"/>
     <use xlink:href="#DejaVuSans-Bold-65" transform="translate(1116.833984 0)"/>
     <use xlink:href="#DejaVuSans-Bold-6c" transform="translate(1184.65625 0)"/>
    </g>
    <!-- (batched stress/tangent) -->
    <g transform="translate(296.718594 170.757031) scale(0.1 -0.1)">
     <defs>
      <path id="DejaVuSans-Bold-62" d="M 2400 722 
Q 2759 722 2948 984 
Q 3138 1247 3138 1747 
Q 3138 2247 2948 2509 
Q 2759 2772 2400 2772 
Q 2041 2772 1848 2508 
Q 1656 2244 1656 1747 
Q 1656 1250 1848 986 
Q 2041 722 2400 722 
z
M 1656 2988 
Q 1888 3294 2169 3439 
Q 2450 3584 2816 3584 
Q 3463 3584 3878 3070 
Q 4294 2556 4294 1747 
Q 4294 938 3878 423 
Q 3463 -91 2816 -91 
Q 2450 -91 2169 54 
Q 1888 200 1656 506 
L 1656 0 
L 538 0 
L 538 4863 
L 1656 4863 
L 1656 2988 
z
" transform="scale(0.015625)"/>
      <path id="DejaVuSans-Bold-68" d="M 4056 2131 
L 4056 0 
L 2931 0 
L 2931 347 
L 2931 1625 
Q 2931 2084 2911 2256 
Q 2891 2428 2841 2509 
Q 2775 2619 2662 2680 
Q 2550 2741 2406 2741 
Q 2056 2741 1856 2470 
Q 1656 2200 1656 1722 
L 1656 0 
L 538 0 
L 538 4863 
L 1656 4863 
L 1656 2988 
Q 1909 3294 2193 3439 
Q 2478 3584 2822 3584 
Q 3428 3584 3742 3212 
Q 4056 2841 4056 2131 
z
" transform="scale(0.015625)"/>
      <path id="DejaVuSans-Bold-20" transform="scale(0.015625)"/>
      <path id="DejaVuSans-Bold-72" d="M 3138 2547 
Q 2991 2616 2845 2648 
Q 2700 2681 2553 2681 
Q 2122 2681 1889 2404 
Q 1656 2128 1656 1613 
L 1656 0 
L 538 0 
L 538 3500 
L 1656 3500 
L 1656 2925 
Q 1872 3269 2151 3426 
Q 2431 3584 2822 3584 
Q 2878 3584 2943 3579 
Q 3009 3575 3134 3559 
L 3138 2547 
z
" transform="scale(0.015625)"/>
      <path id="DejaVuSans-Bold-2f" d="M 1644 4666 
L 2338 4666 
L 691 -594 
L 0 -594 
L 1644 4666 
z
" transform="scale(0.015625)"/>
      <path id="DejaVuSans-Bold-67" d="M 2919 594 
Q 2688 288 2409 144 
Q 2131 0 1766 0 
Q 1125 0 706 504 
Q 288 1009 288 1791 
Q 288 2575 706 3076 
Q 1125 3578 1766 3578 
Q 2131 3578 2409 3434 
Q 2688 3291 2919 2981 
L 2919 3500 
L 4044 3500 
L 4044 353 
Q 4044 -491 3511 -936 
Q 2978 -1381 1966 -1381 
Q 1638 -1381 1331 -1331 
Q 1025 -1281 716 -1178 
L 716 -306 
Q 1009 -475 1290 -558 
Q 1572 -641 1856 -641 
Q 2406 -641 2662 -400 
Q 2919 -159 2919 353 
L 2919 594 
z
M 2181 2772 
Q 1834 2772 1640 2515 
Q 1447 2259 1447 1791 
Q 1447 1309 1634 1061 
Q 1822 813 2181 813 
Q 2531 813 2725 1069 
Q 2919 1325 2919 1791 
Q 2919 2259 2725 2515 
Q 2531 2772 2181 2772 
z
" transform="scale(0.015625)"/>
     </defs>
     <use xlink:href="#DejaVuSans-Bold-28"/>
     <use xlink:href="#DejaVuSans-Bold-62" transform="translate(45.703125 0)"/>
     <use xlink:href="#DejaVuSans-Bold-61" transform="translate(117.285156 0)"/>
     <use xlink:href="#DejaVuSans-Bold-74" transform="translate(184.765625 0)"/>
     <use xlink:href="#DejaVuSans-Bold-63" transform="translate(232.568359 0)"/>
     <use xlink:href="#DejaVuSans-Bold-68" transform="translate(291.845703 0)"/>
     <use xlink:href="#DejaVuSans-Bold-65" transform="translate(363.037109 0)"/>
     <use xlink:href="#DejaVuSans-Bold-64" transform="translate(430.859375 0)"/>
     <use xlink:href="#DejaVuSans-Bold-20" transform="translate(502.441406 0)"/>
     <use xlink:href="#DejaVuSans-Bold-73" transform="translate(537.255859 0)"/>
     <use xlink:href="#DejaVuSans-Bold-74" transform="translate(596.777344 0)"/>
     <use xlink:href="#DejaVuSans-Bold-72" transform="translate(644.580078 0)"/>
     <use xlink:href="#DejaVuSans-Bold-65" transform="translate(693.896484 0)"/>
     <use xlink:href="#DejaVuSans-Bold-73" transform="translate(761.71875 0)"/>
     <use xlink:href="#DejaVuSans-Bold-73" transform="translate(821.240234 0)"/>
     <use xlink:href="#DejaVuSans-Bold-2f" transform="translate(880.761719 0)"/>
     <use xlink:href="#DejaVuSans-Bold-74" transform="translate(917.285156 0)"/>
     <use xlink:href="#DejaVuSans-Bold-61" transform="translate(965.087891 0)"/>
     <use xlink:href="#DejaVuSans-Bold-6e" transform="translate(1032.568359 0)"/>
     <use xlink:href="#DejaVuSans-Bold-67" transform="translate(1103.759766 0)"/>
     <use xlink:href="#DejaVuSans-Bold-65" transform="translate(1175.341797 0)"/>
     <use xlink:href="#DejaVuSans-Bold-6e" transform="translate(1243.164062 0)"/>
     <use xlink:href="#DejaVuSans-Bold-74" transform="translate(1314.355469 0)"/>
     <use xlink:href="#DejaVuSans-Bold-29" transform="translate(1362.158203 0)"/>
    </g>
   </g>
   <g id="text_4">
    <!-- Assemble K -->
    <g transform="translate(476.678125 159.559219) scale(0.1 -0.1)">
     <defs>
      <path id="DejaVuSans-Bold-6d" d="M 3781 2919 
Q 3994 3244 4286 3414 
Q 4578 3584 4928 3584 
Q 5531 3584 5847 3212 
Q 6163 2841 6163 2131 
L 6163 0 
L 5038 0 
L 5038 1825 
Q 5041 1866 5042 1909 
Q 5044 1953 5044 2034 
Q 5044 2406 4934 2573 
Q 4825 2741 4581 2741 
Q 4263 2741 4089 2478 
Q 3916 2216 3909 1719 
L 3909 0 
L 2784 0 
L 2784 1825 
Q 2784 2406 2684 2573 
Q 2584 2741 2328 2741 
Q 2006 2741 1831 2477 
Q 1656 2213 1656 1722 
L 1656 0 
L 531 0 
L 531 3500 
L 1656 3500 
L 1656 2988 
Q 1863 3284 2130 3434 
Q 2397 3584 2719 3584 
Q 3081 3584 3359 3409 
Q 3638 3234 3781 2919 
z
" transform="scale(0.015625)"/>
      <path id="DejaVuSans-Bold-4b" d="M 588 4666 
L 1791 4666 
L 1791 2963 
L 3525 4666 
L 4922 4666 
L 2675 2456 
L 5153 0 
L 3647 0 
L 1791 1838 
L 1791 0 
L 588 0 
L 588 4666 
z
" transform="scale(0.015625)"/>
     </defs>
     <use xlink:href="#DejaVuSans-Bold-41"/>
     <use xlink:href="#DejaVuSans-Bold-73" transform="translate(77.392578 0)"/>
     <use xlink:href="#DejaVuSans-Bold-73" transform="translate(136.914062 0)"/>
     <use xlink:href="#DejaVuSans-Bold-65" transform="translate(196.435547 0)"/>
     <use xlink:href="#DejaVuSans-Bold-6d" transform="translate(264.257812 0)"/>
     <use xlink:href="#DejaVuSans-Bold-62" transform="translate(368.457031 0)"/>
     <use xlink:href="#DejaVuSans-Bold-6c" transform="translate(440.039062 0)"/>
     <use xlink:href="#DejaVuSans-Bold-65" transform="translate(474.316406 0)"/>
     <use xlink:href="#DejaVuSans-Bold-20" transform="translate(542.138672 0)"/>
     <use xlink:href="#DejaVuSans-Bold-4b" transform="translate(576.953125 0)"/>
    </g>
    <!-- + penalty BC -->
    <g transform="translate(472.98125 170.757031) scale(0.1 -0.1)">
     <defs>
      <path id="DejaVuSans-Bold-2b" d="M 3053 4013 
L 3053 2375 
L 4684 2375 
L 4684 1638 
L 3053 1638 
L 3053 0 
L 2309 0 
L 2309 1638 
L 678 1638 
L 678 2375 
L 2309 2375 
L 2309 4013 
L 3053 4013 
z
" transform="scale(0.015625)"/>
     </defs>
     <use xlink:href="#DejaVuSans-Bold-2b"/>
     <use xlink:href="#DejaVuSans-Bold-20" transform="translate(83.789062 0)"/>
     <use xlink:href="#DejaVuSans-Bold-70" transform="translate(118.603516 0)"/>
     <use xlink:href="#DejaVuSans-Bold-65" transform="translate(190.185547 0)"/>
     <use xlink:href="#DejaVuSans-Bold-6e" transform="translate(258.007812 0)"/>
     <use xlink:href="#DejaVuSans-Bold-61" transform="translate(329.199219 0)"/>
     <use xlink:href="#DejaVuSans-Bold-6c" transform="translate(396.679688 0)"/>
     <use xlink:href="#DejaVuSans-Bold-74" transform="translate(430.957031 0)"/>
     <use xlink:href="#DejaVuSans-Bold-79" transform="translate(478.759766 0)"/>
     <use xlink:href="#DejaVuSans-Bold-20" transform="translate(543.945312 0)"/>
     <use xlink:href="#DejaVuSans-Bold-42" transform="translate(578.759766 0)"/>
     <use xlink:href="#DejaVuSans-Bold-43" transform="translate(654.980469 0)"/>
    </g>
   </g>
   <g id="text_5">
    <!-- solve K u = f -->
    <g transform="translate(585.463281 159.559219) scale(0.1 -0.1)">
     <defs>
      <path id="DejaVuSans-Bold-3d" d="M 678 3084 
L 4684 3084 
L 4684 2350 
L 678 2350 
L 678 3084 
z
M 678 1663 
L 4684 1663 
L 4684 922 
L 678 922 
L 678 1663 
z
" transform="scale(0.015625)"/>
      <path id="DejaVuSans-Bold-66" d="M 2841 4863 
L 2841 4128 
L 2222 4128 
Q 1984 4128 1890 4042 
Q 1797 3956 1797 3744 
L 1797 3500 
L 2753 3500 
L 2753 2700 
L 1797 2700 
L 1797 0 
L 678 0 
L 678 2700 
L 122 2700 
L 122 3500 
L 678 3500 
L 678 3744 
Q 678 4316 997 4589 
Q 1316 4863 1984 4863 
L 2841 4863 
z
" transform="scale(0.015625)"/>
     </defs>
     <use xlink:href="#DejaVuSans-Bold-73"/>
     <use xlink:href="#DejaVuSans-Bold-6f" transform="translate(59.521484 0)"/>
     <use xlink:href="#DejaVuSans-Bold-6c" transform="translate(128.222656 0)"/>
     <use xlink:href="#DejaVuSans-Bold-76" transform="translate(162.5 0)"/>
     <use xlink:href="#DejaVuSans-Bold-65" transform="translate(227.685547 0)"/>
     <use xlink:href="#DejaVuSans-Bold-20" transform="translate(295.507812 0)"/>
     <use xlink:href="#DejaVuSans-Bold-4b" transform="translate(330.322266 0)"/>
     <use xlink:href="#DejaVuSans-Bold-20" transform="translate(407.8125 0)"/>
     <use xlink:href="#DejaVuSans-Bold-75" transform="translate(442.626953 0)"/>
     <use xlink:href="#DejaVuSans-Bold-20" transform="translate(513.818359 0)"/>
     <use xlink:href="#DejaVuSans-Bold-3d" transform="translate(548.632812 0)"/>
     <use xlink:href="#DejaVuSans-Bold-20" transform="translate(632.421875 0)"/>
     <use xlink:href="#DejaVuSans-Bold-66" transform="translate(667.236328 0)"/>
    </g>
    <!-- (jax.numpy) -->
    <g transform="translate(587.05 170.757031) scale(0.1 -0.1)">
     <defs>
      <path id="DejaVuSans-Bold-6a" d="M 538 3500 
L 1656 3500 
L 1656 63 
Q 1656 -641 1318 -1011 
Q 981 -1381 341 -1381 
L -213 -1381 
L -213 -647 
L -19 -647 
Q 300 -647 419 -503 
Q 538 -359 538 63 
L 538 3500 
z
M 538 4863 
L 1656 4863 
L 1656 3950 
L 538 3950 
L 538 4863 
z
" transform="scale(0.015625)"/>
      <path id="DejaVuSans-Bold-78" d="M 1422 1791 
L 159 3500 
L 1344 3500 
L 2059 2463 
L 2784 3500 
L 3969 3500 
L 2706 1797 
L 4031 0 
L 2847 0 
L 2059 1106 
L 1281 0 
L 97 0 
L 1422 1791 
z
" transform="scale(0.015625)"/>
     </defs>
     <use xlink:href="#DejaVuSans-Bold-28"/>
     <use xlink:href="#DejaVuSans-Bold-6a" transform="translate(45.703125 0)"/>
     <use xlink:href="#DejaVuSans-Bold-61" transform="translate(79.980469 0)"/>
     <use xlink:href="#DejaVuSans-Bold-78" transform="translate(147.460938 0)"/>
     <use xlink:href="#DejaVuSans-Bold-2e" transform="translate(211.962891 0)"/>
     <use xlink:href="#DejaVuSans-Bold-6e" transform="translate(249.951172 0)"/>
     <use xlink:href="#DejaVuSans-Bold-75" transform="translate(321.142578 0)"/>
     <use xlink:href="#DejaVuSans-Bold-6d" transform="translate(392.333984 0)"/>
     <use xlink:href="#DejaVuSans-Bold-70" transform="translate(496.533203 0)"/>
     <use xlink:href="#DejaVuSans-Bold-79" transform="translate(568.115234 0)"/>
     <use xlink:href="#DejaVuSans-Bold-29" transform="translate(633.300781 0)"/>
    </g>
   </g>
   <g id="text_6">
    <!-- jax.grad / jax.vjp — gradient flow through constitutive model -->
    <g style="fill: #e74c3c" transform="translate(152.423594 73.733812) scale(0.11 -0.11)">
     <defs>
      <path id="DejaVuSans-Bold-2014" d="M 344 2156 
L 6056 2156 
L 6056 1350 
L 344 1350 
L 344 2156 
z
" transform="scale(0.015625)"/>
      <path id="DejaVuSans-Bold-77" d="M 225 3500 
L 1313 3500 
L 1900 1088 
L 2491 3500 
L 3425 3500 
L 4013 1113 
L 4603 3500 
L 5691 3500 
L 4769 0 
L 3547 0 
L 2956 2406 
L 2369 0 
L 1147 0 
L 225 3500 
z
" transform="scale(0.015625)"/>
     </defs>
     <use xlink:href="#DejaVuSans-Bold-6a"/>
     <use xlink:href="#DejaVuSans-Bold-61" transform="translate(34.277344 0)"/>
     <use xlink:href="#DejaVuSans-Bold-78" transform="translate(101.757812 0)"/>
     <use xlink:href="#DejaVuSans-Bold-2e" transform="translate(166.259766 0)"/>
     <use xlink:href="#DejaVuSans-Bold-67" transform="translate(204.248047 0)"/>
     <use xlink:href="#DejaVuSans-Bold-72" transform="translate(275.830078 0)"/>
     <use xlink:href="#DejaVuSans-Bold-61" transform="translate(325.146484 0)"/>
     <use xlink:href="#DejaVuSans-Bold-64" transform="translate(392.626953 0)"/>
     <use xlink:href="#DejaVuSans-Bold-20" transform="translate(464.208984 0)"/>
     <use xlink:href="#DejaVuSans-Bold-2f" transform="translate(499.023438 0)"/>
     <use xlink:href="#DejaVuSans-Bold-20" transform="translate(535.546875 0)"/>
     <use xlink:href="#DejaVuSans-Bold-6a" transform="translate(570.361328 0)"/>
     <use xlink:href="#DejaVuSans-Bold-61" transform="translate(604.638672 0)"/>
     <use xlink:href="#DejaVuSans-Bold-78" transform="translate(672.119141 0)"/>
     <use xlink:href="#DejaVuSans-Bold-2e" transform="translate(736.621094 0)"/>
     <use xlink:href="#DejaVuSans-Bold-76" transform="translate(774.609375 0)"/>
     <use xlink:href="#DejaVuSans-Bold-6a" transform="translate(839.794922 0)"/>
     <use xlink:href="#DejaVuSans-Bold-70" transform="translate(874.072266 0)"/>
     <use xlink:href="#DejaVuSans-Bold-20" transform="translate(945.654297 0)"/>
     <use xlink:href="#DejaVuSans-Bold-2014" transform="translate(980.46875 0)"/>
     <use xlink:href="#DejaVuSans-Bold-20" transform="translate(1080.46875 0)"/>
     <use xlink:href="#DejaVuSans-Bold-67" transform="translate(1115.283203 0)"/>
     <use xlink:href="#DejaVuSans-Bold-72" transform="translate(1186.865234 0)"/>
     <use xlink:href="#DejaVuSans-Bold-61" transform="translate(1236.181641 0)"/>
     <use xlink:href="#DejaVuSans-Bold-64" transform="translate(1303.662109 0)"/>
     <use xlink:href="#DejaVuSans-Bold-69" transform="translate(1375.244141 0)"/>
     <use xlink:href="#DejaVuSans-Bold-65" transform="translate(1409.521484 0)"/>
     <use xlink:href="#DejaVuSans-Bold-6e" transform="translate(1477.34375 0)"/>
     <use xlink:href="#DejaVuSans-Bold-74" transform="translate(1548.535156 0)"/>
     <use xlink:href="#DejaVuSans-Bold-20" transform="translate(1596.337891 0)"/>
     <use xlink:href="#DejaVuSans-Bold-66" transform="translate(1631.152344 0)"/>
     <use xlink:href="#DejaVuSans-Bold-6c" transform="translate(1674.658203 0)"/>
     <use xlink:href="#DejaVuSans-Bold-6f" transform="translate(1708.935547 0)"/>
     <use xlink:href="#DejaVuSans-Bold-77" transform="translate(1777.636719 0)"/>
     <use xlink:href="#DejaVuSans-Bold-20" transform="translate(1870.019531 0)"/>
     <use xlink:href="#DejaVuSans-Bold-74" transform="translate(1904.833984 0)"/>
     <use xlink:href="#DejaVuSans-Bold-68" transform="translate(1952.636719 0)"/>
     <use xlink:href="#DejaVuSans-Bold-72" transform="translate(2023.828125 0)"/>
     <use xlink:href="#DejaVuSans-Bold-6f" transform="translate(2073.144531 0)"/>
     <use xlink:href="#DejaVuSans-Bold-75" transform="translate(2141.845703 0)"/>
     <use xlink:href="#DejaVuSans-Bold-67" transform="translate(2213.037109 0)"/>
     <use xlink:href="#DejaVuSans-Bold-68" transform="translate(2284.619141 0)"/>
     <use xlink:href="#DejaVuSans-Bold-20" transform="translate(2355.810547 0)"/>
     <use xlink:href="#DejaVuSans-Bold-63" transform="translate(2390.625 0)"/>
     <use xlink:href="#DejaVuSans-Bold-6f" transform="translate(2449.902344 0)"/>
     <use xlink:href="#DejaVuSans-Bold-6e" transform="translate(2518.603516 0)"/>
     <use xlink:href="#DejaVuSans-Bold-73" transform="translate(2589.794922 0)"/>
     <use xlink:href="#DejaVuSans-Bold-74" transform="translate(2649.316406 0)"/>
     <use xlink:href="#DejaVuSans-Bold-69" transform="translate(2697.119141 0)"/>
     <use xlink:href="#DejaVuSans-Bold-74" transform="translate(2731.396484 0)"/>
     <use xlink:href="#DejaVuSans-Bold-75" transform="translate(2779.199219 0)"/>
     <use xlink:href="#DejaVuSans-Bold-74" transform="translate(2850.390625 0)"/>
     <use xlink:href="#DejaVuSans-Bold-69" transform="translate(2898.193359 0)"/>
     <use xlink:href="#DejaVuSans-Bold-76" transform="translate(2932.470703 0)"/>
     <use xlink:href="#DejaVuSans-Bold-65" transform="translate(2997.65625 0)"/>
     <use xlink:href="#DejaVuSans-Bold-20" transform="translate(3065.478516 0)"/>
     <use xlink:href="#DejaVuSans-Bold-6d" transform="translate(3100.292969 0)"/>
     <use xlink:href="#DejaVuSans-Bold-6f" transform="translate(3204.492188 0)"/>
     <use xlink:href="#DejaVuSans-Bold-64" transform="translate(3273.193359 0)"/>
     <use xlink:href="#DejaVuSans-Bold-65" transform="translate(3344.775391 0)"/>
     <use xlink:href="#DejaVuSans-Bold-6c" transform="translate(3412.597656 0)"/>
    </g>
   </g>
   <g id="text_7">
    <!-- Forward FE assembly + linear solve -->
    <g style="fill: #1a5276" transform="translate(243.825 217.877813) scale(0.11 -0.11)">
     <defs>
      <path id="DejaVuSans-46" d="M 628 4666 
L 3309 4666 
L 3309 4134 
L 1259 4134 
L 1259 2759 
L 3109 2759 
L 3109 2228 
L 1259 2228 
L 1259 0 
L 628 0 
L 628 4666 
z
" transform="scale(0.015625)"/>
      <path id="DejaVuSans-6f" d="M 1959 3097 
Q 1497 3097 1228 2736 
Q 959 2375 959 1747 
Q 959 1119 1226 758 
Q 1494 397 1959 397 
Q 2419 397 2687 759 
Q 2956 1122 2956 1747 
Q 2956 2369 2687 2733 
Q 2419 3097 1959 3097 
z
M 1959 3584 
Q 2709 3584 3137 3096 
Q 3566 2609 3566 1747 
Q 3566 888 3137 398 
Q 2709 -91 1959 -91 
Q 1206 -91 779 398 
Q 353 888 353 1747 
Q 353 2609 779 3096 
Q 1206 3584 1959 3584 
z
" transform="scale(0.015625)"/>
      <path id="DejaVuSans-72" d="M 2631 2963 
Q 2534 3019 2420 3045 
Q 2306 3072 2169 3072 
Q 1681 3072 1420 2755 
Q 1159 2438 1159 1844 
L 1159 0 
L 581 0 
L 581 3500 
L 1159 3500 
L 1159 2956 
Q 1341 3275 1631 3429 
Q 1922 3584 2338 3584 
Q 2397 3584 2469 3576 
Q 2541 3569 2628 3553 
L 2631 2963 
z
" transform="scale(0.015625)"/>
      <path id="DejaVuSans-77" d="M 269 3500 
L 844 3500 
L 1563 769 
L 2278 3500 
L 2956 3500 
L 3675 769 
L 4391 3500 
L 4966 3500 
L 4050 0 
L 3372 0 
L 2619 2869 
L 1863 0 
L 1184 0 
L 269 3500 
z
" transform="scale(0.015625)"/>
      <path id="DejaVuSans-61" d="M 2194 1759 
Q 1497 1759 1228 1600 
Q 959 1441 959 1056 
Q 959 750 1161 570 
Q 1363 391 1709 391 
Q 2188 391 2477 730 
Q 2766 1069 2766 1631 
L 2766 1759 
L 2194 1759 
z
M 3341 1997 
L 3341 0 
L 2766 0 
L 2766 531 
Q 2569 213 2275 61 
Q 1981 -91 1556 -91 
Q 1019 -91 701 211 
Q 384 513 384 1019 
Q 384 1609 779 1909 
Q 1175 2209 1959 2209 
L 2766 2209 
L 2766 2266 
Q 2766 2663 2505 2880 
Q 2244 3097 1772 3097 
Q 1472 3097 1187 3025 
Q 903 2953 641 2809 
L 641 3341 
Q 956 3463 1253 3523 
Q 1550 3584 1831 3584 
Q 2591 3584 2966 3190 
Q 3341 2797 3341 1997 
z
" transform="scale(0.015625)"/>
      <path id="DejaVuSans-64" d="M 2906 2969 
L 2906 4863 
L 3481 4863 
L 3481 0 
L 2906 0 
L 2906 525 
Q 2725 213 2448 61 
Q 2172 -91 1784 -91 
Q 1150 -91 751 415 
Q 353 922 353 1747 
Q 353 2572 751 3078 
Q 1150 3584 1784 3584 
Q 2172 3584 2448 3432 
Q 2725 3281 2906 2969 
z
M 947 1747 
Q 947 1113 1208 752 
Q 1469 391 1925 391 
Q 2381 391 2643 752 
Q 2906 1113 2906 1747 
Q 2906 2381 2643 2742 
Q 2381 3103 1925 3103 
Q 1469 3103 1208 2742 
Q 947 2381 947 1747 
z
" transform="scale(0.015625)"/>
      <path id="DejaVuSans-20" transform="scale(0.015625)"/>
      <path id="DejaVuSans-45" d="M 628 4666 
L 3578 4666 
L 3578 4134 
L 1259 4134 
L 1259 2753 
L 3481 2753 
L 3481 2222 
L 1259 2222 
L 1259 531 
L 3634 531 
L 3634 0 
L 628 0 
L 628 4666 
z
" transform="scale(0.015625)"/>
      <path id="DejaVuSans-73" d="M 2834 3397 
L 2834 2853 
Q 2591 2978 2328 3040 
Q 2066 3103 1784 3103 
Q 1356 3103 1142 2972 
Q 928 2841 928 2578 
Q 928 2378 1081 2264 
Q 1234 2150 1697 2047 
L 1894 2003 
Q 2506 1872 2764 1633 
Q 3022 1394 3022 966 
Q 3022 478 2636 193 
Q 2250 -91 1575 -91 
Q 1294 -91 989 -36 
Q 684 19 347 128 
L 347 722 
Q 666 556 975 473 
Q 1284 391 1588 391 
Q 1994 391 2212 530 
Q 2431 669 2431 922 
Q 2431 1156 2273 1281 
Q 2116 1406 1581 1522 
L 1381 1569 
Q 847 1681 609 1914 
Q 372 2147 372 2553 
Q 372 3047 722 3315 
Q 1072 3584 1716 3584 
Q 2034 3584 2315 3537 
Q 2597 3491 2834 3397 
z
" transform="scale(0.015625)"/>
      <path id="DejaVuSans-65" d="M 3597 1894 
L 3597 1613 
L 953 1613 
Q 991 1019 1311 708 
Q 1631 397 2203 397 
Q 2534 397 2845 478 
Q 3156 559 3463 722 
L 3463 178 
Q 3153 47 2828 -22 
Q 2503 -91 2169 -91 
Q 1331 -91 842 396 
Q 353 884 353 1716 
Q 353 2575 817 3079 
Q 1281 3584 2069 3584 
Q 2775 3584 3186 3129 
Q 3597 2675 3597 1894 
z
M 3022 2063 
Q 3016 2534 2758 2815 
Q 2500 3097 2075 3097 
Q 1594 3097 1305 2825 
Q 1016 2553 972 2059 
L 3022 2063 
z
" transform="scale(0.015625)"/>
      <path id="DejaVuSans-6d" d="M 3328 2828 
Q 3544 3216 3844 3400 
Q 4144 3584 4550 3584 
Q 5097 3584 5394 3201 
Q 5691 2819 5691 2113 
L 5691 0 
L 5113 0 
L 5113 2094 
Q 5113 2597 4934 2840 
Q 4756 3084 4391 3084 
Q 3944 3084 3684 2787 
Q 3425 2491 3425 1978 
L 3425 0 
L 2847 0 
L 2847 2094 
Q 2847 2600 2669 2842 
Q 2491 3084 2119 3084 
Q 1678 3084 1418 2786 
Q 1159 2488 1159 1978 
L 1159 0 
L 581 0 
L 581 3500 
L 1159 3500 
L 1159 2956 
Q 1356 3278 1631 3431 
Q 1906 3584 2284 3584 
Q 2666 3584 2933 3390 
Q 3200 3197 3328 2828 
z
" transform="scale(0.015625)"/>
      <path id="DejaVuSans-62" d="M 3116 1747 
Q 3116 2381 2855 2742 
Q 2594 3103 2138 3103 
Q 1681 3103 1420 2742 
Q 1159 2381 1159 1747 
Q 1159 1113 1420 752 
Q 1681 391 2138 391 
Q 2594 391 2855 752 
Q 3116 1113 3116 1747 
z
M 1159 2969 
Q 1341 3281 1617 3432 
Q 1894 3584 2278 3584 
Q 2916 3584 3314 3078 
Q 3713 2572 3713 1747 
Q 3713 922 3314 415 
Q 2916 -91 2278 -91 
Q 1894 -91 1617 61 
Q 1341 213 1159 525 
L 1159 0 
L 581 0 
L 581 4863 
L 1159 4863 
L 1159 2969 
z
" transform="scale(0.015625)"/>
      <path id="DejaVuSans-6c" d="M 603 4863 
L 1178 4863 
L 1178 0 
L 603 0 
L 603 4863 
z
" transform="scale(0.015625)"/>
      <path id="DejaVuSans-79" d="M 2059 -325 
Q 1816 -950 1584 -1140 
Q 1353 -1331 966 -1331 
L 506 -1331 
L 506 -850 
L 844 -850 
Q 1081 -850 1212 -737 
Q 1344 -625 1503 -206 
L 1606 56 
L 191 3500 
L 800 3500 
L 1894 763 
L 2988 3500 
L 3597 3500 
L 2059 -325 
z
" transform="scale(0.015625)"/>
      <path id="DejaVuSans-2b" d="M 2944 4013 
L 2944 2272 
L 4684 2272 
L 4684 1741 
L 2944 1741 
L 2944 0 
L 2419 0 
L 2419 1741 
L 678 1741 
L 678 2272 
L 2419 2272 
L 2419 4013 
L 2944 4013 
z
" transform="scale(0.015625)"/>
      <path id="DejaVuSans-69" d="M 603 3500 
L 1178 3500 
L 1178 0 
L 603 0 
L 603 3500 
z
M 603 4863 
L 1178 4863 
L 1178 4134 
L 603 4134 
L 603 4863 
z
" transform="scale(0.015625)"/>
      <path id="DejaVuSans-6e" d="M 3513 2113 
L 3513 0 
L 2938 0 
L 2938 2094 
Q 2938 2591 2744 2837 
Q 2550 3084 2163 3084 
Q 1697 3084 1428 2787 
Q 1159 2491 1159 1978 
L 1159 0 
L 581 0 
L 581 3500 
L 1159 3500 
L 1159 2956 
Q 1366 3272 1645 3428 
Q 1925 3584 2291 3584 
Q 2894 3584 3203 3211 
Q 3513 2838 3513 2113 
z
" transform="scale(0.015625)"/>
      <path id="DejaVuSans-76" d="M 191 3500 
L 800 3500 
L 1894 563 
L 2988 3500 
L 3597 3500 
L 2284 0 
L 1503 0 
L 191 3500 
z
" transform="scale(0.015625)"/>
     </defs>
     <use xlink:href="#DejaVuSans-46"/>
     <use xlink:href="#DejaVuSans-6f" transform="translate(53.894531 0)"/>
     <use xlink:href="#DejaVuSans-72" transform="translate(115.076172 0)"/>
     <use xlink:href="#DejaVuSans-77" transform="translate(156.189453 0)"/>
     <use xlink:href="#DejaVuSans-61" transform="translate(237.976562 0)"/>
     <use xlink:href="#DejaVuSans-72" transform="translate(299.255859 0)"/>
     <use xlink:href="#DejaVuSans-64" transform="translate(338.619141 0)"/>
     <use xlink:href="#DejaVuSans-20" transform="translate(402.095703 0)"/>
     <use xlink:href="#DejaVuSans-46" transform="translate(433.882812 0)"/>
     <use xlink:href="#DejaVuSans-45" transform="translate(491.402344 0)"/>
     <use xlink:href="#DejaVuSans-20" transform="translate(554.585938 0)"/>
     <use xlink:href="#DejaVuSans-61" transform="translate(586.373047 0)"/>
     <use xlink:href="#DejaVuSans-73" transform="translate(647.652344 0)"/>
     <use xlink:href="#DejaVuSans-73" transform="translate(699.751953 0)"/>
     <use xlink:href="#DejaVuSans-65" transform="translate(751.851562 0)"/>
     <use xlink:href="#DejaVuSans-6d" transform="translate(813.375 0)"/>
     <use xlink:href="#DejaVuSans-62" transform="translate(910.787109 0)"/>
     <use xlink:href="#DejaVuSans-6c" transform="translate(974.263672 0)"/>
     <use xlink:href="#DejaVuSans-79" transform="translate(1002.046875 0)"/>
     <use xlink:href="#DejaVuSans-20" transform="translate(1061.226562 0)"/>
     <use xlink:href="#DejaVuSans-2b" transform="translate(1093.013672 0)"/>
     <use xlink:href="#DejaVuSans-20" transform="translate(1176.802734 0)"/>
     <use xlink:href="#DejaVuSans-6c" transform="translate(1208.589844 0)"/>
     <use xlink:href="#DejaVuSans-69" transform="translate(1236.373047 0)"/>
     <use xlink:href="#DejaVuSans-6e" transform="translate(1264.15625 0)"/>
     <use xlink:href="#DejaVuSans-65" transform="translate(1327.535156 0)"/>
     <use xlink:href="#DejaVuSans-61" transform="translate(1389.058594 0)"/>
     <use xlink:href="#DejaVuSans-72" transform="translate(1450.337891 0)"/>
     <use xlink:href="#DejaVuSans-20" transform="translate(1491.451172 0)"/>
     <use xlink:href="#DejaVuSans-73" transform="translate(1523.238281 0)"/>
     <use xlink:href="#DejaVuSans-6f" transform="translate(1575.337891 0)"/>
     <use xlink:href="#DejaVuSans-6c" transform="translate(1636.519531 0)"/>
     <use xlink:href="#DejaVuSans-76" transform="translate(1664.302734 0)"/>
     <use xlink:href="#DejaVuSans-65" transform="translate(1723.482422 0)"/>
    </g>
   </g>
   <g id="text_8">
    <!-- Scalar QoI -->
    <g transform="translate(600.678281 256.902234) scale(0.09 -0.09)">
     <defs>
      <path id="DejaVuSans-Bold-53" d="M 3834 4519 
L 3834 3531 
Q 3450 3703 3084 3790 
Q 2719 3878 2394 3878 
Q 1963 3878 1756 3759 
Q 1550 3641 1550 3391 
Q 1550 3203 1689 3098 
Q 1828 2994 2194 2919 
L 2706 2816 
Q 3484 2659 3812 2340 
Q 4141 2022 4141 1434 
Q 4141 663 3683 286 
Q 3225 -91 2284 -91 
Q 1841 -91 1394 -6 
Q 947 78 500 244 
L 500 1259 
Q 947 1022 1364 901 
Q 1781 781 2169 781 
Q 2563 781 2772 912 
Q 2981 1044 2981 1288 
Q 2981 1506 2839 1625 
Q 2697 1744 2272 1838 
L 1806 1941 
Q 1106 2091 782 2419 
Q 459 2747 459 3303 
Q 459 4000 909 4375 
Q 1359 4750 2203 4750 
Q 2588 4750 2994 4692 
Q 3400 4634 3834 4519 
z
" transform="scale(0.015625)"/>
      <path id="DejaVuSans-Bold-51" d="M 2847 -84 
L 2753 -84 
Q 1600 -84 959 553 
Q 319 1191 319 2328 
Q 319 3463 958 4106 
Q 1597 4750 2719 4750 
Q 3853 4750 4486 4112 
Q 5119 3475 5119 2328 
Q 5119 1541 4783 972 
Q 4447 403 3816 116 
L 4756 -934 
L 3609 -934 
L 2847 -84 
z
M 2719 3878 
Q 2169 3878 1866 3472 
Q 1563 3066 1563 2328 
Q 1563 1578 1859 1179 
Q 2156 781 2719 781 
Q 3272 781 3575 1187 
Q 3878 1594 3878 2328 
Q 3878 3066 3575 3472 
Q 3272 3878 2719 3878 
z
" transform="scale(0.015625)"/>
      <path id="DejaVuSans-Bold-49" d="M 588 4666 
L 1791 4666 
L 1791 0 
L 588 0 
L 588 4666 
z
" transform="scale(0.015625)"/>
     </defs>
     <use xlink:href="#DejaVuSans-Bold-53"/>
     <use xlink:href="#DejaVuSans-Bold-63" transform="translate(72.021484 0)"/>
     <use xlink:href="#DejaVuSans-Bold-61" transform="translate(131.298828 0)"/>
     <use xlink:href="#DejaVuSans-Bold-6c" transform="translate(198.779297 0)"/>
     <use xlink:href="#DejaVuSans-Bold-61" transform="translate(233.056641 0)"/>
     <use xlink:href="#DejaVuSans-Bold-72" transform="translate(300.537109 0)"/>
     <use xlink:href="#DejaVuSans-Bold-20" transform="translate(349.853516 0)"/>
     <use xlink:href="#DejaVuSans-Bold-51" transform="translate(384.667969 0)"/>
     <use xlink:href="#DejaVuSans-Bold-6f" transform="translate(469.677734 0)"/>
     <use xlink:href="#DejaVuSans-Bold-49" transform="translate(538.378906 0)"/>
    </g>
    <!-- (compliance) -->
    <g transform="translate(593.751797 266.980266) scale(0.09 -0.09)">
     <use xlink:href="#DejaVuSans-Bold-28"/>
     <use xlink:href="#DejaVuSans-Bold-63" transform="translate(45.703125 0)"/>
     <use xlink:href="#DejaVuSans-Bold-6f" transform="translate(104.980469 0)"/>
     <use xlink:href="#DejaVuSans-Bold-6d" transform="translate(173.681641 0)"/>
     <use xlink:href="#DejaVuSans-Bold-70" transform="translate(277.880859 0)"/>
     <use xlink:href="#DejaVuSans-Bold-6c" transform="translate(349.462891 0)"/>
     <use xlink:href="#DejaVuSans-Bold-69" transform="translate(383.740234 0)"/>
     <use xlink:href="#DejaVuSans-Bold-61" transform="translate(418.017578 0)"/>
     <use xlink:href="#DejaVuSans-Bold-6e" transform="translate(485.498047 0)"/>
     <use xlink:href="#DejaVuSans-Bold-63" transform="translate(556.689453 0)"/>
     <use xlink:href="#DejaVuSans-Bold-65" transform="translate(615.966797 0)"/>
     <use xlink:href="#DejaVuSans-Bold-29" transform="translate(683.789062 0)"/>
    </g>
   </g>
   <g id="text_9">
    <!-- JAX differentiable backend — gradients thread through solve -->
    <g transform="translate(101.012969 17.837812) scale(0.14 -0.14)">
     <use xlink:href="#DejaVuSans-Bold-4a"/>
     <use xlink:href="#DejaVuSans-Bold-41" transform="translate(37.207031 0)"/>
     <use xlink:href="#DejaVuSans-Bold-58" transform="translate(114.599609 0)"/>
     <use xlink:href="#DejaVuSans-Bold-20" transform="translate(191.699219 0)"/>
     <use xlink:href="#DejaVuSans-Bold-64" transform="translate(226.513672 0)"/>
     <use xlink:href="#DejaVuSans-Bold-69" transform="translate(298.095703 0)"/>
     <use xlink:href="#DejaVuSans-Bold-66" transform="translate(332.373047 0)"/>
     <use xlink:href="#DejaVuSans-Bold-66" transform="translate(375.878906 0)"/>
     <use xlink:href="#DejaVuSans-Bold-65" transform="translate(419.384766 0)"/>
     <use xlink:href="#DejaVuSans-Bold-72" transform="translate(487.207031 0)"/>
     <use xlink:href="#DejaVuSans-Bold-65" transform="translate(536.523438 0)"/>
     <use xlink:href="#DejaVuSans-Bold-6e" transform="translate(604.345703 0)"/>
     <use xlink:href="#DejaVuSans-Bold-74" transform="translate(675.537109 0)"/>
     <use xlink:href="#DejaVuSans-Bold-69" transform="translate(723.339844 0)"/>
     <use xlink:href="#DejaVuSans-Bold-61" transform="translate(757.617188 0)"/>
     <use xlink:href="#DejaVuSans-Bold-62" transform="translate(825.097656 0)"/>
     <use xlink:href="#DejaVuSans-Bold-6c" transform="translate(896.679688 0)"/>
     <use xlink:href="#DejaVuSans-Bold-65" transform="translate(930.957031 0)"/>
     <use xlink:href="#DejaVuSans-Bold-20" transform="translate(998.779297 0)"/>
     <use xlink:href="#DejaVuSans-Bold-62" transform="translate(1033.59375 0)"/>
     <use xlink:href="#DejaVuSans-Bold-61" transform="translate(1105.175781 0)"/>
     <use xlink:href="#DejaVuSans-Bold-63" transform="translate(1172.65625 0)"/>
     <use xlink:href="#DejaVuSans-Bold-6b" transform="translate(1231.933594 0)"/>
     <use xlink:href="#DejaVuSans-Bold-65" transform="translate(1295.8125 0)"/>
     <use xlink:href="#DejaVuSans-Bold-6e" transform="translate(1363.634766 0)"/>
     <use xlink:href="#DejaVuSans-Bold-64" transform="translate(1434.826172 0)"/>
     <use xlink:href="#DejaVuSans-Bold-20" transform="translate(1506.408203 0)"/>
     <use xlink:href="#DejaVuSans-Bold-2014" transform="translate(1541.222656 0)"/>
     <use xlink:href="#DejaVuSans-Bold-20" transform="translate(1641.222656 0)"/>
     <use xlink:href="#DejaVuSans-Bold-67" transform="translate(1676.037109 0)"/>
     <use xlink:href="#DejaVuSans-Bold-72" transform="translate(1747.619141 0)"/>
     <use xlink:href="#DejaVuSans-Bold-61" transform="translate(1796.935547 0)"/>
     <use xlink:href="#DejaVuSans-Bold-64" transform="translate(1864.416016 0)"/>
     <use xlink:href="#DejaVuSans-Bold-69" transform="translate(1935.998047 0)"/>
     <use xlink:href="#DejaVuSans-Bold-65" transform="translate(1970.275391 0)"/>
     <use xlink:href="#DejaVuSans-Bold-6e" transform="translate(2038.097656 0)"/>
     <use xlink:href="#DejaVuSans-Bold-74" transform="translate(2109.289062 0)"/>
     <use xlink:href="#DejaVuSans-Bold-73" transform="translate(2157.091797 0)"/>
     <use xlink:href="#DejaVuSans-Bold-20" transform="translate(2216.613281 0)"/>
     <use xlink:href="#DejaVuSans-Bold-74" transform="translate(2251.427734 0)"/>
     <use xlink:href="#DejaVuSans-Bold-68" transform="translate(2299.230469 0)"/>
     <use xlink:href="#DejaVuSans-Bold-72" transform="translate(2370.421875 0)"/>
     <use xlink:href="#DejaVuSans-Bold-65" transform="translate(2419.738281 0)"/>
     <use xlink:href="#DejaVuSans-Bold-61" transform="translate(2487.560547 0)"/>
     <use xlink:href="#DejaVuSans-Bold-64" transform="translate(2555.041016 0)"/>
     <use xlink:href="#DejaVuSans-Bold-20" transform="translate(2626.623047 0)"/>
     <use xlink:href="#DejaVuSans-Bold-74" transform="translate(2661.4375 0)"/>
     <use xlink:href="#DejaVuSans-Bold-68" transform="translate(2709.240234 0)"/>
     <use xlink:href="#DejaVuSans-Bold-72" transform="translate(2780.431641 0)"/>
     <use xlink:href="#DejaVuSans-Bold-6f" transform="translate(2829.748047 0)"/>
     <use xlink:href="#DejaVuSans-Bold-75" transform="translate(2898.449219 0)"/>
     <use xlink:href="#DejaVuSans-Bold-67" transform="translate(2969.640625 0)"/>
     <use xlink:href="#DejaVuSans-Bold-68" transform="translate(3041.222656 0)"/>
     <use xlink:href="#DejaVuSans-Bold-20" transform="translate(3112.414062 0)"/>
     <use xlink:href="#DejaVuSans-Bold-73" transform="translate(3147.228516 0)"/>
     <use xlink:href="#DejaVuSans-Bold-6f" transform="translate(3206.75 0)"/>
     <use xlink:href="#DejaVuSans-Bold-6c" transform="translate(3275.451172 0)"/>
     <use xlink:href="#DejaVuSans-Bold-76" transform="translate(3309.728516 0)"/>
     <use xlink:href="#DejaVuSans-Bold-65" transform="translate(3374.914062 0)"/>
    </g>
   </g>
  </g>
 </g>
 <defs>
  <clipPath id="pc1b1cbf3af">
   <rect x="7.2" y="23.837812" width="669.6" height="277.2"/>
  </clipPath>
 </defs>
</svg>
