<?xml version="1.0" encoding="utf-8" standalone="no"?>
<!DOCTYPE svg PUBLIC "-//W3C//DTD SVG 1.1//EN"
  "http://www.w3.org/Graphics/SVG/1.1/DTD/svg11.dtd">
<svg xmlns:xlink="http://www.w3.org/1999/xlink" width="1000.8pt" height="638.64pt" viewBox="0 0 1000.8 638.64" xmlns="http://www.w3.org/2000/svg" version="1.1">
 <metadata>
  <rdf:RDF xmlns:dc="http://purl.org/dc/elements/1.1/" xmlns:cc="http://creativecommons.org/ns#" xmlns:rdf="http://www.w3.org/1999/02/22-rdf-syntax-ns#">
   <cc:Work>
    <dc:type rdf:resource="http://purl.org/dc/dcmitype/StillImage"/>
    <dc:date>2026-04-05T18:16:38.297015</dc:date>
    <dc:format>image/svg+xml</dc:format>
    <dc:creator>
     <cc:Agent>
      <dc:title>Matplotlib v3.10.8, https://matplotlib.org/</dc:title>
     </cc:Agent>
    </dc:creator>
   </cc:Work>
  </rdf:RDF>
 </metadata>
 <defs>
  <style type="text/css">*{stroke-linejoin: round; stroke-linecap: butt}</style>
 </defs>
 <g id="figure_1">
  <g id="patch_1">
   <path d="M 0 638.64 
L 1000.8 638.64 
L 1000.8 0 
L 0 0 
z
" style="fill: #fafafa"/>
  </g>
  <g id="axes_1">
   <g id="patch_2">
    <path d="M 7.2 296.512437 
L 328.8 296.512437 
L 328.8 66.798151 
L 7.2 66.798151 
z
" style="fill: #ffffff"/>
   </g>
   <g id="patch_3">
    <path d="M 30.171429 227.598151 
L 305.828571 227.598151 
L 305.828571 273.541008 
L 30.171429 273.541008 
z
" clip-path="url(#pc596539cbd)" style="fill: #dfe6e9; stroke: #7f8c8d; stroke-width: 1.5; stroke-linejoin: miter"/>
   </g>
   <g id="patch_4">
    <path d="M 145.028571 227.598151 
L 190.971429 227.598151 
L 190.971429 89.76958 
L 145.028571 89.76958 
z
" clip-path="url(#pc596539cbd)" style="fill: #dfe6e9; stroke: #7f8c8d; stroke-width: 1.5; stroke-linejoin: miter"/>
   </g>
   <g id="patch_5">
    <path d="M 190.971429 227.598151 
L 223.131429 227.598151 
L 190.971429 195.438151 
z
" clip-path="url(#pc596539cbd)" style="fill: url(#hb50601d6dd); stroke: #1a5276; stroke-linejoin: miter"/>
   </g>
   <g id="patch_6">
    <path d="M 145.028571 227.598151 
L 112.868571 227.598151 
L 145.028571 195.438151 
z
" clip-path="url(#pc596539cbd)" style="fill: url(#hb50601d6dd); stroke: #1a5276; stroke-linejoin: miter"/>
   </g>
   <g id="matplotlib.axis_1"/>
   <g id="matplotlib.axis_2"/>
   <g id="patch_7">
    <path d="M 7.2 296.512437 
L 7.2 66.798151 
" style="fill: none; stroke: #000000; stroke-width: 0.8; stroke-linejoin: miter; stroke-linecap: square"/>
   </g>
   <g id="patch_8">
    <path d="M 328.8 296.512437 
L 328.8 66.798151 
" style="fill: none; stroke: #000000; stroke-width: 0.8; stroke-linejoin: miter; stroke-linecap: square"/>
   </g>
   <g id="patch_9">
    <path d="M 7.2 296.512437 
L 328.8 296.512437 
" style="fill: none; stroke: #000000; stroke-width: 0.8; stroke-linejoin: miter; stroke-linecap: square"/>
   </g>
   <g id="patch_10">
    <path d="M 7.2 66.798151 
L 328.8 66.798151 
" style="fill: none; stroke: #000000; stroke-width: 0.8; stroke-linejoin: miter; stroke-linecap: square"/>
   </g>
   <g id="text_1">
    <!-- a=7 -->
    <g style="fill: #1a5276" transform="translate(232.32 211.518151) scale(0.07 -0.07)">
     <defs>
      <path id="DejaVuSans-61" d="M 2194 1759 
Q 1497 1759 1228 1600 
Q 959 1441 959 1056 
Q 959 750 1161 570 
Q 1363 391 1709 391 
Q 2188 391 2477 730 
Q 2766 1069 2766 1631 
L 2766 1759 
L 2194 1759 
z
M 3341 1997 
L 3341 0 
L 2766 0 
L 2766 531 
Q 2569 213 2275 61 
Q 1981 -91 1556 -91 
Q 1019 -91 701 211 
Q 384 513 384 1019 
Q 384 1609 779 1909 
Q 1175 2209 1959 2209 
L 2766 2209 
L 2766 2266 
Q 2766 2663 2505 2880 
Q 2244 3097 1772 3097 
Q 1472 3097 1187 3025 
Q 903 2953 641 2809 
L 641 3341 
Q 956 3463 1253 3523 
Q 1550 3584 1831 3584 
Q 2591 3584 2966 3190 
Q 3341 2797 3341 1997 
z
" transform="scale(0.015625)"/>
      <path id="DejaVuSans-3d" d="M 678 2906 
L 4684 2906 
L 4684 2381 
L 678 2381 
L 678 2906 
z
M 678 1631 
L 4684 1631 
L 4684 1100 
L 678 1100 
L 678 1631 
z
" transform="scale(0.015625)"/>
      <path id="DejaVuSans-37" d="M 525 4666 
L 3525 4666 
L 3525 4397 
L 1831 0 
L 1172 0 
L 2766 4134 
L 525 4134 
L 525 4666 
z
" transform="scale(0.015625)"/>
     </defs>
     <use xlink:href="#DejaVuSans-61"/>
     <use xlink:href="#DejaVuSans-3d" transform="translate(61.279297 0)"/>
     <use xlink:href="#DejaVuSans-37" transform="translate(145.068359 0)"/>
    </g>
   </g>
   <g id="text_2">
    <!-- Fillet T-Joint -->
    <g transform="translate(127.455938 60.798151) scale(0.12 -0.12)">
     <defs>
      <path id="DejaVuSans-Bold-46" d="M 588 4666 
L 3834 4666 
L 3834 3756 
L 1791 3756 
L 1791 2888 
L 3713 2888 
L 3713 1978 
L 1791 1978 
L 1791 0 
L 588 0 
L 588 4666 
z
" transform="scale(0.015625)"/>
      <path id="DejaVuSans-Bold-69" d="M 538 3500 
L 1656 3500 
L 1656 0 
L 538 0 
L 538 3500 
z
M 538 4863 
L 1656 4863 
L 1656 3950 
L 538 3950 
L 538 4863 
z
" transform="scale(0.015625)"/>
      <path id="DejaVuSans-Bold-6c" d="M 538 4863 
L 1656 4863 
L 1656 0 
L 538 0 
L 538 4863 
z
" transform="scale(0.015625)"/>
      <path id="DejaVuSans-Bold-65" d="M 4031 1759 
L 4031 1441 
L 1416 1441 
Q 1456 1047 1700 850 
Q 1944 653 2381 653 
Q 2734 653 3104 758 
Q 3475 863 3866 1075 
L 3866 213 
Q 3469 63 3072 -14 
Q 2675 -91 2278 -91 
Q 1328 -91 801 392 
Q 275 875 275 1747 
Q 275 2603 792 3093 
Q 1309 3584 2216 3584 
Q 3041 3584 3536 3087 
Q 4031 2591 4031 1759 
z
M 2881 2131 
Q 2881 2450 2695 2645 
Q 2509 2841 2209 2841 
Q 1884 2841 1681 2658 
Q 1478 2475 1428 2131 
L 2881 2131 
z
" transform="scale(0.015625)"/>
      <path id="DejaVuSans-Bold-74" d="M 1759 4494 
L 1759 3500 
L 2913 3500 
L 2913 2700 
L 1759 2700 
L 1759 1216 
Q 1759 972 1856 886 
Q 1953 800 2241 800 
L 2816 800 
L 2816 0 
L 1856 0 
Q 1194 0 917 276 
Q 641 553 641 1216 
L 641 2700 
L 84 2700 
L 84 3500 
L 641 3500 
L 641 4494 
L 1759 4494 
z
" transform="scale(0.015625)"/>
      <path id="DejaVuSans-Bold-20" transform="scale(0.015625)"/>
      <path id="DejaVuSans-Bold-54" d="M 31 4666 
L 4331 4666 
L 4331 3756 
L 2784 3756 
L 2784 0 
L 1581 0 
L 1581 3756 
L 31 3756 
L 31 4666 
z
" transform="scale(0.015625)"/>
      <path id="DejaVuSans-Bold-2d" d="M 347 2297 
L 2309 2297 
L 2309 1388 
L 347 1388 
L 347 2297 
z
" transform="scale(0.015625)"/>
      <path id="DejaVuSans-Bold-4a" d="M 588 4666 
L 1791 4666 
L 1791 453 
Q 1791 -419 1317 -850 
Q 844 -1281 -116 -1281 
L -359 -1281 
L -359 -372 
L -172 -372 
Q 203 -372 395 -162 
Q 588 47 588 453 
L 588 4666 
z
" transform="scale(0.015625)"/>
      <path id="DejaVuSans-Bold-6f" d="M 2203 2784 
Q 1831 2784 1636 2517 
Q 1441 2250 1441 1747 
Q 1441 1244 1636 976 
Q 1831 709 2203 709 
Q 2569 709 2762 976 
Q 2956 1244 2956 1747 
Q 2956 2250 2762 2517 
Q 2569 2784 2203 2784 
z
M 2203 3584 
Q 3106 3584 3614 3096 
Q 4122 2609 4122 1747 
Q 4122 884 3614 396 
Q 3106 -91 2203 -91 
Q 1297 -91 786 396 
Q 275 884 275 1747 
Q 275 2609 786 3096 
Q 1297 3584 2203 3584 
z
" transform="scale(0.015625)"/>
      <path id="DejaVuSans-Bold-6e" d="M 4056 2131 
L 4056 0 
L 2931 0 
L 2931 347 
L 2931 1631 
Q 2931 2084 2911 2256 
Q 2891 2428 2841 2509 
Q 2775 2619 2662 2680 
Q 2550 2741 2406 2741 
Q 2056 2741 1856 2470 
Q 1656 2200 1656 1722 
L 1656 0 
L 538 0 
L 538 3500 
L 1656 3500 
L 1656 2988 
Q 1909 3294 2193 3439 
Q 2478 3584 2822 3584 
Q 3428 3584 3742 3212 
Q 4056 2841 4056 2131 
z
" transform="scale(0.015625)"/>
     </defs>
     <use xlink:href="#DejaVuSans-Bold-46"/>
     <use xlink:href="#DejaVuSans-Bold-69" transform="translate(68.310547 0)"/>
     <use xlink:href="#DejaVuSans-Bold-6c" transform="translate(102.587891 0)"/>
     <use xlink:href="#DejaVuSans-Bold-6c" transform="translate(136.865234 0)"/>
     <use xlink:href="#DejaVuSans-Bold-65" transform="translate(171.142578 0)"/>
     <use xlink:href="#DejaVuSans-Bold-74" transform="translate(238.964844 0)"/>
     <use xlink:href="#DejaVuSans-Bold-20" transform="translate(286.767578 0)"/>
     <use xlink:href="#DejaVuSans-Bold-54" transform="translate(321.582031 0)"/>
     <use xlink:href="#DejaVuSans-Bold-2d" transform="translate(375.044922 0)"/>
     <use xlink:href="#DejaVuSans-Bold-4a" transform="translate(416.548828 0)"/>
     <use xlink:href="#DejaVuSans-Bold-6f" transform="translate(453.755859 0)"/>
     <use xlink:href="#DejaVuSans-Bold-69" transform="translate(522.457031 0)"/>
     <use xlink:href="#DejaVuSans-Bold-6e" transform="translate(556.734375 0)"/>
     <use xlink:href="#DejaVuSans-Bold-74" transform="translate(627.925781 0)"/>
    </g>
   </g>
  </g>
  <g id="axes_2">
   <g id="patch_11">
    <path d="M 339.6 234.48958 
L 661.2 234.48958 
L 661.2 128.821008 
L 339.6 128.821008 
z
" style="fill: #ffffff"/>
   </g>
   <g id="patch_12">
    <path d="M 362.571429 165.575294 
L 495.805714 165.575294 
L 495.805714 211.518151 
L 362.571429 211.518151 
z
" clip-path="url(#p4ad933fde7)" style="fill: #dfe6e9; stroke: #7f8c8d; stroke-width: 1.5; stroke-linejoin: miter"/>
   </g>
   <g id="patch_13">
    <path d="M 504.994286 165.575294 
L 638.228571 165.575294 
L 638.228571 211.518151 
L 504.994286 211.518151 
z
" clip-path="url(#p4ad933fde7)" style="fill: #dfe6e9; stroke: #7f8c8d; stroke-width: 1.5; stroke-linejoin: miter"/>
   </g>
   <g id="patch_14">
    <path d="M 495.805714 211.518151 
L 504.994286 211.518151 
L 518.777143 165.575294 
L 482.022857 165.575294 
z
" clip-path="url(#p4ad933fde7)" style="fill: url(#hb50601d6dd); stroke: #1a5276; stroke-linejoin: miter"/>
   </g>
   <g id="patch_15">
    <path d="M 482.022857 165.575294 
L 518.777143 165.575294 
L 514.182857 156.386723 
L 486.617143 156.386723 
z
" clip-path="url(#p4ad933fde7)" style="fill: url(#hb50601d6dd); stroke: #1a5276; stroke-linejoin: miter"/>
   </g>
   <g id="matplotlib.axis_3"/>
   <g id="matplotlib.axis_4"/>
   <g id="patch_16">
    <path d="M 339.6 234.48958 
L 339.6 128.821008 
" style="fill: none; stroke: #000000; stroke-width: 0.8; stroke-linejoin: miter; stroke-linecap: square"/>
   </g>
   <g id="patch_17">
    <path d="M 661.2 234.48958 
L 661.2 128.821008 
" style="fill: none; stroke: #000000; stroke-width: 0.8; stroke-linejoin: miter; stroke-linecap: square"/>
   </g>
   <g id="patch_18">
    <path d="M 339.6 234.48958 
L 661.2 234.48958 
" style="fill: none; stroke: #000000; stroke-width: 0.8; stroke-linejoin: miter; stroke-linecap: square"/>
   </g>
   <g id="patch_19">
    <path d="M 339.6 128.821008 
L 661.2 128.821008 
" style="fill: none; stroke: #000000; stroke-width: 0.8; stroke-linejoin: miter; stroke-linecap: square"/>
   </g>
   <g id="text_3">
    <!-- V -->
    <g style="fill: #1a5276" transform="translate(496.917422 191.03016) scale(0.09 -0.09)">
     <defs>
      <path id="DejaVuSans-Bold-56" d="M 31 4666 
L 1241 4666 
L 2478 1222 
L 3713 4666 
L 4922 4666 
L 3194 0 
L 1759 0 
L 31 4666 
z
" transform="scale(0.015625)"/>
     </defs>
     <use xlink:href="#DejaVuSans-Bold-56"/>
    </g>
   </g>
   <g id="text_4">
    <!-- Butt Weld -->
    <g transform="translate(466.909688 122.821008) scale(0.12 -0.12)">
     <defs>
      <path id="DejaVuSans-Bold-42" d="M 2456 2859 
Q 2741 2859 2887 2984 
Q 3034 3109 3034 3353 
Q 3034 3594 2887 3720 
Q 2741 3847 2456 3847 
L 1791 3847 
L 1791 2859 
L 2456 2859 
z
M 2497 819 
Q 2859 819 3042 972 
Q 3225 1125 3225 1434 
Q 3225 1738 3044 1889 
Q 2863 2041 2497 2041 
L 1791 2041 
L 1791 819 
L 2497 819 
z
M 3616 2497 
Q 4003 2384 4215 2081 
Q 4428 1778 4428 1338 
Q 4428 663 3972 331 
Q 3516 0 2584 0 
L 588 0 
L 588 4666 
L 2394 4666 
Q 3366 4666 3802 4372 
Q 4238 4078 4238 3431 
Q 4238 3091 4078 2852 
Q 3919 2613 3616 2497 
z
" transform="scale(0.015625)"/>
      <path id="DejaVuSans-Bold-75" d="M 500 1363 
L 500 3500 
L 1625 3500 
L 1625 3150 
Q 1625 2866 1622 2436 
Q 1619 2006 1619 1863 
Q 1619 1441 1641 1255 
Q 1663 1069 1716 984 
Q 1784 875 1895 815 
Q 2006 756 2150 756 
Q 2500 756 2700 1025 
Q 2900 1294 2900 1772 
L 2900 3500 
L 4019 3500 
L 4019 0 
L 2900 0 
L 2900 506 
Q 2647 200 2364 54 
Q 2081 -91 1741 -91 
Q 1134 -91 817 281 
Q 500 653 500 1363 
z
" transform="scale(0.015625)"/>
      <path id="DejaVuSans-Bold-57" d="M 191 4666 
L 1344 4666 
L 2150 1275 
L 2950 4666 
L 4109 4666 
L 4909 1275 
L 5716 4666 
L 6859 4666 
L 5759 0 
L 4372 0 
L 3525 3547 
L 2688 0 
L 1300 0 
L 191 4666 
z
" transform="scale(0.015625)"/>
      <path id="DejaVuSans-Bold-64" d="M 2919 2988 
L 2919 4863 
L 4044 4863 
L 4044 0 
L 2919 0 
L 2919 506 
Q 2688 197 2409 53 
Q 2131 -91 1766 -91 
Q 1119 -91 703 423 
Q 288 938 288 1747 
Q 288 2556 703 3070 
Q 1119 3584 1766 3584 
Q 2128 3584 2408 3439 
Q 2688 3294 2919 2988 
z
M 2181 722 
Q 2541 722 2730 984 
Q 2919 1247 2919 1747 
Q 2919 2247 2730 2509 
Q 2541 2772 2181 2772 
Q 1825 2772 1636 2509 
Q 1447 2247 1447 1747 
Q 1447 1247 1636 984 
Q 1825 722 2181 722 
z
" transform="scale(0.015625)"/>
     </defs>
     <use xlink:href="#DejaVuSans-Bold-42"/>
     <use xlink:href="#DejaVuSans-Bold-75" transform="translate(76.220703 0)"/>
     <use xlink:href="#DejaVuSans-Bold-74" transform="translate(147.412109 0)"/>
     <use xlink:href="#DejaVuSans-Bold-74" transform="translate(195.214844 0)"/>
     <use xlink:href="#DejaVuSans-Bold-20" transform="translate(243.017578 0)"/>
     <use xlink:href="#DejaVuSans-Bold-57" transform="translate(277.832031 0)"/>
     <use xlink:href="#DejaVuSans-Bold-65" transform="translate(384.509766 0)"/>
     <use xlink:href="#DejaVuSans-Bold-6c" transform="translate(452.332031 0)"/>
     <use xlink:href="#DejaVuSans-Bold-64" transform="translate(486.609375 0)"/>
    </g>
   </g>
  </g>
  <g id="axes_3">
   <g id="patch_20">
    <path d="M 672 250.56958 
L 993.6 250.56958 
L 993.6 112.741008 
L 672 112.741008 
z
" style="fill: #ffffff"/>
   </g>
   <g id="patch_21">
    <path d="M 694.971429 181.655294 
L 970.628571 181.655294 
L 970.628571 227.598151 
L 694.971429 227.598151 
z
" clip-path="url(#p69cbb96cc0)" style="fill: #dfe6e9; stroke: #7f8c8d; stroke-width: 1.5; stroke-linejoin: miter"/>
   </g>
   <g id="patch_22">
    <path d="M 786.857143 181.655294 
L 970.628571 181.655294 
L 970.628571 135.712437 
L 786.857143 135.712437 
z
" clip-path="url(#p69cbb96cc0)" style="fill: #c8d6e5; stroke: #7f8c8d; stroke-width: 1.5; stroke-linejoin: miter"/>
   </g>
   <g id="patch_23">
    <path d="M 786.857143 181.655294 
L 786.857143 135.712437 
L 754.697143 181.655294 
z
" clip-path="url(#p69cbb96cc0)" style="fill: url(#hb50601d6dd); stroke: #1a5276; stroke-linejoin: miter"/>
   </g>
   <g id="matplotlib.axis_5"/>
   <g id="matplotlib.axis_6"/>
   <g id="patch_24">
    <path d="M 672 250.56958 
L 672 112.741008 
" style="fill: none; stroke: #000000; stroke-width: 0.8; stroke-linejoin: miter; stroke-linecap: square"/>
   </g>
   <g id="patch_25">
    <path d="M 993.6 250.56958 
L 993.6 112.741008 
" style="fill: none; stroke: #000000; stroke-width: 0.8; stroke-linejoin: miter; stroke-linecap: square"/>
   </g>
   <g id="patch_26">
    <path d="M 672 250.56958 
L 993.6 250.56958 
" style="fill: none; stroke: #000000; stroke-width: 0.8; stroke-linejoin: miter; stroke-linecap: square"/>
   </g>
   <g id="patch_27">
    <path d="M 672 112.741008 
L 993.6 112.741008 
" style="fill: none; stroke: #000000; stroke-width: 0.8; stroke-linejoin: miter; stroke-linecap: square"/>
   </g>
   <g id="text_5">
    <!-- a -->
    <g style="fill: #1a5276" transform="translate(745.508571 166.341008) scale(0.08 -0.08)">
     <use xlink:href="#DejaVuSans-61"/>
    </g>
   </g>
   <g id="text_6">
    <!-- Lap Joint -->
    <g transform="translate(802.994062 106.741008) scale(0.12 -0.12)">
     <defs>
      <path id="DejaVuSans-Bold-4c" d="M 588 4666 
L 1791 4666 
L 1791 909 
L 3903 909 
L 3903 0 
L 588 0 
L 588 4666 
z
" transform="scale(0.015625)"/>
      <path id="DejaVuSans-Bold-61" d="M 2106 1575 
Q 1756 1575 1579 1456 
Q 1403 1338 1403 1106 
Q 1403 894 1545 773 
Q 1688 653 1941 653 
Q 2256 653 2472 879 
Q 2688 1106 2688 1447 
L 2688 1575 
L 2106 1575 
z
M 3816 1997 
L 3816 0 
L 2688 0 
L 2688 519 
Q 2463 200 2181 54 
Q 1900 -91 1497 -91 
Q 953 -91 614 226 
Q 275 544 275 1050 
Q 275 1666 698 1953 
Q 1122 2241 2028 2241 
L 2688 2241 
L 2688 2328 
Q 2688 2594 2478 2717 
Q 2269 2841 1825 2841 
Q 1466 2841 1156 2769 
Q 847 2697 581 2553 
L 581 3406 
Q 941 3494 1303 3539 
Q 1666 3584 2028 3584 
Q 2975 3584 3395 3211 
Q 3816 2838 3816 1997 
z
" transform="scale(0.015625)"/>
      <path id="DejaVuSans-Bold-70" d="M 1656 506 
L 1656 -1331 
L 538 -1331 
L 538 3500 
L 1656 3500 
L 1656 2988 
Q 1888 3294 2169 3439 
Q 2450 3584 2816 3584 
Q 3463 3584 3878 3070 
Q 4294 2556 4294 1747 
Q 4294 938 3878 423 
Q 3463 -91 2816 -91 
Q 2450 -91 2169 54 
Q 1888 200 1656 506 
z
M 2400 2772 
Q 2041 2772 1848 2508 
Q 1656 2244 1656 1747 
Q 1656 1250 1848 986 
Q 2041 722 2400 722 
Q 2759 722 2948 984 
Q 3138 1247 3138 1747 
Q 3138 2247 2948 2509 
Q 2759 2772 2400 2772 
z
" transform="scale(0.015625)"/>
     </defs>
     <use xlink:href="#DejaVuSans-Bold-4c"/>
     <use xlink:href="#DejaVuSans-Bold-61" transform="translate(63.720703 0)"/>
     <use xlink:href="#DejaVuSans-Bold-70" transform="translate(131.201172 0)"/>
     <use xlink:href="#DejaVuSans-Bold-20" transform="translate(202.783203 0)"/>
     <use xlink:href="#DejaVuSans-Bold-4a" transform="translate(237.597656 0)"/>
     <use xlink:href="#DejaVuSans-Bold-6f" transform="translate(274.804688 0)"/>
     <use xlink:href="#DejaVuSans-Bold-69" transform="translate(343.505859 0)"/>
     <use xlink:href="#DejaVuSans-Bold-6e" transform="translate(377.783203 0)"/>
     <use xlink:href="#DejaVuSans-Bold-74" transform="translate(448.974609 0)"/>
    </g>
   </g>
  </g>
  <g id="axes_4">
   <g id="patch_28">
    <path d="M 16.584706 631.44 
L 319.415294 631.44 
L 319.415294 328.609412 
L 16.584706 328.609412 
z
" style="fill: #ffffff"/>
   </g>
   <g id="patch_29">
    <path d="M 44.114759 521.319786 
L 209.29508 521.319786 
L 209.29508 576.379893 
L 44.114759 576.379893 
z
" clip-path="url(#pb57538402b)" style="fill: #dfe6e9; stroke: #7f8c8d; stroke-width: 1.5; stroke-linejoin: miter"/>
   </g>
   <g id="patch_30">
    <path d="M 209.29508 521.319786 
L 264.355187 521.319786 
L 264.355187 356.139465 
L 209.29508 356.139465 
z
" clip-path="url(#pb57538402b)" style="fill: #dfe6e9; stroke: #7f8c8d; stroke-width: 1.5; stroke-linejoin: miter"/>
   </g>
   <g id="patch_31">
    <path d="M 209.29508 521.319786 
L 247.837155 521.319786 
L 209.29508 559.861861 
z
" clip-path="url(#pb57538402b)" style="fill: url(#hb50601d6dd); stroke: #1a5276; stroke-linejoin: miter"/>
   </g>
   <g id="matplotlib.axis_7"/>
   <g id="matplotlib.axis_8"/>
   <g id="patch_32">
    <path d="M 16.584706 631.44 
L 16.584706 328.609412 
" style="fill: none; stroke: #000000; stroke-width: 0.8; stroke-linejoin: miter; stroke-linecap: square"/>
   </g>
   <g id="patch_33">
    <path d="M 319.415294 631.44 
L 319.415294 328.609412 
" style="fill: none; stroke: #000000; stroke-width: 0.8; stroke-linejoin: miter; stroke-linecap: square"/>
   </g>
   <g id="patch_34">
    <path d="M 16.584706 631.44 
L 319.415294 631.44 
" style="fill: none; stroke: #000000; stroke-width: 0.8; stroke-linejoin: miter; stroke-linecap: square"/>
   </g>
   <g id="patch_35">
    <path d="M 16.584706 328.609412 
L 319.415294 328.609412 
" style="fill: none; stroke: #000000; stroke-width: 0.8; stroke-linejoin: miter; stroke-linecap: square"/>
   </g>
   <g id="text_7">
    <!-- Corner Joint -->
    <g transform="translate(127.576875 322.609412) scale(0.12 -0.12)">
     <defs>
      <path id="DejaVuSans-Bold-43" d="M 4288 256 
Q 3956 84 3597 -3 
Q 3238 -91 2847 -91 
Q 1681 -91 1000 561 
Q 319 1213 319 2328 
Q 319 3447 1000 4098 
Q 1681 4750 2847 4750 
Q 3238 4750 3597 4662 
Q 3956 4575 4288 4403 
L 4288 3438 
Q 3953 3666 3628 3772 
Q 3303 3878 2944 3878 
Q 2300 3878 1931 3465 
Q 1563 3053 1563 2328 
Q 1563 1606 1931 1193 
Q 2300 781 2944 781 
Q 3303 781 3628 887 
Q 3953 994 4288 1222 
L 4288 256 
z
" transform="scale(0.015625)"/>
      <path id="DejaVuSans-Bold-72" d="M 3138 2547 
Q 2991 2616 2845 2648 
Q 2700 2681 2553 2681 
Q 2122 2681 1889 2404 
Q 1656 2128 1656 1613 
L 1656 0 
L 538 0 
L 538 3500 
L 1656 3500 
L 1656 2925 
Q 1872 3269 2151 3426 
Q 2431 3584 2822 3584 
Q 2878 3584 2943 3579 
Q 3009 3575 3134 3559 
L 3138 2547 
z
" transform="scale(0.015625)"/>
     </defs>
     <use xlink:href="#DejaVuSans-Bold-43"/>
     <use xlink:href="#DejaVuSans-Bold-6f" transform="translate(73.388672 0)"/>
     <use xlink:href="#DejaVuSans-Bold-72" transform="translate(142.089844 0)"/>
     <use xlink:href="#DejaVuSans-Bold-6e" transform="translate(191.40625 0)"/>
     <use xlink:href="#DejaVuSans-Bold-65" transform="translate(262.597656 0)"/>
     <use xlink:href="#DejaVuSans-Bold-72" transform="translate(330.419922 0)"/>
     <use xlink:href="#DejaVuSans-Bold-20" transform="translate(379.736328 0)"/>
     <use xlink:href="#DejaVuSans-Bold-4a" transform="translate(414.550781 0)"/>
     <use xlink:href="#DejaVuSans-Bold-6f" transform="translate(451.757812 0)"/>
     <use xlink:href="#DejaVuSans-Bold-69" transform="translate(520.458984 0)"/>
     <use xlink:href="#DejaVuSans-Bold-6e" transform="translate(554.736328 0)"/>
     <use xlink:href="#DejaVuSans-Bold-74" transform="translate(625.927734 0)"/>
    </g>
   </g>
  </g>
  <g id="axes_5">
   <g id="patch_36">
    <path d="M 348.984706 631.44 
L 651.815294 631.44 
L 651.815294 328.609412 
L 348.984706 328.609412 
z
" style="fill: #ffffff"/>
   </g>
   <g id="patch_37">
    <path d="M 370.615462 458.39395 
L 630.184538 458.39395 
L 630.184538 501.655462 
L 370.615462 501.655462 
z
" clip-path="url(#pf60eacff7d)" style="fill: #dfe6e9; stroke: #7f8c8d; stroke-width: 1.5; stroke-linejoin: miter"/>
   </g>
   <g id="patch_38">
    <path d="M 478.769244 458.39395 
L 522.030756 458.39395 
L 522.030756 350.240168 
L 478.769244 350.240168 
z
" clip-path="url(#pf60eacff7d)" style="fill: #dfe6e9; stroke: #7f8c8d; stroke-width: 1.5; stroke-linejoin: miter"/>
   </g>
   <g id="patch_39">
    <path d="M 478.769244 501.655462 
L 522.030756 501.655462 
L 522.030756 609.809244 
L 478.769244 609.809244 
z
" clip-path="url(#pf60eacff7d)" style="fill: #dfe6e9; stroke: #7f8c8d; stroke-width: 1.5; stroke-linejoin: miter"/>
   </g>
   <g id="patch_40">
    <path d="M 522.030756 458.39395 
L 552.313815 458.39395 
L 522.030756 428.110891 
z
" clip-path="url(#pf60eacff7d)" style="fill: url(#hb50601d6dd); stroke: #1a5276; stroke-linejoin: miter"/>
   </g>
   <g id="patch_41">
    <path d="M 478.769244 458.39395 
L 448.486185 458.39395 
L 478.769244 428.110891 
z
" clip-path="url(#pf60eacff7d)" style="fill: url(#hb50601d6dd); stroke: #1a5276; stroke-linejoin: miter"/>
   </g>
   <g id="patch_42">
    <path d="M 522.030756 501.655462 
L 552.313815 501.655462 
L 522.030756 531.938521 
z
" clip-path="url(#pf60eacff7d)" style="fill: url(#hb50601d6dd); stroke: #1a5276; stroke-linejoin: miter"/>
   </g>
   <g id="patch_43">
    <path d="M 478.769244 501.655462 
L 448.486185 501.655462 
L 478.769244 531.938521 
z
" clip-path="url(#pf60eacff7d)" style="fill: url(#hb50601d6dd); stroke: #1a5276; stroke-linejoin: miter"/>
   </g>
   <g id="matplotlib.axis_9"/>
   <g id="matplotlib.axis_10"/>
   <g id="patch_44">
    <path d="M 348.984706 631.44 
L 348.984706 328.609412 
" style="fill: none; stroke: #000000; stroke-width: 0.8; stroke-linejoin: miter; stroke-linecap: square"/>
   </g>
   <g id="patch_45">
    <path d="M 651.815294 631.44 
L 651.815294 328.609412 
" style="fill: none; stroke: #000000; stroke-width: 0.8; stroke-linejoin: miter; stroke-linecap: square"/>
   </g>
   <g id="patch_46">
    <path d="M 348.984706 631.44 
L 651.815294 631.44 
" style="fill: none; stroke: #000000; stroke-width: 0.8; stroke-linejoin: miter; stroke-linecap: square"/>
   </g>
   <g id="patch_47">
    <path d="M 348.984706 328.609412 
L 651.815294 328.609412 
" style="fill: none; stroke: #000000; stroke-width: 0.8; stroke-linejoin: miter; stroke-linecap: square"/>
   </g>
   <g id="text_8">
    <!-- Cruciform -->
    <g transform="translate(467.209688 322.609412) scale(0.12 -0.12)">
     <defs>
      <path id="DejaVuSans-Bold-63" d="M 3366 3391 
L 3366 2478 
Q 3138 2634 2908 2709 
Q 2678 2784 2431 2784 
Q 1963 2784 1702 2511 
Q 1441 2238 1441 1747 
Q 1441 1256 1702 982 
Q 1963 709 2431 709 
Q 2694 709 2930 787 
Q 3166 866 3366 1019 
L 3366 103 
Q 3103 6 2833 -42 
Q 2563 -91 2291 -91 
Q 1344 -91 809 395 
Q 275 881 275 1747 
Q 275 2613 809 3098 
Q 1344 3584 2291 3584 
Q 2566 3584 2833 3536 
Q 3100 3488 3366 3391 
z
" transform="scale(0.015625)"/>
      <path id="DejaVuSans-Bold-66" d="M 2841 4863 
L 2841 4128 
L 2222 4128 
Q 1984 4128 1890 4042 
Q 1797 3956 1797 3744 
L 1797 3500 
L 2753 3500 
L 2753 2700 
L 1797 2700 
L 1797 0 
L 678 0 
L 678 2700 
L 122 2700 
L 122 3500 
L 678 3500 
L 678 3744 
Q 678 4316 997 4589 
Q 1316 4863 1984 4863 
L 2841 4863 
z
" transform="scale(0.015625)"/>
      <path id="DejaVuSans-Bold-6d" d="M 3781 2919 
Q 3994 3244 4286 3414 
Q 4578 3584 4928 3584 
Q 5531 3584 5847 3212 
Q 6163 2841 6163 2131 
L 6163 0 
L 5038 0 
L 5038 1825 
Q 5041 1866 5042 1909 
Q 5044 1953 5044 2034 
Q 5044 2406 4934 2573 
Q 4825 2741 4581 2741 
Q 4263 2741 4089 2478 
Q 3916 2216 3909 1719 
L 3909 0 
L 2784 0 
L 2784 1825 
Q 2784 2406 2684 2573 
Q 2584 2741 2328 2741 
Q 2006 2741 1831 2477 
Q 1656 2213 1656 1722 
L 1656 0 
L 531 0 
L 531 3500 
L 1656 3500 
L 1656 2988 
Q 1863 3284 2130 3434 
Q 2397 3584 2719 3584 
Q 3081 3584 3359 3409 
Q 3638 3234 3781 2919 
z
" transform="scale(0.015625)"/>
     </defs>
     <use xlink:href="#DejaVuSans-Bold-43"/>
     <use xlink:href="#DejaVuSans-Bold-72" transform="translate(73.388672 0)"/>
     <use xlink:href="#DejaVuSans-Bold-75" transform="translate(122.705078 0)"/>
     <use xlink:href="#DejaVuSans-Bold-63" transform="translate(193.896484 0)"/>
     <use xlink:href="#DejaVuSans-Bold-69" transform="translate(253.173828 0)"/>
     <use xlink:href="#DejaVuSans-Bold-66" transform="translate(287.451172 0)"/>
     <use xlink:href="#DejaVuSans-Bold-6f" transform="translate(330.957031 0)"/>
     <use xlink:href="#DejaVuSans-Bold-72" transform="translate(399.658203 0)"/>
     <use xlink:href="#DejaVuSans-Bold-6d" transform="translate(448.974609 0)"/>
    </g>
   </g>
  </g>
  <g id="axes_6">
   <g id="text_9">
    <!-- feaweld supports -->
    <g style="fill: #7f8c8d" transform="translate(781.175625 469.898581) scale(0.12 -0.12)">
     <defs>
      <path id="DejaVuSans-Oblique-66" d="M 3059 4863 
L 2969 4384 
L 2419 4384 
Q 2106 4384 1964 4261 
Q 1822 4138 1753 3809 
L 1691 3500 
L 2638 3500 
L 2553 3053 
L 1606 3053 
L 1013 0 
L 434 0 
L 1031 3053 
L 481 3053 
L 563 3500 
L 1113 3500 
L 1159 3744 
Q 1278 4363 1576 4613 
Q 1875 4863 2516 4863 
L 3059 4863 
z
" transform="scale(0.015625)"/>
      <path id="DejaVuSans-Oblique-65" d="M 3078 2063 
Q 3088 2113 3092 2166 
Q 3097 2219 3097 2272 
Q 3097 2653 2873 2875 
Q 2650 3097 2266 3097 
Q 1838 3097 1509 2826 
Q 1181 2556 1013 2059 
L 3078 2063 
z
M 3578 1613 
L 903 1613 
Q 884 1494 878 1425 
Q 872 1356 872 1306 
Q 872 872 1139 634 
Q 1406 397 1894 397 
Q 2269 397 2603 481 
Q 2938 566 3225 728 
L 3116 159 
Q 2806 34 2476 -28 
Q 2147 -91 1806 -91 
Q 1078 -91 686 257 
Q 294 606 294 1247 
Q 294 1794 489 2264 
Q 684 2734 1063 3103 
Q 1306 3334 1642 3459 
Q 1978 3584 2356 3584 
Q 2950 3584 3301 3228 
Q 3653 2872 3653 2272 
Q 3653 2128 3634 1964 
Q 3616 1800 3578 1613 
z
" transform="scale(0.015625)"/>
      <path id="DejaVuSans-Oblique-61" d="M 3438 1997 
L 3047 0 
L 2472 0 
L 2578 531 
Q 2325 219 2001 64 
Q 1678 -91 1281 -91 
Q 834 -91 548 182 
Q 263 456 263 884 
Q 263 1497 752 1853 
Q 1241 2209 2100 2209 
L 2900 2209 
L 2931 2363 
Q 2938 2388 2941 2417 
Q 2944 2447 2944 2509 
Q 2944 2788 2717 2942 
Q 2491 3097 2081 3097 
Q 1800 3097 1504 3025 
Q 1209 2953 897 2809 
L 997 3341 
Q 1322 3463 1633 3523 
Q 1944 3584 2234 3584 
Q 2853 3584 3176 3315 
Q 3500 3047 3500 2534 
Q 3500 2431 3484 2292 
Q 3469 2153 3438 1997 
z
M 2816 1759 
L 2241 1759 
Q 1534 1759 1195 1570 
Q 856 1381 856 984 
Q 856 709 1029 553 
Q 1203 397 1509 397 
Q 1978 397 2328 733 
Q 2678 1069 2791 1631 
L 2816 1759 
z
" transform="scale(0.015625)"/>
      <path id="DejaVuSans-Oblique-77" d="M 544 3500 
L 1113 3500 
L 1259 684 
L 2566 3500 
L 3231 3500 
L 3425 684 
L 4666 3500 
L 5241 3500 
L 3641 0 
L 2969 0 
L 2797 2900 
L 1459 0 
L 781 0 
L 544 3500 
z
" transform="scale(0.015625)"/>
      <path id="DejaVuSans-Oblique-6c" d="M 1172 4863 
L 1747 4863 
L 800 0 
L 225 0 
L 1172 4863 
z
" transform="scale(0.015625)"/>
      <path id="DejaVuSans-Oblique-64" d="M 2675 525 
Q 2444 222 2128 65 
Q 1813 -91 1428 -91 
Q 903 -91 598 267 
Q 294 625 294 1247 
Q 294 1766 478 2236 
Q 663 2706 1013 3078 
Q 1244 3325 1534 3454 
Q 1825 3584 2144 3584 
Q 2481 3584 2739 3421 
Q 2997 3259 3138 2956 
L 3513 4863 
L 4091 4863 
L 3144 0 
L 2566 0 
L 2675 525 
z
M 891 1350 
Q 891 897 1095 644 
Q 1300 391 1663 391 
Q 1931 391 2161 520 
Q 2391 650 2566 903 
Q 2750 1166 2856 1509 
Q 2963 1853 2963 2188 
Q 2963 2622 2758 2865 
Q 2553 3109 2194 3109 
Q 1922 3109 1687 2981 
Q 1453 2853 1288 2613 
Q 1106 2353 998 2009 
Q 891 1666 891 1350 
z
" transform="scale(0.015625)"/>
      <path id="DejaVuSans-Oblique-20" transform="scale(0.015625)"/>
      <path id="DejaVuSans-Oblique-73" d="M 3200 3397 
L 3091 2853 
Q 2863 2978 2609 3040 
Q 2356 3103 2088 3103 
Q 1634 3103 1373 2948 
Q 1113 2794 1113 2528 
Q 1113 2219 1719 2053 
Q 1766 2041 1788 2034 
L 1972 1978 
Q 2547 1819 2739 1644 
Q 2931 1469 2931 1166 
Q 2931 609 2489 259 
Q 2047 -91 1331 -91 
Q 1053 -91 747 -37 
Q 441 16 72 128 
L 184 722 
Q 500 559 806 475 
Q 1113 391 1394 391 
Q 1816 391 2080 572 
Q 2344 753 2344 1031 
Q 2344 1331 1650 1516 
L 1591 1531 
L 1394 1581 
Q 956 1697 753 1886 
Q 550 2075 550 2369 
Q 550 2928 970 3256 
Q 1391 3584 2113 3584 
Q 2397 3584 2667 3537 
Q 2938 3491 3200 3397 
z
" transform="scale(0.015625)"/>
      <path id="DejaVuSans-Oblique-75" d="M 428 1388 
L 838 3500 
L 1416 3500 
L 1006 1409 
Q 975 1256 961 1147 
Q 947 1038 947 966 
Q 947 700 1109 554 
Q 1272 409 1569 409 
Q 2031 409 2368 721 
Q 2706 1034 2809 1563 
L 3194 3500 
L 3769 3500 
L 3091 0 
L 2516 0 
L 2631 550 
Q 2388 244 2052 76 
Q 1716 -91 1338 -91 
Q 878 -91 622 161 
Q 366 413 366 863 
Q 366 956 381 1097 
Q 397 1238 428 1388 
z
" transform="scale(0.015625)"/>
      <path id="DejaVuSans-Oblique-70" d="M 3175 2156 
Q 3175 2616 2975 2859 
Q 2775 3103 2400 3103 
Q 2144 3103 1911 2972 
Q 1678 2841 1497 2591 
Q 1319 2344 1212 1994 
Q 1106 1644 1106 1300 
Q 1106 863 1306 627 
Q 1506 391 1875 391 
Q 2147 391 2380 519 
Q 2613 647 2778 891 
Q 2956 1147 3065 1494 
Q 3175 1841 3175 2156 
z
M 1394 2969 
Q 1625 3272 1939 3428 
Q 2253 3584 2638 3584 
Q 3175 3584 3472 3232 
Q 3769 2881 3769 2247 
Q 3769 1728 3584 1258 
Q 3400 788 3053 416 
Q 2822 169 2531 39 
Q 2241 -91 1919 -91 
Q 1547 -91 1294 64 
Q 1041 219 916 525 
L 556 -1331 
L -19 -1331 
L 922 3500 
L 1497 3500 
L 1394 2969 
z
" transform="scale(0.015625)"/>
      <path id="DejaVuSans-Oblique-6f" d="M 1625 -91 
Q 1009 -91 651 289 
Q 294 669 294 1325 
Q 294 1706 417 2101 
Q 541 2497 738 2766 
Q 1047 3184 1428 3384 
Q 1809 3584 2291 3584 
Q 2888 3584 3255 3212 
Q 3622 2841 3622 2241 
Q 3622 1825 3500 1412 
Q 3378 1000 3181 728 
Q 2875 309 2494 109 
Q 2113 -91 1625 -91 
z
M 891 1344 
Q 891 869 1089 633 
Q 1288 397 1691 397 
Q 2269 397 2648 901 
Q 3028 1406 3028 2181 
Q 3028 2634 2825 2865 
Q 2622 3097 2228 3097 
Q 1903 3097 1650 2945 
Q 1397 2794 1197 2484 
Q 1050 2253 970 1956 
Q 891 1659 891 1344 
z
" transform="scale(0.015625)"/>
      <path id="DejaVuSans-Oblique-72" d="M 2853 2969 
Q 2766 3016 2653 3041 
Q 2541 3066 2413 3066 
Q 1953 3066 1609 2717 
Q 1266 2369 1153 1784 
L 800 0 
L 225 0 
L 909 3500 
L 1484 3500 
L 1375 2956 
Q 1603 3259 1920 3421 
Q 2238 3584 2597 3584 
Q 2691 3584 2781 3573 
Q 2872 3563 2963 3538 
L 2853 2969 
z
" transform="scale(0.015625)"/>
      <path id="DejaVuSans-Oblique-74" d="M 2706 3500 
L 2619 3053 
L 1472 3053 
L 1100 1153 
Q 1081 1047 1072 975 
Q 1063 903 1063 863 
Q 1063 663 1183 572 
Q 1303 481 1569 481 
L 2150 481 
L 2053 0 
L 1503 0 
Q 991 0 739 200 
Q 488 400 488 806 
Q 488 878 497 964 
Q 506 1050 525 1153 
L 897 3053 
L 409 3053 
L 500 3500 
L 978 3500 
L 1172 4494 
L 1747 4494 
L 1556 3500 
L 2706 3500 
z
" transform="scale(0.015625)"/>
     </defs>
     <use xlink:href="#DejaVuSans-Oblique-66"/>
     <use xlink:href="#DejaVuSans-Oblique-65" transform="translate(35.205078 0)"/>
     <use xlink:href="#DejaVuSans-Oblique-61" transform="translate(96.728516 0)"/>
     <use xlink:href="#DejaVuSans-Oblique-77" transform="translate(158.007812 0)"/>
     <use xlink:href="#DejaVuSans-Oblique-65" transform="translate(239.794922 0)"/>
     <use xlink:href="#DejaVuSans-Oblique-6c" transform="translate(301.318359 0)"/>
     <use xlink:href="#DejaVuSans-Oblique-64" transform="translate(329.101562 0)"/>
     <use xlink:href="#DejaVuSans-Oblique-20" transform="translate(392.578125 0)"/>
     <use xlink:href="#DejaVuSans-Oblique-73" transform="translate(424.365234 0)"/>
     <use xlink:href="#DejaVuSans-Oblique-75" transform="translate(476.464844 0)"/>
     <use xlink:href="#DejaVuSans-Oblique-70" transform="translate(539.84375 0)"/>
     <use xlink:href="#DejaVuSans-Oblique-70" transform="translate(603.320312 0)"/>
     <use xlink:href="#DejaVuSans-Oblique-6f" transform="translate(666.796875 0)"/>
     <use xlink:href="#DejaVuSans-Oblique-72" transform="translate(727.978516 0)"/>
     <use xlink:href="#DejaVuSans-Oblique-74" transform="translate(769.091797 0)"/>
     <use xlink:href="#DejaVuSans-Oblique-73" transform="translate(808.300781 0)"/>
    </g>
    <!-- 5 parametric -->
    <g style="fill: #7f8c8d" transform="translate(794.125312 483.335956) scale(0.12 -0.12)">
     <defs>
      <path id="DejaVuSans-Oblique-35" d="M 3719 4666 
L 3622 4141 
L 1691 4141 
L 1466 2988 
Q 1609 3034 1757 3056 
Q 1906 3078 2059 3078 
Q 2706 3078 3081 2731 
Q 3456 2384 3456 1791 
Q 3456 1375 3264 994 
Q 3072 613 2719 325 
Q 2469 125 2108 17 
Q 1747 -91 1319 -91 
Q 1038 -91 744 -41 
Q 450 9 128 109 
L 244 697 
Q 531 556 820 486 
Q 1109 416 1403 416 
Q 2013 416 2411 781 
Q 2809 1147 2809 1697 
Q 2809 2103 2548 2328 
Q 2288 2553 1819 2553 
Q 1572 2553 1305 2495 
Q 1038 2438 756 2322 
L 1209 4666 
L 3719 4666 
z
" transform="scale(0.015625)"/>
      <path id="DejaVuSans-Oblique-6d" d="M 5747 2113 
L 5338 0 
L 4763 0 
L 5166 2094 
Q 5191 2228 5203 2325 
Q 5216 2422 5216 2491 
Q 5216 2772 5059 2928 
Q 4903 3084 4622 3084 
Q 4203 3084 3875 2770 
Q 3547 2456 3450 1953 
L 3066 0 
L 2491 0 
L 2900 2094 
Q 2925 2209 2937 2307 
Q 2950 2406 2950 2484 
Q 2950 2769 2794 2926 
Q 2638 3084 2363 3084 
Q 1938 3084 1609 2770 
Q 1281 2456 1184 1953 
L 800 0 
L 225 0 
L 909 3500 
L 1484 3500 
L 1375 2956 
Q 1609 3263 1923 3423 
Q 2238 3584 2597 3584 
Q 2978 3584 3223 3384 
Q 3469 3184 3519 2828 
Q 3781 3197 4126 3390 
Q 4472 3584 4856 3584 
Q 5306 3584 5551 3325 
Q 5797 3066 5797 2591 
Q 5797 2488 5784 2364 
Q 5772 2241 5747 2113 
z
" transform="scale(0.015625)"/>
      <path id="DejaVuSans-Oblique-69" d="M 1172 4863 
L 1747 4863 
L 1606 4134 
L 1031 4134 
L 1172 4863 
z
M 909 3500 
L 1484 3500 
L 800 0 
L 225 0 
L 909 3500 
z
" transform="scale(0.015625)"/>
      <path id="DejaVuSans-Oblique-63" d="M 3431 3366 
L 3316 2797 
Q 3109 2947 2876 3022 
Q 2644 3097 2394 3097 
Q 2119 3097 1870 3000 
Q 1622 2903 1453 2725 
Q 1184 2453 1037 2087 
Q 891 1722 891 1331 
Q 891 859 1127 628 
Q 1363 397 1844 397 
Q 2081 397 2348 469 
Q 2616 541 2906 684 
L 2797 116 
Q 2547 13 2283 -39 
Q 2019 -91 1741 -91 
Q 1044 -91 669 257 
Q 294 606 294 1253 
Q 294 1797 489 2255 
Q 684 2713 1069 3078 
Q 1331 3328 1684 3456 
Q 2038 3584 2456 3584 
Q 2700 3584 2940 3529 
Q 3181 3475 3431 3366 
z
" transform="scale(0.015625)"/>
     </defs>
     <use xlink:href="#DejaVuSans-Oblique-35"/>
     <use xlink:href="#DejaVuSans-Oblique-20" transform="translate(63.623047 0)"/>
     <use xlink:href="#DejaVuSans-Oblique-70" transform="translate(95.410156 0)"/>
     <use xlink:href="#DejaVuSans-Oblique-61" transform="translate(158.886719 0)"/>
     <use xlink:href="#DejaVuSans-Oblique-72" transform="translate(220.166016 0)"/>
     <use xlink:href="#DejaVuSans-Oblique-61" transform="translate(261.279297 0)"/>
     <use xlink:href="#DejaVuSans-Oblique-6d" transform="translate(322.558594 0)"/>
     <use xlink:href="#DejaVuSans-Oblique-65" transform="translate(419.970703 0)"/>
     <use xlink:href="#DejaVuSans-Oblique-74" transform="translate(481.494141 0)"/>
     <use xlink:href="#DejaVuSans-Oblique-72" transform="translate(520.703125 0)"/>
     <use xlink:href="#DejaVuSans-Oblique-69" transform="translate(561.816406 0)"/>
     <use xlink:href="#DejaVuSans-Oblique-63" transform="translate(589.599609 0)"/>
    </g>
    <!-- joint types -->
    <g style="fill: #7f8c8d" transform="translate(801.203437 496.773331) scale(0.12 -0.12)">
     <defs>
      <path id="DejaVuSans-Oblique-6a" d="M 928 3500 
L 1503 3500 
L 813 -63 
L 809 -78 
Q 694 -675 544 -897 
Q 403 -1106 132 -1218 
Q -138 -1331 -506 -1331 
L -722 -1331 
L -628 -844 
L -481 -844 
Q -144 -844 -1 -703 
Q 141 -563 238 -63 
L 928 3500 
z
M 1197 4863 
L 1772 4863 
L 1631 4134 
L 1056 4134 
L 1197 4863 
z
" transform="scale(0.015625)"/>
      <path id="DejaVuSans-Oblique-6e" d="M 3566 2113 
L 3156 0 
L 2578 0 
L 2988 2091 
Q 3016 2238 3031 2350 
Q 3047 2463 3047 2528 
Q 3047 2791 2881 2937 
Q 2716 3084 2419 3084 
Q 1956 3084 1622 2776 
Q 1288 2469 1184 1941 
L 800 0 
L 225 0 
L 903 3500 
L 1478 3500 
L 1363 2950 
Q 1603 3253 1940 3418 
Q 2278 3584 2650 3584 
Q 3113 3584 3367 3334 
Q 3622 3084 3622 2631 
Q 3622 2519 3608 2391 
Q 3594 2263 3566 2113 
z
" transform="scale(0.015625)"/>
      <path id="DejaVuSans-Oblique-79" d="M 1588 -325 
Q 1188 -997 936 -1164 
Q 684 -1331 294 -1331 
L -159 -1331 
L -63 -850 
L 269 -850 
Q 509 -850 678 -719 
Q 847 -588 1056 -206 
L 1234 128 
L 459 3500 
L 1069 3500 
L 1650 819 
L 3256 3500 
L 3859 3500 
L 1588 -325 
z
" transform="scale(0.015625)"/>
     </defs>
     <use xlink:href="#DejaVuSans-Oblique-6a"/>
     <use xlink:href="#DejaVuSans-Oblique-6f" transform="translate(27.783203 0)"/>
     <use xlink:href="#DejaVuSans-Oblique-69" transform="translate(88.964844 0)"/>
     <use xlink:href="#DejaVuSans-Oblique-6e" transform="translate(116.748047 0)"/>
     <use xlink:href="#DejaVuSans-Oblique-74" transform="translate(180.126953 0)"/>
     <use xlink:href="#DejaVuSans-Oblique-20" transform="translate(219.335938 0)"/>
     <use xlink:href="#DejaVuSans-Oblique-74" transform="translate(251.123047 0)"/>
     <use xlink:href="#DejaVuSans-Oblique-79" transform="translate(290.332031 0)"/>
     <use xlink:href="#DejaVuSans-Oblique-70" transform="translate(349.511719 0)"/>
     <use xlink:href="#DejaVuSans-Oblique-65" transform="translate(412.988281 0)"/>
     <use xlink:href="#DejaVuSans-Oblique-73" transform="translate(474.511719 0)"/>
    </g>
   </g>
  </g>
  <g id="text_10">
   <!-- Parametric Weld Joint Types -->
   <g transform="translate(373.83375 19.3575) scale(0.16 -0.16)">
    <defs>
     <path id="DejaVuSans-Bold-50" d="M 588 4666 
L 2584 4666 
Q 3475 4666 3951 4270 
Q 4428 3875 4428 3144 
Q 4428 2409 3951 2014 
Q 3475 1619 2584 1619 
L 1791 1619 
L 1791 0 
L 588 0 
L 588 4666 
z
M 1791 3794 
L 1791 2491 
L 2456 2491 
Q 2806 2491 2997 2661 
Q 3188 2831 3188 3144 
Q 3188 3456 2997 3625 
Q 2806 3794 2456 3794 
L 1791 3794 
z
" transform="scale(0.015625)"/>
     <path id="DejaVuSans-Bold-79" d="M 78 3500 
L 1197 3500 
L 2138 1125 
L 2938 3500 
L 4056 3500 
L 2584 -331 
Q 2363 -916 2067 -1148 
Q 1772 -1381 1288 -1381 
L 641 -1381 
L 641 -647 
L 991 -647 
Q 1275 -647 1404 -556 
Q 1534 -466 1606 -231 
L 1638 -134 
L 78 3500 
z
" transform="scale(0.015625)"/>
     <path id="DejaVuSans-Bold-73" d="M 3272 3391 
L 3272 2541 
Q 2913 2691 2578 2766 
Q 2244 2841 1947 2841 
Q 1628 2841 1473 2761 
Q 1319 2681 1319 2516 
Q 1319 2381 1436 2309 
Q 1553 2238 1856 2203 
L 2053 2175 
Q 2913 2066 3209 1816 
Q 3506 1566 3506 1031 
Q 3506 472 3093 190 
Q 2681 -91 1863 -91 
Q 1516 -91 1145 -36 
Q 775 19 384 128 
L 384 978 
Q 719 816 1070 734 
Q 1422 653 1784 653 
Q 2113 653 2278 743 
Q 2444 834 2444 1013 
Q 2444 1163 2330 1236 
Q 2216 1309 1875 1350 
L 1678 1375 
Q 931 1469 631 1722 
Q 331 1975 331 2491 
Q 331 3047 712 3315 
Q 1094 3584 1881 3584 
Q 2191 3584 2531 3537 
Q 2872 3491 3272 3391 
z
" transform="scale(0.015625)"/>
    </defs>
    <use xlink:href="#DejaVuSans-Bold-50"/>
    <use xlink:href="#DejaVuSans-Bold-61" transform="translate(70.666016 0)"/>
    <use xlink:href="#DejaVuSans-Bold-72" transform="translate(138.146484 0)"/>
    <use xlink:href="#DejaVuSans-Bold-61" transform="translate(187.462891 0)"/>
    <use xlink:href="#DejaVuSans-Bold-6d" transform="translate(254.943359 0)"/>
    <use xlink:href="#DejaVuSans-Bold-65" transform="translate(359.142578 0)"/>
    <use xlink:href="#DejaVuSans-Bold-74" transform="translate(426.964844 0)"/>
    <use xlink:href="#DejaVuSans-Bold-72" transform="translate(474.767578 0)"/>
    <use xlink:href="#DejaVuSans-Bold-69" transform="translate(524.083984 0)"/>
    <use xlink:href="#DejaVuSans-Bold-63" transform="translate(558.361328 0)"/>
    <use xlink:href="#DejaVuSans-Bold-20" transform="translate(617.638672 0)"/>
    <use xlink:href="#DejaVuSans-Bold-57" transform="translate(652.453125 0)"/>
    <use xlink:href="#DejaVuSans-Bold-65" transform="translate(759.130859 0)"/>
    <use xlink:href="#DejaVuSans-Bold-6c" transform="translate(826.953125 0)"/>
    <use xlink:href="#DejaVuSans-Bold-64" transform="translate(861.230469 0)"/>
    <use xlink:href="#DejaVuSans-Bold-20" transform="translate(932.8125 0)"/>
    <use xlink:href="#DejaVuSans-Bold-4a" transform="translate(967.626953 0)"/>
    <use xlink:href="#DejaVuSans-Bold-6f" transform="translate(1004.833984 0)"/>
    <use xlink:href="#DejaVuSans-Bold-69" transform="translate(1073.535156 0)"/>
    <use xlink:href="#DejaVuSans-Bold-6e" transform="translate(1107.8125 0)"/>
    <use xlink:href="#DejaVuSans-Bold-74" transform="translate(1179.003906 0)"/>
    <use xlink:href="#DejaVuSans-Bold-20" transform="translate(1226.806641 0)"/>
    <use xlink:href="#DejaVuSans-Bold-54" transform="translate(1261.621094 0)"/>
    <use xlink:href="#DejaVuSans-Bold-79" transform="translate(1317.958984 0)"/>
    <use xlink:href="#DejaVuSans-Bold-70" transform="translate(1383.144531 0)"/>
    <use xlink:href="#DejaVuSans-Bold-65" transform="translate(1454.726562 0)"/>
    <use xlink:href="#DejaVuSans-Bold-73" transform="translate(1522.548828 0)"/>
   </g>
  </g>
 </g>
 <defs>
  <clipPath id="pc596539cbd">
   <rect x="7.2" y="66.798151" width="321.6" height="229.714286"/>
  </clipPath>
  <clipPath id="p4ad933fde7">
   <rect x="339.6" y="128.821008" width="321.6" height="105.668571"/>
  </clipPath>
  <clipPath id="p69cbb96cc0">
   <rect x="672" y="112.741008" width="321.6" height="137.828571"/>
  </clipPath>
  <clipPath id="pb57538402b">
   <rect x="16.584706" y="328.609412" width="302.830588" height="302.830588"/>
  </clipPath>
  <clipPath id="pf60eacff7d">
   <rect x="348.984706" y="328.609412" width="302.830588" height="302.830588"/>
  </clipPath>
 </defs>
 <defs>
  <pattern id="hb50601d6dd" patternUnits="userSpaceOnUse" x="0" y="0" width="72" height="72">
   <rect x="0" y="0" width="73" height="73" fill="#bdc3c7"/>
   <path d="M -36 36 
L 36 -36 
M -30 42 
L 42 -30 
M -24 48 
L 48 -24 
M -18 54 
L 54 -18 
M -12 60 
L 60 -12 
M -6 66 
L 66 -6 
M 0 72 
L 72 0 
M 6 78 
L 78 6 
M 12 84 
L 84 12 
M 18 90 
L 90 18 
M 24 96 
L 96 24 
M 30 102 
L 102 30 
M 36 108 
L 108 36 
" style="fill: #1a5276; stroke: #1a5276; stroke-width: 1.0; stroke-linecap: butt; stroke-linejoin: miter"/>
  </pattern>
 </defs>
</svg>
