<?xml version="1.0" encoding="utf-8" standalone="no"?>
<!DOCTYPE svg PUBLIC "-//W3C//DTD SVG 1.1//EN"
  "http://www.w3.org/Graphics/SVG/1.1/DTD/svg11.dtd">
<svg xmlns:xlink="http://www.w3.org/1999/xlink" width="568.8pt" height="396.971493pt" viewBox="0 0 568.8 396.971493" xmlns="http://www.w3.org/2000/svg" version="1.1">
 <metadata>
  <rdf:RDF xmlns:dc="http://purl.org/dc/elements/1.1/" xmlns:cc="http://creativecommons.org/ns#" xmlns:rdf="http://www.w3.org/1999/02/22-rdf-syntax-ns#">
   <cc:Work>
    <dc:type rdf:resource="http://purl.org/dc/dcmitype/StillImage"/>
    <dc:date>2026-04-05T18:16:38.568088</dc:date>
    <dc:format>image/svg+xml</dc:format>
    <dc:creator>
     <cc:Agent>
      <dc:title>Matplotlib v3.10.8, https://matplotlib.org/</dc:title>
     </cc:Agent>
    </dc:creator>
   </cc:Work>
  </rdf:RDF>
 </metadata>
 <defs>
  <style type="text/css">*{stroke-linejoin: round; stroke-linecap: butt}</style>
 </defs>
 <g id="figure_1">
  <g id="patch_1">
   <path d="M 0 396.971493 
L 568.8 396.971493 
L 568.8 0 
L 0 0 
z
" style="fill: #fafafa"/>
  </g>
  <g id="axes_1">
   <g id="patch_2">
    <path d="M 7.2 389.771493 
L 561.6 389.771493 
L 561.6 39.624125 
L 7.2 39.624125 
z
" style="fill: #ffffff"/>
   </g>
   <g id="patch_3">
    <path d="M 474.063158 164.15839 
L 386.526316 214.697809 
L 36.378947 214.697809 
L 36.378947 68.803072 
L 474.063158 68.803072 
z
" clip-path="url(#pa43c77fa64)" style="fill: #dfe6e9; stroke: #7f8c8d; stroke-width: 1.5; stroke-linejoin: miter"/>
   </g>
   <g id="patch_4">
    <path d="M 474.063158 265.237229 
L 386.526316 214.697809 
L 36.378947 214.697809 
L 36.378947 360.592546 
L 474.063158 360.592546 
z
" clip-path="url(#pa43c77fa64)" style="fill: #dfe6e9; stroke: #7f8c8d; stroke-width: 1.5; stroke-linejoin: miter"/>
   </g>
   <g id="matplotlib.axis_1"/>
   <g id="matplotlib.axis_2"/>
   <g id="line2d_1">
    <path d="M 459.473684 214.697809 
L 459.326818 210.071201 
L 458.886809 205.463223 
L 458.15543 200.892429 
L 457.135626 196.377224 
L 455.831504 191.93579 
L 454.248313 187.586011 
L 452.392431 183.345401 
L 450.271328 179.231037 
L 447.893547 175.259484 
L 445.268662 171.446736 
L 442.407242 167.808145 
L 439.320809 164.358361 
L 436.021792 161.111277 
L 432.523474 158.079967 
L 428.839941 155.276637 
L 424.986026 152.712575 
L 420.977248 150.398106 
L 416.829748 148.342549 
L 412.560226 146.554181 
L 408.185876 145.040204 
L 403.72431 143.806713 
L 399.193493 142.858675 
L 394.611671 142.199909 
L 389.997291 141.833065 
L 385.368935 141.759623 
L 380.74524 141.979877 
L 376.144823 142.49294 
L 371.586208 143.296747 
L 367.087752 144.38806 
L 362.667569 145.762486 
L 358.343456 147.414491 
L 354.132825 149.337421 
L 350.052632 151.523535 
L 346.119305 153.964029 
L 342.348683 156.649077 
L 338.755949 159.567867 
L 335.355569 162.708645 
L 332.161235 166.058765 
L 329.185811 169.604738 
L 326.441277 173.332284 
L 323.938684 177.226395 
L 321.688109 181.27139 
L 319.698615 185.450982 
L 317.978212 189.74834 
L 316.533828 194.146161 
L 315.37128 198.626736 
L 314.495247 203.172023 
L 313.909259 207.763721 
L 313.615673 212.38334 
L 313.615673 217.012278 
L 313.909259 221.631897 
L 314.495247 226.223595 
L 315.37128 230.768883 
L 316.533828 235.249458 
L 317.978212 239.647279 
L 319.698615 243.944637 
L 321.688109 248.124228 
L 323.938684 252.169223 
L 326.441277 256.063334 
L 329.185811 259.790881 
L 332.161235 263.336853 
L 335.355569 266.686974 
L 338.755949 269.827752 
L 342.348683 272.746541 
L 346.119305 275.431589 
L 350.052632 277.872083 
L 354.132825 280.058197 
L 358.343456 281.981128 
L 362.667569 283.633132 
L 367.087752 285.007558 
L 371.586208 286.098872 
L 376.144823 286.902679 
L 380.74524 287.415742 
L 385.368935 287.635996 
L 389.997291 287.562553 
L 394.611671 287.19571 
L 399.193493 286.536943 
L 403.72431 285.588906 
L 408.185876 284.355415 
L 412.560226 282.841437 
L 416.829748 281.05307 
L 420.977248 278.997512 
L 424.986026 276.683043 
L 428.839941 274.118981 
L 432.523474 271.315651 
L 436.021792 268.284341 
L 439.320809 265.037257 
L 442.407242 261.587474 
L 445.268662 257.948882 
L 447.893547 254.136134 
L 450.271328 250.164582 
L 452.392431 246.050217 
L 454.248313 241.809607 
L 455.831504 237.459828 
L 457.135626 233.018394 
L 458.15543 228.503189 
L 458.886809 223.932396 
L 459.326818 219.324417 
L 459.473684 214.697809 
" clip-path="url(#pa43c77fa64)" style="fill: none; stroke-dasharray: 9.25,4; stroke-dashoffset: 0; stroke: #2980b9; stroke-width: 2.5"/>
   </g>
   <g id="patch_5">
    <path d="M 386.526316 273.055704 
C 402.00301 273.055704 416.847903 266.906748 427.791579 255.963072 
C 438.735255 245.019397 444.884211 230.174504 444.884211 214.697809 
C 444.884211 199.221115 438.735255 184.376222 427.791579 173.432546 
C 416.847903 162.48887 402.00301 156.339914 386.526316 156.339914 
C 371.049621 156.339914 356.204728 162.48887 345.261053 173.432546 
C 334.317377 184.376222 328.168421 199.221115 328.168421 214.697809 
C 328.168421 230.174504 334.317377 245.019397 345.261053 255.963072 
C 356.204728 266.906748 371.049621 273.055704 386.526316 273.055704 
z
" clip-path="url(#pa43c77fa64)" style="fill: #e74c3c; opacity: 0.104; stroke: #e74c3c; stroke-linejoin: miter"/>
   </g>
   <g id="patch_6">
    <path d="M 386.526316 258.46623 
C 398.133837 258.46623 409.267506 253.854513 417.475263 245.646757 
C 425.68302 237.439 430.294737 226.30533 430.294737 214.697809 
C 430.294737 203.090288 425.68302 191.956619 417.475263 183.748862 
C 409.267506 175.541105 398.133837 170.929388 386.526316 170.929388 
C 374.918795 170.929388 363.785125 175.541105 355.577368 183.748862 
C 347.369612 191.956619 342.757895 203.090288 342.757895 214.697809 
C 342.757895 226.30533 347.369612 237.439 355.577368 245.646757 
C 363.785125 253.854513 374.918795 258.46623 386.526316 258.46623 
z
" clip-path="url(#pa43c77fa64)" style="fill: #e74c3c; opacity: 0.128; stroke: #e74c3c; stroke-linejoin: miter"/>
   </g>
   <g id="patch_7">
    <path d="M 386.526316 243.876757 
C 394.264663 243.876757 401.687109 240.802279 407.158947 235.330441 
C 412.630785 229.858603 415.705263 222.436157 415.705263 214.697809 
C 415.705263 206.959462 412.630785 199.537016 407.158947 194.065178 
C 401.687109 188.59334 394.264663 185.518862 386.526316 185.518862 
C 378.787968 185.518862 371.365522 188.59334 365.893684 194.065178 
C 360.421846 199.537016 357.347368 206.959462 357.347368 214.697809 
C 357.347368 222.436157 360.421846 229.858603 365.893684 235.330441 
C 371.365522 240.802279 378.787968 243.876757 386.526316 243.876757 
z
" clip-path="url(#pa43c77fa64)" style="fill: #e74c3c; opacity: 0.152; stroke: #e74c3c; stroke-linejoin: miter"/>
   </g>
   <g id="patch_8">
    <path d="M 386.526316 229.287283 
C 390.395489 229.287283 394.106713 227.750044 396.842632 225.014125 
C 399.57855 222.278206 401.115789 218.566983 401.115789 214.697809 
C 401.115789 210.828636 399.57855 207.117412 396.842632 204.381493 
C 394.106713 201.645575 390.395489 200.108336 386.526316 200.108336 
C 382.657142 200.108336 378.945919 201.645575 376.21 204.381493 
C 373.474081 207.117412 371.936842 210.828636 371.936842 214.697809 
C 371.936842 218.566983 373.474081 222.278206 376.21 225.014125 
C 378.945919 227.750044 382.657142 229.287283 386.526316 229.287283 
z
" clip-path="url(#pa43c77fa64)" style="fill: #e74c3c; opacity: 0.176; stroke: #e74c3c; stroke-linejoin: miter"/>
   </g>
   <g id="patch_9">
    <path d="M 7.2 389.771493 
L 7.2 39.624125 
" style="fill: none; stroke: #000000; stroke-width: 0.8; stroke-linejoin: miter; stroke-linecap: square"/>
   </g>
   <g id="patch_10">
    <path d="M 561.6 389.771493 
L 561.6 39.624125 
" style="fill: none; stroke: #000000; stroke-width: 0.8; stroke-linejoin: miter; stroke-linecap: square"/>
   </g>
   <g id="patch_11">
    <path d="M 7.2 389.771493 
L 561.6 389.771493 
" style="fill: none; stroke: #000000; stroke-width: 0.8; stroke-linejoin: miter; stroke-linecap: square"/>
   </g>
   <g id="patch_12">
    <path d="M 7.2 39.624125 
L 561.6 39.624125 
" style="fill: none; stroke: #000000; stroke-width: 0.8; stroke-linejoin: miter; stroke-linecap: square"/>
   </g>
   <g id="patch_13">
    <path d="M 390.202474 214.697809 
Q 423.001411 214.697809 455.800347 214.697809 
" style="fill: none; stroke: #2980b9; stroke-width: 1.5; stroke-linecap: round"/>
    <path d="M 394.202474 216.697809 
L 390.202474 214.697809 
L 394.202474 212.697809 
" style="fill: none; stroke: #2980b9; stroke-width: 1.5; stroke-linecap: round"/>
    <path d="M 451.800347 212.697809 
L 455.800347 214.697809 
L 451.800347 216.697809 
" style="fill: none; stroke: #2980b9; stroke-width: 1.5; stroke-linecap: round"/>
   </g>
   <g id="text_1">
    <!-- $R_0$ -->
    <g style="fill: #2980b9" transform="translate(415.98 203.02623) scale(0.12 -0.12)">
     <defs>
      <path id="DejaVuSans-Oblique-52" d="M 1613 4147 
L 1294 2491 
L 2106 2491 
Q 2584 2491 2879 2755 
Q 3175 3019 3175 3444 
Q 3175 3784 2976 3965 
Q 2778 4147 2406 4147 
L 1613 4147 
z
M 2772 2241 
Q 2972 2194 3105 2009 
Q 3238 1825 3413 1275 
L 3809 0 
L 3144 0 
L 2778 1197 
Q 2638 1659 2453 1815 
Q 2269 1972 1888 1972 
L 1191 1972 
L 806 0 
L 172 0 
L 1081 4666 
L 2503 4666 
Q 3150 4666 3495 4373 
Q 3841 4081 3841 3531 
Q 3841 3044 3547 2687 
Q 3253 2331 2772 2241 
z
" transform="scale(0.015625)"/>
      <path id="DejaVuSans-30" d="M 2034 4250 
Q 1547 4250 1301 3770 
Q 1056 3291 1056 2328 
Q 1056 1369 1301 889 
Q 1547 409 2034 409 
Q 2525 409 2770 889 
Q 3016 1369 3016 2328 
Q 3016 3291 2770 3770 
Q 2525 4250 2034 4250 
z
M 2034 4750 
Q 2819 4750 3233 4129 
Q 3647 3509 3647 2328 
Q 3647 1150 3233 529 
Q 2819 -91 2034 -91 
Q 1250 -91 836 529 
Q 422 1150 422 2328 
Q 422 3509 836 4129 
Q 1250 4750 2034 4750 
z
" transform="scale(0.015625)"/>
     </defs>
     <use xlink:href="#DejaVuSans-Oblique-52" transform="translate(0 0.09375)"/>
     <use xlink:href="#DejaVuSans-30" transform="translate(69.482422 -16.3125) scale(0.7)"/>
    </g>
   </g>
   <g id="text_2">
    <!-- Notch tip -->
    <g style="fill: #555555" transform="translate(395.28 232.205178) scale(0.08 -0.08)">
     <defs>
      <path id="DejaVuSans-4e" d="M 628 4666 
L 1478 4666 
L 3547 763 
L 3547 4666 
L 4159 4666 
L 4159 0 
L 3309 0 
L 1241 3903 
L 1241 0 
L 628 0 
L 628 4666 
z
" transform="scale(0.015625)"/>
      <path id="DejaVuSans-6f" d="M 1959 3097 
Q 1497 3097 1228 2736 
Q 959 2375 959 1747 
Q 959 1119 1226 758 
Q 1494 397 1959 397 
Q 2419 397 2687 759 
Q 2956 1122 2956 1747 
Q 2956 2369 2687 2733 
Q 2419 3097 1959 3097 
z
M 1959 3584 
Q 2709 3584 3137 3096 
Q 3566 2609 3566 1747 
Q 3566 888 3137 398 
Q 2709 -91 1959 -91 
Q 1206 -91 779 398 
Q 353 888 353 1747 
Q 353 2609 779 3096 
Q 1206 3584 1959 3584 
z
" transform="scale(0.015625)"/>
      <path id="DejaVuSans-74" d="M 1172 4494 
L 1172 3500 
L 2356 3500 
L 2356 3053 
L 1172 3053 
L 1172 1153 
Q 1172 725 1289 603 
Q 1406 481 1766 481 
L 2356 481 
L 2356 0 
L 1766 0 
Q 1100 0 847 248 
Q 594 497 594 1153 
L 594 3053 
L 172 3053 
L 172 3500 
L 594 3500 
L 594 4494 
L 1172 4494 
z
" transform="scale(0.015625)"/>
      <path id="DejaVuSans-63" d="M 3122 3366 
L 3122 2828 
Q 2878 2963 2633 3030 
Q 2388 3097 2138 3097 
Q 1578 3097 1268 2742 
Q 959 2388 959 1747 
Q 959 1106 1268 751 
Q 1578 397 2138 397 
Q 2388 397 2633 464 
Q 2878 531 3122 666 
L 3122 134 
Q 2881 22 2623 -34 
Q 2366 -91 2075 -91 
Q 1284 -91 818 406 
Q 353 903 353 1747 
Q 353 2603 823 3093 
Q 1294 3584 2113 3584 
Q 2378 3584 2631 3529 
Q 2884 3475 3122 3366 
z
" transform="scale(0.015625)"/>
      <path id="DejaVuSans-68" d="M 3513 2113 
L 3513 0 
L 2938 0 
L 2938 2094 
Q 2938 2591 2744 2837 
Q 2550 3084 2163 3084 
Q 1697 3084 1428 2787 
Q 1159 2491 1159 1978 
L 1159 0 
L 581 0 
L 581 4863 
L 1159 4863 
L 1159 2956 
Q 1366 3272 1645 3428 
Q 1925 3584 2291 3584 
Q 2894 3584 3203 3211 
Q 3513 2838 3513 2113 
z
" transform="scale(0.015625)"/>
      <path id="DejaVuSans-20" transform="scale(0.015625)"/>
      <path id="DejaVuSans-69" d="M 603 3500 
L 1178 3500 
L 1178 0 
L 603 0 
L 603 3500 
z
M 603 4863 
L 1178 4863 
L 1178 4134 
L 603 4134 
L 603 4863 
z
" transform="scale(0.015625)"/>
      <path id="DejaVuSans-70" d="M 1159 525 
L 1159 -1331 
L 581 -1331 
L 581 3500 
L 1159 3500 
L 1159 2969 
Q 1341 3281 1617 3432 
Q 1894 3584 2278 3584 
Q 2916 3584 3314 3078 
Q 3713 2572 3713 1747 
Q 3713 922 3314 415 
Q 2916 -91 2278 -91 
Q 1894 -91 1617 61 
Q 1341 213 1159 525 
z
M 3116 1747 
Q 3116 2381 2855 2742 
Q 2594 3103 2138 3103 
Q 1681 3103 1420 2742 
Q 1159 2381 1159 1747 
Q 1159 1113 1420 752 
Q 1681 391 2138 391 
Q 2594 391 2855 752 
Q 3116 1113 3116 1747 
z
" transform="scale(0.015625)"/>
     </defs>
     <use xlink:href="#DejaVuSans-4e"/>
     <use xlink:href="#DejaVuSans-6f" transform="translate(74.804688 0)"/>
     <use xlink:href="#DejaVuSans-74" transform="translate(135.986328 0)"/>
     <use xlink:href="#DejaVuSans-63" transform="translate(175.195312 0)"/>
     <use xlink:href="#DejaVuSans-68" transform="translate(230.175781 0)"/>
     <use xlink:href="#DejaVuSans-20" transform="translate(293.554688 0)"/>
     <use xlink:href="#DejaVuSans-74" transform="translate(325.341797 0)"/>
     <use xlink:href="#DejaVuSans-69" transform="translate(364.550781 0)"/>
     <use xlink:href="#DejaVuSans-70" transform="translate(392.333984 0)"/>
    </g>
   </g>
   <g id="text_3">
    <g id="patch_14">
     <path d="M 459.702 386.368546 
L 550.512 386.368546 
Q 554.112 386.368546 554.112 382.768546 
L 554.112 332.986171 
Q 554.112 329.386171 550.512 329.386171 
L 459.702 329.386171 
Q 456.102 329.386171 456.102 332.986171 
L 456.102 382.768546 
Q 456.102 386.368546 459.702 386.368546 
z
" style="fill: #eaf2f8; opacity: 0.95; stroke: #bdc3c7; stroke-linejoin: miter"/>
    </g>
    <!-- $\bar{W} = \frac{1}{V_c} \int_{V_c} W \, dV$ -->
    <g transform="translate(486.882 346.684452) scale(0.09 -0.09)">
     <defs>
      <path id="DejaVuSans-304" d="M -2518 4769 
L -650 4769 
L -650 4306 
L -2518 4306 
L -2518 4769 
z
" transform="scale(0.015625)"/>
      <path id="DejaVuSans-Oblique-57" d="M 616 4666 
L 1228 4666 
L 1453 697 
L 3213 4666 
L 3916 4666 
L 4147 697 
L 5888 4666 
L 6528 4666 
L 4453 0 
L 3659 0 
L 3444 3891 
L 1697 0 
L 903 0 
L 616 4666 
z
" transform="scale(0.015625)"/>
      <path id="DejaVuSans-3d" d="M 678 2906 
L 4684 2906 
L 4684 2381 
L 678 2381 
L 678 2906 
z
M 678 1631 
L 4684 1631 
L 4684 1100 
L 678 1100 
L 678 1631 
z
" transform="scale(0.015625)"/>
      <path id="DejaVuSans-31" d="M 794 531 
L 1825 531 
L 1825 4091 
L 703 3866 
L 703 4441 
L 1819 4666 
L 2450 4666 
L 2450 531 
L 3481 531 
L 3481 0 
L 794 0 
L 794 531 
z
" transform="scale(0.015625)"/>
      <path id="DejaVuSans-Oblique-56" d="M 1319 0 
L 500 4666 
L 1119 4666 
L 1797 653 
L 4063 4666 
L 4750 4666 
L 2053 0 
L 1319 0 
z
" transform="scale(0.015625)"/>
      <path id="DejaVuSans-Oblique-63" d="M 3431 3366 
L 3316 2797 
Q 3109 2947 2876 3022 
Q 2644 3097 2394 3097 
Q 2119 3097 1870 3000 
Q 1622 2903 1453 2725 
Q 1184 2453 1037 2087 
Q 891 1722 891 1331 
Q 891 859 1127 628 
Q 1363 397 1844 397 
Q 2081 397 2348 469 
Q 2616 541 2906 684 
L 2797 116 
Q 2547 13 2283 -39 
Q 2019 -91 1741 -91 
Q 1044 -91 669 257 
Q 294 606 294 1253 
Q 294 1797 489 2255 
Q 684 2713 1069 3078 
Q 1331 3328 1684 3456 
Q 2038 3584 2456 3584 
Q 2700 3584 2940 3529 
Q 3181 3475 3431 3366 
z
" transform="scale(0.015625)"/>
      <path id="DejaVuSansDisplay-222b" d="M 2134 5525 
Q 2172 6263 2528 6556 
Q 2884 6850 3218 6850 
Q 3553 6850 3833 6575 
Q 4113 6300 4200 5678 
L 3544 5613 
Q 3469 6188 3219 6188 
Q 2906 6188 2869 5413 
L 2581 -597 
Q 2547 -1334 2187 -1628 
Q 1828 -1922 1497 -1922 
Q 1163 -1922 883 -1647 
Q 603 -1372 516 -750 
L 1172 -684 
Q 1247 -1259 1497 -1259 
Q 1809 -1259 1847 -488 
L 2134 5525 
z
" transform="scale(0.015625)"/>
      <path id="DejaVuSans-Oblique-64" d="M 2675 525 
Q 2444 222 2128 65 
Q 1813 -91 1428 -91 
Q 903 -91 598 267 
Q 294 625 294 1247 
Q 294 1766 478 2236 
Q 663 2706 1013 3078 
Q 1244 3325 1534 3454 
Q 1825 3584 2144 3584 
Q 2481 3584 2739 3421 
Q 2997 3259 3138 2956 
L 3513 4863 
L 4091 4863 
L 3144 0 
L 2566 0 
L 2675 525 
z
M 891 1350 
Q 891 897 1095 644 
Q 1300 391 1663 391 
Q 1931 391 2161 520 
Q 2391 650 2566 903 
Q 2750 1166 2856 1509 
Q 2963 1853 2963 2188 
Q 2963 2622 2758 2865 
Q 2553 3109 2194 3109 
Q 1922 3109 1687 2981 
Q 1453 2853 1288 2613 
Q 1106 2353 998 2009 
Q 891 1666 891 1350 
z
" transform="scale(0.015625)"/>
     </defs>
     <use xlink:href="#DejaVuSans-304" transform="translate(86.062988 19.09375)"/>
     <use xlink:href="#DejaVuSans-Oblique-57" transform="translate(0 0.96875)"/>
     <use xlink:href="#DejaVuSans-3d" transform="translate(118.359375 0.96875)"/>
     <use xlink:href="#DejaVuSans-31" transform="translate(237.630859 44.765625) scale(0.7)"/>
     <use xlink:href="#DejaVuSans-Oblique-56" transform="translate(221.630859 -37.51875) scale(0.7)"/>
     <use xlink:href="#DejaVuSans-Oblique-63" transform="translate(269.516602 -49.003125) scale(0.49)"/>
     <use xlink:href="#DejaVuSansDisplay-222b" transform="translate(310.871094 0.96875)"/>
     <use xlink:href="#DejaVuSans-Oblique-56" transform="translate(382.630859 -50.9375) scale(0.7)"/>
     <use xlink:href="#DejaVuSans-Oblique-63" transform="translate(430.516602 -62.421875) scale(0.49)"/>
     <use xlink:href="#DejaVuSans-Oblique-57" transform="translate(459.371094 0.96875)"/>
     <use xlink:href="#DejaVuSans-Oblique-64" transform="translate(574.483723 0.96875)"/>
     <use xlink:href="#DejaVuSans-Oblique-56" transform="translate(637.960286 0.96875)"/>
     <path d="M 221.630859 19.765625 
L 221.630859 26.015625 
L 298.371094 26.015625 
L 298.371094 19.765625 
L 221.630859 19.765625 
z
"/>
    </g>
    <!--  -->
    <g transform="translate(550.512 360.740765) scale(0.09 -0.09)"/>
    <!-- $R_0$ = control radius -->
    <g transform="translate(464.652 370.818796) scale(0.09 -0.09)">
     <defs>
      <path id="DejaVuSans-6e" d="M 3513 2113 
L 3513 0 
L 2938 0 
L 2938 2094 
Q 2938 2591 2744 2837 
Q 2550 3084 2163 3084 
Q 1697 3084 1428 2787 
Q 1159 2491 1159 1978 
L 1159 0 
L 581 0 
L 581 3500 
L 1159 3500 
L 1159 2956 
Q 1366 3272 1645 3428 
Q 1925 3584 2291 3584 
Q 2894 3584 3203 3211 
Q 3513 2838 3513 2113 
z
" transform="scale(0.015625)"/>
      <path id="DejaVuSans-72" d="M 2631 2963 
Q 2534 3019 2420 3045 
Q 2306 3072 2169 3072 
Q 1681 3072 1420 2755 
Q 1159 2438 1159 1844 
L 1159 0 
L 581 0 
L 581 3500 
L 1159 3500 
L 1159 2956 
Q 1341 3275 1631 3429 
Q 1922 3584 2338 3584 
Q 2397 3584 2469 3576 
Q 2541 3569 2628 3553 
L 2631 2963 
z
" transform="scale(0.015625)"/>
      <path id="DejaVuSans-6c" d="M 603 4863 
L 1178 4863 
L 1178 0 
L 603 0 
L 603 4863 
z
" transform="scale(0.015625)"/>
      <path id="DejaVuSans-61" d="M 2194 1759 
Q 1497 1759 1228 1600 
Q 959 1441 959 1056 
Q 959 750 1161 570 
Q 1363 391 1709 391 
Q 2188 391 2477 730 
Q 2766 1069 2766 1631 
L 2766 1759 
L 2194 1759 
z
M 3341 1997 
L 3341 0 
L 2766 0 
L 2766 531 
Q 2569 213 2275 61 
Q 1981 -91 1556 -91 
Q 1019 -91 701 211 
Q 384 513 384 1019 
Q 384 1609 779 1909 
Q 1175 2209 1959 2209 
L 2766 2209 
L 2766 2266 
Q 2766 2663 2505 2880 
Q 2244 3097 1772 3097 
Q 1472 3097 1187 3025 
Q 903 2953 641 2809 
L 641 3341 
Q 956 3463 1253 3523 
Q 1550 3584 1831 3584 
Q 2591 3584 2966 3190 
Q 3341 2797 3341 1997 
z
" transform="scale(0.015625)"/>
      <path id="DejaVuSans-64" d="M 2906 2969 
L 2906 4863 
L 3481 4863 
L 3481 0 
L 2906 0 
L 2906 525 
Q 2725 213 2448 61 
Q 2172 -91 1784 -91 
Q 1150 -91 751 415 
Q 353 922 353 1747 
Q 353 2572 751 3078 
Q 1150 3584 1784 3584 
Q 2172 3584 2448 3432 
Q 2725 3281 2906 2969 
z
M 947 1747 
Q 947 1113 1208 752 
Q 1469 391 1925 391 
Q 2381 391 2643 752 
Q 2906 1113 2906 1747 
Q 2906 2381 2643 2742 
Q 2381 3103 1925 3103 
Q 1469 3103 1208 2742 
Q 947 2381 947 1747 
z
" transform="scale(0.015625)"/>
      <path id="DejaVuSans-75" d="M 544 1381 
L 544 3500 
L 1119 3500 
L 1119 1403 
Q 1119 906 1312 657 
Q 1506 409 1894 409 
Q 2359 409 2629 706 
Q 2900 1003 2900 1516 
L 2900 3500 
L 3475 3500 
L 3475 0 
L 2900 0 
L 2900 538 
Q 2691 219 2414 64 
Q 2138 -91 1772 -91 
Q 1169 -91 856 284 
Q 544 659 544 1381 
z
M 1991 3584 
L 1991 3584 
z
" transform="scale(0.015625)"/>
      <path id="DejaVuSans-73" d="M 2834 3397 
L 2834 2853 
Q 2591 2978 2328 3040 
Q 2066 3103 1784 3103 
Q 1356 3103 1142 2972 
Q 928 2841 928 2578 
Q 928 2378 1081 2264 
Q 1234 2150 1697 2047 
L 1894 2003 
Q 2506 1872 2764 1633 
Q 3022 1394 3022 966 
Q 3022 478 2636 193 
Q 2250 -91 1575 -91 
Q 1294 -91 989 -36 
Q 684 19 347 128 
L 347 722 
Q 666 556 975 473 
Q 1284 391 1588 391 
Q 1994 391 2212 530 
Q 2431 669 2431 922 
Q 2431 1156 2273 1281 
Q 2116 1406 1581 1522 
L 1381 1569 
Q 847 1681 609 1914 
Q 372 2147 372 2553 
Q 372 3047 722 3315 
Q 1072 3584 1716 3584 
Q 2034 3584 2315 3537 
Q 2597 3491 2834 3397 
z
" transform="scale(0.015625)"/>
     </defs>
     <use xlink:href="#DejaVuSans-Oblique-52" transform="translate(0 0.015625)"/>
     <use xlink:href="#DejaVuSans-30" transform="translate(69.482422 -16.390625) scale(0.7)"/>
     <use xlink:href="#DejaVuSans-20" transform="translate(116.75293 0.015625)"/>
     <use xlink:href="#DejaVuSans-3d" transform="translate(148.540039 0.015625)"/>
     <use xlink:href="#DejaVuSans-20" transform="translate(232.329102 0.015625)"/>
     <use xlink:href="#DejaVuSans-63" transform="translate(264.116211 0.015625)"/>
     <use xlink:href="#DejaVuSans-6f" transform="translate(319.09668 0.015625)"/>
     <use xlink:href="#DejaVuSans-6e" transform="translate(380.27832 0.015625)"/>
     <use xlink:href="#DejaVuSans-74" transform="translate(443.657227 0.015625)"/>
     <use xlink:href="#DejaVuSans-72" transform="translate(482.866211 0.015625)"/>
     <use xlink:href="#DejaVuSans-6f" transform="translate(523.979492 0.015625)"/>
     <use xlink:href="#DejaVuSans-6c" transform="translate(585.161133 0.015625)"/>
     <use xlink:href="#DejaVuSans-20" transform="translate(612.944336 0.015625)"/>
     <use xlink:href="#DejaVuSans-72" transform="translate(644.731445 0.015625)"/>
     <use xlink:href="#DejaVuSans-61" transform="translate(685.844727 0.015625)"/>
     <use xlink:href="#DejaVuSans-64" transform="translate(747.124023 0.015625)"/>
     <use xlink:href="#DejaVuSans-69" transform="translate(810.600586 0.015625)"/>
     <use xlink:href="#DejaVuSans-75" transform="translate(838.383789 0.015625)"/>
     <use xlink:href="#DejaVuSans-73" transform="translate(901.762695 0.015625)"/>
    </g>
    <!-- $V_c$ = control volume -->
    <g transform="translate(459.702 380.896827) scale(0.09 -0.09)">
     <defs>
      <path id="DejaVuSans-76" d="M 191 3500 
L 800 3500 
L 1894 563 
L 2988 3500 
L 3597 3500 
L 2284 0 
L 1503 0 
L 191 3500 
z
" transform="scale(0.015625)"/>
      <path id="DejaVuSans-6d" d="M 3328 2828 
Q 3544 3216 3844 3400 
Q 4144 3584 4550 3584 
Q 5097 3584 5394 3201 
Q 5691 2819 5691 2113 
L 5691 0 
L 5113 0 
L 5113 2094 
Q 5113 2597 4934 2840 
Q 4756 3084 4391 3084 
Q 3944 3084 3684 2787 
Q 3425 2491 3425 1978 
L 3425 0 
L 2847 0 
L 2847 2094 
Q 2847 2600 2669 2842 
Q 2491 3084 2119 3084 
Q 1678 3084 1418 2786 
Q 1159 2488 1159 1978 
L 1159 0 
L 581 0 
L 581 3500 
L 1159 3500 
L 1159 2956 
Q 1356 3278 1631 3431 
Q 1906 3584 2284 3584 
Q 2666 3584 2933 3390 
Q 3200 3197 3328 2828 
z
" transform="scale(0.015625)"/>
      <path id="DejaVuSans-65" d="M 3597 1894 
L 3597 1613 
L 953 1613 
Q 991 1019 1311 708 
Q 1631 397 2203 397 
Q 2534 397 2845 478 
Q 3156 559 3463 722 
L 3463 178 
Q 3153 47 2828 -22 
Q 2503 -91 2169 -91 
Q 1331 -91 842 396 
Q 353 884 353 1716 
Q 353 2575 817 3079 
Q 1281 3584 2069 3584 
Q 2775 3584 3186 3129 
Q 3597 2675 3597 1894 
z
M 3022 2063 
Q 3016 2534 2758 2815 
Q 2500 3097 2075 3097 
Q 1594 3097 1305 2825 
Q 1016 2553 972 2059 
L 3022 2063 
z
" transform="scale(0.015625)"/>
     </defs>
     <use xlink:href="#DejaVuSans-Oblique-56" transform="translate(0 0.015625)"/>
     <use xlink:href="#DejaVuSans-Oblique-63" transform="translate(68.408203 -16.390625) scale(0.7)"/>
     <use xlink:href="#DejaVuSans-20" transform="translate(109.628906 0.015625)"/>
     <use xlink:href="#DejaVuSans-3d" transform="translate(141.416016 0.015625)"/>
     <use xlink:href="#DejaVuSans-20" transform="translate(225.205078 0.015625)"/>
     <use xlink:href="#DejaVuSans-63" transform="translate(256.992188 0.015625)"/>
     <use xlink:href="#DejaVuSans-6f" transform="translate(311.972656 0.015625)"/>
     <use xlink:href="#DejaVuSans-6e" transform="translate(373.154297 0.015625)"/>
     <use xlink:href="#DejaVuSans-74" transform="translate(436.533203 0.015625)"/>
     <use xlink:href="#DejaVuSans-72" transform="translate(475.742188 0.015625)"/>
     <use xlink:href="#DejaVuSans-6f" transform="translate(516.855469 0.015625)"/>
     <use xlink:href="#DejaVuSans-6c" transform="translate(578.037109 0.015625)"/>
     <use xlink:href="#DejaVuSans-20" transform="translate(605.820312 0.015625)"/>
     <use xlink:href="#DejaVuSans-76" transform="translate(637.607422 0.015625)"/>
     <use xlink:href="#DejaVuSans-6f" transform="translate(696.787109 0.015625)"/>
     <use xlink:href="#DejaVuSans-6c" transform="translate(757.96875 0.015625)"/>
     <use xlink:href="#DejaVuSans-75" transform="translate(785.751953 0.015625)"/>
     <use xlink:href="#DejaVuSans-6d" transform="translate(849.130859 0.015625)"/>
     <use xlink:href="#DejaVuSans-65" transform="translate(946.542969 0.015625)"/>
    </g>
   </g>
   <g id="text_4">
    <!-- Strain Energy Density (SED) Method -->
    <g transform="translate(141.256562 17.837812) scale(0.14 -0.14)">
     <defs>
      <path id="DejaVuSans-Bold-53" d="M 3834 4519 
L 3834 3531 
Q 3450 3703 3084 3790 
Q 2719 3878 2394 3878 
Q 1963 3878 1756 3759 
Q 1550 3641 1550 3391 
Q 1550 3203 1689 3098 
Q 1828 2994 2194 2919 
L 2706 2816 
Q 3484 2659 3812 2340 
Q 4141 2022 4141 1434 
Q 4141 663 3683 286 
Q 3225 -91 2284 -91 
Q 1841 -91 1394 -6 
Q 947 78 500 244 
L 500 1259 
Q 947 1022 1364 901 
Q 1781 781 2169 781 
Q 2563 781 2772 912 
Q 2981 1044 2981 1288 
Q 2981 1506 2839 1625 
Q 2697 1744 2272 1838 
L 1806 1941 
Q 1106 2091 782 2419 
Q 459 2747 459 3303 
Q 459 4000 909 4375 
Q 1359 4750 2203 4750 
Q 2588 4750 2994 4692 
Q 3400 4634 3834 4519 
z
" transform="scale(0.015625)"/>
      <path id="DejaVuSans-Bold-74" d="M 1759 4494 
L 1759 3500 
L 2913 3500 
L 2913 2700 
L 1759 2700 
L 1759 1216 
Q 1759 972 1856 886 
Q 1953 800 2241 800 
L 2816 800 
L 2816 0 
L 1856 0 
Q 1194 0 917 276 
Q 641 553 641 1216 
L 641 2700 
L 84 2700 
L 84 3500 
L 641 3500 
L 641 4494 
L 1759 4494 
z
" transform="scale(0.015625)"/>
      <path id="DejaVuSans-Bold-72" d="M 3138 2547 
Q 2991 2616 2845 2648 
Q 2700 2681 2553 2681 
Q 2122 2681 1889 2404 
Q 1656 2128 1656 1613 
L 1656 0 
L 538 0 
L 538 3500 
L 1656 3500 
L 1656 2925 
Q 1872 3269 2151 3426 
Q 2431 3584 2822 3584 
Q 2878 3584 2943 3579 
Q 3009 3575 3134 3559 
L 3138 2547 
z
" transform="scale(0.015625)"/>
      <path id="DejaVuSans-Bold-61" d="M 2106 1575 
Q 1756 1575 1579 1456 
Q 1403 1338 1403 1106 
Q 1403 894 1545 773 
Q 1688 653 1941 653 
Q 2256 653 2472 879 
Q 2688 1106 2688 1447 
L 2688 1575 
L 2106 1575 
z
M 3816 1997 
L 3816 0 
L 2688 0 
L 2688 519 
Q 2463 200 2181 54 
Q 1900 -91 1497 -91 
Q 953 -91 614 226 
Q 275 544 275 1050 
Q 275 1666 698 1953 
Q 1122 2241 2028 2241 
L 2688 2241 
L 2688 2328 
Q 2688 2594 2478 2717 
Q 2269 2841 1825 2841 
Q 1466 2841 1156 2769 
Q 847 2697 581 2553 
L 581 3406 
Q 941 3494 1303 3539 
Q 1666 3584 2028 3584 
Q 2975 3584 3395 3211 
Q 3816 2838 3816 1997 
z
" transform="scale(0.015625)"/>
      <path id="DejaVuSans-Bold-69" d="M 538 3500 
L 1656 3500 
L 1656 0 
L 538 0 
L 538 3500 
z
M 538 4863 
L 1656 4863 
L 1656 3950 
L 538 3950 
L 538 4863 
z
" transform="scale(0.015625)"/>
      <path id="DejaVuSans-Bold-6e" d="M 4056 2131 
L 4056 0 
L 2931 0 
L 2931 347 
L 2931 1631 
Q 2931 2084 2911 2256 
Q 2891 2428 2841 2509 
Q 2775 2619 2662 2680 
Q 2550 2741 2406 2741 
Q 2056 2741 1856 2470 
Q 1656 2200 1656 1722 
L 1656 0 
L 538 0 
L 538 3500 
L 1656 3500 
L 1656 2988 
Q 1909 3294 2193 3439 
Q 2478 3584 2822 3584 
Q 3428 3584 3742 3212 
Q 4056 2841 4056 2131 
z
" transform="scale(0.015625)"/>
      <path id="DejaVuSans-Bold-20" transform="scale(0.015625)"/>
      <path id="DejaVuSans-Bold-45" d="M 588 4666 
L 3834 4666 
L 3834 3756 
L 1791 3756 
L 1791 2888 
L 3713 2888 
L 3713 1978 
L 1791 1978 
L 1791 909 
L 3903 909 
L 3903 0 
L 588 0 
L 588 4666 
z
" transform="scale(0.015625)"/>
      <path id="DejaVuSans-Bold-65" d="M 4031 1759 
L 4031 1441 
L 1416 1441 
Q 1456 1047 1700 850 
Q 1944 653 2381 653 
Q 2734 653 3104 758 
Q 3475 863 3866 1075 
L 3866 213 
Q 3469 63 3072 -14 
Q 2675 -91 2278 -91 
Q 1328 -91 801 392 
Q 275 875 275 1747 
Q 275 2603 792 3093 
Q 1309 3584 2216 3584 
Q 3041 3584 3536 3087 
Q 4031 2591 4031 1759 
z
M 2881 2131 
Q 2881 2450 2695 2645 
Q 2509 2841 2209 2841 
Q 1884 2841 1681 2658 
Q 1478 2475 1428 2131 
L 2881 2131 
z
" transform="scale(0.015625)"/>
      <path id="DejaVuSans-Bold-67" d="M 2919 594 
Q 2688 288 2409 144 
Q 2131 0 1766 0 
Q 1125 0 706 504 
Q 288 1009 288 1791 
Q 288 2575 706 3076 
Q 1125 3578 1766 3578 
Q 2131 3578 2409 3434 
Q 2688 3291 2919 2981 
L 2919 3500 
L 4044 3500 
L 4044 353 
Q 4044 -491 3511 -936 
Q 2978 -1381 1966 -1381 
Q 1638 -1381 1331 -1331 
Q 1025 -1281 716 -1178 
L 716 -306 
Q 1009 -475 1290 -558 
Q 1572 -641 1856 -641 
Q 2406 -641 2662 -400 
Q 2919 -159 2919 353 
L 2919 594 
z
M 2181 2772 
Q 1834 2772 1640 2515 
Q 1447 2259 1447 1791 
Q 1447 1309 1634 1061 
Q 1822 813 2181 813 
Q 2531 813 2725 1069 
Q 2919 1325 2919 1791 
Q 2919 2259 2725 2515 
Q 2531 2772 2181 2772 
z
" transform="scale(0.015625)"/>
      <path id="DejaVuSans-Bold-79" d="M 78 3500 
L 1197 3500 
L 2138 1125 
L 2938 3500 
L 4056 3500 
L 2584 -331 
Q 2363 -916 2067 -1148 
Q 1772 -1381 1288 -1381 
L 641 -1381 
L 641 -647 
L 991 -647 
Q 1275 -647 1404 -556 
Q 1534 -466 1606 -231 
L 1638 -134 
L 78 3500 
z
" transform="scale(0.015625)"/>
      <path id="DejaVuSans-Bold-44" d="M 1791 3756 
L 1791 909 
L 2222 909 
Q 2959 909 3348 1275 
Q 3738 1641 3738 2338 
Q 3738 3031 3350 3393 
Q 2963 3756 2222 3756 
L 1791 3756 
z
M 588 4666 
L 1856 4666 
Q 2919 4666 3439 4514 
Q 3959 4363 4331 4000 
Q 4659 3684 4818 3271 
Q 4978 2859 4978 2338 
Q 4978 1809 4818 1395 
Q 4659 981 4331 666 
Q 3956 303 3431 151 
Q 2906 0 1856 0 
L 588 0 
L 588 4666 
z
" transform="scale(0.015625)"/>
      <path id="DejaVuSans-Bold-73" d="M 3272 3391 
L 3272 2541 
Q 2913 2691 2578 2766 
Q 2244 2841 1947 2841 
Q 1628 2841 1473 2761 
Q 1319 2681 1319 2516 
Q 1319 2381 1436 2309 
Q 1553 2238 1856 2203 
L 2053 2175 
Q 2913 2066 3209 1816 
Q 3506 1566 3506 1031 
Q 3506 472 3093 190 
Q 2681 -91 1863 -91 
Q 1516 -91 1145 -36 
Q 775 19 384 128 
L 384 978 
Q 719 816 1070 734 
Q 1422 653 1784 653 
Q 2113 653 2278 743 
Q 2444 834 2444 1013 
Q 2444 1163 2330 1236 
Q 2216 1309 1875 1350 
L 1678 1375 
Q 931 1469 631 1722 
Q 331 1975 331 2491 
Q 331 3047 712 3315 
Q 1094 3584 1881 3584 
Q 2191 3584 2531 3537 
Q 2872 3491 3272 3391 
z
" transform="scale(0.015625)"/>
      <path id="DejaVuSans-Bold-28" d="M 2413 -844 
L 1484 -844 
Q 1006 -72 778 623 
Q 550 1319 550 2003 
Q 550 2688 779 3389 
Q 1009 4091 1484 4856 
L 2413 4856 
Q 2013 4116 1813 3408 
Q 1613 2700 1613 2009 
Q 1613 1319 1811 609 
Q 2009 -100 2413 -844 
z
" transform="scale(0.015625)"/>
      <path id="DejaVuSans-Bold-29" d="M 513 -844 
Q 913 -100 1113 609 
Q 1313 1319 1313 2009 
Q 1313 2700 1113 3408 
Q 913 4116 513 4856 
L 1441 4856 
Q 1916 4091 2145 3389 
Q 2375 2688 2375 2003 
Q 2375 1319 2147 623 
Q 1919 -72 1441 -844 
L 513 -844 
z
" transform="scale(0.015625)"/>
      <path id="DejaVuSans-Bold-4d" d="M 588 4666 
L 2119 4666 
L 3181 2169 
L 4250 4666 
L 5778 4666 
L 5778 0 
L 4641 0 
L 4641 3413 
L 3566 897 
L 2803 897 
L 1728 3413 
L 1728 0 
L 588 0 
L 588 4666 
z
" transform="scale(0.015625)"/>
      <path id="DejaVuSans-Bold-68" d="M 4056 2131 
L 4056 0 
L 2931 0 
L 2931 347 
L 2931 1625 
Q 2931 2084 2911 2256 
Q 2891 2428 2841 2509 
Q 2775 2619 2662 2680 
Q 2550 2741 2406 2741 
Q 2056 2741 1856 2470 
Q 1656 2200 1656 1722 
L 1656 0 
L 538 0 
L 538 4863 
L 1656 4863 
L 1656 2988 
Q 1909 3294 2193 3439 
Q 2478 3584 2822 3584 
Q 3428 3584 3742 3212 
Q 4056 2841 4056 2131 
z
" transform="scale(0.015625)"/>
      <path id="DejaVuSans-Bold-6f" d="M 2203 2784 
Q 1831 2784 1636 2517 
Q 1441 2250 1441 1747 
Q 1441 1244 1636 976 
Q 1831 709 2203 709 
Q 2569 709 2762 976 
Q 2956 1244 2956 1747 
Q 2956 2250 2762 2517 
Q 2569 2784 2203 2784 
z
M 2203 3584 
Q 3106 3584 3614 3096 
Q 4122 2609 4122 1747 
Q 4122 884 3614 396 
Q 3106 -91 2203 -91 
Q 1297 -91 786 396 
Q 275 884 275 1747 
Q 275 2609 786 3096 
Q 1297 3584 2203 3584 
z
" transform="scale(0.015625)"/>
      <path id="DejaVuSans-Bold-64" d="M 2919 2988 
L 2919 4863 
L 4044 4863 
L 4044 0 
L 2919 0 
L 2919 506 
Q 2688 197 2409 53 
Q 2131 -91 1766 -91 
Q 1119 -91 703 423 
Q 288 938 288 1747 
Q 288 2556 703 3070 
Q 1119 3584 1766 3584 
Q 2128 3584 2408 3439 
Q 2688 3294 2919 2988 
z
M 2181 722 
Q 2541 722 2730 984 
Q 2919 1247 2919 1747 
Q 2919 2247 2730 2509 
Q 2541 2772 2181 2772 
Q 1825 2772 1636 2509 
Q 1447 2247 1447 1747 
Q 1447 1247 1636 984 
Q 1825 722 2181 722 
z
" transform="scale(0.015625)"/>
     </defs>
     <use xlink:href="#DejaVuSans-Bold-53"/>
     <use xlink:href="#DejaVuSans-Bold-74" transform="translate(72.021484 0)"/>
     <use xlink:href="#DejaVuSans-Bold-72" transform="translate(119.824219 0)"/>
     <use xlink:href="#DejaVuSans-Bold-61" transform="translate(169.140625 0)"/>
     <use xlink:href="#DejaVuSans-Bold-69" transform="translate(236.621094 0)"/>
     <use xlink:href="#DejaVuSans-Bold-6e" transform="translate(270.898438 0)"/>
     <use xlink:href="#DejaVuSans-Bold-20" transform="translate(342.089844 0)"/>
     <use xlink:href="#DejaVuSans-Bold-45" transform="translate(376.904297 0)"/>
     <use xlink:href="#DejaVuSans-Bold-6e" transform="translate(445.214844 0)"/>
     <use xlink:href="#DejaVuSans-Bold-65" transform="translate(516.40625 0)"/>
     <use xlink:href="#DejaVuSans-Bold-72" transform="translate(584.228516 0)"/>
     <use xlink:href="#DejaVuSans-Bold-67" transform="translate(633.544922 0)"/>
     <use xlink:href="#DejaVuSans-Bold-79" transform="translate(705.126953 0)"/>
     <use xlink:href="#DejaVuSans-Bold-20" transform="translate(770.3125 0)"/>
     <use xlink:href="#DejaVuSans-Bold-44" transform="translate(805.126953 0)"/>
     <use xlink:href="#DejaVuSans-Bold-65" transform="translate(888.134766 0)"/>
     <use xlink:href="#DejaVuSans-Bold-6e" transform="translate(955.957031 0)"/>
     <use xlink:href="#DejaVuSans-Bold-73" transform="translate(1027.148438 0)"/>
     <use xlink:href="#DejaVuSans-Bold-69" transform="translate(1086.669922 0)"/>
     <use xlink:href="#DejaVuSans-Bold-74" transform="translate(1120.947266 0)"/>
     <use xlink:href="#DejaVuSans-Bold-79" transform="translate(1168.75 0)"/>
     <use xlink:href="#DejaVuSans-Bold-20" transform="translate(1233.935547 0)"/>
     <use xlink:href="#DejaVuSans-Bold-28" transform="translate(1268.75 0)"/>
     <use xlink:href="#DejaVuSans-Bold-53" transform="translate(1314.453125 0)"/>
     <use xlink:href="#DejaVuSans-Bold-45" transform="translate(1386.474609 0)"/>
     <use xlink:href="#DejaVuSans-Bold-44" transform="translate(1454.785156 0)"/>
     <use xlink:href="#DejaVuSans-Bold-29" transform="translate(1537.792969 0)"/>
     <use xlink:href="#DejaVuSans-Bold-20" transform="translate(1583.496094 0)"/>
     <use xlink:href="#DejaVuSans-Bold-4d" transform="translate(1618.310547 0)"/>
     <use xlink:href="#DejaVuSans-Bold-65" transform="translate(1717.822266 0)"/>
     <use xlink:href="#DejaVuSans-Bold-74" transform="translate(1785.644531 0)"/>
     <use xlink:href="#DejaVuSans-Bold-68" transform="translate(1833.447266 0)"/>
     <use xlink:href="#DejaVuSans-Bold-6f" transform="translate(1904.638672 0)"/>
     <use xlink:href="#DejaVuSans-Bold-64" transform="translate(1973.339844 0)"/>
    </g>
    <!-- (Lazzarin) -->
    <g transform="translate(245.110312 33.624125) scale(0.14 -0.14)">
     <defs>
      <path id="DejaVuSans-Bold-4c" d="M 588 4666 
L 1791 4666 
L 1791 909 
L 3903 909 
L 3903 0 
L 588 0 
L 588 4666 
z
" transform="scale(0.015625)"/>
      <path id="DejaVuSans-Bold-7a" d="M 366 3500 
L 3419 3500 
L 3419 2719 
L 1575 800 
L 3419 800 
L 3419 0 
L 288 0 
L 288 781 
L 2131 2700 
L 366 2700 
L 366 3500 
z
" transform="scale(0.015625)"/>
     </defs>
     <use xlink:href="#DejaVuSans-Bold-28"/>
     <use xlink:href="#DejaVuSans-Bold-4c" transform="translate(45.703125 0)"/>
     <use xlink:href="#DejaVuSans-Bold-61" transform="translate(109.423828 0)"/>
     <use xlink:href="#DejaVuSans-Bold-7a" transform="translate(176.904297 0)"/>
     <use xlink:href="#DejaVuSans-Bold-7a" transform="translate(235.107422 0)"/>
     <use xlink:href="#DejaVuSans-Bold-61" transform="translate(293.310547 0)"/>
     <use xlink:href="#DejaVuSans-Bold-72" transform="translate(360.791016 0)"/>
     <use xlink:href="#DejaVuSans-Bold-69" transform="translate(410.107422 0)"/>
     <use xlink:href="#DejaVuSans-Bold-6e" transform="translate(444.384766 0)"/>
     <use xlink:href="#DejaVuSans-Bold-29" transform="translate(515.576172 0)"/>
    </g>
   </g>
   <g id="line2d_2">
    <defs>
     <path id="mcf2a629a64" d="M 0 2.5 
C 0.663008 2.5 1.29895 2.236584 1.767767 1.767767 
C 2.236584 1.29895 2.5 0.663008 2.5 0 
C 2.5 -0.663008 2.236584 -1.29895 1.767767 -1.767767 
C 1.29895 -2.236584 0.663008 -2.5 0 -2.5 
C -0.663008 -2.5 -1.29895 -2.236584 -1.767767 -1.767767 
C -2.236584 -1.29895 -2.5 -0.663008 -2.5 0 
C -2.5 0.663008 -2.236584 1.29895 -1.767767 1.767767 
C -1.29895 2.236584 -0.663008 2.5 0 2.5 
z
" style="stroke: #000000"/>
    </defs>
    <g clip-path="url(#pa43c77fa64)">
     <use xlink:href="#mcf2a629a64" x="386.526316" y="214.697809" style="stroke: #000000"/>
    </g>
   </g>
   <g id="legend_1">
    <g id="patch_15">
     <path d="M 13.5 60.034437 
L 131.67 60.034437 
Q 133.47 60.034437 133.47 58.234437 
L 133.47 45.924125 
Q 133.47 44.124125 131.67 44.124125 
L 13.5 44.124125 
Q 11.7 44.124125 11.7 45.924125 
L 11.7 58.234437 
Q 11.7 60.034437 13.5 60.034437 
z
" style="fill: #ffffff; opacity: 0.8; stroke: #cccccc; stroke-linejoin: miter"/>
    </g>
    <g id="line2d_3">
     <path d="M 15.3 51.412719 
L 24.3 51.412719 
L 33.3 51.412719 
" style="fill: none; stroke-dasharray: 9.25,4; stroke-dashoffset: 0; stroke: #2980b9; stroke-width: 2.5"/>
    </g>
    <g id="text_5">
     <!-- Control volume ($R_0$) -->
     <g transform="translate(40.5 54.562719) scale(0.09 -0.09)">
      <defs>
       <path id="DejaVuSans-43" d="M 4122 4306 
L 4122 3641 
Q 3803 3938 3442 4084 
Q 3081 4231 2675 4231 
Q 1875 4231 1450 3742 
Q 1025 3253 1025 2328 
Q 1025 1406 1450 917 
Q 1875 428 2675 428 
Q 3081 428 3442 575 
Q 3803 722 4122 1019 
L 4122 359 
Q 3791 134 3420 21 
Q 3050 -91 2638 -91 
Q 1578 -91 968 557 
Q 359 1206 359 2328 
Q 359 3453 968 4101 
Q 1578 4750 2638 4750 
Q 3056 4750 3426 4639 
Q 3797 4528 4122 4306 
z
" transform="scale(0.015625)"/>
       <path id="DejaVuSans-28" d="M 1984 4856 
Q 1566 4138 1362 3434 
Q 1159 2731 1159 2009 
Q 1159 1288 1364 580 
Q 1569 -128 1984 -844 
L 1484 -844 
Q 1016 -109 783 600 
Q 550 1309 550 2009 
Q 550 2706 781 3412 
Q 1013 4119 1484 4856 
L 1984 4856 
z
" transform="scale(0.015625)"/>
       <path id="DejaVuSans-29" d="M 513 4856 
L 1013 4856 
Q 1481 4119 1714 3412 
Q 1947 2706 1947 2009 
Q 1947 1309 1714 600 
Q 1481 -109 1013 -844 
L 513 -844 
Q 928 -128 1133 580 
Q 1338 1288 1338 2009 
Q 1338 2731 1133 3434 
Q 928 4138 513 4856 
z
" transform="scale(0.015625)"/>
      </defs>
      <use xlink:href="#DejaVuSans-43" transform="translate(0 0.015625)"/>
      <use xlink:href="#DejaVuSans-6f" transform="translate(69.824219 0.015625)"/>
      <use xlink:href="#DejaVuSans-6e" transform="translate(131.005859 0.015625)"/>
      <use xlink:href="#DejaVuSans-74" transform="translate(194.384766 0.015625)"/>
      <use xlink:href="#DejaVuSans-72" transform="translate(233.59375 0.015625)"/>
      <use xlink:href="#DejaVuSans-6f" transform="translate(274.707031 0.015625)"/>
      <use xlink:href="#DejaVuSans-6c" transform="translate(335.888672 0.015625)"/>
      <use xlink:href="#DejaVuSans-20" transform="translate(363.671875 0.015625)"/>
      <use xlink:href="#DejaVuSans-76" transform="translate(395.458984 0.015625)"/>
      <use xlink:href="#DejaVuSans-6f" transform="translate(454.638672 0.015625)"/>
      <use xlink:href="#DejaVuSans-6c" transform="translate(515.820312 0.015625)"/>
      <use xlink:href="#DejaVuSans-75" transform="translate(543.603516 0.015625)"/>
      <use xlink:href="#DejaVuSans-6d" transform="translate(606.982422 0.015625)"/>
      <use xlink:href="#DejaVuSans-65" transform="translate(704.394531 0.015625)"/>
      <use xlink:href="#DejaVuSans-20" transform="translate(765.917969 0.015625)"/>
      <use xlink:href="#DejaVuSans-28" transform="translate(797.705078 0.015625)"/>
      <use xlink:href="#DejaVuSans-Oblique-52" transform="translate(836.71875 0.015625)"/>
      <use xlink:href="#DejaVuSans-30" transform="translate(906.201172 -16.390625) scale(0.7)"/>
      <use xlink:href="#DejaVuSans-29" transform="translate(953.47168 0.015625)"/>
     </g>
    </g>
   </g>
  </g>
 </g>
 <defs>
  <clipPath id="pa43c77fa64">
   <rect x="7.2" y="39.624125" width="554.4" height="350.147368"/>
  </clipPath>
 </defs>
</svg>
