<?xml version="1.0" encoding="utf-8" standalone="no"?>
<!DOCTYPE svg PUBLIC "-//W3C//DTD SVG 1.1//EN"
  "http://www.w3.org/Graphics/SVG/1.1/DTD/svg11.dtd">
<svg xmlns:xlink="http://www.w3.org/1999/xlink" width="414.306774pt" height="419.117812pt" viewBox="0 0 414.306774 419.117812" xmlns="http://www.w3.org/2000/svg" version="1.1">
 <metadata>
  <rdf:RDF xmlns:dc="http://purl.org/dc/elements/1.1/" xmlns:cc="http://creativecommons.org/ns#" xmlns:rdf="http://www.w3.org/1999/02/22-rdf-syntax-ns#">
   <cc:Work>
    <dc:type rdf:resource="http://purl.org/dc/dcmitype/StillImage"/>
    <dc:date>2026-04-11T15:56:41.872046</dc:date>
    <dc:format>image/svg+xml</dc:format>
    <dc:creator>
     <cc:Agent>
      <dc:title>Matplotlib v3.10.8, https://matplotlib.org/</dc:title>
     </cc:Agent>
    </dc:creator>
   </cc:Work>
  </rdf:RDF>
 </metadata>
 <defs>
  <style type="text/css">*{stroke-linejoin: round; stroke-linecap: butt}</style>
 </defs>
 <g id="figure_1">
  <g id="patch_1">
   <path d="M 0 419.117812 
L 414.306774 419.117812 
L 414.306774 -0 
L 0 -0 
z
" style="fill: #fafafa"/>
  </g>
  <g id="patch_2">
   <path d="M 7.2 411.917812 
L 395.28 411.917812 
L 395.28 23.837812 
L 7.2 23.837812 
z
" style="fill: #ffffff"/>
  </g>
  <g id="pane3d_1">
   <g id="patch_3">
    <path d="M 36.502716 316.229721 
L 164.659406 208.806243 
L 162.877906 53.882383 
L 28.588257 151.880851 
" style="fill: #f2f2f2; opacity: 0.5; stroke: #f2f2f2; stroke-linejoin: miter"/>
   </g>
  </g>
  <g id="pane3d_2">
   <g id="patch_4">
    <path d="M 164.659406 208.806243 
L 370.305167 268.579347 
L 377.64394 108.319312 
L 162.877906 53.882383 
" style="fill: #e6e6e6; opacity: 0.5; stroke: #e6e6e6; stroke-linejoin: miter"/>
   </g>
  </g>
  <g id="pane3d_3">
   <g id="patch_5">
    <path d="M 36.502716 316.229721 
L 254.497267 387.426741 
L 370.305167 268.579347 
L 164.659406 208.806243 
" style="fill: #ececec; opacity: 0.5; stroke: #ececec; stroke-linejoin: miter"/>
   </g>
  </g>
  <g id="grid3d_1">
   <g id="Line3DCollection_1">
    <path d="M 45.924526 319.306884 
L 173.585117 211.400594 
L 172.180661 56.24036 
" style="fill: none; stroke-dasharray: 0.8,1.32; stroke-dashoffset: 0; stroke: #b0b0b0; stroke-width: 0.8"/>
    <path d="M 69.673141 327.063182 
L 196.06813 217.935518 
L 195.620961 62.181793 
" style="fill: none; stroke-dasharray: 0.8,1.32; stroke-dashoffset: 0; stroke: #b0b0b0; stroke-width: 0.8"/>
    <path d="M 93.702971 334.911325 
L 218.795333 224.541419 
L 219.326841 68.190542 
" style="fill: none; stroke-dasharray: 0.8,1.32; stroke-dashoffset: 0; stroke: #b0b0b0; stroke-width: 0.8"/>
    <path d="M 118.01904 342.852953 
L 241.770729 231.21946 
L 243.302841 74.267759 
" style="fill: none; stroke-dasharray: 0.8,1.32; stroke-dashoffset: 0; stroke: #b0b0b0; stroke-width: 0.8"/>
    <path d="M 142.626494 350.889747 
L 264.998403 237.970828 
L 267.553603 80.414621 
" style="fill: none; stroke-dasharray: 0.8,1.32; stroke-dashoffset: 0; stroke: #b0b0b0; stroke-width: 0.8"/>
    <path d="M 167.5306 359.023428 
L 288.482536 244.796738 
L 292.083879 86.63233 
" style="fill: none; stroke-dasharray: 0.8,1.32; stroke-dashoffset: 0; stroke: #b0b0b0; stroke-width: 0.8"/>
    <path d="M 192.736757 367.255759 
L 312.227396 251.698431 
L 316.898528 92.922121 
" style="fill: none; stroke-dasharray: 0.8,1.32; stroke-dashoffset: 0; stroke: #b0b0b0; stroke-width: 0.8"/>
    <path d="M 218.250493 375.588545 
L 336.237352 258.677177 
L 342.002525 99.285252 
" style="fill: none; stroke-dasharray: 0.8,1.32; stroke-dashoffset: 0; stroke: #b0b0b0; stroke-width: 0.8"/>
    <path d="M 244.077472 384.023636 
L 360.516866 265.734274 
L 367.40096 105.723015 
" style="fill: none; stroke-dasharray: 0.8,1.32; stroke-dashoffset: 0; stroke: #b0b0b0; stroke-width: 0.8"/>
   </g>
  </g>
  <g id="grid3d_2">
   <g id="Line3DCollection_2">
    <path d="M 28.588257 151.880851 
L 36.502716 316.229721 
L 254.497267 387.426741 
" style="fill: none; stroke-dasharray: 0.8,1.32; stroke-dashoffset: 0; stroke: #b0b0b0; stroke-width: 0.8"/>
    <path d="M 46.726486 138.644399 
L 53.755806 301.767839 
L 270.147565 371.365686 
" style="fill: none; stroke-dasharray: 0.8,1.32; stroke-dashoffset: 0; stroke: #b0b0b0; stroke-width: 0.8"/>
    <path d="M 64.452057 125.709084 
L 70.63346 287.620655 
L 285.439283 355.672621 
" style="fill: none; stroke-dasharray: 0.8,1.32; stroke-dashoffset: 0; stroke: #b0b0b0; stroke-width: 0.8"/>
    <path d="M 81.778894 113.064747 
L 87.147799 273.778009 
L 300.384606 340.335043 
" style="fill: none; stroke-dasharray: 0.8,1.32; stroke-dashoffset: 0; stroke: #b0b0b0; stroke-width: 0.8"/>
    <path d="M 98.720303 100.701679 
L 103.31043 260.230171 
L 314.995172 325.341008 
" style="fill: none; stroke-dasharray: 0.8,1.32; stroke-dashoffset: 0; stroke: #b0b0b0; stroke-width: 0.8"/>
    <path d="M 115.289002 88.610597 
L 119.132471 246.967823 
L 329.282104 310.679101 
" style="fill: none; stroke-dasharray: 0.8,1.32; stroke-dashoffset: 0; stroke: #b0b0b0; stroke-width: 0.8"/>
    <path d="M 131.497157 76.782624 
L 134.624574 233.982035 
L 343.256037 296.338408 
" style="fill: none; stroke-dasharray: 0.8,1.32; stroke-dashoffset: 0; stroke: #b0b0b0; stroke-width: 0.8"/>
    <path d="M 147.35641 65.209263 
L 149.796954 221.264245 
L 356.927146 282.308488 
" style="fill: none; stroke-dasharray: 0.8,1.32; stroke-dashoffset: 0; stroke: #b0b0b0; stroke-width: 0.8"/>
    <path d="M 162.877906 53.882383 
L 164.659406 208.806243 
L 370.305167 268.579347 
" style="fill: none; stroke-dasharray: 0.8,1.32; stroke-dashoffset: 0; stroke: #b0b0b0; stroke-width: 0.8"/>
   </g>
  </g>
  <g id="grid3d_3">
   <g id="Line3DCollection_3">
    <path d="M 370.611134 261.897821 
L 164.584982 202.334112 
L 36.173281 309.388788 
" style="fill: none; stroke-dasharray: 0.8,1.32; stroke-dashoffset: 0; stroke: #b0b0b0; stroke-width: 0.8"/>
    <path d="M 371.381074 245.084304 
L 164.397757 186.052565 
L 35.34408 292.169882 
" style="fill: none; stroke-dasharray: 0.8,1.32; stroke-dashoffset: 0; stroke: #b0b0b0; stroke-width: 0.8"/>
    <path d="M 372.158271 228.112295 
L 164.208852 169.624858 
L 34.506764 274.782486 
" style="fill: none; stroke-dasharray: 0.8,1.32; stroke-dashoffset: 0; stroke: #b0b0b0; stroke-width: 0.8"/>
    <path d="M 372.94283 210.979542 
L 164.018243 153.049015 
L 33.661215 257.224115 
" style="fill: none; stroke-dasharray: 0.8,1.32; stroke-dashoffset: 0; stroke: #b0b0b0; stroke-width: 0.8"/>
    <path d="M 373.734854 193.68375 
L 163.825907 136.323023 
L 32.807311 239.492236 
" style="fill: none; stroke-dasharray: 0.8,1.32; stroke-dashoffset: 0; stroke: #b0b0b0; stroke-width: 0.8"/>
    <path d="M 374.534452 176.222582 
L 163.631822 119.444832 
L 31.944926 221.584263 
" style="fill: none; stroke-dasharray: 0.8,1.32; stroke-dashoffset: 0; stroke: #b0b0b0; stroke-width: 0.8"/>
    <path d="M 375.341732 158.593654 
L 163.435962 102.412356 
L 31.073935 203.49756 
" style="fill: none; stroke-dasharray: 0.8,1.32; stroke-dashoffset: 0; stroke: #b0b0b0; stroke-width: 0.8"/>
    <path d="M 376.156805 140.794536 
L 163.238303 85.223469 
L 30.194207 185.229438 
" style="fill: none; stroke-dasharray: 0.8,1.32; stroke-dashoffset: 0; stroke: #b0b0b0; stroke-width: 0.8"/>
    <path d="M 376.979785 122.822753 
L 163.038821 67.876007 
L 29.30561 166.777154 
" style="fill: none; stroke-dasharray: 0.8,1.32; stroke-dashoffset: 0; stroke: #b0b0b0; stroke-width: 0.8"/>
   </g>
  </g>
  <g id="axis3d_1">
   <g id="line2d_1">
    <path d="M 36.502716 316.229721 
L 254.497267 387.426741 
" style="fill: none; stroke: #000000; stroke-width: 0.8; stroke-linecap: square"/>
   </g>
   <g id="xtick_1">
    <g id="line2d_2">
     <path d="M 47.036102 318.367314 
L 43.696607 321.190053 
" style="fill: none; stroke: #000000; stroke-width: 0.8; stroke-linecap: square"/>
    </g>
    <g id="text_1">
     <!-- −20 -->
     <g transform="translate(27.849359 342.57983) scale(0.1 -0.1)">
      <defs>
       <path id="DejaVuSans-2212" d="M 678 2272 
L 4684 2272 
L 4684 1741 
L 678 1741 
L 678 2272 
z
" transform="scale(0.015625)"/>
       <path id="DejaVuSans-32" d="M 1228 531 
L 3431 531 
L 3431 0 
L 469 0 
L 469 531 
Q 828 903 1448 1529 
Q 2069 2156 2228 2338 
Q 2531 2678 2651 2914 
Q 2772 3150 2772 3378 
Q 2772 3750 2511 3984 
Q 2250 4219 1831 4219 
Q 1534 4219 1204 4116 
Q 875 4013 500 3803 
L 500 4441 
Q 881 4594 1212 4672 
Q 1544 4750 1819 4750 
Q 2544 4750 2975 4387 
Q 3406 4025 3406 3419 
Q 3406 3131 3298 2873 
Q 3191 2616 2906 2266 
Q 2828 2175 2409 1742 
Q 1991 1309 1228 531 
z
" transform="scale(0.015625)"/>
       <path id="DejaVuSans-30" d="M 2034 4250 
Q 1547 4250 1301 3770 
Q 1056 3291 1056 2328 
Q 1056 1369 1301 889 
Q 1547 409 2034 409 
Q 2525 409 2770 889 
Q 3016 1369 3016 2328 
Q 3016 3291 2770 3770 
Q 2525 4250 2034 4250 
z
M 2034 4750 
Q 2819 4750 3233 4129 
Q 3647 3509 3647 2328 
Q 3647 1150 3233 529 
Q 2819 -91 2034 -91 
Q 1250 -91 836 529 
Q 422 1150 422 2328 
Q 422 3509 836 4129 
Q 1250 4750 2034 4750 
z
" transform="scale(0.015625)"/>
      </defs>
      <use xlink:href="#DejaVuSans-2212"/>
      <use xlink:href="#DejaVuSans-32" transform="translate(83.789062 0)"/>
      <use xlink:href="#DejaVuSans-30" transform="translate(147.412109 0)"/>
     </g>
    </g>
   </g>
   <g id="xtick_2">
    <g id="line2d_3">
     <path d="M 70.774224 326.112523 
L 67.466228 328.9686 
" style="fill: none; stroke: #000000; stroke-width: 0.8; stroke-linecap: square"/>
    </g>
    <g id="text_2">
     <!-- −15 -->
     <g transform="translate(51.614347 350.448467) scale(0.1 -0.1)">
      <defs>
       <path id="DejaVuSans-31" d="M 794 531 
L 1825 531 
L 1825 4091 
L 703 3866 
L 703 4441 
L 1819 4666 
L 2450 4666 
L 2450 531 
L 3481 531 
L 3481 0 
L 794 0 
L 794 531 
z
" transform="scale(0.015625)"/>
       <path id="DejaVuSans-35" d="M 691 4666 
L 3169 4666 
L 3169 4134 
L 1269 4134 
L 1269 2991 
Q 1406 3038 1543 3061 
Q 1681 3084 1819 3084 
Q 2600 3084 3056 2656 
Q 3513 2228 3513 1497 
Q 3513 744 3044 326 
Q 2575 -91 1722 -91 
Q 1428 -91 1123 -41 
Q 819 9 494 109 
L 494 744 
Q 775 591 1075 516 
Q 1375 441 1709 441 
Q 2250 441 2565 725 
Q 2881 1009 2881 1497 
Q 2881 1984 2565 2268 
Q 2250 2553 1709 2553 
Q 1456 2553 1204 2497 
Q 953 2441 691 2322 
L 691 4666 
z
" transform="scale(0.015625)"/>
      </defs>
      <use xlink:href="#DejaVuSans-2212"/>
      <use xlink:href="#DejaVuSans-31" transform="translate(83.789062 0)"/>
      <use xlink:href="#DejaVuSans-35" transform="translate(147.412109 0)"/>
     </g>
    </g>
   </g>
   <g id="xtick_3">
    <g id="line2d_4">
     <path d="M 94.793233 333.949379 
L 91.517719 336.839388 
" style="fill: none; stroke: #000000; stroke-width: 0.8; stroke-linecap: square"/>
    </g>
    <g id="text_3">
     <!-- −10 -->
     <g transform="translate(75.661468 358.410518) scale(0.1 -0.1)">
      <use xlink:href="#DejaVuSans-2212"/>
      <use xlink:href="#DejaVuSans-31" transform="translate(83.789062 0)"/>
      <use xlink:href="#DejaVuSans-30" transform="translate(147.412109 0)"/>
     </g>
    </g>
   </g>
   <g id="xtick_4">
    <g id="line2d_5">
     <path d="M 119.098144 341.879519 
L 115.856124 344.804069 
" style="fill: none; stroke: #000000; stroke-width: 0.8; stroke-linecap: square"/>
    </g>
    <g id="text_4">
     <!-- −5 -->
     <g transform="translate(103.177026 366.467657) scale(0.1 -0.1)">
      <use xlink:href="#DejaVuSans-2212"/>
      <use xlink:href="#DejaVuSans-35" transform="translate(83.789062 0)"/>
     </g>
    </g>
   </g>
   <g id="xtick_5">
    <g id="line2d_6">
     <path d="M 143.694093 349.904618 
L 140.486608 352.864331 
" style="fill: none; stroke: #000000; stroke-width: 0.8; stroke-linecap: square"/>
    </g>
    <g id="text_5">
     <!-- 0 -->
     <g transform="translate(131.993539 374.621598) scale(0.1 -0.1)">
      <use xlink:href="#DejaVuSans-30"/>
     </g>
    </g>
   </g>
   <g id="xtick_6">
    <g id="line2d_7">
     <path d="M 168.586339 358.026391 
L 165.41446 361.021906 
" style="fill: none; stroke: #000000; stroke-width: 0.8; stroke-linecap: square"/>
    </g>
    <g id="text_6">
     <!-- 5 -->
     <g transform="translate(156.917872 382.874095) scale(0.1 -0.1)">
      <use xlink:href="#DejaVuSans-35"/>
     </g>
    </g>
   </g>
   <g id="xtick_7">
    <g id="line2d_8">
     <path d="M 193.780269 366.246597 
L 190.645098 369.278566 
" style="fill: none; stroke: #000000; stroke-width: 0.8; stroke-linecap: square"/>
    </g>
    <g id="text_7">
     <!-- 10 -->
     <g transform="translate(178.964047 391.226948) scale(0.1 -0.1)">
      <use xlink:href="#DejaVuSans-31"/>
      <use xlink:href="#DejaVuSans-30" transform="translate(63.623047 0)"/>
     </g>
    </g>
   </g>
   <g id="xtick_8">
    <g id="line2d_9">
     <path d="M 219.281399 374.567036 
L 216.184072 377.63613 
" style="fill: none; stroke: #000000; stroke-width: 0.8; stroke-linecap: square"/>
    </g>
    <g id="text_8">
     <!-- 15 -->
     <g transform="translate(204.500128 399.681996) scale(0.1 -0.1)">
      <use xlink:href="#DejaVuSans-31"/>
      <use xlink:href="#DejaVuSans-35" transform="translate(63.623047 0)"/>
     </g>
    </g>
   </g>
   <g id="xtick_9">
    <g id="line2d_10">
     <path d="M 245.095384 382.989552 
L 242.03707 386.096456 
" style="fill: none; stroke: #000000; stroke-width: 0.8; stroke-linecap: square"/>
    </g>
    <g id="text_9">
     <!-- 20 -->
     <g transform="translate(230.350563 408.241128) scale(0.1 -0.1)">
      <use xlink:href="#DejaVuSans-32"/>
      <use xlink:href="#DejaVuSans-30" transform="translate(63.623047 0)"/>
     </g>
    </g>
   </g>
   <g id="text_10">
    <!-- x (mm) -->
    <g transform="translate(104.599332 382.4406) rotate(-341.912962) scale(0.12 -0.12)">
     <defs>
      <path id="DejaVuSans-78" d="M 3513 3500 
L 2247 1797 
L 3578 0 
L 2900 0 
L 1881 1375 
L 863 0 
L 184 0 
L 1544 1831 
L 300 3500 
L 978 3500 
L 1906 2253 
L 2834 3500 
L 3513 3500 
z
" transform="scale(0.015625)"/>
      <path id="DejaVuSans-20" transform="scale(0.015625)"/>
      <path id="DejaVuSans-28" d="M 1984 4856 
Q 1566 4138 1362 3434 
Q 1159 2731 1159 2009 
Q 1159 1288 1364 580 
Q 1569 -128 1984 -844 
L 1484 -844 
Q 1016 -109 783 600 
Q 550 1309 550 2009 
Q 550 2706 781 3412 
Q 1013 4119 1484 4856 
L 1984 4856 
z
" transform="scale(0.015625)"/>
      <path id="DejaVuSans-6d" d="M 3328 2828 
Q 3544 3216 3844 3400 
Q 4144 3584 4550 3584 
Q 5097 3584 5394 3201 
Q 5691 2819 5691 2113 
L 5691 0 
L 5113 0 
L 5113 2094 
Q 5113 2597 4934 2840 
Q 4756 3084 4391 3084 
Q 3944 3084 3684 2787 
Q 3425 2491 3425 1978 
L 3425 0 
L 2847 0 
L 2847 2094 
Q 2847 2600 2669 2842 
Q 2491 3084 2119 3084 
Q 1678 3084 1418 2786 
Q 1159 2488 1159 1978 
L 1159 0 
L 581 0 
L 581 3500 
L 1159 3500 
L 1159 2956 
Q 1356 3278 1631 3431 
Q 1906 3584 2284 3584 
Q 2666 3584 2933 3390 
Q 3200 3197 3328 2828 
z
" transform="scale(0.015625)"/>
      <path id="DejaVuSans-29" d="M 513 4856 
L 1013 4856 
Q 1481 4119 1714 3412 
Q 1947 2706 1947 2009 
Q 1947 1309 1714 600 
Q 1481 -109 1013 -844 
L 513 -844 
Q 928 -128 1133 580 
Q 1338 1288 1338 2009 
Q 1338 2731 1133 3434 
Q 928 4138 513 4856 
z
" transform="scale(0.015625)"/>
     </defs>
     <use xlink:href="#DejaVuSans-78"/>
     <use xlink:href="#DejaVuSans-20" transform="translate(59.179688 0)"/>
     <use xlink:href="#DejaVuSans-28" transform="translate(90.966797 0)"/>
     <use xlink:href="#DejaVuSans-6d" transform="translate(129.980469 0)"/>
     <use xlink:href="#DejaVuSans-6d" transform="translate(227.392578 0)"/>
     <use xlink:href="#DejaVuSans-29" transform="translate(324.804688 0)"/>
    </g>
   </g>
  </g>
  <g id="axis3d_2">
   <g id="line2d_11">
    <path d="M 370.305167 268.579347 
L 254.497267 387.426741 
" style="fill: none; stroke: #000000; stroke-width: 0.8; stroke-linecap: square"/>
   </g>
   <g id="xtick_10">
    <g id="line2d_12">
     <path d="M 252.659665 386.826581 
L 258.177252 388.628624 
" style="fill: none; stroke: #000000; stroke-width: 0.8; stroke-linecap: square"/>
    </g>
    <g id="text_11">
     <!-- −8 -->
     <g transform="translate(260.077975 408.529482) scale(0.1 -0.1)">
      <defs>
       <path id="DejaVuSans-38" d="M 2034 2216 
Q 1584 2216 1326 1975 
Q 1069 1734 1069 1313 
Q 1069 891 1326 650 
Q 1584 409 2034 409 
Q 2484 409 2743 651 
Q 3003 894 3003 1313 
Q 3003 1734 2745 1975 
Q 2488 2216 2034 2216 
z
M 1403 2484 
Q 997 2584 770 2862 
Q 544 3141 544 3541 
Q 544 4100 942 4425 
Q 1341 4750 2034 4750 
Q 2731 4750 3128 4425 
Q 3525 4100 3525 3541 
Q 3525 3141 3298 2862 
Q 3072 2584 2669 2484 
Q 3125 2378 3379 2068 
Q 3634 1759 3634 1313 
Q 3634 634 3220 271 
Q 2806 -91 2034 -91 
Q 1263 -91 848 271 
Q 434 634 434 1313 
Q 434 1759 690 2068 
Q 947 2378 1403 2484 
z
M 1172 3481 
Q 1172 3119 1398 2916 
Q 1625 2713 2034 2713 
Q 2441 2713 2670 2916 
Q 2900 3119 2900 3481 
Q 2900 3844 2670 4047 
Q 2441 4250 2034 4250 
Q 1625 4250 1398 4047 
Q 1172 3844 1172 3481 
z
" transform="scale(0.015625)"/>
      </defs>
      <use xlink:href="#DejaVuSans-2212"/>
      <use xlink:href="#DejaVuSans-38" transform="translate(83.789062 0)"/>
     </g>
    </g>
   </g>
   <g id="xtick_11">
    <g id="line2d_13">
     <path d="M 268.32455 370.779352 
L 273.798281 372.539862 
" style="fill: none; stroke: #000000; stroke-width: 0.8; stroke-linecap: square"/>
    </g>
    <g id="text_12">
     <!-- −6 -->
     <g transform="translate(275.584505 392.305309) scale(0.1 -0.1)">
      <defs>
       <path id="DejaVuSans-36" d="M 2113 2584 
Q 1688 2584 1439 2293 
Q 1191 2003 1191 1497 
Q 1191 994 1439 701 
Q 1688 409 2113 409 
Q 2538 409 2786 701 
Q 3034 994 3034 1497 
Q 3034 2003 2786 2293 
Q 2538 2584 2113 2584 
z
M 3366 4563 
L 3366 3988 
Q 3128 4100 2886 4159 
Q 2644 4219 2406 4219 
Q 1781 4219 1451 3797 
Q 1122 3375 1075 2522 
Q 1259 2794 1537 2939 
Q 1816 3084 2150 3084 
Q 2853 3084 3261 2657 
Q 3669 2231 3669 1497 
Q 3669 778 3244 343 
Q 2819 -91 2113 -91 
Q 1303 -91 875 529 
Q 447 1150 447 2328 
Q 447 3434 972 4092 
Q 1497 4750 2381 4750 
Q 2619 4750 2861 4703 
Q 3103 4656 3366 4563 
z
" transform="scale(0.015625)"/>
      </defs>
      <use xlink:href="#DejaVuSans-2212"/>
      <use xlink:href="#DejaVuSans-36" transform="translate(83.789062 0)"/>
     </g>
    </g>
   </g>
   <g id="xtick_12">
    <g id="line2d_14">
     <path d="M 283.630674 355.099641 
L 289.061099 356.820037 
" style="fill: none; stroke: #000000; stroke-width: 0.8; stroke-linecap: square"/>
    </g>
    <g id="text_13">
     <!-- −4 -->
     <g transform="translate(290.735605 376.453014) scale(0.1 -0.1)">
      <defs>
       <path id="DejaVuSans-34" d="M 2419 4116 
L 825 1625 
L 2419 1625 
L 2419 4116 
z
M 2253 4666 
L 3047 4666 
L 3047 1625 
L 3713 1625 
L 3713 1100 
L 3047 1100 
L 3047 0 
L 2419 0 
L 2419 1100 
L 313 1100 
L 313 1709 
L 2253 4666 
z
" transform="scale(0.015625)"/>
      </defs>
      <use xlink:href="#DejaVuSans-2212"/>
      <use xlink:href="#DejaVuSans-34" transform="translate(83.789062 0)"/>
     </g>
    </g>
   </g>
   <g id="xtick_13">
    <g id="line2d_15">
     <path d="M 298.590221 339.774967 
L 303.977886 341.456604 
" style="fill: none; stroke: #000000; stroke-width: 0.8; stroke-linecap: square"/>
    </g>
    <g id="text_14">
     <!-- −2 -->
     <g transform="translate(305.543359 360.959956) scale(0.1 -0.1)">
      <use xlink:href="#DejaVuSans-2212"/>
      <use xlink:href="#DejaVuSans-32" transform="translate(83.789062 0)"/>
     </g>
    </g>
   </g>
   <g id="xtick_14">
    <g id="line2d_16">
     <path d="M 313.214831 324.793404 
L 318.560279 326.437577 
" style="fill: none; stroke: #000000; stroke-width: 0.8; stroke-linecap: square"/>
    </g>
    <g id="text_15">
     <!-- 0 -->
     <g transform="translate(324.20915 345.81406) scale(0.1 -0.1)">
      <use xlink:href="#DejaVuSans-30"/>
     </g>
    </g>
   </g>
   <g id="xtick_15">
    <g id="line2d_17">
     <path d="M 327.515629 310.143557 
L 332.819396 311.751506 
" style="fill: none; stroke: #000000; stroke-width: 0.8; stroke-linecap: square"/>
    </g>
    <g id="text_16">
     <!-- 2 -->
     <g transform="translate(338.36432 331.003788) scale(0.1 -0.1)">
      <use xlink:href="#DejaVuSans-32"/>
     </g>
    </g>
   </g>
   <g id="xtick_16">
    <g id="line2d_18">
     <path d="M 341.50325 295.81453 
L 346.765872 297.387438 
" style="fill: none; stroke: #000000; stroke-width: 0.8; stroke-linecap: square"/>
    </g>
    <g id="text_17">
     <!-- 4 -->
     <g transform="translate(352.209258 316.518104) scale(0.1 -0.1)">
      <use xlink:href="#DejaVuSans-34"/>
     </g>
    </g>
   </g>
   <g id="xtick_17">
    <g id="line2d_19">
     <path d="M 355.187872 281.795899 
L 360.409875 283.334898 
" style="fill: none; stroke: #000000; stroke-width: 0.8; stroke-linecap: square"/>
    </g>
    <g id="text_18">
     <!-- 6 -->
     <g transform="translate(365.754052 302.346456) scale(0.1 -0.1)">
      <use xlink:href="#DejaVuSans-36"/>
     </g>
    </g>
   </g>
   <g id="xtick_18">
    <g id="line2d_20">
     <path d="M 368.579233 268.077686 
L 373.761141 269.583862 
" style="fill: none; stroke: #000000; stroke-width: 0.8; stroke-linecap: square"/>
    </g>
    <g id="text_19">
     <!-- 8 -->
     <g transform="translate(379.008359 288.478739) scale(0.1 -0.1)">
      <use xlink:href="#DejaVuSans-38"/>
     </g>
    </g>
   </g>
   <g id="text_20">
    <!-- y (mm) -->
    <g transform="translate(329.091294 371.287031) rotate(-45.742112) scale(0.12 -0.12)">
     <defs>
      <path id="DejaVuSans-79" d="M 2059 -325 
Q 1816 -950 1584 -1140 
Q 1353 -1331 966 -1331 
L 506 -1331 
L 506 -850 
L 844 -850 
Q 1081 -850 1212 -737 
Q 1344 -625 1503 -206 
L 1606 56 
L 191 3500 
L 800 3500 
L 1894 763 
L 2988 3500 
L 3597 3500 
L 2059 -325 
z
" transform="scale(0.015625)"/>
     </defs>
     <use xlink:href="#DejaVuSans-79"/>
     <use xlink:href="#DejaVuSans-20" transform="translate(59.179688 0)"/>
     <use xlink:href="#DejaVuSans-28" transform="translate(90.966797 0)"/>
     <use xlink:href="#DejaVuSans-6d" transform="translate(129.980469 0)"/>
     <use xlink:href="#DejaVuSans-6d" transform="translate(227.392578 0)"/>
     <use xlink:href="#DejaVuSans-29" transform="translate(324.804688 0)"/>
    </g>
   </g>
  </g>
  <g id="axis3d_3">
   <g id="line2d_21">
    <path d="M 370.305167 268.579347 
L 377.64394 108.319312 
" style="fill: none; stroke: #000000; stroke-width: 0.8; stroke-linecap: square"/>
   </g>
   <g id="xtick_19">
    <g id="line2d_22">
     <path d="M 368.881856 261.397874 
L 374.07381 262.898907 
" style="fill: none; stroke: #000000; stroke-width: 0.8; stroke-linecap: square"/>
    </g>
    <g id="text_21">
     <!-- 0.0 -->
     <g transform="translate(380.958836 266.89772) scale(0.1 -0.1)">
      <defs>
       <path id="DejaVuSans-2e" d="M 684 794 
L 1344 794 
L 1344 0 
L 684 0 
L 684 794 
z
" transform="scale(0.015625)"/>
      </defs>
      <use xlink:href="#DejaVuSans-30"/>
      <use xlink:href="#DejaVuSans-2e" transform="translate(63.623047 0)"/>
      <use xlink:href="#DejaVuSans-30" transform="translate(95.410156 0)"/>
     </g>
    </g>
   </g>
   <g id="xtick_20">
    <g id="line2d_23">
     <path d="M 369.64338 244.588713 
L 374.860621 246.076673 
" style="fill: none; stroke: #000000; stroke-width: 0.8; stroke-linecap: square"/>
    </g>
    <g id="text_22">
     <!-- 2.5 -->
     <g transform="translate(381.812848 250.106864) scale(0.1 -0.1)">
      <use xlink:href="#DejaVuSans-32"/>
      <use xlink:href="#DejaVuSans-2e" transform="translate(63.623047 0)"/>
      <use xlink:href="#DejaVuSans-35" transform="translate(95.410156 0)"/>
     </g>
    </g>
   </g>
   <g id="xtick_21">
    <g id="line2d_24">
     <path d="M 370.412079 227.621164 
L 375.654855 229.095737 
" style="fill: none; stroke: #000000; stroke-width: 0.8; stroke-linecap: square"/>
    </g>
    <g id="text_23">
     <!-- 5.0 -->
     <g transform="translate(382.674893 233.15806) scale(0.1 -0.1)">
      <use xlink:href="#DejaVuSans-35"/>
      <use xlink:href="#DejaVuSans-2e" transform="translate(63.623047 0)"/>
      <use xlink:href="#DejaVuSans-30" transform="translate(95.410156 0)"/>
     </g>
    </g>
   </g>
   <g id="xtick_22">
    <g id="line2d_25">
     <path d="M 371.188056 210.492979 
L 376.456617 211.953843 
" style="fill: none; stroke: #000000; stroke-width: 0.8; stroke-linecap: square"/>
    </g>
    <g id="text_24">
     <!-- 7.5 -->
     <g transform="translate(383.545085 216.049067) scale(0.1 -0.1)">
      <defs>
       <path id="DejaVuSans-37" d="M 525 4666 
L 3525 4666 
L 3525 4397 
L 1831 0 
L 1172 0 
L 2766 4134 
L 525 4134 
L 525 4666 
z
" transform="scale(0.015625)"/>
      </defs>
      <use xlink:href="#DejaVuSans-37"/>
      <use xlink:href="#DejaVuSans-2e" transform="translate(63.623047 0)"/>
      <use xlink:href="#DejaVuSans-35" transform="translate(95.410156 0)"/>
     </g>
    </g>
   </g>
   <g id="xtick_23">
    <g id="line2d_26">
     <path d="M 371.971415 193.201864 
L 377.266015 194.648692 
" style="fill: none; stroke: #000000; stroke-width: 0.8; stroke-linecap: square"/>
    </g>
    <g id="text_25">
     <!-- 10.0 -->
     <g transform="translate(381.242291 198.777604) scale(0.1 -0.1)">
      <use xlink:href="#DejaVuSans-31"/>
      <use xlink:href="#DejaVuSans-30" transform="translate(63.623047 0)"/>
      <use xlink:href="#DejaVuSans-2e" transform="translate(127.246094 0)"/>
      <use xlink:href="#DejaVuSans-30" transform="translate(159.033203 0)"/>
     </g>
    </g>
   </g>
   <g id="xtick_24">
    <g id="line2d_27">
     <path d="M 372.76226 175.745485 
L 378.083159 177.177941 
" style="fill: none; stroke: #000000; stroke-width: 0.8; stroke-linecap: square"/>
    </g>
    <g id="text_26">
     <!-- 12.5 -->
     <g transform="translate(382.129128 181.341346) scale(0.1 -0.1)">
      <use xlink:href="#DejaVuSans-31"/>
      <use xlink:href="#DejaVuSans-32" transform="translate(63.623047 0)"/>
      <use xlink:href="#DejaVuSans-2e" transform="translate(127.246094 0)"/>
      <use xlink:href="#DejaVuSans-35" transform="translate(159.033203 0)"/>
     </g>
    </g>
   </g>
   <g id="xtick_25">
    <g id="line2d_28">
     <path d="M 373.560701 158.12146 
L 378.90816 159.539199 
" style="fill: none; stroke: #000000; stroke-width: 0.8; stroke-linecap: square"/>
    </g>
    <g id="text_27">
     <!-- 15.0 -->
     <g transform="translate(383.024468 163.737922) scale(0.1 -0.1)">
      <use xlink:href="#DejaVuSans-31"/>
      <use xlink:href="#DejaVuSans-35" transform="translate(63.623047 0)"/>
      <use xlink:href="#DejaVuSans-2e" transform="translate(127.246094 0)"/>
      <use xlink:href="#DejaVuSans-30" transform="translate(159.033203 0)"/>
     </g>
    </g>
   </g>
   <g id="xtick_26">
    <g id="line2d_29">
     <path d="M 374.366846 140.327363 
L 379.741131 141.730034 
" style="fill: none; stroke: #000000; stroke-width: 0.8; stroke-linecap: square"/>
    </g>
    <g id="text_28">
     <!-- 17.5 -->
     <g transform="translate(383.928433 145.964917) scale(0.1 -0.1)">
      <use xlink:href="#DejaVuSans-31"/>
      <use xlink:href="#DejaVuSans-37" transform="translate(63.623047 0)"/>
      <use xlink:href="#DejaVuSans-2e" transform="translate(127.246094 0)"/>
      <use xlink:href="#DejaVuSans-35" transform="translate(159.033203 0)"/>
     </g>
    </g>
   </g>
   <g id="xtick_27">
    <g id="line2d_30">
     <path d="M 375.180809 122.360719 
L 380.58219 123.747963 
" style="fill: none; stroke: #000000; stroke-width: 0.8; stroke-linecap: square"/>
    </g>
    <g id="text_29">
     <!-- 20.0 -->
     <g transform="translate(384.841149 128.019868) scale(0.1 -0.1)">
      <use xlink:href="#DejaVuSans-32"/>
      <use xlink:href="#DejaVuSans-30" transform="translate(63.623047 0)"/>
      <use xlink:href="#DejaVuSans-2e" transform="translate(127.246094 0)"/>
      <use xlink:href="#DejaVuSans-30" transform="translate(159.033203 0)"/>
     </g>
    </g>
   </g>
   <g id="text_30">
    <!-- z (mm) -->
    <g transform="translate(416.681982 206.33979) rotate(-87.378092) scale(0.12 -0.12)">
     <defs>
      <path id="DejaVuSans-7a" d="M 353 3500 
L 3084 3500 
L 3084 2975 
L 922 459 
L 3084 459 
L 3084 0 
L 275 0 
L 275 525 
L 2438 3041 
L 353 3041 
L 353 3500 
z
" transform="scale(0.015625)"/>
     </defs>
     <use xlink:href="#DejaVuSans-7a"/>
     <use xlink:href="#DejaVuSans-20" transform="translate(52.490234 0)"/>
     <use xlink:href="#DejaVuSans-28" transform="translate(84.277344 0)"/>
     <use xlink:href="#DejaVuSans-6d" transform="translate(123.291016 0)"/>
     <use xlink:href="#DejaVuSans-6d" transform="translate(220.703125 0)"/>
     <use xlink:href="#DejaVuSans-29" transform="translate(318.115234 0)"/>
    </g>
   </g>
  </g>
  <g id="axes_1">
   <g id="Poly3DCollection_1">
    <path d="M 151.166081 223.717445 
L 238.982173 249.641585 
L 240.230462 111.500074 
L 149.087022 87.578693 
z
" clip-path="url(#pe7bc65bc4d)" style="fill: #2980b9; fill-opacity: 0.25; stroke: #1a5276; stroke-width: 0.8"/>
    <path d="M 71.309115 290.85293 
L 162.268011 319.73695 
L 238.982173 249.641585 
L 151.166081 223.717445 
z
" clip-path="url(#pe7bc65bc4d)" style="fill: #2980b9; fill-opacity: 0.25; stroke: #1a5276; stroke-width: 0.8"/>
    <path d="M 71.309115 290.85293 
L 151.166081 223.717445 
L 149.087022 87.578693 
L 65.938592 149.606321 
z
" clip-path="url(#pe7bc65bc4d)" style="fill: #2980b9; fill-opacity: 0.25; stroke: #1a5276; stroke-width: 0.8"/>
    <path d="M 162.268011 319.73695 
L 238.982173 249.641585 
L 240.230462 111.500074 
L 160.470339 176.371792 
z
" clip-path="url(#pe7bc65bc4d)" style="fill: #2980b9; fill-opacity: 0.25; stroke: #1a5276; stroke-width: 0.8"/>
    <path d="M 65.938592 149.606321 
L 160.470339 176.371792 
L 240.230462 111.500074 
L 149.087022 87.578693 
z
" clip-path="url(#pe7bc65bc4d)" style="fill: #2980b9; fill-opacity: 0.25; stroke: #1a5276; stroke-width: 0.8"/>
    <path d="M 71.309115 290.85293 
L 162.268011 319.73695 
L 160.470339 176.371792 
L 65.938592 149.606321 
z
" clip-path="url(#pe7bc65bc4d)" style="fill: #2980b9; fill-opacity: 0.25; stroke: #1a5276; stroke-width: 0.8"/>
   </g>
   <g id="text_31">
    <!-- Volumetric butt joint with V-groove weld metal -->
    <g transform="translate(15.842813 17.837812) scale(0.14 -0.14)">
     <defs>
      <path id="DejaVuSans-Bold-56" d="M 31 4666 
L 1241 4666 
L 2478 1222 
L 3713 4666 
L 4922 4666 
L 3194 0 
L 1759 0 
L 31 4666 
z
" transform="scale(0.015625)"/>
      <path id="DejaVuSans-Bold-6f" d="M 2203 2784 
Q 1831 2784 1636 2517 
Q 1441 2250 1441 1747 
Q 1441 1244 1636 976 
Q 1831 709 2203 709 
Q 2569 709 2762 976 
Q 2956 1244 2956 1747 
Q 2956 2250 2762 2517 
Q 2569 2784 2203 2784 
z
M 2203 3584 
Q 3106 3584 3614 3096 
Q 4122 2609 4122 1747 
Q 4122 884 3614 396 
Q 3106 -91 2203 -91 
Q 1297 -91 786 396 
Q 275 884 275 1747 
Q 275 2609 786 3096 
Q 1297 3584 2203 3584 
z
" transform="scale(0.015625)"/>
      <path id="DejaVuSans-Bold-6c" d="M 538 4863 
L 1656 4863 
L 1656 0 
L 538 0 
L 538 4863 
z
" transform="scale(0.015625)"/>
      <path id="DejaVuSans-Bold-75" d="M 500 1363 
L 500 3500 
L 1625 3500 
L 1625 3150 
Q 1625 2866 1622 2436 
Q 1619 2006 1619 1863 
Q 1619 1441 1641 1255 
Q 1663 1069 1716 984 
Q 1784 875 1895 815 
Q 2006 756 2150 756 
Q 2500 756 2700 1025 
Q 2900 1294 2900 1772 
L 2900 3500 
L 4019 3500 
L 4019 0 
L 2900 0 
L 2900 506 
Q 2647 200 2364 54 
Q 2081 -91 1741 -91 
Q 1134 -91 817 281 
Q 500 653 500 1363 
z
" transform="scale(0.015625)"/>
      <path id="DejaVuSans-Bold-6d" d="M 3781 2919 
Q 3994 3244 4286 3414 
Q 4578 3584 4928 3584 
Q 5531 3584 5847 3212 
Q 6163 2841 6163 2131 
L 6163 0 
L 5038 0 
L 5038 1825 
Q 5041 1866 5042 1909 
Q 5044 1953 5044 2034 
Q 5044 2406 4934 2573 
Q 4825 2741 4581 2741 
Q 4263 2741 4089 2478 
Q 3916 2216 3909 1719 
L 3909 0 
L 2784 0 
L 2784 1825 
Q 2784 2406 2684 2573 
Q 2584 2741 2328 2741 
Q 2006 2741 1831 2477 
Q 1656 2213 1656 1722 
L 1656 0 
L 531 0 
L 531 3500 
L 1656 3500 
L 1656 2988 
Q 1863 3284 2130 3434 
Q 2397 3584 2719 3584 
Q 3081 3584 3359 3409 
Q 3638 3234 3781 2919 
z
" transform="scale(0.015625)"/>
      <path id="DejaVuSans-Bold-65" d="M 4031 1759 
L 4031 1441 
L 1416 1441 
Q 1456 1047 1700 850 
Q 1944 653 2381 653 
Q 2734 653 3104 758 
Q 3475 863 3866 1075 
L 3866 213 
Q 3469 63 3072 -14 
Q 2675 -91 2278 -91 
Q 1328 -91 801 392 
Q 275 875 275 1747 
Q 275 2603 792 3093 
Q 1309 3584 2216 3584 
Q 3041 3584 3536 3087 
Q 4031 2591 4031 1759 
z
M 2881 2131 
Q 2881 2450 2695 2645 
Q 2509 2841 2209 2841 
Q 1884 2841 1681 2658 
Q 1478 2475 1428 2131 
L 2881 2131 
z
" transform="scale(0.015625)"/>
      <path id="DejaVuSans-Bold-74" d="M 1759 4494 
L 1759 3500 
L 2913 3500 
L 2913 2700 
L 1759 2700 
L 1759 1216 
Q 1759 972 1856 886 
Q 1953 800 2241 800 
L 2816 800 
L 2816 0 
L 1856 0 
Q 1194 0 917 276 
Q 641 553 641 1216 
L 641 2700 
L 84 2700 
L 84 3500 
L 641 3500 
L 641 4494 
L 1759 4494 
z
" transform="scale(0.015625)"/>
      <path id="DejaVuSans-Bold-72" d="M 3138 2547 
Q 2991 2616 2845 2648 
Q 2700 2681 2553 2681 
Q 2122 2681 1889 2404 
Q 1656 2128 1656 1613 
L 1656 0 
L 538 0 
L 538 3500 
L 1656 3500 
L 1656 2925 
Q 1872 3269 2151 3426 
Q 2431 3584 2822 3584 
Q 2878 3584 2943 3579 
Q 3009 3575 3134 3559 
L 3138 2547 
z
" transform="scale(0.015625)"/>
      <path id="DejaVuSans-Bold-69" d="M 538 3500 
L 1656 3500 
L 1656 0 
L 538 0 
L 538 3500 
z
M 538 4863 
L 1656 4863 
L 1656 3950 
L 538 3950 
L 538 4863 
z
" transform="scale(0.015625)"/>
      <path id="DejaVuSans-Bold-63" d="M 3366 3391 
L 3366 2478 
Q 3138 2634 2908 2709 
Q 2678 2784 2431 2784 
Q 1963 2784 1702 2511 
Q 1441 2238 1441 1747 
Q 1441 1256 1702 982 
Q 1963 709 2431 709 
Q 2694 709 2930 787 
Q 3166 866 3366 1019 
L 3366 103 
Q 3103 6 2833 -42 
Q 2563 -91 2291 -91 
Q 1344 -91 809 395 
Q 275 881 275 1747 
Q 275 2613 809 3098 
Q 1344 3584 2291 3584 
Q 2566 3584 2833 3536 
Q 3100 3488 3366 3391 
z
" transform="scale(0.015625)"/>
      <path id="DejaVuSans-Bold-20" transform="scale(0.015625)"/>
      <path id="DejaVuSans-Bold-62" d="M 2400 722 
Q 2759 722 2948 984 
Q 3138 1247 3138 1747 
Q 3138 2247 2948 2509 
Q 2759 2772 2400 2772 
Q 2041 2772 1848 2508 
Q 1656 2244 1656 1747 
Q 1656 1250 1848 986 
Q 2041 722 2400 722 
z
M 1656 2988 
Q 1888 3294 2169 3439 
Q 2450 3584 2816 3584 
Q 3463 3584 3878 3070 
Q 4294 2556 4294 1747 
Q 4294 938 3878 423 
Q 3463 -91 2816 -91 
Q 2450 -91 2169 54 
Q 1888 200 1656 506 
L 1656 0 
L 538 0 
L 538 4863 
L 1656 4863 
L 1656 2988 
z
" transform="scale(0.015625)"/>
      <path id="DejaVuSans-Bold-6a" d="M 538 3500 
L 1656 3500 
L 1656 63 
Q 1656 -641 1318 -1011 
Q 981 -1381 341 -1381 
L -213 -1381 
L -213 -647 
L -19 -647 
Q 300 -647 419 -503 
Q 538 -359 538 63 
L 538 3500 
z
M 538 4863 
L 1656 4863 
L 1656 3950 
L 538 3950 
L 538 4863 
z
" transform="scale(0.015625)"/>
      <path id="DejaVuSans-Bold-6e" d="M 4056 2131 
L 4056 0 
L 2931 0 
L 2931 347 
L 2931 1631 
Q 2931 2084 2911 2256 
Q 2891 2428 2841 2509 
Q 2775 2619 2662 2680 
Q 2550 2741 2406 2741 
Q 2056 2741 1856 2470 
Q 1656 2200 1656 1722 
L 1656 0 
L 538 0 
L 538 3500 
L 1656 3500 
L 1656 2988 
Q 1909 3294 2193 3439 
Q 2478 3584 2822 3584 
Q 3428 3584 3742 3212 
Q 4056 2841 4056 2131 
z
" transform="scale(0.015625)"/>
      <path id="DejaVuSans-Bold-77" d="M 225 3500 
L 1313 3500 
L 1900 1088 
L 2491 3500 
L 3425 3500 
L 4013 1113 
L 4603 3500 
L 5691 3500 
L 4769 0 
L 3547 0 
L 2956 2406 
L 2369 0 
L 1147 0 
L 225 3500 
z
" transform="scale(0.015625)"/>
      <path id="DejaVuSans-Bold-68" d="M 4056 2131 
L 4056 0 
L 2931 0 
L 2931 347 
L 2931 1625 
Q 2931 2084 2911 2256 
Q 2891 2428 2841 2509 
Q 2775 2619 2662 2680 
Q 2550 2741 2406 2741 
Q 2056 2741 1856 2470 
Q 1656 2200 1656 1722 
L 1656 0 
L 538 0 
L 538 4863 
L 1656 4863 
L 1656 2988 
Q 1909 3294 2193 3439 
Q 2478 3584 2822 3584 
Q 3428 3584 3742 3212 
Q 4056 2841 4056 2131 
z
" transform="scale(0.015625)"/>
      <path id="DejaVuSans-Bold-2d" d="M 347 2297 
L 2309 2297 
L 2309 1388 
L 347 1388 
L 347 2297 
z
" transform="scale(0.015625)"/>
      <path id="DejaVuSans-Bold-67" d="M 2919 594 
Q 2688 288 2409 144 
Q 2131 0 1766 0 
Q 1125 0 706 504 
Q 288 1009 288 1791 
Q 288 2575 706 3076 
Q 1125 3578 1766 3578 
Q 2131 3578 2409 3434 
Q 2688 3291 2919 2981 
L 2919 3500 
L 4044 3500 
L 4044 353 
Q 4044 -491 3511 -936 
Q 2978 -1381 1966 -1381 
Q 1638 -1381 1331 -1331 
Q 1025 -1281 716 -1178 
L 716 -306 
Q 1009 -475 1290 -558 
Q 1572 -641 1856 -641 
Q 2406 -641 2662 -400 
Q 2919 -159 2919 353 
L 2919 594 
z
M 2181 2772 
Q 1834 2772 1640 2515 
Q 1447 2259 1447 1791 
Q 1447 1309 1634 1061 
Q 1822 813 2181 813 
Q 2531 813 2725 1069 
Q 2919 1325 2919 1791 
Q 2919 2259 2725 2515 
Q 2531 2772 2181 2772 
z
" transform="scale(0.015625)"/>
      <path id="DejaVuSans-Bold-76" d="M 97 3500 
L 1216 3500 
L 2088 1081 
L 2956 3500 
L 4078 3500 
L 2700 0 
L 1472 0 
L 97 3500 
z
" transform="scale(0.015625)"/>
      <path id="DejaVuSans-Bold-64" d="M 2919 2988 
L 2919 4863 
L 4044 4863 
L 4044 0 
L 2919 0 
L 2919 506 
Q 2688 197 2409 53 
Q 2131 -91 1766 -91 
Q 1119 -91 703 423 
Q 288 938 288 1747 
Q 288 2556 703 3070 
Q 1119 3584 1766 3584 
Q 2128 3584 2408 3439 
Q 2688 3294 2919 2988 
z
M 2181 722 
Q 2541 722 2730 984 
Q 2919 1247 2919 1747 
Q 2919 2247 2730 2509 
Q 2541 2772 2181 2772 
Q 1825 2772 1636 2509 
Q 1447 2247 1447 1747 
Q 1447 1247 1636 984 
Q 1825 722 2181 722 
z
" transform="scale(0.015625)"/>
      <path id="DejaVuSans-Bold-61" d="M 2106 1575 
Q 1756 1575 1579 1456 
Q 1403 1338 1403 1106 
Q 1403 894 1545 773 
Q 1688 653 1941 653 
Q 2256 653 2472 879 
Q 2688 1106 2688 1447 
L 2688 1575 
L 2106 1575 
z
M 3816 1997 
L 3816 0 
L 2688 0 
L 2688 519 
Q 2463 200 2181 54 
Q 1900 -91 1497 -91 
Q 953 -91 614 226 
Q 275 544 275 1050 
Q 275 1666 698 1953 
Q 1122 2241 2028 2241 
L 2688 2241 
L 2688 2328 
Q 2688 2594 2478 2717 
Q 2269 2841 1825 2841 
Q 1466 2841 1156 2769 
Q 847 2697 581 2553 
L 581 3406 
Q 941 3494 1303 3539 
Q 1666 3584 2028 3584 
Q 2975 3584 3395 3211 
Q 3816 2838 3816 1997 
z
" transform="scale(0.015625)"/>
     </defs>
     <use xlink:href="#DejaVuSans-Bold-56"/>
     <use xlink:href="#DejaVuSans-Bold-6f" transform="translate(71.892578 0)"/>
     <use xlink:href="#DejaVuSans-Bold-6c" transform="translate(140.59375 0)"/>
     <use xlink:href="#DejaVuSans-Bold-75" transform="translate(174.871094 0)"/>
     <use xlink:href="#DejaVuSans-Bold-6d" transform="translate(246.0625 0)"/>
     <use xlink:href="#DejaVuSans-Bold-65" transform="translate(350.261719 0)"/>
     <use xlink:href="#DejaVuSans-Bold-74" transform="translate(418.083984 0)"/>
     <use xlink:href="#DejaVuSans-Bold-72" transform="translate(465.886719 0)"/>
     <use xlink:href="#DejaVuSans-Bold-69" transform="translate(515.203125 0)"/>
     <use xlink:href="#DejaVuSans-Bold-63" transform="translate(549.480469 0)"/>
     <use xlink:href="#DejaVuSans-Bold-20" transform="translate(608.757812 0)"/>
     <use xlink:href="#DejaVuSans-Bold-62" transform="translate(643.572266 0)"/>
     <use xlink:href="#DejaVuSans-Bold-75" transform="translate(715.154297 0)"/>
     <use xlink:href="#DejaVuSans-Bold-74" transform="translate(786.345703 0)"/>
     <use xlink:href="#DejaVuSans-Bold-74" transform="translate(834.148438 0)"/>
     <use xlink:href="#DejaVuSans-Bold-20" transform="translate(881.951172 0)"/>
     <use xlink:href="#DejaVuSans-Bold-6a" transform="translate(916.765625 0)"/>
     <use xlink:href="#DejaVuSans-Bold-6f" transform="translate(951.042969 0)"/>
     <use xlink:href="#DejaVuSans-Bold-69" transform="translate(1019.744141 0)"/>
     <use xlink:href="#DejaVuSans-Bold-6e" transform="translate(1054.021484 0)"/>
     <use xlink:href="#DejaVuSans-Bold-74" transform="translate(1125.212891 0)"/>
     <use xlink:href="#DejaVuSans-Bold-20" transform="translate(1173.015625 0)"/>
     <use xlink:href="#DejaVuSans-Bold-77" transform="translate(1207.830078 0)"/>
     <use xlink:href="#DejaVuSans-Bold-69" transform="translate(1300.212891 0)"/>
     <use xlink:href="#DejaVuSans-Bold-74" transform="translate(1334.490234 0)"/>
     <use xlink:href="#DejaVuSans-Bold-68" transform="translate(1382.292969 0)"/>
     <use xlink:href="#DejaVuSans-Bold-20" transform="translate(1453.484375 0)"/>
     <use xlink:href="#DejaVuSans-Bold-56" transform="translate(1488.298828 0)"/>
     <use xlink:href="#DejaVuSans-Bold-2d" transform="translate(1558.441406 0)"/>
     <use xlink:href="#DejaVuSans-Bold-67" transform="translate(1599.945312 0)"/>
     <use xlink:href="#DejaVuSans-Bold-72" transform="translate(1671.527344 0)"/>
     <use xlink:href="#DejaVuSans-Bold-6f" transform="translate(1720.84375 0)"/>
     <use xlink:href="#DejaVuSans-Bold-6f" transform="translate(1789.544922 0)"/>
     <use xlink:href="#DejaVuSans-Bold-76" transform="translate(1858.246094 0)"/>
     <use xlink:href="#DejaVuSans-Bold-65" transform="translate(1923.431641 0)"/>
     <use xlink:href="#DejaVuSans-Bold-20" transform="translate(1991.253906 0)"/>
     <use xlink:href="#DejaVuSans-Bold-77" transform="translate(2026.068359 0)"/>
     <use xlink:href="#DejaVuSans-Bold-65" transform="translate(2118.451172 0)"/>
     <use xlink:href="#DejaVuSans-Bold-6c" transform="translate(2186.273438 0)"/>
     <use xlink:href="#DejaVuSans-Bold-64" transform="translate(2220.550781 0)"/>
     <use xlink:href="#DejaVuSans-Bold-20" transform="translate(2292.132812 0)"/>
     <use xlink:href="#DejaVuSans-Bold-6d" transform="translate(2326.947266 0)"/>
     <use xlink:href="#DejaVuSans-Bold-65" transform="translate(2431.146484 0)"/>
     <use xlink:href="#DejaVuSans-Bold-74" transform="translate(2498.96875 0)"/>
     <use xlink:href="#DejaVuSans-Bold-61" transform="translate(2546.771484 0)"/>
     <use xlink:href="#DejaVuSans-Bold-6c" transform="translate(2614.251953 0)"/>
    </g>
   </g>
   <g id="Poly3DCollection_2">
    <path d="M 238.982173 249.641585 
L 248.443166 252.434559 
L 259.932542 116.671054 
L 230.447782 108.932525 
z
" clip-path="url(#pe7bc65bc4d)" style="fill: #f39c12; fill-opacity: 0.85; stroke: #e74c3c; stroke-width: 1.4"/>
    <path d="M 162.268011 319.73695 
L 172.080261 322.852832 
L 248.443166 252.434559 
L 238.982173 249.641585 
z
" clip-path="url(#pe7bc65bc4d)" style="fill: #f39c12; fill-opacity: 0.85; stroke: #e74c3c; stroke-width: 1.4"/>
    <path d="M 162.268011 319.73695 
L 238.982173 249.641585 
L 230.447782 108.932525 
L 150.312576 173.49575 
z
" clip-path="url(#pe7bc65bc4d)" style="fill: #f39c12; fill-opacity: 0.85; stroke: #e74c3c; stroke-width: 1.4"/>
    <path d="M 172.080261 322.852832 
L 248.443166 252.434559 
L 259.932542 116.671054 
L 180.936164 182.166432 
z
" clip-path="url(#pe7bc65bc4d)" style="fill: #f39c12; fill-opacity: 0.85; stroke: #e74c3c; stroke-width: 1.4"/>
    <path d="M 150.312576 173.49575 
L 180.936164 182.166432 
L 259.932542 116.671054 
L 230.447782 108.932525 
z
" clip-path="url(#pe7bc65bc4d)" style="fill: #f39c12; fill-opacity: 0.85; stroke: #e74c3c; stroke-width: 1.4"/>
    <path d="M 162.268011 319.73695 
L 172.080261 322.852832 
L 180.936164 182.166432 
L 150.312576 173.49575 
z
" clip-path="url(#pe7bc65bc4d)" style="fill: #f39c12; fill-opacity: 0.85; stroke: #e74c3c; stroke-width: 1.4"/>
   </g>
   <g id="Poly3DCollection_3">
    <path d="M 248.443166 252.434559 
L 340.480275 279.604783 
L 345.755674 139.196074 
L 250.058609 114.079556 
z
" clip-path="url(#pe7bc65bc4d)" style="fill: #2980b9; fill-opacity: 0.25; stroke: #1a5276; stroke-width: 0.8"/>
    <path d="M 172.080261 322.852832 
L 267.6633 353.20525 
L 340.480275 279.604783 
L 248.443166 252.434559 
z
" clip-path="url(#pe7bc65bc4d)" style="fill: #2980b9; fill-opacity: 0.25; stroke: #1a5276; stroke-width: 0.8"/>
    <path d="M 172.080261 322.852832 
L 248.443166 252.434559 
L 250.058609 114.079556 
L 170.678078 179.261985 
z
" clip-path="url(#pe7bc65bc4d)" style="fill: #2980b9; fill-opacity: 0.25; stroke: #1a5276; stroke-width: 0.8"/>
    <path d="M 267.6633 353.20525 
L 340.480275 279.604783 
L 345.755674 139.196074 
L 270.216396 207.445003 
z
" clip-path="url(#pe7bc65bc4d)" style="fill: #2980b9; fill-opacity: 0.25; stroke: #1a5276; stroke-width: 0.8"/>
    <path d="M 170.678078 179.261985 
L 270.216396 207.445003 
L 345.755674 139.196074 
L 250.058609 114.079556 
z
" clip-path="url(#pe7bc65bc4d)" style="fill: #2980b9; fill-opacity: 0.25; stroke: #1a5276; stroke-width: 0.8"/>
    <path d="M 172.080261 322.852832 
L 267.6633 353.20525 
L 270.216396 207.445003 
L 170.678078 179.261985 
z
" clip-path="url(#pe7bc65bc4d)" style="fill: #2980b9; fill-opacity: 0.25; stroke: #1a5276; stroke-width: 0.8"/>
   </g>
  </g>
 </g>
 <defs>
  <clipPath id="pe7bc65bc4d">
   <rect x="7.2" y="23.837812" width="388.08" height="388.08"/>
  </clipPath>
 </defs>
</svg>
